<svg xmlns="http://www.w3.org/2000/svg" viewBox="0 0 417.11 82.8"><defs><style>.cls-1{fill:#31a8ff;}.cls-2{fill:#001e36;}</style></defs><title>Asset 3</title><g id="Layer_2" data-name="Layer 2"><g id="Layer_1-2" data-name="Layer 1"><rect class="cls-1" width="417.11" height="82.8" rx="14.4"/><path class="cls-2" d="M96.58,27.09h4l9.54,28.22h-3.8l-4.92-15.76c-1-3.15-1.92-6.25-2.83-9.51h-.17c-.87,3.27-1.78,6.36-2.79,9.51l-5,15.76H87ZM92.05,43.85h13v2.87h-13Z"/><path class="cls-2" d="M112.34,44.89c0-6.78,4.28-11,9-11a8.58,8.58,0,0,1,5.86,2.43l-.15-3.59v-8h3.53V55.31h-2.92l-.3-2.46h-.12a9.25,9.25,0,0,1-6.34,3C115.73,55.83,112.34,51.85,112.34,44.89ZM127.1,50V39a7.41,7.41,0,0,0-5.1-2.17c-3.34,0-6,3.23-6,8,0,5,2.07,8,5.74,8C123.67,52.85,125.34,51.91,127.1,50Z"/><path class="cls-2" d="M136.15,44.89c0-7,4.56-11,9.68-11s9.69,4,9.69,11S151,55.83,145.83,55.83,136.15,51.81,136.15,44.89Zm15.71,0c0-4.79-2.43-8-6-8s-6,3.26-6,8,2.44,8,6,8S151.86,49.68,151.86,44.89Z"/><path class="cls-2" d="M164.11,53.15H164l-.33,2.16h-2.83V24.68h3.54v8.38l-.12,3.75a10.57,10.57,0,0,1,6.57-2.92c5.4,0,8.3,4.2,8.3,10.64,0,7.14-4.28,11.3-9.05,11.3A9.3,9.3,0,0,1,164.11,53.15Zm11.36-8.57c0-4.62-1.58-7.71-5.51-7.71-1.77,0-3.61,1-5.59,2.85v11a8,8,0,0,0,5.09,2.17C172.92,52.85,175.47,49.74,175.47,44.58Z"/><path class="cls-2" d="M183.06,44.89c0-6.8,4.58-11,9.39-11,5.34,0,8.35,3.83,8.35,9.81a11.25,11.25,0,0,1-.17,2H186.55c.26,4.43,3,7.3,6.95,7.3a9.17,9.17,0,0,0,5.2-1.67L200,53.66a12.31,12.31,0,0,1-6.91,2.17C187.49,55.83,183.06,51.76,183.06,44.89Zm14.61-1.71c0-4.19-1.88-6.47-5.15-6.47-2.94,0-5.57,2.36-6,6.47Z"/><path class="cls-2" d="M214.87,27.09h8.06c6.32,0,10.59,2.13,10.59,8.31,0,5.94-4.25,8.72-10.42,8.72h-4.64V55.31h-3.59Zm7.78,14.12c4.93,0,7.29-1.79,7.29-5.81s-2.51-5.4-7.46-5.4h-4V41.21Z"/><path class="cls-2" d="M238.88,24.68h3.53v8.38l-.12,4.29c2-1.88,4.07-3.46,6.94-3.46,4.4,0,6.38,2.85,6.38,8.18V55.31h-3.54V42.53c0-3.9-1.18-5.56-3.94-5.56-2.14,0-3.62,1.09-5.72,3.21V55.31h-3.53Z"/><path class="cls-2" d="M260.71,44.89c0-7,4.57-11,9.69-11s9.69,4,9.69,11-4.57,10.94-9.69,10.94S260.71,51.81,260.71,44.89Zm15.72,0c0-4.79-2.44-8-6-8s-6,3.26-6,8,2.44,8,6,8S276.43,49.68,276.43,44.89Z"/><path class="cls-2" d="M285.46,48.85V37.29h-3.11V34.61l3.27-.2.43-5.86H289v5.86h5.66v2.88H289V48.91c0,2.56.82,4,3.23,4a7,7,0,0,0,2.38-.56l.69,2.67a12.93,12.93,0,0,1-3.88.77C287,55.83,285.46,53,285.46,48.85Z"/><path class="cls-2" d="M297.22,44.89c0-7,4.56-11,9.69-11s9.68,4,9.68,11S312,55.83,306.91,55.83,297.22,51.81,297.22,44.89Zm15.72,0c0-4.79-2.44-8-6-8s-6,3.26-6,8,2.43,8,6,8S312.94,49.68,312.94,44.89Z"/><path class="cls-2" d="M319.68,52.93l1.74-2.33a9.44,9.44,0,0,0,6.17,2.47c2.75,0,4.11-1.46,4.11-3.24,0-2.15-2.47-3.1-4.78-4-2.93-1.07-6.23-2.52-6.23-6,0-3.35,2.67-5.94,7.2-5.94a10.6,10.6,0,0,1,6.5,2.35l-1.69,2.27a7.9,7.9,0,0,0-4.76-1.86c-2.64,0-3.85,1.4-3.85,3,0,2,2.27,2.74,4.64,3.62,3,1.14,6.37,2.37,6.37,6.35,0,3.38-2.69,6.21-7.63,6.21A12.55,12.55,0,0,1,319.68,52.93Z"/><path class="cls-2" d="M340,24.68h3.54v8.38l-.13,4.29c1.95-1.88,4.07-3.46,6.94-3.46,4.4,0,6.38,2.85,6.38,8.18V55.31H353.2V42.53c0-3.9-1.17-5.56-3.94-5.56-2.14,0-3.62,1.09-5.71,3.21V55.31H340Z"/><path class="cls-2" d="M361.85,44.89c0-7,4.56-11,9.68-11s9.69,4,9.69,11-4.56,10.94-9.69,10.94S361.85,51.81,361.85,44.89Zm15.72,0c0-4.79-2.44-8-6-8s-6,3.26-6,8,2.44,8,6,8S377.57,49.68,377.57,44.89Z"/><path class="cls-2" d="M386.71,34.41h2.92l.3,2.41h.12c1.89-1.57,4.24-2.93,6.66-2.93,5.4,0,8.29,4.2,8.29,10.66,0,7.12-4.28,11.28-9.06,11.28a9.48,9.48,0,0,1-5.79-2.42l.09,3.65v7.07h-3.53Zm14.63,10.17c0-4.62-1.57-7.71-5.51-7.71-1.77,0-3.55,1-5.59,2.85v11a8.17,8.17,0,0,0,5.09,2.17C398.79,52.85,401.34,49.74,401.34,44.58Z"/><g id="Surfaces"><g id="Photo_Surface" data-name="Photo Surface"><g id="Outline_no_shadow" data-name="Outline no shadow"><rect class="cls-2" x="15" y="12.65" width="58.95" height="57.48" rx="10.44"/></g></g></g><g id="Outlined_Mnemonics_Logos" data-name="Outlined Mnemonics Logos"><g id="Ps"><path class="cls-1" d="M28.28,53V27.69c0-.18.08-.28.24-.28.42,0,.8,0,1.38,0l1.88,0,2.14,0,2.23,0a14.86,14.86,0,0,1,5.06.76,8.68,8.68,0,0,1,3.31,2,7.93,7.93,0,0,1,1.8,2.79A9.33,9.33,0,0,1,46.87,36a8.87,8.87,0,0,1-1.46,5.23,8.37,8.37,0,0,1-4,3,15.76,15.76,0,0,1-5.54.83l-1.22,0-1.07,0v7.89a.32.32,0,0,1-.27.36H28.56C28.37,53.28,28.28,53.17,28.28,53Zm5.34-20.8V40.4c.34,0,.66,0,1,0h1.3A9.06,9.06,0,0,0,38.7,40a4.21,4.21,0,0,0,2-1.31,3.8,3.8,0,0,0,.77-2.53A4,4,0,0,0,40.92,34a3.7,3.7,0,0,0-1.72-1.41,7.49,7.49,0,0,0-2.89-.49l-1.68,0a8.44,8.44,0,0,0-1,.06Z"/><path class="cls-1" d="M62.16,38.9a9.26,9.26,0,0,0-2.35-.83,12.74,12.74,0,0,0-2.75-.31,4.92,4.92,0,0,0-1.48.17,1.36,1.36,0,0,0-.78.5,1.3,1.3,0,0,0-.19.67,1,1,0,0,0,.23.63,2.78,2.78,0,0,0,.83.66q.86.45,1.74.81A17,17,0,0,1,61.19,43a5.64,5.64,0,0,1,1.94,2,5.45,5.45,0,0,1,.57,2.53,5.68,5.68,0,0,1-1,3.27A6.16,6.16,0,0,1,60,53a11,11,0,0,1-4.44.79,16.32,16.32,0,0,1-3.35-.31,11.09,11.09,0,0,1-2.51-.79.53.53,0,0,1-.27-.48V48a.23.23,0,0,1,.09-.22.2.2,0,0,1,.22,0,10.57,10.57,0,0,0,3,1.21,12.7,12.7,0,0,0,2.88.37,4.53,4.53,0,0,0,2-.35,1.12,1.12,0,0,0,.65-1,1.3,1.3,0,0,0-.59-1,9.81,9.81,0,0,0-2.41-1.15A14.43,14.43,0,0,1,51.86,44,5.87,5.87,0,0,1,50,42a5.34,5.34,0,0,1-.57-2.51,5.55,5.55,0,0,1,.83-3,6,6,0,0,1,2.57-2.25,9.68,9.68,0,0,1,4.35-.87,19.34,19.34,0,0,1,3,.21,8.13,8.13,0,0,1,2.12.58.36.36,0,0,1,.24.21,1,1,0,0,1,0,.3v4a.27.27,0,0,1-.12.23A.34.34,0,0,1,62.16,38.9Z"/></g></g></g></g></svg>