<svg xmlns="http://www.w3.org/2000/svg" viewBox="0 0 434.88 82.8"><defs><style>.cls-1{fill:#99f;}.cls-2{fill:#00005b;}</style></defs><title>Asset 1</title><g id="Layer_2" data-name="Layer 2"><g id="Layer_1-2" data-name="Layer 1"><rect class="cls-1" width="434.88" height="82.8" rx="14.4"/><g id="Surfaces"><g id="Video_Audio_Surface" data-name="Video Audio Surface"><g id="Outline_no_shadow" data-name="Outline no shadow"><rect class="cls-2" x="14.87" y="12.9" width="58.77" height="57.3" rx="10.41"/></g></g></g><g id="Outlined_Mnemonics_Logos" data-name="Outlined Mnemonics Logos"><g id="Ae"><path class="cls-1" d="M38.47,47.18h-9.1L27.51,53a.44.44,0,0,1-.47.35H22.43c-.26,0-.36-.14-.28-.43L30,30.26a8,8,0,0,0,.23-.77,7.82,7.82,0,0,0,.16-1.6.24.24,0,0,1,.21-.27.08.08,0,0,1,.07,0H37c.18,0,.28.06.31.19l9,25.1c.08.26,0,.4-.24.39H40.88a.36.36,0,0,1-.4-.27Zm-7.68-4.86H37c-.16-.52-.35-1.12-.56-1.77l-.67-2.11c-.23-.75-.47-1.5-.71-2.25s-.45-1.47-.65-2.17l-.53-1.91h0A30.37,30.37,0,0,1,33,35.26c-.36,1.19-.74,2.4-1.12,3.63S31.15,41.27,30.79,42.32Z"/><path class="cls-1" d="M60.75,44.94H53a5.56,5.56,0,0,0,.75,2.17,4,4,0,0,0,1.79,1.48,7.36,7.36,0,0,0,3.14.61,13.62,13.62,0,0,0,2.54-.28,9.3,9.3,0,0,0,2.19-.57c.13-.1.19,0,.19.2V52.3a.49.49,0,0,1-.06.29.58.58,0,0,1-.17.18,9.94,9.94,0,0,1-2.44.73,17.61,17.61,0,0,1-3.47.29,11.44,11.44,0,0,1-4.7-.86,8.47,8.47,0,0,1-3.07-2.33A9.2,9.2,0,0,1,48,47.39a12.69,12.69,0,0,1,.1-7.45,10.16,10.16,0,0,1,1.84-3.35,8.7,8.7,0,0,1,3-2.33,9.22,9.22,0,0,1,4.1-.77,8.91,8.91,0,0,1,3.81.75,6.78,6.78,0,0,1,2.58,1.95A8.92,8.92,0,0,1,64.81,39a9.85,9.85,0,0,1,.47,3c0,.57,0,1.1-.06,1.57s-.07.82-.1,1a.35.35,0,0,1-.35.31q-.24,0-.81.06c-.38,0-.85.07-1.42.08S61.38,44.94,60.75,44.94ZM53,41.35h5.17l1.4,0a1.48,1.48,0,0,0,.57-.19V40.9A3,3,0,0,0,60,40a3.21,3.21,0,0,0-3.19-2.25,3.43,3.43,0,0,0-3.26,1.85A5.63,5.63,0,0,0,53,41.35Z"/></g></g><path class="cls-2" d="M96.58,27.09h4l9.54,28.22h-3.8l-4.92-15.76c-1-3.15-1.92-6.25-2.83-9.51h-.17c-.87,3.27-1.78,6.36-2.79,9.51l-5,15.76H87ZM92.05,43.85h13v2.87h-13Z"/><path class="cls-2" d="M112.34,44.89c0-6.78,4.28-11,9-11a8.57,8.57,0,0,1,5.86,2.42l-.15-3.59v-8h3.53V55.31h-2.92l-.3-2.46h-.12a9.25,9.25,0,0,1-6.34,3C115.73,55.83,112.34,51.86,112.34,44.89ZM127.1,50V39a7.42,7.42,0,0,0-5.1-2.17c-3.34,0-6,3.23-6,8,0,5,2.07,8,5.74,8C123.67,52.85,125.34,51.91,127.1,50Z"/><path class="cls-2" d="M136.15,44.89c0-7,4.56-11,9.68-11s9.69,4,9.69,11S151,55.83,145.83,55.83,136.15,51.81,136.15,44.89Zm15.71,0c0-4.79-2.43-8-6-8s-6,3.26-6,8,2.44,8,6,8S151.86,49.68,151.86,44.89Z"/><path class="cls-2" d="M164.11,53.15H164l-.33,2.16h-2.83V24.68h3.54v8.38l-.12,3.75a10.56,10.56,0,0,1,6.57-2.91c5.4,0,8.3,4.19,8.3,10.63,0,7.14-4.28,11.3-9.05,11.3A9.3,9.3,0,0,1,164.11,53.15Zm11.36-8.57c0-4.62-1.58-7.71-5.51-7.71-1.77,0-3.61,1-5.59,2.85v11a8,8,0,0,0,5.09,2.17C172.92,52.85,175.47,49.74,175.47,44.58Z"/><path class="cls-2" d="M183.06,44.89c0-6.8,4.58-11,9.39-11,5.33,0,8.35,3.82,8.35,9.8a11.25,11.25,0,0,1-.17,2H186.55c.26,4.43,3,7.3,6.95,7.3a9.17,9.17,0,0,0,5.2-1.67L200,53.66a12.31,12.31,0,0,1-6.91,2.17C187.49,55.83,183.06,51.76,183.06,44.89Zm14.61-1.71c0-4.19-1.88-6.47-5.15-6.47-2.94,0-5.57,2.36-6,6.47Z"/><path class="cls-2" d="M220.67,27.09h4.05l9.55,28.22h-3.8l-4.92-15.76c-1-3.15-1.92-6.25-2.83-9.51h-.17c-.88,3.27-1.78,6.36-2.79,9.51l-5,15.76h-3.65Zm-4.53,16.76h13v2.87h-13Z"/><path class="cls-2" d="M249.12,48.85V37.29H235.25V34.61l3-.2h11l.42-5.86h3v5.86h5.67v2.88h-5.67V48.91c0,2.56.83,4,3.24,4a7,7,0,0,0,2.38-.56l.68,2.67a12.8,12.8,0,0,1-3.88.77C250.62,55.83,249.12,53,249.12,48.85Zm-11-17.74c0-4.25,1.94-6.95,6.13-6.95a9.23,9.23,0,0,1,3.47.72l-.75,2.7a5.85,5.85,0,0,0-2.37-.54c-2,0-2.94,1.38-2.94,4.08V55.31h-3.54Z"/><path class="cls-2" d="M260.89,44.89c0-6.8,4.58-11,9.39-11,5.33,0,8.34,3.82,8.34,9.8a11.35,11.35,0,0,1-.16,2H264.38c.26,4.43,3,7.3,6.95,7.3a9.17,9.17,0,0,0,5.2-1.67l1.27,2.32a12.31,12.31,0,0,1-6.91,2.17C265.32,55.83,260.89,51.76,260.89,44.89Zm14.61-1.71c0-4.19-1.89-6.47-5.15-6.47-2.94,0-5.57,2.36-6,6.47Z"/><path class="cls-2" d="M283.77,34.41h2.92l.3,3.81h.11c1.46-2.65,3.6-4.32,5.95-4.32a4.78,4.78,0,0,1,2.23.43l-.66,3.1a5.77,5.77,0,0,0-2-.35c-1.76,0-3.87,1.28-5.29,4.81V55.31h-3.53Z"/><path class="cls-2" d="M307.62,27.09h16.26v3H311.21V39H321.9v3H311.21V52.27h13.1v3H307.62Z"/><path class="cls-2" d="M327.69,34.61l3-.2h20.06v2.88H327.69Zm2.84-3c0-4.33,2.16-7.06,6.51-7.06a9.75,9.75,0,0,1,3.83.78l-.74,2.7a6.28,6.28,0,0,0-2.79-.6c-2.08,0-3.27,1.51-3.27,4.26V55.31h-3.54Zm12.26-.54c0-4.25,1.93-6.95,6.12-6.95a9.23,9.23,0,0,1,3.47.72l-.75,2.7a5.8,5.8,0,0,0-2.36-.54c-2,0-2.95,1.38-2.95,4.08V55.31h-3.53Z"/><path class="cls-2" d="M352.78,44.89c0-6.8,4.58-11,9.39-11,5.33,0,8.34,3.82,8.34,9.8a11.35,11.35,0,0,1-.16,2H356.27c.26,4.43,3,7.3,7,7.3a9.17,9.17,0,0,0,5.2-1.67l1.27,2.32a12.31,12.31,0,0,1-6.91,2.17C357.21,55.83,352.78,51.76,352.78,44.89Zm14.61-1.71c0-4.19-1.89-6.47-5.15-6.47-2.94,0-5.57,2.36-6,6.47Z"/><path class="cls-2" d="M374.1,44.89c0-7,4.72-11,10.06-11a8.78,8.78,0,0,1,6.11,2.45l-1.8,2.34a6.07,6.07,0,0,0-4.15-1.85c-3.79,0-6.56,3.26-6.56,8s2.62,8,6.46,8a7.5,7.5,0,0,0,4.91-2.08l1.53,2.37a10.1,10.1,0,0,1-6.75,2.66C378.34,55.83,374.1,51.81,374.1,44.89Z"/><path class="cls-2" d="M395.45,48.85V37.29h-3.11V34.61l3.27-.2.43-5.86H399v5.86h5.66v2.88H399V48.91c0,2.56.82,4,3.23,4a6.9,6.9,0,0,0,2.38-.56l.69,2.67a12.8,12.8,0,0,1-3.88.77C397,55.83,395.45,53,395.45,48.85Z"/><path class="cls-2" d="M406.62,52.93l1.75-2.33a9.41,9.41,0,0,0,6.17,2.47c2.74,0,4.1-1.46,4.1-3.24,0-2.15-2.46-3.1-4.78-4-2.93-1.07-6.23-2.52-6.23-6,0-3.35,2.68-5.93,7.21-5.93a10.62,10.62,0,0,1,6.5,2.34l-1.69,2.27a7.9,7.9,0,0,0-4.77-1.86c-2.63,0-3.85,1.4-3.85,3,0,2,2.27,2.74,4.64,3.62,3,1.14,6.38,2.37,6.38,6.35,0,3.38-2.7,6.21-7.63,6.21A12.58,12.58,0,0,1,406.62,52.93Z"/></g></g></svg>