<svg xmlns="http://www.w3.org/2000/svg" viewBox="0 0 419.46 82.8"><defs><style>.cls-1{fill:#faa744;}.cls-2{fill:#300;}.cls-3{fill:#ff9a00;}</style></defs><title>Asset 45</title><g id="Layer_2" data-name="Layer 2"><g id="Layer_1-2" data-name="Layer 1"><rect class="cls-1" width="419.46" height="82.8" rx="14.4"/><path class="cls-2" d="M110.65,27.09h4l9.54,28.22h-3.8l-4.92-15.76c-1-3.15-1.92-6.25-2.83-9.51h-.17c-.87,3.27-1.78,6.36-2.79,9.51l-5,15.76H101.1Zm-4.53,16.76h13v2.87h-13Z"/><path class="cls-2" d="M126.41,44.89c0-6.78,4.28-11,9.05-11a8.57,8.57,0,0,1,5.86,2.42l-.15-3.59v-8h3.53V55.31h-2.92l-.3-2.46h-.11a9.3,9.3,0,0,1-6.35,3C129.8,55.83,126.41,51.86,126.41,44.89ZM141.17,50v-11a7.38,7.38,0,0,0-5.1-2.18c-3.34,0-6,3.23-6,8,0,5,2.07,8,5.74,8C137.74,52.85,139.41,51.91,141.17,50Z"/><path class="cls-2" d="M150.22,44.89c0-7,4.56-11,9.68-11s9.69,4,9.69,11S165,55.83,159.9,55.83,150.22,51.81,150.22,44.89Zm15.71,0c0-4.79-2.43-8-6-8s-6,3.26-6,8,2.44,8,6,8S165.93,49.68,165.93,44.89Z"/><path class="cls-2" d="M178.18,53.15h-.12l-.33,2.16H174.9V24.68h3.54v8.38l-.12,3.75a10.56,10.56,0,0,1,6.57-2.91c5.4,0,8.3,4.19,8.3,10.63,0,7.14-4.28,11.3-9.05,11.3A9.3,9.3,0,0,1,178.18,53.15Zm11.36-8.57c0-4.62-1.58-7.71-5.51-7.71-1.77,0-3.61,1-5.59,2.85v11a8,8,0,0,0,5.09,2.17C187,52.85,189.54,49.74,189.54,44.58Z"/><path class="cls-2" d="M197.13,44.89c0-6.8,4.58-11,9.39-11,5.34,0,8.35,3.82,8.35,9.8a11.25,11.25,0,0,1-.17,2H200.62c.26,4.43,3,7.3,6.95,7.3a9.15,9.15,0,0,0,5.2-1.67L214,53.66a12.31,12.31,0,0,1-6.91,2.17C201.56,55.83,197.13,51.76,197.13,44.89Zm14.61-1.71c0-4.19-1.88-6.47-5.15-6.47-2.94,0-5.57,2.36-6,6.47Z"/><path class="cls-2" d="M228.94,27.09h3.59V55.31h-3.59Z"/><path class="cls-2" d="M239.92,51.11V24.68h3.53V51.37c0,1.08.47,1.51,1,1.51a3.22,3.22,0,0,0,.77-.08l.48,2.7a5.69,5.69,0,0,1-2,.33C241,55.83,239.92,54.14,239.92,51.11Z"/><path class="cls-2" d="M250.88,51.11V24.68h3.54V51.37c0,1.08.47,1.51,1,1.51a3.27,3.27,0,0,0,.77-.08l.48,2.7a5.71,5.71,0,0,1-2,.33C252,55.83,250.88,54.14,250.88,51.11Z"/><path class="cls-2" d="M261.57,47.65V34.41h3.53V47.2c0,3.89,1.18,5.56,3.94,5.56,2.14,0,3.62-1.06,5.6-3.52V34.41h3.54v20.9h-2.92L275,52h-.12c-1.94,2.28-4,3.79-6.89,3.79C263.54,55.83,261.57,53,261.57,47.65Z"/><path class="cls-2" d="M282.92,52.93l1.75-2.33a9.41,9.41,0,0,0,6.17,2.47c2.74,0,4.1-1.46,4.1-3.24,0-2.15-2.46-3.1-4.78-4-2.93-1.07-6.23-2.52-6.23-6,0-3.35,2.68-5.93,7.21-5.93a10.62,10.62,0,0,1,6.5,2.34L296,38.51a7.9,7.9,0,0,0-4.77-1.86c-2.63,0-3.85,1.4-3.85,3,0,2,2.27,2.74,4.64,3.62,3,1.14,6.37,2.37,6.37,6.35,0,3.39-2.69,6.21-7.62,6.21A12.56,12.56,0,0,1,282.92,52.93Z"/><path class="cls-2" d="M303,48.85V37.29H299.9V34.61l3.27-.2.43-5.86h2.95v5.86h5.66v2.88h-5.66V48.91c0,2.56.82,4,3.23,4a6.9,6.9,0,0,0,2.38-.56l.69,2.67a12.93,12.93,0,0,1-3.88.77C304.52,55.83,303,53,303,48.85Z"/><path class="cls-2" d="M316.93,34.41h2.92l.3,3.81h.12c1.45-2.65,3.59-4.32,5.94-4.32a4.78,4.78,0,0,1,2.23.43l-.66,3.1a5.77,5.77,0,0,0-2-.35c-1.76,0-3.87,1.28-5.29,4.81V55.31h-3.53Z"/><path class="cls-2" d="M329.52,49.89c0-4.56,3.93-6.83,12.84-7.8,0-2.69-.9-5.28-4.32-5.28a11.5,11.5,0,0,0-6.23,2.24l-1.38-2.43a15.33,15.33,0,0,1,8.21-2.72c5.1,0,7.26,3.39,7.26,8.59V55.31H343l-.29-2.5h-.12c-2,1.66-4.32,3-6.91,3C332.15,55.83,329.52,53.66,329.52,49.89Zm12.84.32v-5.8c-7,.84-9.37,2.56-9.37,5.23C333,52,334.6,53,336.65,53S340.33,52,342.36,50.21Z"/><path class="cls-2" d="M352.51,48.85V37.29H349.4V34.61l3.26-.2.43-5.86h3v5.86h5.67v2.88H356V48.91c0,2.56.83,4,3.24,4a7,7,0,0,0,2.38-.56l.68,2.67a12.8,12.8,0,0,1-3.88.77C354,55.83,352.51,53,352.51,48.85Z"/><path class="cls-2" d="M364.27,44.89c0-7,4.56-11,9.68-11s9.69,4,9.69,11S379.08,55.83,374,55.83,364.27,51.81,364.27,44.89Zm15.71,0c0-4.79-2.43-8-6-8s-6,3.26-6,8,2.44,8,6,8S380,49.68,380,44.89Z"/><path class="cls-2" d="M389.12,34.41h2.93l.3,3.81h.11c1.46-2.65,3.59-4.32,6-4.32a4.78,4.78,0,0,1,2.23.43l-.66,3.1a5.77,5.77,0,0,0-2-.35c-1.77,0-3.88,1.28-5.29,4.81V55.31h-3.54Z"/><g id="Surfaces"><g id="Drawing_Surface" data-name="Drawing Surface"><g id="Outline_no_shadow" data-name="Outline no shadow"><rect class="cls-2" x="21.07" y="12.72" width="58.95" height="57.48" rx="10.44"/></g></g></g><g id="Outlined_Mnemonics_Logos" data-name="Outlined Mnemonics Logos"><g id="Ai"><path class="cls-3" d="M49.64,47.21H40.51L38.65,53a.45.45,0,0,1-.48.35H33.55c-.27,0-.36-.14-.28-.43l7.91-22.78q.12-.36.24-.81a8.58,8.58,0,0,0,.15-1.6.26.26,0,0,1,.21-.28h6.36c.18,0,.29.07.32.2l9,25.31c.08.26,0,.4-.23.39H52.05a.34.34,0,0,1-.39-.27Zm-7.71-5h6.25c-.16-.53-.34-1.12-.55-1.78s-.44-1.36-.68-2.11-.47-1.51-.71-2.26-.45-1.47-.65-2.17-.38-1.34-.54-1.92h0a31.28,31.28,0,0,1-.84,3.16c-.36,1.19-.74,2.4-1.12,3.64s-.76,2.39-1.13,3.44Z"/><path class="cls-3" d="M62.77,31.63a2.82,2.82,0,0,1-2.17-.87,3.08,3.08,0,0,1-.83-2.25,2.9,2.9,0,0,1,.89-2.2,3.07,3.07,0,0,1,2.19-.85,3,3,0,0,1,2.24.85,3.09,3.09,0,0,1,.81,2.2,3.12,3.12,0,0,1-.85,2.25A3,3,0,0,1,62.77,31.63ZM60,53V34.05c0-.24.11-.36.32-.36h4.86c.21,0,.32.12.32.36V53c0,.26-.11.4-.32.39H60.4Q60,53.34,60,53Z"/></g></g></g></g></svg>