<svg xmlns="http://www.w3.org/2000/svg" viewBox="0 0 455.02 82.8"><defs><style>.cls-1{fill:#90b4df;}.cls-2{fill:#00005b;}.cls-3{fill:#99f;}</style></defs><title>Asset 44</title><g id="Layer_2" data-name="Layer 2"><g id="Layer_1-2" data-name="Layer 1"><rect class="cls-1" width="455.02" height="82.8" rx="14.4"/><g id="Surfaces"><g id="Video_Audio_Surface" data-name="Video Audio Surface"><g id="Outline_no_shadow" data-name="Outline no shadow"><rect class="cls-2" x="20.94" y="12.9" width="58.77" height="57.3" rx="10.41"/></g></g></g><g id="Outlined_Mnemonics_Logos" data-name="Outlined Mnemonics Logos"><g id="Ae"><path class="cls-3" d="M44.54,47.18h-9.1L33.58,53a.44.44,0,0,1-.47.35H28.5c-.26,0-.36-.14-.28-.43l7.89-22.61a8,8,0,0,0,.23-.77,7.82,7.82,0,0,0,.16-1.6.24.24,0,0,1,.21-.27.09.09,0,0,1,.07,0h6.27c.18,0,.28.06.31.19l9,25.1c.08.26,0,.4-.24.39H47a.36.36,0,0,1-.4-.27Zm-7.68-4.86h6.23c-.16-.52-.35-1.12-.56-1.77l-.67-2.11c-.23-.75-.47-1.5-.71-2.25S40.7,34.72,40.5,34L40,32.11h0a30.37,30.37,0,0,1-.83,3.15c-.36,1.19-.74,2.4-1.12,3.63S37.22,41.27,36.86,42.32Z"/><path class="cls-3" d="M66.82,44.94H59.05a5.56,5.56,0,0,0,.75,2.17,4,4,0,0,0,1.79,1.48,7.36,7.36,0,0,0,3.14.61,13.62,13.62,0,0,0,2.54-.28,9.3,9.3,0,0,0,2.19-.57c.13-.1.19,0,.19.2V52.3a.58.58,0,0,1-.05.29.77.77,0,0,1-.18.18A9.94,9.94,0,0,1,67,53.5a17.61,17.61,0,0,1-3.47.29,11.44,11.44,0,0,1-4.7-.86,8.47,8.47,0,0,1-3.07-2.33A9.2,9.2,0,0,1,54,47.39a12.69,12.69,0,0,1,.1-7.45A10.16,10.16,0,0,1,56,36.59a8.7,8.7,0,0,1,3-2.33,9.22,9.22,0,0,1,4.1-.77,8.91,8.91,0,0,1,3.81.75,6.78,6.78,0,0,1,2.58,1.95A8.92,8.92,0,0,1,70.88,39a9.85,9.85,0,0,1,.47,3c0,.57,0,1.1-.06,1.57s-.07.82-.1,1a.35.35,0,0,1-.35.31q-.24,0-.81.06c-.38,0-.85.07-1.42.08S67.45,44.94,66.82,44.94Zm-7.77-3.59h5.17l1.4,0a1.48,1.48,0,0,0,.57-.19V40.9A3,3,0,0,0,66,40a3.21,3.21,0,0,0-3.19-2.25,3.43,3.43,0,0,0-3.26,1.85A5.63,5.63,0,0,0,59.05,41.35Z"/></g></g><path class="cls-2" d="M110.65,27.09h4l9.54,28.22h-3.8l-4.92-15.76c-1-3.15-1.92-6.25-2.83-9.51h-.17c-.87,3.27-1.78,6.36-2.79,9.51l-5,15.76H101.1Zm-4.53,16.76h13v2.87h-13Z"/><path class="cls-2" d="M126.41,44.89c0-6.78,4.28-11,9.05-11a8.57,8.57,0,0,1,5.86,2.42l-.15-3.59v-8h3.53V55.31h-2.92l-.3-2.46h-.11a9.3,9.3,0,0,1-6.35,3C129.8,55.83,126.41,51.86,126.41,44.89ZM141.17,50v-11a7.38,7.38,0,0,0-5.1-2.18c-3.34,0-6,3.23-6,8,0,5,2.07,8,5.74,8C137.74,52.85,139.41,51.91,141.17,50Z"/><path class="cls-2" d="M150.22,44.89c0-7,4.56-11,9.68-11s9.69,4,9.69,11S165,55.83,159.9,55.83,150.22,51.81,150.22,44.89Zm15.71,0c0-4.79-2.43-8-6-8s-6,3.26-6,8,2.44,8,6,8S165.93,49.68,165.93,44.89Z"/><path class="cls-2" d="M178.18,53.15h-.12l-.33,2.16H174.9V24.68h3.54v8.38l-.12,3.75a10.56,10.56,0,0,1,6.57-2.91c5.4,0,8.3,4.19,8.3,10.63,0,7.14-4.28,11.3-9.05,11.3A9.3,9.3,0,0,1,178.18,53.15Zm11.36-8.57c0-4.62-1.58-7.71-5.51-7.71-1.77,0-3.61,1-5.59,2.85v11a8,8,0,0,0,5.09,2.17C187,52.85,189.54,49.74,189.54,44.58Z"/><path class="cls-2" d="M197.13,44.89c0-6.8,4.58-11,9.39-11,5.34,0,8.35,3.82,8.35,9.8a11.25,11.25,0,0,1-.17,2H200.62c.26,4.43,3,7.3,6.95,7.3a9.15,9.15,0,0,0,5.2-1.67L214,53.66a12.31,12.31,0,0,1-6.91,2.17C201.56,55.83,197.13,51.76,197.13,44.89Zm14.61-1.71c0-4.19-1.88-6.47-5.15-6.47-2.94,0-5.57,2.36-6,6.47Z"/><path class="cls-2" d="M234.74,27.09h4l9.55,28.22h-3.8l-4.92-15.76c-1-3.15-1.92-6.25-2.83-9.51h-.17c-.88,3.27-1.78,6.36-2.79,9.51l-5,15.76H225.2Zm-4.53,16.76h13v2.87h-13Z"/><path class="cls-2" d="M263.19,48.85V37.29H249.32V34.61l3-.2h11l.42-5.86h3v5.86h5.67v2.88h-5.67V48.91c0,2.56.83,4,3.24,4a7,7,0,0,0,2.38-.56l.68,2.67a12.8,12.8,0,0,1-3.88.77C264.69,55.83,263.19,53,263.19,48.85Zm-11-17.74c0-4.25,1.94-6.95,6.13-6.95a9.23,9.23,0,0,1,3.47.72l-.75,2.7a5.85,5.85,0,0,0-2.37-.54c-2,0-2.94,1.38-2.94,4.08V55.31h-3.54Z"/><path class="cls-2" d="M275,44.89c0-6.8,4.58-11,9.39-11,5.33,0,8.34,3.82,8.34,9.8a11.35,11.35,0,0,1-.16,2H278.45c.26,4.43,3,7.3,6.95,7.3a9.17,9.17,0,0,0,5.2-1.67l1.27,2.32A12.31,12.31,0,0,1,285,55.83C279.39,55.83,275,51.76,275,44.89Zm14.61-1.71c0-4.19-1.89-6.47-5.15-6.47-2.94,0-5.57,2.36-6,6.47Z"/><path class="cls-2" d="M297.84,34.41h2.92l.3,3.81h.11c1.46-2.65,3.6-4.32,5.95-4.32a4.78,4.78,0,0,1,2.23.43l-.66,3.1a5.77,5.77,0,0,0-2-.35c-1.76,0-3.87,1.28-5.29,4.81V55.31h-3.53Z"/><path class="cls-2" d="M321.69,27.09H338v3H325.28V39H336v3H325.28V52.27h13.1v3H321.69Z"/><path class="cls-2" d="M341.76,34.61l3-.2h20.06v2.88H341.76Zm2.84-3c0-4.33,2.16-7.06,6.51-7.06a9.75,9.75,0,0,1,3.83.78l-.74,2.7a6.28,6.28,0,0,0-2.79-.6c-2.08,0-3.27,1.51-3.27,4.26V55.31H344.6Zm12.26-.54c0-4.25,1.93-6.95,6.12-6.95a9.23,9.23,0,0,1,3.47.72l-.75,2.7a5.8,5.8,0,0,0-2.36-.54c-2,0-2.95,1.38-2.95,4.08V55.31h-3.53Z"/><path class="cls-2" d="M366.85,44.89c0-6.8,4.58-11,9.39-11,5.33,0,8.34,3.82,8.34,9.8a11.35,11.35,0,0,1-.16,2H370.34c.26,4.43,3,7.3,7,7.3a9.17,9.17,0,0,0,5.2-1.67l1.27,2.32a12.31,12.31,0,0,1-6.91,2.17C371.28,55.83,366.85,51.76,366.85,44.89Zm14.61-1.71c0-4.19-1.89-6.47-5.15-6.47-2.94,0-5.57,2.36-6,6.47Z"/><path class="cls-2" d="M388.17,44.89c0-7,4.72-11,10.06-11a8.78,8.78,0,0,1,6.11,2.45l-1.8,2.34a6.07,6.07,0,0,0-4.15-1.85c-3.79,0-6.56,3.26-6.56,8s2.62,8,6.46,8a7.5,7.5,0,0,0,4.91-2.08l1.53,2.37A10.1,10.1,0,0,1,398,55.83C392.41,55.83,388.17,51.81,388.17,44.89Z"/><path class="cls-2" d="M409.52,48.85V37.29h-3.11V34.61l3.27-.2.43-5.86h2.95v5.86h5.66v2.88h-5.66V48.91c0,2.56.82,4,3.23,4a6.9,6.9,0,0,0,2.38-.56l.69,2.67a12.86,12.86,0,0,1-3.88.77C411,55.83,409.52,53,409.52,48.85Z"/><path class="cls-2" d="M420.69,52.93l1.75-2.33a9.41,9.41,0,0,0,6.17,2.47c2.74,0,4.1-1.46,4.1-3.24,0-2.15-2.46-3.1-4.78-4-2.93-1.07-6.23-2.52-6.23-6,0-3.35,2.68-5.93,7.21-5.93a10.62,10.62,0,0,1,6.5,2.34l-1.69,2.27A7.9,7.9,0,0,0,429,36.65c-2.63,0-3.85,1.4-3.85,3,0,2,2.27,2.74,4.64,3.62,3,1.14,6.38,2.37,6.38,6.35,0,3.38-2.7,6.21-7.63,6.21A12.58,12.58,0,0,1,420.69,52.93Z"/></g></g></svg>