<svg xmlns="http://www.w3.org/2000/svg" viewBox="0 0 411.84 82.8"><defs><style>.cls-1{fill:#a5ddec;}.cls-2{fill:#05979c;}.cls-3{fill:#0b8286;}</style></defs><title>Asset 20</title><g id="Layer_2" data-name="Layer 2"><g id="Layer_1-2" data-name="Layer 1"><rect class="cls-1" width="411.84" height="82.8" rx="14.4"/><path class="cls-2" d="M78.48,50.1c-2.22,2.5-3.94,5.37-6.19,7.85-4,4.37-8.25,8.15-14.19,9.52-.4-.48-.64-.29-.81.19l-.86.28c-.6-.43-6.06-.66-6.44-.19s.35.61.47,1a2.67,2.67,0,0,1-2,0c0-.91-.47-1.26-1.33-1.16a11.77,11.77,0,0,1-3.74-.45,29.21,29.21,0,0,1-17.16-9.93c-3.23-3.87-5.6-8.57-5.31-14,.09-1.68,0-3.37,0-5.05.07-4,1.77-7.39,3.7-10.7a4.85,4.85,0,0,0,.95-2.91C32.17,15.6,41.09,12.13,52,13.4,61.58,14.53,69,19.45,75,26.86a25.14,25.14,0,0,1,2.61,3.29c.83,1.5,1.33,1,2.1-.13A43.43,43.43,0,0,1,94,16.53c10.37-6,24.27-3.76,33.34,3.4a29.49,29.49,0,0,1,9.65,14c.75,2.19.14,4.61.26,6.92a21.62,21.62,0,0,1-1.93,10.58,30.73,30.73,0,0,1-16.43,15.78,17.52,17.52,0,0,1-6.71,1.68l-3.75-.49A38.05,38.05,0,0,1,93,63.25,43,43,0,0,1,80.57,51.13C80.07,50.42,79.71,49.37,78.48,50.1Zm46.31.5a1.57,1.57,0,0,0,1.71-.87c3.73-5.29,3.54-11,1-16.47-3.42-7.42-12.06-12-20.27-11.3a1.12,1.12,0,0,0-1,.65c-2.25.55-4.57.8-6.68,1.88C93,27.92,88.74,33.68,84.73,39.65A2.35,2.35,0,0,0,85,42.39c2.65,4.49,5.6,8.79,9.84,11.93,5.51,4.08,11.55,6.43,18.57,4.55a21.48,21.48,0,0,0,9.4-5.79c.13.23.35.5.58.32.38-.31,0-.52-.23-.7ZM44.17,23a19.38,19.38,0,0,0-11,7.23c-4.05,5.28-5.27,12.19-2.58,18A17.52,17.52,0,0,0,40.71,57.5c9.22,3.4,17.4,2,24.12-5.58,1.48-.24,2.15-1.47,3-2.47,1.79-2.14,3-4.66,4.78-6.8,1.5-1.87,1.25-3.36.09-5.08a53.34,53.34,0,0,0-8.06-9.36A22.15,22.15,0,0,0,46.75,22C45.87,22.08,44.77,22,44.17,23Z"/><path class="cls-2" d="M341.81,27.45c-.28-1.37.68-1.27,1.53-1.24,4.43.12,8.87-.34,13.28.53,2.21.44,4.39,1,6,2.71,4.78,5.06,4.59,11.14,3,17.26-1.33,5.26-4.91,8.24-10.48,8.57-.33-1.31-1.41-1.05-2.32-1.06-1.9,0-3.82-.13-5.71,0-2.6.21-3.57-.77-3.52-3.43.14-6.75.05-13.5.05-20.26C343.64,29.16,343.76,27.7,341.81,27.45Zm14,20.44v0l.56-.76-.07,0a2,2,0,0,0,2.24-1.78c.56-3.81,1.18-7.66-.75-11.32a6.31,6.31,0,0,0-3.41-3.1c-1-.38-2.1-.68-2.44.9-1.72-.08-1.69,1.06-1.68,2.29,0,4.4.14,8.82,0,13.22-.11,2.7,1.17,2.74,3.08,2.08a14.45,14.45,0,0,0,2-1Z"/><path class="cls-2" d="M164.32,49.67c-2.42-.07-1.78,2.12-2.43,3.33-.52,1,0,2.77-2,2.4-.21-.34-.39-1-.63-1-3.79-.36-3.31-2.48-2.35-5.11,2.16-5.92,4.06-11.94,6.27-17.85a7.75,7.75,0,0,0,.53-5.11c8.1-.54,8.11-.54,10.63,7,2.24,6.69,4.42,13.4,6.73,20.07.56,1.59.66,2.46-1.41,2a2,2,0,0,0-2.08-1.17c-2.36.26-3.4-1.17-4.19-3.07C172.06,48.08,166.93,47.26,164.32,49.67Zm3-13.87c-1.83,2.33-1.81,5.27-2.87,8.08,1.83,0,3.47.71,5-.46C171.46,41.52,170.19,36.92,167.32,35.8Z"/><path class="cls-2" d="M203.21,35c2.24-2.14,5-2.15,7.71-1.53,1.65.37,2.12.15,2-1.46a14.06,14.06,0,0,1,0-1.59c.08-5-.57-3.89,4.15-4.28,3.46-.29,4.14,1,4,4.17-.22,7.6-.06,15.21-.07,22.81,0,1.21.39,2.77-1.8,2.28A1.85,1.85,0,0,0,217,53.6a25.77,25.77,0,0,0-5,.32c-6.83,1.57-9.9-1.06-10.12-8A45.63,45.63,0,0,1,203.21,35Zm7.67,2.64a2.69,2.69,0,0,0-2.41,2.57,30.3,30.3,0,0,0-.08,8.56c.17,1.2.59,2.38,1.86,2.72s1.71-1,2.45-1.67c1.86-.16,2.09-1.43,2-2.93-.09-2.81.54-5.76-1-8.3C213.37,38,212.74,35.06,210.88,37.64Zm3.17-9.73c-.61,1.67-1.06,3.34.26,4.89C214.67,31.16,215,29.53,214.05,27.91Z"/><path class="cls-2" d="M381.31,31.83c-2,1.39-1.09,3.47-.85,5.11.21,1.42,2,.6,3,.7,1.47.13,3,0,4.44.06.84.06,2.22-.56,2.37.78.19,1.58.75,3.35-.46,4.78-.22.26-1,0-1.53,0a4.65,4.65,0,0,0-6.38,0c-3.32.83-1.34,3.42-1.59,5.17-.27,1.91,1.55,1.24,2.54,1.27,2.86.08,5.72.14,8.57,0,1.85-.09,2.31.85,1.92,2.26-.34,1.23,1.55,3.85-1.87,3.4-.3-1.55-1.55-1.16-2.54-1.17-3.93,0-7.86-.16-11.77,0-2.85.15-3.68-1-3.61-3.69.15-6.67,0-13.34.05-20,0-1.4.12-2.87-1.84-3.12-.27-1.37.68-1.25,1.53-1.25,6,0,12.08.08,18.12,0,1.83,0,2.33.83,1.93,2.26-.35,1.22,1.56,3.84-1.87,3.4C389.36,29.18,383.46,29.18,381.31,31.83Z"/><path class="cls-2" d="M226.18,35.07c.45-2.42,2.34-1.11,3.5-1.15,4.33-.17,4.34-.06,4.34,4.31,0,3.18,0,6.37,0,9.55,0,1.25,0,2.71,1.55,3.14s2-.91,2.69-1.8c1.91-1.63,2-12.09.13-14-.08-2.2,1.61-1.17,2.47-1.19,5.65-.15,5.65-.11,5.65,5.53,0,4.64-.07,9.29,0,13.92,0,1.65-.46,2.18-2.14,2.2-3.3,0-6.66-.73-9.91.49-.1-.94-.75-1-1.55-1.21-4.61-1-5.42-1.95-5.46-6.56,0-3.48,0-7,0-10.44C227.48,36.74,227.9,35.37,226.18,35.07Z"/><path class="cls-2" d="M292.62,35.81c4.08-3.55,8.77-3.26,13.33-1.55,4.3,1.62,5,5.64,5.14,9.69.18,6.87-1.66,10.08-6.44,11.52-1.35-.21-2.7-.46-4.06-.62-7-.85-9.18-3.44-9.32-10.62C291.21,41.29,292.65,38.69,292.62,35.81Zm9.51,14.62c1.06-.11,1.87-.6,1.89-1.74a65.13,65.13,0,0,0-.11-8.84c-.13-1.13-.77-3.35-3.1-2.07a2,2,0,0,0-2.1,1.57,20.26,20.26,0,0,0,0,10.54C299.24,52,300.68,52.09,302.13,50.43Z"/><path class="cls-2" d="M276,38.24c-2.2.3-2.56,1.86-2.56,3.69,0,3.89-.05,7.78,0,11.67,0,1.5-.34,2.22-1.94,1.8-.38-.35-.76-1-1.13-1-3.46.11-3.43-2.12-3.36-4.6.11-3.88,0-7.76,0-11.64,0-1.39.1-2.83-1.83-3.08-.23-1,.3-1.26,1.2-1.25,4.13,0,8.24-.14,12.37-.52,4.83-.43,6.75,1.68,6.84,6.45.08,4.53.05,9.06,0,13.59,0,.92.5,2.34-1.39,2-.38-.35-.79-1-1.14-1-4.38.42-4-2.51-3.95-5.34s0-5.72,0-8.58a3.48,3.48,0,0,0-2.27-3.17C276.26,37,276.1,37.72,276,38.24Z"/><path class="cls-2" d="M326.49,27.45c-.12-.71,0-1.12.9-1.26,6.72-1.07,7.55-.39,7.55,6.28,0,6.87,0,13.75,0,20.62,0,1.57,0,2.84-2.16,2.31-.11-.54-.33-1.16-.94-1.1-3.47.35-3.62-1.75-3.57-4.37.11-6.46,0-12.91,0-19.36C328.33,29.17,328.45,27.7,326.49,27.45Z"/><path class="cls-2" d="M183.55,35.09c-.12-.7,0-1.36.88-1.22,2.2.37,4.51-.84,6.66.73,1,.76,1.62-.92,2.65-1,1.46-.16,3.21-1.28,4.09.63,1.06,2.28-.18,5-2.18,5.44-2.72.63-3.75,2.6-3.85,5.11-.12,2.94-.11,5.9,0,8.85,0,1.49-.33,2.22-1.94,1.8-.37-.35-.76-1-1.12-1-3.47.11-3.43-2.12-3.36-4.6.1-3.88,0-7.76,0-11.64C185.38,36.78,185.48,35.34,183.55,35.09Z"/><path class="cls-3" d="M25.55,24.47a4.85,4.85,0,0,1-.95,2.91c-1.93,3.31-3.63,6.74-3.7,10.7,0,1.68.07,3.37,0,5.05-.29,5.46,2.08,10.16,5.31,14a29.21,29.21,0,0,0,17.16,9.93,11.77,11.77,0,0,0,3.74.45c.86-.1,1.35.25,1.33,1.16-11.49-.34-20.55-5.17-26.09-15.28S19.45,31.63,25.55,24.47Z"/><path class="cls-2" d="M253,33.94c7-.33,7-.33,7,6.64,0,4.34,0,8.67,0,13,0,1.48-.32,2.24-1.94,1.81a1.87,1.87,0,0,0-1.76-1.15c-2.41.13-2.74-1.3-2.72-3.25C253.67,45.3,253.92,39.6,253,33.94Z"/><path class="cls-3" d="M78.48,50.1c1.23-.73,1.59.32,2.09,1A43,43,0,0,0,93,63.25a38.05,38.05,0,0,0,15.43,5.13l3.75.49c-2,1.24-4.15.85-6.11.43C99.83,68,93.86,66,88.8,61.9A46,46,0,0,1,78.48,50.1Z"/><path class="cls-3" d="M371.8,27.45c2,.25,1.84,1.72,1.84,3.12,0,6.66.1,13.33-.05,20-.07,2.72.76,3.84,3.61,3.69,3.91-.19,7.84-.06,11.77,0,1,0,2.24-.38,2.54,1.17-5.92,0-11.83,0-17.75.14-1.73,0-2.11-.55-2.09-2.16C371.77,44.74,371.77,36.1,371.8,27.45Z"/><path class="cls-3" d="M203.21,35a45.63,45.63,0,0,0-1.31,10.88c.22,7,3.29,9.61,10.12,8a25.77,25.77,0,0,1,5-.32,1.85,1.85,0,0,1,2.16,1.8c-3.35.42-6.7-.1-10.13.59-4.58.92-7.7-1.26-8.64-5.83C199.34,44.88,198.25,39.31,203.21,35Z"/><path class="cls-3" d="M341.81,27.45c1.95.25,1.83,1.71,1.83,3.1,0,6.76.09,13.51-.05,20.26,0,2.66.92,3.64,3.52,3.43,1.89-.15,3.81,0,5.71,0,.91,0,2-.25,2.32,1.06-3.9.07-7.8.1-11.69.25-1.44.06-1.77-.51-1.76-1.84C341.76,45,341.78,36.2,341.81,27.45Z"/><path class="cls-3" d="M163.67,26.34a7.75,7.75,0,0,1-.53,5.11c-2.21,5.91-4.11,11.93-6.27,17.85-1,2.63-1.44,4.75,2.35,5.11.24,0,.42.65.63,1-7,.35-7,.36-4.72-6.06,2.4-6.78,4.76-13.56,7.18-20.34C162.64,28.07,162.57,26.9,163.67,26.34Z"/><path class="cls-3" d="M326.49,27.45c2,.25,1.84,1.72,1.84,3.12,0,6.45.07,12.9,0,19.36-.05,2.62.1,4.72,3.57,4.37.61-.06.83.56.94,1.1-6.41.31-6.42.31-6.4-5.86Q326.43,38.5,326.49,27.45Z"/><path class="cls-3" d="M292.62,35.81c0,2.88-1.41,5.48-1.35,8.42.14,7.18,2.31,9.77,9.32,10.62,1.36.16,2.71.41,4.06.62-5.36,1.7-10.89.39-13.21-3.11C288.58,48,289.18,39.66,292.62,35.81Z"/><path class="cls-3" d="M253,33.94c.9,5.66.65,11.36.62,17.06,0,2,.31,3.38,2.72,3.25a1.87,1.87,0,0,1,1.76,1.15c-6.39.32-6.39.32-6.39-6,0-4.45,0-8.9,0-13.35C251.78,35.26,251,33.71,253,33.94Z"/><path class="cls-3" d="M183.55,35.09c1.93.25,1.83,1.69,1.83,3.08,0,3.88.07,7.76,0,11.64-.07,2.48-.11,4.71,3.36,4.6.36,0,.75.64,1.12,1-6.39.31-6.4.31-6.38-6C183.46,44.64,183.51,39.87,183.55,35.09Z"/><path class="cls-3" d="M265.23,35.09c1.93.25,1.83,1.69,1.83,3.08,0,3.88.08,7.76,0,11.64-.07,2.48-.1,4.71,3.36,4.6.37,0,.75.64,1.13,1-6.39.31-6.4.31-6.39-6C265.15,44.64,265.2,39.87,265.23,35.09Z"/><path class="cls-3" d="M276,38.24c.11-.52.27-1.25.92-.93a3.48,3.48,0,0,1,2.27,3.17c0,2.86.06,5.72,0,8.58s-.43,5.76,3.95,5.34c.35,0,.76.65,1.14,1-6.72.34-6.72.34-6.72-6.33,0-2.43,0-4.87,0-7.3C277.52,40.4,277.58,39,276,38.24Z"/><path class="cls-2" d="M251.81,27.45c-.13-.71,0-1.24.89-1.24,1.05,0,2.1,0,3.16,0,4.72.15,4-.95,4.22,4.14.11,2.21-.85,2.49-2.59,2.13-.21-.34-.42-1-.61-1-2.34.11-3.28-1.3-3.83-3.26C252.89,27.7,252.34,27.53,251.81,27.45Z"/><path class="cls-3" d="M226.18,35.07c1.72.3,1.3,1.67,1.31,2.76,0,3.48,0,7,0,10.44,0,4.61.85,5.6,5.46,6.56.8.16,1.45.27,1.55,1.21a29.21,29.21,0,0,1-3.5.07c-3.14-.31-4.86-2-4.91-5.14C226,45.67,226.14,40.37,226.18,35.07Z"/><path class="cls-3" d="M164.32,49.67c2.61-2.41,7.74-1.59,9,1.49.79,1.9,1.83,3.33,4.19,3.07a2,2,0,0,1,2.08,1.17,19.4,19.4,0,0,0-3.15.13c-2.95.56-4.46-.64-4.75-3.57-.18-1.8-1.2-2.4-3-2.23A36,36,0,0,1,164.32,49.67Z"/><path class="cls-3" d="M238.41,35.09c1.88,1.94,1.78,12.4-.13,14Q238.34,42.1,238.41,35.09Z"/><path class="cls-3" d="M381.31,31.83c2.15-2.65,8.05-2.65,10.2,0Z"/><path class="cls-3" d="M50.46,68.7c-.12-.34-.89-.43-.47-1s5.84-.24,6.44.19A15.92,15.92,0,0,1,50.46,68.7Z"/><path class="cls-3" d="M251.81,27.45c.53.08,1.08.25,1.24.8.55,2,1.49,3.37,3.83,3.26.19,0,.4.63.61,1-.31,0-.62.08-.93.08C251.5,32.66,251.5,32.66,251.81,27.45Z"/><path class="cls-3" d="M381.94,43.3a4.65,4.65,0,0,1,6.38,0Z"/><path class="cls-3" d="M57.29,67.66c.17-.48.41-.67.81-.19Z"/><path class="cls-3" d="M64.83,51.92c2.36-2.94,4.58-6,6.7-9.11.91-1.33,1.56-2.58.43-4.13a61.63,61.63,0,0,0-8.9-10.32C57.59,23.61,51.13,22.47,44.17,23c.6-1,1.7-.93,2.58-1a22.15,22.15,0,0,1,17.87,6.21,53.34,53.34,0,0,1,8.06,9.36c1.16,1.72,1.41,3.21-.09,5.08-1.73,2.14-3,4.66-4.78,6.8C67,50.45,66.31,51.68,64.83,51.92Z"/><path class="cls-3" d="M124.79,50.6A18.5,18.5,0,0,0,127.91,41c.13-7.12-3.56-11.83-9.33-15.28a24,24,0,0,0-12.32-3.1,1.12,1.12,0,0,1,1-.65c8.21-.71,16.85,3.88,20.27,11.3,2.51,5.43,2.7,11.18-1,16.47A1.57,1.57,0,0,1,124.79,50.6Z"/><path class="cls-3" d="M122.8,53.08l.35-.38c.26.18.61.39.23.7C123.15,53.58,122.93,53.31,122.8,53.08Z"/><path class="cls-3" d="M356.29,47.15c.81-3,1.51-6,1-9.18s-2-5.46-5.33-6.12c.33-1.58,1.41-1.28,2.43-.9a6.31,6.31,0,0,1,3.41,3.1c1.93,3.66,1.31,7.51.75,11.32A2,2,0,0,1,356.29,47.15Z"/><path class="cls-3" d="M355.8,47.87l.56-.76Z"/><path class="cls-3" d="M355.26,48.46l.53-.57Z"/><path class="cls-3" d="M169.44,43.42a34.77,34.77,0,0,1-2.12-7.62C170.19,36.92,171.46,41.52,169.44,43.42Z"/><path class="cls-3" d="M212.7,49.82q0-4.07.1-8.13a4.47,4.47,0,0,0-1.92-4c1.86-2.58,2.49.31,2.87,1,1.52,2.54.89,5.49,1,8.3C214.79,48.39,214.56,49.66,212.7,49.82Z"/><path class="cls-3" d="M214.05,27.91c1,1.62.62,3.25.26,4.89C213,31.25,213.44,29.58,214.05,27.91Z"/><path class="cls-3" d="M302.13,50.43a35.69,35.69,0,0,0,.52-8.13,6.74,6.74,0,0,0-1.84-4.52c2.33-1.28,3,.94,3.1,2.07a65.13,65.13,0,0,1,.11,8.84C304,49.83,303.19,50.32,302.13,50.43Z"/><path class="cls-2" d="M39.22,38.82c0-.93.66-.69,1.18-.69,5.6,0,11.2.07,16.8,0,1.9,0,1.55,1.14,1.53,2.2s.49,2.37-1.45,1.84c.07-1.31-.86-1.2-1.71-1.19H44.41c-1.74,0-3.73.53-4.41-1.94C40,38.88,39.49,38.88,39.22,38.82Z"/><path class="cls-3" d="M39.22,38.82c.27.06.75.06.78.18.68,2.47,2.67,1.94,4.41,1.94H55.57c.85,0,1.78-.12,1.71,1.19-5.62,0-11.25,0-16.87.13-1,0-1.4-.37-1.31-1.35C39.17,40.22,39.18,39.52,39.22,38.82Z"/><path class="cls-2" d="M111,42.67c-1,.11-1,.78-1,1.51,0,1,0,1.92,0,2.89,0,.72,0,1.46-1.11,1.16-.19-.19-.37-.52-.59-.55C106.1,47.39,105.7,46,105.9,44s-1.11-2.34-2.71-2.22-2.51-.17-2.36-2a1.2,1.2,0,0,0-1.2-1.41c0-1.22.88-.72,1.45-.81,1.25-.19,2.6.43,3.76-.44,1,0,1.09-.58,1.1-1.36a9.71,9.71,0,0,0-.45-3.67,4.21,4.21,0,0,1,.62-.09c3.87-.11,3.94-.11,3.9,3.74,0,1.48.43,2.06,1.9,1.83a3.3,3.3,0,0,1,.63,0c3,0,4.07,1.54,3.17,4.53-.23.77-.73.71-1.31.57C113.29,41.41,112.12,41.4,111,42.67Z"/><path class="cls-3" d="M99.63,38.4a1.2,1.2,0,0,1,1.2,1.41c-.15,1.81.9,2.1,2.36,2s2.9.3,2.71,2.22.2,3.38,2.45,3.67c.22,0,.4.36.59.55a4.49,4.49,0,0,1-.81.17c-3.4.15-3.35.15-3.43-3.23,0-.92.71-2.31-1.33-2.37C99.29,42.68,99.29,42.59,99.63,38.4Z"/><path class="cls-3" d="M105.49,32.12a9.71,9.71,0,0,1,.45,3.67c0,.78-.12,1.39-1.1,1.36,0-1.31-.09-2.61-.11-3.91C104.73,32.72,104.6,32.06,105.49,32.12Z"/><path class="cls-3" d="M111,42.67c1.12-1.27,2.29-1.26,3.4,0A10.21,10.21,0,0,1,111,42.67Z"/></g></g></svg>