<svg xmlns="http://www.w3.org/2000/svg" viewBox="0 0 291.88 82.8"><defs><style>.cls-1{fill:#05979c;}.cls-2{fill:#fff;}</style></defs><title>Asset 55</title><g id="Layer_2" data-name="Layer 2"><g id="Layer_1-2" data-name="Layer 1"><rect class="cls-1" width="291.88" height="82.8" rx="14.4"/><path class="cls-2" d="M67.43,47.93c-1.41,1.58-2.51,3.41-3.93,5-2.51,2.77-5.24,5.17-9,6-.25-.31-.41-.19-.51.12l-.55.18c-.38-.28-3.85-.42-4.09-.12s.22.38.3.6a1.7,1.7,0,0,1-1.29,0c0-.58-.31-.8-.85-.73a7.62,7.62,0,0,1-2.38-.29,18.63,18.63,0,0,1-10.9-6.31,12.84,12.84,0,0,1-3.37-8.91c.06-1.07,0-2.14,0-3.21A14.08,14.08,0,0,1,33.2,33.5a3.09,3.09,0,0,0,.61-1.85c4.2-5.64,9.87-7.85,16.77-7,6.11.72,10.84,3.85,14.64,8.56a15.77,15.77,0,0,1,1.66,2.08c.53,1,.84.64,1.33-.08a27.44,27.44,0,0,1,9.05-8.56c6.58-3.79,15.41-2.4,21.18,2.15a18.84,18.84,0,0,1,6.13,8.88c.48,1.39.09,2.93.16,4.4a13.64,13.64,0,0,1-1.22,6.72,19.56,19.56,0,0,1-10.44,10,11.07,11.07,0,0,1-4.26,1.07l-2.38-.31a24.25,24.25,0,0,1-9.81-3.26,27.2,27.2,0,0,1-7.86-7.7C68.44,48.13,68.21,47.46,67.43,47.93Zm29.42.32a1,1,0,0,0,1.08-.56c2.37-3.36,2.25-7,.66-10.46a13.24,13.24,0,0,0-12.88-7.18.74.74,0,0,0-.64.41,18.47,18.47,0,0,0-4.24,1.2C76.62,33.84,74,37.5,71.4,41.29A1.5,1.5,0,0,0,71.56,43a24.47,24.47,0,0,0,6.25,7.57c3.5,2.6,7.34,4.09,11.8,2.9a13.62,13.62,0,0,0,6-3.68c.08.15.23.32.37.2s0-.33-.15-.44ZM45.63,30.72a12.29,12.29,0,0,0-7,4.59,10.87,10.87,0,0,0,4.81,17.32c5.86,2.15,11.06,1.23,15.33-3.55.94-.15,1.36-.93,1.89-1.57,1.13-1.35,1.94-2.95,3-4.32A2.36,2.36,0,0,0,63.74,40,33.4,33.4,0,0,0,58.62,34a14.08,14.08,0,0,0-11.35-4C46.71,30.13,46,30.09,45.63,30.72Z"/><path class="cls-2" d="M137.56,48.54c-2.1-.06-1.54,1.84-2.11,2.9-.45.84,0,2.4-1.77,2.08-.19-.3-.34-.84-.55-.86-3.29-.31-2.88-2.16-2-4.44,1.88-5.15,3.54-10.39,5.46-15.52a6.81,6.81,0,0,0,.46-4.45c7.05-.47,7.05-.47,9.24,6.07,1.95,5.82,3.85,11.66,5.86,17.46.48,1.38.57,2.13-1.23,1.74a1.73,1.73,0,0,0-1.8-1c-2.06.23-3-1-3.65-2.67C144.3,47.16,139.84,46.44,137.56,48.54Zm2.61-12.06c-1.58,2-1.57,4.58-2.49,7,1.59,0,3,.62,4.34-.4C143.78,41.45,142.67,37.45,140.17,36.48Z"/><path class="cls-2" d="M171.39,35.78c2-1.86,4.37-1.87,6.7-1.33,1.44.32,1.85.13,1.72-1.27a10.59,10.59,0,0,1,0-1.38c.07-4.35-.49-3.39,3.61-3.73,3-.25,3.6.87,3.52,3.63-.2,6.61-.06,13.23-.07,19.84,0,1.06.34,2.41-1.56,2A1.61,1.61,0,0,0,183.42,52a22.19,22.19,0,0,0-4.37.28c-5.93,1.36-8.61-.93-8.8-7A40,40,0,0,1,171.39,35.78Zm6.67,2.3a2.34,2.34,0,0,0-2.1,2.23,26.94,26.94,0,0,0-.07,7.45c.15,1,.52,2.07,1.62,2.36s1.49-.85,2.13-1.45c1.62-.14,1.82-1.25,1.77-2.55-.08-2.44.47-5-.85-7.22C180.23,38.35,179.68,35.83,178.06,38.08Zm2.76-8.46c-.54,1.45-.92,2.9.23,4.25C181.36,32.44,181.68,31,180.82,29.62Z"/><path class="cls-2" d="M191.37,35.84c.39-2.11,2-1,3-1,3.77-.14,3.77-.05,3.78,3.75,0,2.77,0,5.54,0,8.3,0,1.09,0,2.37,1.35,2.74s1.72-.8,2.34-1.57c1.66-1.41,1.75-10.51.11-12.2-.07-1.92,1.41-1,2.16-1,4.9-.13,4.9-.09,4.9,4.82,0,4-.05,8.07,0,12.1,0,1.43-.4,1.9-1.86,1.91-2.87,0-5.79-.63-8.62.43-.09-.81-.65-.91-1.35-1-4-.84-4.71-1.7-4.75-5.71,0-3,0-6,0-9.08C192.5,37.3,192.87,36.11,191.37,35.84Z"/><path class="cls-2" d="M249.15,36.49c3.56-3.09,7.63-2.84,11.6-1.35,3.74,1.41,4.38,4.91,4.47,8.43.15,6-1.45,8.76-5.61,10-1.17-.18-2.34-.39-3.52-.53-6.1-.74-8-3-8.11-9.24C247.93,41.26,249.18,39,249.15,36.49Zm8.27,12.71c.93-.09,1.63-.52,1.65-1.51A56.32,56.32,0,0,0,259,40c-.11-1-.67-2.91-2.69-1.8a1.77,1.77,0,0,0-1.83,1.37,17.57,17.57,0,0,0,0,9.16C254.91,50.54,256.17,50.65,257.42,49.2Z"/><path class="cls-2" d="M234.69,38.6c-1.92.26-2.23,1.62-2.23,3.21,0,3.38,0,6.77,0,10.15,0,1.3-.3,1.93-1.69,1.56-.33-.3-.66-.87-1-.86-3,.1-3-1.84-2.92-4,.09-3.37,0-6.75,0-10.12,0-1.21.08-2.47-1.6-2.68-.2-.88.26-1.1,1-1.09,3.59,0,7.16-.12,10.75-.45,4.21-.38,5.88,1.46,6,5.61.07,3.94,0,7.88,0,11.82,0,.8.43,2-1.21,1.77-.33-.3-.69-.89-1-.86-3.81.36-3.49-2.19-3.44-4.65s0-5,0-7.46a3.06,3.06,0,0,0-2-2.76C234.93,37.51,234.78,38.15,234.69,38.6Z"/><path class="cls-2" d="M154.29,35.86c-.1-.61,0-1.19.76-1.06,1.92.32,3.93-.73,5.8.64.89.65,1.41-.81,2.31-.9,1.26-.14,2.78-1.11,3.55.54.93,2-.16,4.34-1.9,4.74-2.36.55-3.26,2.26-3.34,4.44-.11,2.56-.1,5.13,0,7.7,0,1.29-.29,1.93-1.69,1.56-.32-.3-.66-.87-1-.86-3,.1-3-1.84-2.93-4,.1-3.37,0-6.75,0-10.12C155.88,37.33,156,36.07,154.29,35.86Z"/><path class="cls-2" d="M33.81,31.65a3.09,3.09,0,0,1-.61,1.85,14.08,14.08,0,0,0-2.35,6.79c0,1.07,0,2.14,0,3.21a12.84,12.84,0,0,0,3.37,8.91,18.63,18.63,0,0,0,10.9,6.31,7.62,7.62,0,0,0,2.38.29c.54-.07.86.15.85.73C41,59.53,35.28,56.46,31.76,50A16.58,16.58,0,0,1,33.81,31.65Z"/><path class="cls-2" d="M214.71,34.86c6.09-.29,6.09-.29,6.09,5.78,0,3.77,0,7.54,0,11.31,0,1.29-.28,1.95-1.69,1.57a1.63,1.63,0,0,0-1.53-1c-2.09.12-2.37-1.12-2.36-2.83C215.28,44.74,215.5,39.78,214.71,34.86Z"/><path class="cls-2" d="M67.43,47.93c.78-.47,1,.2,1.33.65a27.2,27.2,0,0,0,7.86,7.7,24.25,24.25,0,0,0,9.81,3.26l2.38.31a5,5,0,0,1-3.88.27C81,59.28,77.2,58,74,55.42A29,29,0,0,1,67.43,47.93Z"/><path class="cls-2" d="M171.39,35.78a40,40,0,0,0-1.14,9.46c.19,6.07,2.87,8.36,8.8,7a22.19,22.19,0,0,1,4.37-.28,1.61,1.61,0,0,1,1.88,1.56c-2.92.37-5.83-.08-8.82.52-4,.79-6.69-1.1-7.51-5.07C168,44.37,167.08,39.53,171.39,35.78Z"/><path class="cls-2" d="M137,28.25a6.81,6.81,0,0,1-.46,4.45c-1.92,5.13-3.58,10.37-5.46,15.52-.83,2.28-1.24,4.13,2,4.44.21,0,.36.56.55.86-6.1.31-6.09.31-4.11-5.27,2.09-5.89,4.14-11.79,6.24-17.68C136.1,29.75,136,28.73,137,28.25Z"/><path class="cls-2" d="M249.15,36.49c0,2.5-1.22,4.77-1.17,7.32.12,6.24,2,8.5,8.11,9.24,1.18.14,2.35.35,3.52.53-4.65,1.48-9.47.35-11.48-2.7C245.64,47.12,246.16,39.84,249.15,36.49Z"/><path class="cls-2" d="M214.71,34.86c.79,4.92.57,9.88.54,14.83,0,1.71.27,3,2.36,2.83a1.63,1.63,0,0,1,1.53,1c-5.55.28-5.55.28-5.55-5.19,0-3.87,0-7.74,0-11.61C213.63,36,213,34.66,214.71,34.86Z"/><path class="cls-2" d="M154.29,35.86c1.68.21,1.59,1.47,1.59,2.68,0,3.37.07,6.75,0,10.12-.06,2.16-.09,4.1,2.93,4,.31,0,.65.56,1,.86-5.55.28-5.56.28-5.55-5.21C154.21,44.16,154.26,40,154.29,35.86Z"/><path class="cls-2" d="M225.33,35.86c1.68.21,1.6,1.47,1.6,2.68,0,3.37.06,6.75,0,10.12-.06,2.16-.09,4.1,2.92,4,.32,0,.65.56,1,.86-5.56.28-5.57.28-5.55-5.2C225.26,44.16,225.3,40,225.33,35.86Z"/><path class="cls-2" d="M234.69,38.6c.09-.45.24-1.09.8-.81a3.06,3.06,0,0,1,2,2.76c0,2.48.05,5,0,7.46s-.37,5,3.44,4.65c.3,0,.66.56,1,.86-5.84.3-5.84.3-5.84-5.5,0-2.12,0-4.23,0-6.35C236,40.48,236.07,39.22,234.69,38.6Z"/><path class="cls-2" d="M213.66,29.22c-.12-.63,0-1.08.77-1.08s1.83,0,2.75,0c4.11.12,3.45-.83,3.67,3.6.1,1.92-.74,2.16-2.25,1.85-.18-.3-.37-.86-.53-.85-2,.11-2.86-1.12-3.34-2.83C214.6,29.43,214.12,29.29,213.66,29.22Z"/><path class="cls-2" d="M191.37,35.84c1.5.27,1.13,1.46,1.14,2.4,0,3,0,6.06,0,9.08,0,4,.75,4.87,4.75,5.71.7.14,1.26.24,1.35,1a23.77,23.77,0,0,1-3,.06c-2.74-.27-4.23-1.72-4.27-4.47C191.22,45.06,191.34,40.45,191.37,35.84Z"/><path class="cls-2" d="M137.56,48.54c2.28-2.1,6.74-1.38,7.86,1.3.69,1.65,1.59,2.9,3.65,2.67a1.73,1.73,0,0,1,1.8,1,17.66,17.66,0,0,0-2.73.11c-2.58.49-3.89-.55-4.14-3.1-.16-1.57-1-2.09-2.6-1.93A32.84,32.84,0,0,1,137.56,48.54Z"/><path class="cls-2" d="M202,35.86c1.64,1.69,1.55,10.79-.11,12.2Q202,42,202,35.86Z"/><path class="cls-2" d="M49.63,59.74c-.08-.22-.56-.27-.3-.6s3.71-.16,4.09.12A10,10,0,0,1,49.63,59.74Z"/><path class="cls-2" d="M213.66,29.22c.46.07.94.21,1.07.69.48,1.71,1.3,2.94,3.34,2.83.16,0,.35.55.53.85-.27,0-.54.07-.81.07C213.39,33.75,213.39,33.75,213.66,29.22Z"/><path class="cls-2" d="M54,59.08c.1-.31.26-.43.51-.12Z"/><path class="cls-2" d="M58.76,49.08Q61,46.28,63,43.3c.58-.85,1-1.64.27-2.63a38.71,38.71,0,0,0-5.65-6.55c-3.48-3-7.58-3.75-12-3.4.38-.63,1.08-.59,1.64-.65a14.08,14.08,0,0,1,11.35,4A33.4,33.4,0,0,1,63.74,40a2.36,2.36,0,0,1-.05,3.22c-1.1,1.37-1.91,3-3,4.32C60.12,48.15,59.7,48.93,58.76,49.08Z"/><path class="cls-2" d="M96.85,48.25a11.82,11.82,0,0,0,2-6.11c.08-4.53-2.27-7.51-5.93-9.7a15.29,15.29,0,0,0-7.83-2,.74.74,0,0,1,.64-.41,13.24,13.24,0,0,1,12.88,7.18c1.59,3.45,1.71,7.1-.66,10.46A1,1,0,0,1,96.85,48.25Z"/><path class="cls-2" d="M95.58,49.82l.22-.24c.17.11.39.24.15.44S95.66,50,95.58,49.82Z"/><path class="cls-2" d="M142,43.1a30.43,30.43,0,0,1-1.85-6.62C142.67,37.45,143.78,41.45,142,43.1Z"/><path class="cls-2" d="M179.64,48.67c0-2.36.05-4.71.09-7.07a3.87,3.87,0,0,0-1.67-3.52c1.62-2.25,2.17.27,2.5.82,1.32,2.22.77,4.78.85,7.22C181.46,47.42,181.26,48.53,179.64,48.67Z"/><path class="cls-2" d="M180.82,29.62c.86,1.4.54,2.82.23,4.25C179.9,32.52,180.28,31.07,180.82,29.62Z"/><path class="cls-2" d="M257.42,49.2a31,31,0,0,0,.46-7.07,6,6,0,0,0-1.6-3.93c2-1.11,2.58.82,2.69,1.8a56.32,56.32,0,0,1,.1,7.69C259.05,48.68,258.35,49.11,257.42,49.2Z"/><path class="cls-2" d="M42.49,40.76c0-.59.42-.44.75-.44,3.56,0,7.11,0,10.67,0,1.2,0,1,.72,1,1.39s.31,1.51-.92,1.17c0-.83-.54-.76-1.09-.76H45.79c-1.11,0-2.37.34-2.8-1.23C43,40.8,42.66,40.8,42.49,40.76Z"/><path class="cls-2" d="M42.49,40.76c.17,0,.48,0,.5.12.43,1.57,1.69,1.23,2.8,1.23h7.08c.55,0,1.13-.07,1.09.76-3.57,0-7.14,0-10.72.08-.65,0-.89-.23-.83-.86C42.46,41.65,42.47,41.21,42.49,40.76Z"/><path class="cls-2" d="M88.08,43.21c-.6.06-.61.49-.6.95,0,.61,0,1.23,0,1.84s0,.93-.7.74c-.13-.12-.24-.33-.38-.35-1.43-.19-1.68-1.07-1.56-2.33s-.7-1.49-1.72-1.41-1.59-.11-1.49-1.26a.77.77,0,0,0-.77-.9c0-.77.56-.45.93-.51.79-.12,1.64.27,2.38-.28.63,0,.69-.37.7-.86a6.18,6.18,0,0,0-.29-2.34,2.73,2.73,0,0,1,.4,0c2.46-.07,2.5-.07,2.47,2.37,0,.94.28,1.31,1.21,1.16a2.67,2.67,0,0,1,.4,0c1.91,0,2.59,1,2,2.88-.15.48-.47.45-.84.36A1.26,1.26,0,0,0,88.08,43.21Z"/><path class="cls-2" d="M80.86,40.49a.77.77,0,0,1,.77.9c-.1,1.15.57,1.33,1.49,1.26s1.84.19,1.72,1.41S85,46.2,86.4,46.39c.14,0,.25.23.38.35a3,3,0,0,1-.52.11c-2.16.09-2.13.09-2.18-2.06,0-.58.46-1.46-.84-1.5C80.65,43.21,80.65,43.16,80.86,40.49Z"/><path class="cls-2" d="M84.58,36.5a6.18,6.18,0,0,1,.29,2.34c0,.49-.07.88-.7.86,0-.83-.06-1.66-.07-2.48C84.1,36.89,84,36.47,84.58,36.5Z"/><path class="cls-2" d="M88.08,43.21a1.26,1.26,0,0,1,2.16,0A6.53,6.53,0,0,1,88.08,43.21Z"/></g></g></svg>