<svg xmlns="http://www.w3.org/2000/svg" viewBox="0 0 381.01 381.01"><defs><style>.cls-1,.cls-4{fill:#0a1335;}.cls-2{fill:#f7f8f8;}.cls-3{fill:#fff;}.cls-4{font-size:57.93px;font-family:Montserrat-Bold, Montserrat;font-weight:700;letter-spacing:-0.01em;}</style></defs><title>Asset 8</title><g id="Layer_2" data-name="Layer 2"><g id="Layer_1-2" data-name="Layer 1"><rect class="cls-1" width="381.01" height="381.01" rx="14.69"/><path class="cls-2" d="M187.49,279.61a2.87,2.87,0,0,0,0-1.27V170.5h0V76.18a.77.77,0,0,0,0-.15c0-8.74-5.3-17.39-13.75-22.26-9.1-5.25-19.36-5.19-26.36-4.22-11.54,1.6-21.58,6.61-28.27,14.11-6.88,7.71-9.88,18.12-8.14,27.4a47.72,47.72,0,0,0-39.24,12.41C59.89,114.36,54.77,129.78,58,144.73c1.81,8.33,6.63,15.33,13.16,19.3a30,30,0,0,0-4.52,11.91,31.48,31.48,0,0,0,.81,13.85c-12.54,8.37-20.2,22.67-20.5,38.46-.3,16.11,7.07,31,19.73,39.81,3.16,2.2,12.62,8.12,22.77,8.12a24.36,24.36,0,0,0,4-.32c-1.08,8.53,1.17,17.89,6.38,26.41,8.76,14.34,20.84,24.47,33.15,27.79a66,66,0,0,0,17.14,2.34c10,0,19.23-2.53,26.19-7.42,6.18-4.36,11.56-15.23,11.19-22.53V279.61ZM173,320.24c-9.4,6.63-23.78,8.21-38.48,4.23-10.89-2.94-21.73-12.13-29.73-25.22-4.58-7.5-6.55-15.66-5.55-23,1.12-8.08,6.15-15.15,12.82-18l.07,0a25,25,0,0,0,5.47,3.2,26,26,0,0,0,10.2,2,26.75,26.75,0,0,0,15-4.49,2.89,2.89,0,1,0-3.25-4.79A20.61,20.61,0,0,1,114,221.93a2.89,2.89,0,1,0-3.91-4.27,27,27,0,0,0-8.2,23.92A26.57,26.57,0,0,0,107.68,254a28.52,28.52,0,0,0-12.76,15.57c-8,2.62-18.06-1.45-24.92-6.23-11.07-7.71-17.52-20.78-17.25-34.95a41.27,41.27,0,0,1,17-33.14,23.41,23.41,0,0,0,13.08,11,20.26,20.26,0,0,0,6.23,1,19.15,19.15,0,0,0,12.22-4.28,2.89,2.89,0,1,0-3.69-4.45,14.09,14.09,0,0,1-13,2.24,18.1,18.1,0,0,1-10.36-9.31,24.62,24.62,0,0,1-1.9-14.53c.93-5.84,3.71-10.95,7.62-14,4.26-3.33,10-4.2,14.38-2.15a2.89,2.89,0,1,0,2.46-5.24c-6.27-2.95-14.47-1.81-20.41,2.84-.49.38-1,.81-1.41,1.23-5.59-3-9.78-8.88-11.33-16-2.85-13.11,1.51-26.15,12-35.77,10-9.22,23.51-13.12,36-10.65a18.47,18.47,0,0,0-.06,18.26,2.89,2.89,0,1,0,5-2.93,12.23,12.23,0,0,1,17.16-16.48,2.89,2.89,0,0,0,3.14-4.86,18.5,18.5,0,0,0-19.94.3c-2-7.87.42-17.08,6.47-23.86C129.18,61,138,56.7,148.15,55.28c6.11-.85,15-.93,22.68,3.5,6.82,3.94,11.18,11.17,10.86,18,0,.11,0,.21,0,.32v39.27a30.29,30.29,0,0,1-18-1.42c-6.11-2.62-10.9-7.85-12.49-13.67-1.67-6.12.33-13,4.86-16.76a2.89,2.89,0,1,0-3.69-4.46c-6.33,5.23-9,14.37-6.75,22.75,2.07,7.59,8,14.12,15.79,17.46a33.84,33.84,0,0,0,13.36,2.63,40.48,40.48,0,0,0,6.89-.62v47.61c-3,6.77-11.43,11.9-18.7,11.28A18.49,18.49,0,0,1,147.27,168a26.42,26.42,0,0,0,6.51-10.48,27.24,27.24,0,0,0-7.06-27.78,2.9,2.9,0,0,0-4,4.21,21,21,0,1,1-32.13,26.54,2.89,2.89,0,0,0-4.88,3.11A27.33,27.33,0,0,0,128.49,176a24.4,24.4,0,0,0,3.19-.2,26.4,26.4,0,0,0,10.78-3.91,24.21,24.21,0,0,0,20,15.11c.55,0,1.1.07,1.66.07a26.32,26.32,0,0,0,17.53-7.42v92.25c-7.06-5.29-16.95-7-25.16-3.69-10.61,4.25-17.53,16.42-15.75,27.7a2.91,2.91,0,0,0,2.86,2.45,2.28,2.28,0,0,0,.45,0,2.89,2.89,0,0,0,2.41-3.31,19.76,19.76,0,0,1,35.19-15.11v22.56s0,.06,0,.1v.1C182,307.44,178,316.71,173,320.24Z"/><path class="cls-2" d="M157.6,235a22,22,0,0,0,17.62-35.37,2.89,2.89,0,0,0-4.59,3.52,16.21,16.21,0,1,1-28.25,14.94,2.9,2.9,0,0,0-5.5,1.81,22.58,22.58,0,0,0,18.84,15C156.35,234.94,157,235,157.6,235Z"/><path class="cls-3" d="M334.27,228.26c-.3-15.79-7.95-30.1-20.5-38.46a32.14,32.14,0,0,0-2.11-23l-1.57-2.55,2-1.57a30.31,30.31,0,0,0,11.11-17.91c3.25-15-1.87-30.38-13.69-41.26a47.68,47.68,0,0,0-39.24-12.41c1.74-9.29-1.26-19.7-8.14-27.41-6.69-7.49-16.73-12.5-28.27-14.1-7-1-17.26-1-26.37,4.22-8.44,4.87-13.74,13.51-13.75,22.25,0,.06,0,.11,0,.16V170.5h0V278.35a2.73,2.73,0,0,0,0,1.27v13.49l-.07.07.07.07v9.2c-.37,7.3,5,18.18,11.19,22.53,6.95,4.9,16.15,7.43,26.18,7.43a66.05,66.05,0,0,0,17.15-2.34c12.3-3.33,24.39-13.46,33.15-27.8,5.21-8.51,7.45-17.87,6.38-26.4a24.33,24.33,0,0,0,4,.32c10.16,0,19.61-5.92,22.78-8.12C327.21,259.25,334.58,244.36,334.27,228.26ZM311.05,263c-2.37,1.65-10.75,7-19.27,7a18.16,18.16,0,0,1-3-.24l-4.21-.7h2.05v-20l-23.91-23.91V207.16l7.52-7.52a8.33,8.33,0,0,0,3.24.65,8.47,8.47,0,1,0-7.66-4.88l-9.22,9.22v18.73H240.4a8.47,8.47,0,1,0,.07,6.12h17.85l22.19,22.2v17.45h.27l1,7.5a34.28,34.28,0,0,1-4.06,19.85H244.75a8.47,8.47,0,1,0,0,6.12H273.9c-7.67,11.13-17.43,18.91-27.23,21.56a59.83,59.83,0,0,1-15.55,2.13c-8.83,0-16.88-2.24-22.66-6.31-4.44-3.13-8.87-12-8.6-17.22V302h0v-6.32l24.22-24.22h18.57a8.48,8.48,0,1,0,0-6.12H221.55L199.87,287V219.11l58.18-58.19V138.84a8.48,8.48,0,1,0-6.12.14v19.41l-52.06,52.06V103.5H212.7L230,86.16v-.35a8.49,8.49,0,1,0-6.74-1.57L210.16,97.38H199.87V76.48s0-.28,0-.28V76c0-6.56,4.21-13.22,10.69-17a31.75,31.75,0,0,1,16.09-3.91,46.6,46.6,0,0,1,6.38.45c10.1,1.4,18.82,5.71,24.54,12.12,5.53,6.2,8.1,14.71,6.69,22.2l-.46,2.44H249.55l-32.36,32.37v13.13a8.46,8.46,0,1,0,6.12.23V127.28L252.09,98.5l10.59-.07,8.53-1.31a38.78,38.78,0,0,1,5.81-.44A41.87,41.87,0,0,1,305.38,108c10.21,9.4,14.64,22.66,11.86,35.46a24,24,0,0,1-9.51,14.82l-15.42-15.41v-9.2a8.46,8.46,0,1,0-6.12-.2v11.93l16.18,16.18A1,1,0,0,0,302,163l2.93,4.41a24.27,24.27,0,0,1,3.58,9.5,25.68,25.68,0,0,1-.64,11.15l-1.29,4.32.06,0V225l-2.33,2.34a8.46,8.46,0,1,0,4.9,7.67,8.4,8.4,0,0,0-.66-3.26l4.22-4.21V196.66a41.23,41.23,0,0,1,15.35,31.71C328.42,242.43,322,255.4,311.05,263Z"/><rect class="cls-3" x="153.08" y="155.7" width="75.33" height="75.33" rx="27.34"/><text class="cls-4" transform="translate(160.72 212.33)">AI</text></g></g></svg>