<svg xmlns="http://www.w3.org/2000/svg" xmlns:xlink="http://www.w3.org/1999/xlink" viewBox="0 0 288.67 82.8"><defs><style>.cls-1{fill:none;}.cls-2{fill:#ffedb4;}.cls-3{clip-path:url(#clip-path);}.cls-4{fill:#010101;}.cls-5{fill:#020202;}.cls-6{fill:#030303;}.cls-7{fill:#070707;}.cls-8{fill:#f68523;}.cls-9{fill:#fdbb57;}.cls-10{fill:#f58523;}.cls-11{fill:#ba814f;}.cls-12{fill:#e9a153;}.cls-13{fill:#f5aa55;}.cls-14{fill:#c08751;}.cls-15{fill:#f28222;}.cls-16{fill:#ee8122;}.cls-17{fill:#ca6221;}.cls-18{fill:#fcb056;}.cls-19{fill:#d1661e;}.cls-20{fill:#e57822;}.cls-21{fill:#feb657;}.cls-22{fill:#cf9051;}.cls-23{fill:#df9a52;}.cls-24{fill:#e67d23;}.cls-25{fill:#ef8023;}.cls-26{fill:#faac50;}.cls-27{fill:#f5ab55;}.cls-28{fill:#e17420;}.cls-29{fill:#ef8324;}.cls-30{fill:#d99651;}.cls-31{fill:#ea8024;}.cls-32{fill:#c2864f;}.cls-33{fill:#e67e23;}.cls-34{fill:#df7b23;}.cls-35{fill:#f48727;}.cls-36{fill:#e47f27;}.cls-37{fill:#ce641f;}.cls-38{fill:#e97e27;}.cls-39{fill:#d67c2c;}.cls-40{fill:#e4994c;}.cls-41{fill:#f6a652;}.cls-42{fill:#f99e40;}.cls-43{fill:#f7a94e;}.cls-44{fill:#e67820;}.cls-45{fill:#de7220;}.cls-46{fill:#e27520;}.cls-47{fill:#da6d20;}.cls-48{fill:#fe9a3b;}.cls-49{fill:#fb9d3d;}.cls-50{fill:#fba242;}.cls-51{fill:#fca643;}.cls-52{fill:#d6741e;}.cls-53{fill:#e0791f;}.cls-54{fill:#c86d1e;}.cls-55{fill:#cd7021;}.cls-56{fill:#d56920;}.cls-57{fill:#cd641e;}.cls-58{fill:#be681d;}.cls-59{fill:#ee913b;}.cls-60{fill:#fdad55;}.cls-61{fill:#f9a852;}.cls-62{fill:#d47b2a;}.cls-63{fill:#faa047;}.cls-64{fill:#fea649;}.cls-65{fill:#fba84b;}.cls-66{fill:#faa345;}.cls-67{fill:#fcae58;}.cls-68{fill:#f69f48;}.cls-69{fill:#fa9639;}.cls-70{fill:#ea7b21;}.cls-71{fill:#d36b21;}.cls-72{fill:#f79d43;}</style><clipPath id="clip-path"><rect class="cls-1" x="10.93" y="6.26" width="270.2" height="70.29"/></clipPath></defs><title>Asset 14</title><g id="Layer_2" data-name="Layer 2"><g id="Layer_1-2" data-name="Layer 1"><rect class="cls-2" width="288.67" height="82.8" rx="14.4"/><g class="cls-3"><path class="cls-4" d="M189,63.34c0-4.85.1-9.72-.05-14.57-.06-1.89.95-1.68,2.17-1.74s1.94.1,1.92,1.69c-.1,6.46,0,12.92-.08,19.38,0,.83.73,2.43-.78,2.42s-3.71,1.21-4.9-1.16c-2.37-4.72-4.81-9.39-7.24-14.08-.25-.47-.26-1.15-1.17-1.36,0,5-.06,9.89,0,14.79,0,1.57-.42,2-2,2-1.42,0-2.09-.24-2.06-1.92q.15-9.93,0-19.88c0-1.69.65-1.76,2.05-1.89,2.42-.24,3.72.53,4.76,2.82,2.08,4.63,4.58,9.08,6.91,13.6Z"/><path class="cls-4" d="M109,68.79A10.06,10.06,0,0,1,103.52,71c-4.69.4-8.19-2.36-8.36-7-.18-5.2,0-10.4-.06-15.6,0-2,1.34-1.28,2.24-1.31s2.23-.61,2.18,1.35c-.1,4.78,0,9.56,0,14.34,0,3.28,1.5,4.89,4.41,4.83,3.17-.06,5.07-1.88,5.07-4.85,0-4.7.11-9.39,0-14.08-.07-2,1.1-1.62,2.22-1.62s2.28-.39,2.23,1.62c-.13,6.45,0,12.91-.09,19.36,0,.88.87,2.42-1,2.56C110.89,70.71,109.13,71.25,109,68.79Z"/><path class="cls-4" d="M126.89,46.57c4.32,0,7.53,1.75,8.45,4.78.21.68,1.18,2-.19,2.2-1.16.19-3,1.05-3.68-.87-1-2.58-3-2.88-5.33-2.68-1.65.14-3,.81-3.19,2.62s1,2.55,2.44,3.05c2,.72,4.17,1.27,6.2,2.06,2.5,1,4.22,2.62,4.25,5.59,0,4.5-2.1,7-6.65,7.53a13.4,13.4,0,0,1-7.62-1,5.9,5.9,0,0,1-3.17-3.41c-.3-.87-1.49-2.37-.17-2.76s3.28-1.33,4,1.35c.62,2.19,3.59,3,6.48,2.35,2-.47,2.73-1.62,2.65-3.61a2.7,2.7,0,0,0-2-2.57c-1.73-.65-3.48-1.22-5.24-1.79-4.62-1.5-6.06-3.38-5.58-7.31.38-3.06,3-5.08,7.19-5.45Z"/><path class="cls-4" d="M219.83,58c3.61,1.28,4.38,3.9,4,7.13-.29,2.48-2.35,4.61-5.31,5.45-4.49,1.29-9.53-.27-11.16-3.56-.39-.79-1.34-2.24-.33-2.58s3-1.2,3.93.75a4.12,4.12,0,0,0,3.09,2.33c2.72.57,5-.77,5.42-3.13.45-2.73-1.09-4.38-4.22-4.72-.88-.09-2.23.71-2.57-.66-.3-1.21-.56-2.75,1.76-2.51,2,.2,3.81-.3,4.19-2.65.24-1.48-.06-2.87-1.69-3.54a4.54,4.54,0,0,0-5.42,1.43c-.39.57-.3,1.58-1.42,1.44s-2.33.49-2.88-.3.18-2.08.76-3c2.67-4.14,10.73-4.52,13.83-.68C223.92,51.85,223.17,55.51,219.83,58Z"/><path class="cls-5" d="M76.91,58.7c0-3.28.06-6.55,0-9.82,0-1.37.27-1.91,1.78-1.86,3.53.11,7.08.06,10.62,0,1.22,0,2,0,2,1.67s-.77,1.89-2.15,1.84c-2.1-.08-4.21,0-6.32,0-1.23,0-1.52.4-1.56,1.58-.21,5.16-.25,5.11,5.26,5.2,1.3,0,3.49-1,3.22,1.93-.1,1.05-.34,1.5-1.45,1.46-1.77-.06-3.55.06-5.31,0-1.29-.07-1.79.3-1.72,1.67.11,2.26-.07,4.53.06,6.79.1,1.8-1,1.56-2.11,1.54S76.8,71,76.87,69C77,65.58,76.91,62.14,76.91,58.7Z"/><path class="cls-5" d="M212.79,36.29c-4.56,0-7.37-1.73-8.26-5.12-.15-.58-1-1.54.38-1.75.73-.12,1.51-.32,2,.83,1.71,3.69,5.08,4.86,9,3.37a3.61,3.61,0,0,0,2.57-3.36c.13-1.76-.36-3.22-2-3.94-1.85-.8-3.77-1.43-5.68-2.07-4.81-1.63-6.34-3.68-5.57-7.53.59-2.92,4.2-5,8.25-4.76s6.8,2.06,7.47,5.14c.12.53.87,1.39-.27,1.63-.84.17-1.7.33-2.25-.93-1.45-3.35-4.89-4.5-8.32-3a3.37,3.37,0,0,0-2.24,3.05,2.92,2.92,0,0,0,1.87,3.23c1.94.79,3.92,1.48,5.9,2.16,4.5,1.54,6.16,3.71,5.62,7.38s-3.13,5.61-7.67,5.7Z"/><path class="cls-5" d="M230,24.44l8.29-10.38c1.36-1.7,1.37-1.7,4.25-1.53-2.35,3-4.49,5.82-6.78,8.53-1.07,1.27-1.33,2.17-.18,3.6,1.78,2.21,3.27,4.66,4.93,7,.75,1,1.23,2.46,2.94,2.4.75,0,.64.61.65,1.1s-.26.88-.87,1A4.18,4.18,0,0,1,239,34c-2-3-4.09-5.92-6.13-8.88-3.34,2.19-3.62,5.39-3.38,8.83.06.83.59,2.08-1.21,2.12S227,35,227,34q0-9.81,0-19.63c0-.92-.42-2.06,1.33-2s1.22,1.26,1.23,2.11c.06,3.24,0,6.49,0,9.74Z"/><path class="cls-5" d="M112,33.47a9.62,9.62,0,0,1-7.79,2.83c-3.62-.28-6.25-2.59-6.4-6.23-.21-5.45-.07-10.91-.12-16.36,0-.93.25-1.34,1.28-1.35,1.24,0,1.32.65,1.32,1.6,0,4.78,0,9.57,0,14.35,0,2.38.54,4.61,3.14,5.47a6.91,6.91,0,0,0,7-1.53,4.21,4.21,0,0,0,1.57-3.5c-.09-4.7-.06-9.4,0-14.1,0-.93-.64-2.31,1.33-2.29s1.18,1.31,1.19,2.13q.08,9.71,0,19.39c0,.74.67,1.94-.88,2.13C111.93,36.23,112.35,34.79,112,33.47Z"/><path class="cls-5" d="M187.28,24.18c0-3.27.06-6.54,0-9.8,0-1.46.23-2.1,1.9-2,3.11.14,6.23,0,9.34,0,.84,0,1.7-.17,1.67,1.19s-.93,1.13-1.73,1.14c-2.27,0-4.55.09-6.82,0-1.37-.06-1.63.43-1.66,1.71-.13,6.3-.17,6.24,6.15,6.34,1.09,0,3.18-1.08,3.22,1,.05,2.38-2.14,1-3.28,1.15-1.89.27-4.47-.58-5.6.38-1.35,1.15-.18,3.79-.48,5.74-.35,2.25.5,2.92,2.7,2.69,2-.2,4,0,6.06,0,.85,0,1.44.1,1.45,1.2S199.52,36,198.71,36c-3.29,0-6.57-.08-9.85,0-1.48.05-1.62-.63-1.6-1.81C187.32,30.89,187.28,27.54,187.28,24.18Z"/><path class="cls-6" d="M144.93,58.71c0,3.43-.11,6.87,0,10.3.08,2-1.16,1.62-2.29,1.63s-2.3.31-2.27-1.65q.17-10.18,0-20.36c0-2,1.22-1.55,2.29-1.56s2.37-.44,2.27,1.58C144.81,52,144.92,55.35,144.93,58.71Z"/><path class="cls-7" d="M126.79,25.09c0-2.85-.07-5.7,0-8.54.05-1.37-.28-2-1.77-1.84-1.34.12-2.69,0-4,0-.84,0-1.21-.34-1.21-1.19s.36-1.17,1.2-1.17q7.2,0,14.39,0c.91,0,1.15.38,1.15,1.21s-.41,1.17-1.24,1.16c-1.34,0-2.7.08-4,0s-1.69.41-1.67,1.7c.06,5.62.08,11.23,0,16.84,0,1,1,2.7-1.32,2.78s-1.39-1.64-1.43-2.64C126.72,30.63,126.79,27.86,126.79,25.09Z"/><path class="cls-8" d="M34.67,12.93A62.55,62.55,0,0,1,46.4,14.34a3.85,3.85,0,0,1-.64,2.12c2.24.5,4.16,4.46,3.38,6.77-1.35.4-2.68-.31-4-.09-2-.06-4,.11-6-.12a2.19,2.19,0,0,1-.74-.35c-.23-.29-.27-.57.08-.81a1.45,1.45,0,0,1,1-.14c-.28-.1-.6,0-.86-.11C36.63,20.77,34.05,14.93,34.67,12.93Z"/><path class="cls-9" d="M33.61,29.49V33a1.57,1.57,0,0,1-.79.92,20.65,20.65,0,0,0-8.7,6.49c-.33.44-.73.15-1-.25a19.82,19.82,0,0,1,.14-8.33q1-1.63,1.86-3.33a14.45,14.45,0,0,1,1.69-1.9c.81-.59,1.36-1.8,2.71-1.21C29.61,28.05,32.1,28.28,33.61,29.49Z"/><path class="cls-10" d="M17,38c-.23-6-.42-12.08-.13-18.12,2.43-1,3.55.88,4.88,2.27A3,3,0,0,1,22,23.32a12.9,12.9,0,0,1-.39,2.22c0,.24-.1.48-.16.72a27.59,27.59,0,0,0-.56,3.25c-.28.84-.27,1.75-.57,2.58-.75.87-.61,2.83-2.63,2.12,0,.24.17.42.19.65C18,36,18.65,37.34,17,38Z"/><path class="cls-11" d="M52.81,46.62c-4.06.93-8.27.89-12.34,1.85-2.6.61-4.68,1.72-5.89,4.16-1.51-.17-2-1.09-1.55-2.42.6-1.88,1.23-3.79,3.09-4.9a3.49,3.49,0,0,1,.77-.26c.82-.13,1.64-.09,2.47-.14,1,0,2,.05,2.94,0s2,.07,3,0C47.84,45.29,50.54,45,52.81,46.62Z"/><path class="cls-12" d="M33.57,59.71v3c-2.21.56-3.15-1.82-5-2.12a1.49,1.49,0,0,1-1.15-1.11c.28-.52-.05-1-.18-1.44-.49-2.19-1.62-4.21-1.81-6.48-1.19-5,1.73-8.19,5.08-11.16.85-.76,1.62-.81,2.25.28a1.7,1.7,0,0,1,.16.74,2.81,2.81,0,0,1-.61,1.36C25.8,47.88,26.94,55.28,33.57,59.71Z"/><path class="cls-13" d="M32.59,41.07c-.47-.14-.63-1.31-1.35-.54-2,2.09-4.29,3.85-5.24,6.82-.5,1.58.32,2.93.05,4.39-1.73-.76-1.62-2.4-1.88-3.86,1.12-7.11,6.72-12,13.6-11.86a86.11,86.11,0,0,1,10.06,2,.43.43,0,0,1-.06.65,1.49,1.49,0,0,1-.75.13,23.84,23.84,0,0,0-3.78-.09c-.65,0-1.29,0-1.93,0s-1,0-1.54,0l-2.24,0a9.57,9.57,0,0,0-2.07.13,4.93,4.93,0,0,1-.66.07c-.69,0-1.2.22-1.31,1a3.13,3.13,0,0,1-.16.62A1,1,0,0,1,32.59,41.07Z"/><path class="cls-14" d="M53.9,24.88c-2.43,1-5,.51-7.45.49-2.93,0-5.86-.16-8.73.63s-3.27.76-4.71-1.7c.71-1.4,2.23-1.31,3.43-1.83.87-.29,1.66.27,2.5.23h6c1.52-.31,2.91.65,4.42.47a8.7,8.7,0,0,1,2.27.22,4.21,4.21,0,0,1,.72.18C53,23.91,53.92,23.85,53.9,24.88Z"/><path class="cls-15" d="M34.67,12.93c.27,3.35,3.34,8.19,5.59,8.77-.6.51-1.57-.07-2,.72-.53.46-1.17.19-1.75.26a4.09,4.09,0,0,1-4-3c-.57-1.57-1.83-2.85-2.12-4.53s-1.2-1.78-2.49-1a2.85,2.85,0,0,1-1.15.48.79.79,0,0,1-.81-.57c0-.75.83-.8,1.13-1.31C29.62,12,32.14,12.72,34.67,12.93Z"/><path class="cls-16" d="M41.25,38.08h2c1.3.61,2.76-.17,4.06.46h.46c.65-.36,1.24-.37.93.55-.2.63-1,.8-1.7.76,1,1.45,3-.64,3.8,1.21.18,1.14,1.35,1.85,1.34,3.07-3.19,2.51-5.92.36-8.66-.94C41.37,42.18,40.72,40.4,41.25,38.08Z"/><path class="cls-17" d="M31.6,70.38a105.57,105.57,0,0,1-10.67-.68c-2.23-.15-3.37-1.1-2.81-3.46.27-1.13.68-2.13,2.1-2.16a.85.85,0,0,1,.58.3,10.39,10.39,0,0,0,6.78,3.74c1.56.18,3.06.93,4.69.47.34-.09.58.27.71.6C33,70.19,32.71,70.73,31.6,70.38Z"/><path class="cls-18" d="M37.77,36c-2.48.81-5.58,1-7.3,2.59-2.36,2.21-6.12,4-5.47,8.37,0,.19-.23.43-.35.64a2.79,2.79,0,0,1-1.36-3c.12-.32.09.08.09-.23,0-5,4-6.43,7.46-8.36.73-.41,1.5-1.08,2.54-.37.13.09,1-1.08,1.87-.7Z"/><path class="cls-19" d="M20.51,64.25H20c-.46-.8-1.76-.4-2.07-1.42a2.72,2.72,0,0,1,0-2,3.09,3.09,0,0,1,.14-.32,1.4,1.4,0,0,1,1.81-.34c2.05,1.33,4.48,1.71,6.63,2.76.74.35,1.7,1.51,2-.42,1.43-.31,1.42,1.14,2.13,1.72.34.87.94,1.68.71,2.7-.65,1.08-1.38,1-2.49.5A31.79,31.79,0,0,0,20.51,64.25Z"/><path class="cls-20" d="M17.46,49.13l0-1.84a17,17,0,0,1,0-5.65c1.2-.34,1.19.83,1.7,1.34a4.51,4.51,0,0,1,0,1.93c.26-.51,0-1.21.14-1.82.22-.85.64-1.41,1.64-1.18.68.48.68,1.28.94,2a28.61,28.61,0,0,0,1.43,5.22,1.83,1.83,0,0,1,0,.7c-.51,1.34-1.27,1.72-2.64.91C19.62,50.1,18.48,49.72,17.46,49.13Z"/><path class="cls-21" d="M35.25,35a51.58,51.58,0,0,0-7.76,3.61c-1.75,1.12-3.58,2.18-3,4.79a.92.92,0,0,1-.91,1.2c-.8-.65-.73-1.56-.74-2.44a2.12,2.12,0,0,1,.67-1.59c1.8-3.67,5.19-5.39,8.67-7,.46-.21.94-.36,1.4-.54Z"/><path class="cls-22" d="M34.12,54.19a10.45,10.45,0,0,1-.47,3.51c-.78.26-1.26-.24-1.78-.66-3-2.48-3.69-10.79,1.09-13.13a1.64,1.64,0,0,1,1.93,1c-.72,1.8-2,3.4-2.1,5.45C32.76,51.8,32.44,53.35,34.12,54.19Z"/><path class="cls-23" d="M33.57,59.71c-1.79.28-2.48-1.25-3.51-2.16-2.49-2.23-3.41-7.12-2-10.16.93-2,1.41-4.28,4-4.8.39.83-.09,1.46-.56,2a9.11,9.11,0,0,0,2,13.57Z"/><path class="cls-24" d="M41.25,38.08a8.32,8.32,0,0,0,10.92,6.06c.27.81,1.13,1.47.64,2.48l-7.52-1a10.24,10.24,0,0,1-5.78-4.74c-.55-1-1.06-1.94.21-2.77Z"/><path class="cls-25" d="M19,43.09c-1,0-1-.78-1-1.51-.7-.49-.59-1.36-.95-2V38c.1-.13.31-.28.29-.39C17,35.18,18.28,33.5,20,32c1.37,1.75.26,3.9.94,5.75.27,1.06.19,2.16.43,3.23a1.3,1.3,0,0,1-.39,1.1c-.77-.08-1,.71-1.48,1-.37-.4-.2-.9-.26-1.35C19.2,42.2,19.36,42.69,19,43.09Z"/><path class="cls-26" d="M31.17,66.75l-1.06-2.52c.31-1.18-.67-1.69-1.27-2.4a1.68,1.68,0,0,1-.28-1.6c.39-.11.9-.49,1.14-.1.91,1.47,2.57,1.74,3.86,2.58.06,2.09,0,4.19.22,6.26S33,71,31.6,70.38c.94-.15,1.21-.7,1-1.57A2.08,2.08,0,0,1,31.17,66.75Z"/><path class="cls-27" d="M33.1,24.46c1.34,1.13,2.72,2.11,4.62,1.54-1.41,1.11-3.31,1.66-4.11,3.49-1.91.43-3-1.25-4.41-1.91-.94-.43.31-1.4.38-2.16l.19-.27a4.45,4.45,0,0,1,2.79-1.06A1.14,1.14,0,0,1,33.1,24.46Z"/><path class="cls-28" d="M17.46,49.13c1.64-1.24,3.42.58,3.72,1,1.43,2,1.2-.66,1.81-.47a2.44,2.44,0,0,1,1,.88,2.64,2.64,0,0,1,.49.9,2,2,0,0,1-.16,1.38C22.59,54.68,20.84,54,19,53c-.58.54-.24,1.34-.33,2s.05,1.57,0,2.35A5.38,5.38,0,0,1,18,60.66l-.15.13C17.2,56.92,17.43,53,17.46,49.13Z"/><path class="cls-29" d="M51.88,23.94c-.71-.05-1.48.24-2-.45-.16-.19-.45-.27-.49-.56C49,21,47.59,19.53,47.2,17.6c-.26-1.25-1.63-.37-2.48-.91,1.58-.1,0-2.29,1.68-2.35a4.18,4.18,0,0,1,2.57.48c-.77.67-.74,1.39.1,1.88,2.22,1.3,1.39,4.48,3.72,5.81C53.42,22.87,52.22,23.45,51.88,23.94Z"/><path class="cls-16" d="M21.54,22.45c-1.47-1-2.59-2.61-4.64-2.53.17-1.33-.94-2.84.58-4a17.82,17.82,0,0,1,6.22,2.58C23.4,20.07,23.3,21.71,21.54,22.45Z"/><path class="cls-30" d="M33.61,58.21c-2.77-.79-5.32-5.48-4.82-8.47.45-2.73,1.93-4.91,3.35-7.15l.43-1a2.1,2.1,0,0,1,.61,2.49c-4.31,4.31-4.11,10,.47,13.64Z"/><path class="cls-31" d="M51.88,23.94c-.2-.56,1.24-1.17-.29-1.82a2.45,2.45,0,0,1-1.38-3.06c.41-1.27-1.26-1.32-1.76-2.25-.61-1.14-.83-1.6.52-2l.89.11c.81.27,1.74.6,1.79,1.51.07,1.48,1,2.43,1.76,3.48a.44.44,0,0,1,.09.46,2.63,2.63,0,0,0,.44,2.05,1.87,1.87,0,0,1,.41,1.51,2,2,0,0,1-2,0A3.64,3.64,0,0,1,51.88,23.94Z"/><path class="cls-32" d="M34.12,54.19c-.6.63-1,1-1.51-.22a8.53,8.53,0,0,1,2.07-8.88.86.86,0,0,1,.91-.23,1,1,0,0,1,.6.75,21.46,21.46,0,0,0-2.3,3.84,2.29,2.29,0,0,0,.69,3.18C34.43,53.15,34.27,53.67,34.12,54.19Z"/><path class="cls-33" d="M23.53,18.41A11.59,11.59,0,0,1,17.48,16a4.87,4.87,0,0,1,2.53-1A6.2,6.2,0,0,1,24.29,17,1.08,1.08,0,0,1,23.53,18.41Z"/><path class="cls-34" d="M24.08,16.91a12.32,12.32,0,0,1-4.07-2,8.39,8.39,0,0,1,3.42-1.1,5.18,5.18,0,0,1,2.65.05l.48.52c.19.36,0,.62-.22.88a11.77,11.77,0,0,0-1.06,1.26C24.94,16.85,24.6,17.15,24.08,16.91Z"/><path class="cls-35" d="M50.83,41.07c-1.62-.8-3.95,1-5.14-1.5.66-1,2.13.54,2.73-.73,0,0-.07-.16-.13-.19a4.26,4.26,0,0,0-.49-.1l0-.51C50.14,37.77,50.67,39.24,50.83,41.07Z"/><path class="cls-36" d="M53.41,19.92c-.38,0-.61-.88-.93-.43-.87,1.23-1.1.69-1.09-.34,0-1.62,0-3.17-1.53-4.22C53.39,14.94,52.89,17.79,53.41,19.92Z"/><path class="cls-37" d="M17.93,62.83A1.7,1.7,0,0,1,20,64.25c-1,.3-1,1.54-1.88,2Z"/><path class="cls-38" d="M17,39.58a2.94,2.94,0,0,1,.95,2c-1.07,1.82-.18,3.82-.56,5.71C16.7,44.75,17.22,42.14,17,39.58Z"/><path class="cls-39" d="M26.08,13.88c-.89.71-1.77,0-2.65-.05a8.44,8.44,0,0,1,3.64-1.07A1.54,1.54,0,0,1,26.08,13.88Z"/><path class="cls-36" d="M53.94,22.43c-.55-.6-1.49-1.11-.44-2.05A3.2,3.2,0,0,1,53.94,22.43Z"/><path class="cls-40" d="M52.36,24l2,0c.13.45.11.82-.45.94Z"/><path class="cls-6" d="M234.83,55.71a22.65,22.65,0,0,0-2.93,1.46c0-1.07,0-1.9,0-2.74,0-2,.6-3.8,2.79-4.21s4.22-.47,5.32,2.08c.74,1.72,2.45.88,3.51.67,1.29-.25.39-1.48.12-2.22a4.63,4.63,0,0,0-1.16-1.9c-2.95-2.57-6.41-2.84-9.94-1.64-3.3,1.12-4.81,3.78-4.95,7.16-.1,2.51.14,5-.05,7.54-.56,7.35,5,10,11,8.83,4.65-.92,7.15-5.34,5.92-10.26C243.41,56.43,239.23,54.32,234.83,55.71Zm1.24,11.9c-2.74,0-4.18-1.61-4.17-4.73,0-2.45,2-4.2,4.81-4.21,2.37,0,3.46,1.29,3.47,4.14C240.19,66,238.8,67.59,236.07,67.61Z"/><path class="cls-6" d="M265.72,54.32c-.13-4.86-3.47-7.82-8.65-7.75s-8.41,3-8.48,8c0,1.42,0,2.85,0,4.27s0,2.86,0,4.28c0,4.94,3.11,7.84,8.41,8s8.57-2.79,8.72-7.65C265.81,60.37,265.8,57.34,265.72,54.32ZM261.27,64a3.85,3.85,0,0,1-4.12,3.6A4,4,0,0,1,253,63.74c-.13-3.26-.13-6.54,0-9.81a3.87,3.87,0,0,1,4.05-4c2.34-.09,3.86,1.22,4.23,3.73a21.17,21.17,0,0,1,.14,2.76c0,.84,0,1.68,0,2.52h-.12A44.22,44.22,0,0,1,261.27,64Z"/><path class="cls-5" d="M169.67,55.51c-.33-5.46-3.71-8.7-9.28-8.91-5.74-.23-9.51,2.74-10.09,8.23a30.66,30.66,0,0,0,.2,9.27,7.78,7.78,0,0,0,6,6.45c6.6,1.6,13.36-.77,13.2-9.76,0-.59,0-1.17,0-1.76C169.68,57.86,169.74,56.68,169.67,55.51Zm-4.52,6.94c-.21,3.31-2.26,5.21-5.3,5.16s-5-2-5.22-5.27c-.08-1.17,0-2.34,0-3.51s-.06-2.35,0-3.51c.22-3.33,2.13-5.21,5.22-5.23s5.09,1.74,5.3,5.09A58.78,58.78,0,0,1,165.15,62.45Z"/><path class="cls-5" d="M180.84,19.72a7.82,7.82,0,0,0-6.34-6.95c-2.84-.7-5.71-.22-8.57-.38-1.34-.08-1.2.81-1.19,1.66V24.13c0,3.44,0,6.88,0,10.32,0,.95.06,1.64,1.31,1.58,2.6-.13,5.22.2,7.8-.42,4-1,6.52-3.55,7-7.6A34.83,34.83,0,0,0,180.84,19.72Zm-3.12,9.77c-1,3.35-6.63,5.55-9.79,4.14-.89-.4-.58-1.11-.58-1.72,0-2.59,0-5.19,0-7.79s0-5.2,0-7.79c0-.54-.23-1.14.51-1.53,3.08-1.59,9,.61,9.94,4A18.92,18.92,0,0,1,177.72,29.49Z"/><path class="cls-5" d="M157.72,30.68c.77-2.13.36-4.31.42-6.47a42.14,42.14,0,0,0,0-4.77c-.51-4.48-3.48-7-8.4-7.45-4.59-.36-8.37,2-9.33,6.3a26.54,26.54,0,0,0,0,12c.92,3.87,4,6,8.23,6C153.45,36.4,156.33,34.57,157.72,30.68Zm-8,3.45c-3.62.26-6.18-1.56-6.82-5.22a26.69,26.69,0,0,1,.06-9.72c.63-3.33,2.84-5,6.28-4.93s5.63,1.8,6.2,5.07a43.72,43.72,0,0,1,.32,5h-.15c0,1.26.09,2.52,0,3.76C155.24,31.71,153.08,33.89,149.68,34.13Z"/><path class="cls-4" d="M86.1,13.39c-.36-1.08-1.15-1.05-2-1s-1.88-.34-2.3.94q-3.63,11.2-7.31,22.4c2,.73,3,.15,3.33-1.79.1-.65.49-1.27.58-1.92.38-2.73,1.86-3.49,4.6-3.36,5.46.25,5.55,0,7.2,5.33.53,1.7,1.29,2.39,3.43,1.78C91.1,28.28,88.58,20.84,86.1,13.39Zm-5.85,13c1.19-3.8,2.35-7.48,3.67-11.7,1.37,4.23,2.56,7.9,3.78,11.7Z"/><path class="cls-41" d="M45.3,22.91H38.72c-.17-.1-.22-.2-.16-.3s.11-.15.16-.15l6.56,0c.18.09.24.19.18.29S45.35,22.91,45.3,22.91Z"/><path class="cls-42" d="M45.3,22.91c0-.15,0-.29,0-.44,1.41-.3,2.69.46,4.07.46.16.19.32.38.49.56Z"/><path class="cls-43" d="M38.72,22.45v.45L36.23,23a.45.45,0,0,1-.64,0c0-.4,0-.75.6-.51l2,0Z"/><path class="cls-44" d="M29.58,25.42c-1.13,0-1.57,1.18-2.49,1.57-1.5-.06-2.21-1.08-2.65-2.32S23.38,22.22,22.87,21a5,5,0,0,1,1.48-2.8c1.63.19,1.89,1.71,2.53,2.76a15,15,0,0,0,2.95,3.89.64.64,0,0,1-.25.59Z"/><path class="cls-45" d="M21,25.94v-.47c.49-.48.56-1.25,1.16-1.65,2,.64,2.29,2.47,2.82,4.05.17.5.65.26.67.64a9.29,9.29,0,0,1-1.58,3.08c-1.44.41-1.92-.85-2.73-1.55a3,3,0,0,1-.56-1.2C20.68,27.86,21.39,26.94,21,25.94Z"/><path class="cls-46" d="M25.67,28.51c-1.68.77-2-1.11-1.91-1.55.11-1.51-1.09-2-1.68-3a.49.49,0,0,1-.18-.59c.36-.82.38-1.82,1.19-2.43a3.38,3.38,0,0,1,1.51,2.49A5.69,5.69,0,0,0,27.09,27Z"/><path class="cls-47" d="M21.52,30c1.14.08,1.64,1.19,2.57,1.6-1.08,2.94-.43,6-.54,9,0,.5-.05,1-.07,1.49-1.27-.24-1-1.3-1.11-2.13-.11-1.14.05-2.29-.17-3.42C21.67,34.37,20,32.34,21.52,30Z"/><path class="cls-48" d="M20.5,38.07c-1-2-.24-4-.5-6.06.12-.85-.31-1.82.5-2.54a2,2,0,0,1,.75,1.42c-.14,1.8.56,3.57.26,5.38A3,3,0,0,1,20.5,38.07Z"/><path class="cls-49" d="M23.09,20.93a6.28,6.28,0,0,1-1,2.52c-.17.24-.35.25-.52,0,0-.33,0-.67,0-1,.66-1.35,1.33-2.7,2-4l.55-1.5,1-.54a1,1,0,0,1,.3.59,1.76,1.76,0,0,1-.81,1.44A7.52,7.52,0,0,0,23.09,20.93Z"/><path class="cls-50" d="M21,30.5c-.15-.35-.31-.69-.46-1,0-1.2-.16-2.43.52-3.53,1.15,1-.08,2.06.06,3.08A1.21,1.21,0,0,1,21,30.5Z"/><path class="cls-51" d="M21.53,23.45h.52l0,.5A1.69,1.69,0,0,1,21,25.47Z"/><path class="cls-52" d="M35.13,38.52c.58-.65,1.34-.43,2.06-.44A15.51,15.51,0,0,0,41.39,44c.48.42,1.16.78.87,1.63h-3c-.72-.56-1.79-.56-2.34-1.42a27.54,27.54,0,0,1-2-2.88A2.47,2.47,0,0,1,35.13,38.52Z"/><path class="cls-53" d="M42.26,45.6c-1.57-1.63-3.48-2.93-4.59-5-.44-.83-.91-1.55-.48-2.51h2.53c-.65,3.12,1.8,4.42,3.66,6,.6.52,1.56.61,1.91,1.48Z"/><path class="cls-54" d="M35.13,38.52c-.59,2.33,1.38,3.72,2.07,5.58.57.74.09,1.13-.5,1.48l-.51,0-.51-.5c-2-1.08-2.1-3.14-2.48-5l-.16,0a1.57,1.57,0,0,1,1.6-1.56Z"/><path class="cls-55" d="M36.7,45.58l.5-1.48c.74.42,1.66.6,2,1.5Z"/><path class="cls-56" d="M18,60.66l0-3.45c2.43.61,5,.63,7.24,2,.56.34.93,0,1.38-.21a.94.94,0,0,1,1,.25,1.65,1.65,0,0,0,1,1c.18.5.37,1,.55,1.51s-.24.72-.51,1c-1.13,1.14.79,1.38.56,2.63-2.63-2.85-6.65-2.48-9.46-4.78C19.38,60.33,18.61,60.62,18,60.66Z"/><path class="cls-57" d="M23,36.07c.25,2-.47,4,.46,6,0,.85.09,1.69.13,2.54l1,3a11.52,11.52,0,0,0,1.4,4.11c0,2.3,1.87,4.17,1.58,6.54-.74.21-1-.41-1.37-.81A5.46,5.46,0,0,1,25.5,56c-.24-.71-.45-1.43-.75-2.11a4.42,4.42,0,0,1-.24-.6c-.29-.67,0-1.48-.46-2.12l-.5-.47a6,6,0,0,0-.76-2.49L21.74,44a21.12,21.12,0,0,1-.62-3.34,4.1,4.1,0,0,1-.07-1.11c.52-.82,1.31-1.5,1.05-2.67A.72.72,0,0,1,23,36.07Z"/><path class="cls-58" d="M33.2,40.07c1.36,1.42,1,3.7,2.48,5l-1,0-1.5-1a4.63,4.63,0,0,1-.61-2.49c0-.17,0-.33,0-.5C32.79,40.74,33,40.41,33.2,40.07Z"/><path class="cls-59" d="M26.58,57.17l1.05,1.1c.05.32.53.65,0,.94l-1,0a1.84,1.84,0,0,1-.64-2A.42.42,0,0,1,26.58,57.17Z"/><path class="cls-35" d="M47.34,38.55c-1.35-.19-2.79.48-4.06-.46C44.64,38.22,46.08,37.64,47.34,38.55Z"/><path class="cls-60" d="M34.64,38.49,33,40.05C32.88,38.69,33.33,38.26,34.64,38.49Z"/><path class="cls-61" d="M35.68,22.94l.55,0-3.12,1.5-.48,0c-.28-.37-1-.07-1.1-.75a1.64,1.64,0,0,1,1.16-.9C33.7,22.56,34.73,22.09,35.68,22.94Z"/><path class="cls-25" d="M35.68,22.94l-3,.5c-2.41-.73-4.47-1.71-4.23-4.79.14-1.74-1.7-2-2.48-3.12a.61.61,0,0,1,.14-.64l.48-.49c.46-.36.91-1,1.37-1,1.07,0,2.37-1.63,3,1.18.69,3,1.64,6.51,5.24,7.9Z"/><path class="cls-37" d="M31.17,66.75l1.39,2.06C29.48,70,26.7,68.09,23.75,68c-.14-2-4-.93-3.24-3.74a1.5,1.5,0,0,1,2-.23c2.21,1.09,4.78,1.43,6.72,3C30.26,67.78,30.56,66.89,31.17,66.75Z"/><path class="cls-62" d="M28.6,62.74l.51-1c.79.65,1.84,1.19,1,2.49C29.35,64,29.63,62.7,28.6,62.74Z"/><path class="cls-63" d="M22,44.09a10.51,10.51,0,0,1,1.09,4.51.33.33,0,0,1,.13.38c-.06.12-.11.18-.16.18a9.64,9.64,0,0,1-1.49-5.06A.26.26,0,0,1,22,44.09Z"/><path class="cls-64" d="M22,44.09h-.43c-.73-.52-.42-1.33-.55-2l0-1c-.26-.53,0-.57.43-.49Z"/><path class="cls-38" d="M19,43.09,19.1,42h.29l.11,1.11v2l-.41,0Z"/><path class="cls-65" d="M23,49.16l0-.56c.51.61,1.28,1.16.5,2.08-.18-.35-.37-.69-.56-1A1.88,1.88,0,0,0,23,49.16Z"/><path class="cls-66" d="M21.44,40.6l-.43.49c-.87-.89-.36-2-.51-3,0-.54-.09-1.13.46-1.52,1.22.84-.08,2.12.54,3.06Z"/><path class="cls-67" d="M31.67,24a1,1,0,0,1,1,.48l-3.05,1a3.87,3.87,0,0,1,0-.48C30.07,24.15,30.62,23.54,31.67,24Z"/><path class="cls-45" d="M26.58,57.17a4,4,0,0,1-.49,0,1.43,1.43,0,0,1-2.17.48c-1.86-1.25-4.29-1.35-5.94-3a5.71,5.71,0,0,1,.82-3.32c1.55,2.25,3,2.59,5.22,1.31a2.7,2.7,0,0,1,1,.48l0,.46c.2.74.09,1.63,1,2Z"/><path class="cls-47" d="M18,54.68a16,16,0,0,1,5.1,2,3.32,3.32,0,0,0,3,.49l.51,2c-.33.39-.61,1.52-1,1.1C23.55,58,20.15,59.16,18,57.21Z"/><path class="cls-68" d="M25.05,53.15a1.06,1.06,0,0,1-1-.48l0-1.52Z"/><path class="cls-69" d="M26.08,14.89l0,.51c.14.83.08,1.53-1,1.5,0-.18,0-.35,0-.53A1.52,1.52,0,0,1,26.08,14.89Z"/><path class="cls-70" d="M25.06,16.9l1-1.5a4.27,4.27,0,0,1,3.09,4.72c-.09,2.08,2.6,1.88,3.47,3.32-.4,0-.79.1-1,.52l-2.06,1c-1.79-.25-2.08-1.84-2.81-3.06s-1.51-2.33-2.26-3.49Z"/><path class="cls-71" d="M21.5,39.61c-.81-.91-.32-2-.54-3.06q0-3,0-6c0-.5.07-1,.11-1.48a1,1,0,0,1,.44,1A9.62,9.62,0,0,0,23,36.06C21.89,37,23.37,39,21.5,39.61Z"/><path class="cls-72" d="M26.05,55.66c-1.33-.21-1.24-1.08-1-2Z"/></g></g></g></svg>