<svg xmlns="http://www.w3.org/2000/svg" viewBox="0 0 260.14 82.8"><defs><style>.cls-1{fill:#ffedb4;}.cls-2{fill:#010101;}.cls-3{fill:#020202;}.cls-4{fill:#a23900;}.cls-5{fill:#9e4e19;}.cls-6{fill:#b84905;}.cls-7{fill:#be4f09;}.cls-8{fill:#720;}.cls-9{fill:#a65a26;}.cls-10{fill:#bb4c07;}.cls-11{fill:#c85b17;}.cls-12{fill:#b44603;}.cls-13{fill:#c2540f;}.cls-14{fill:#d26a27;}.cls-15{fill:#b04301;}.cls-16{fill:#d0621c;}.cls-17{fill:#a94005;}.cls-18{fill:#ca6424;}.cls-19{fill:#cd601b;}.cls-20{fill:#853303;}.cls-21{fill:#676767;}.cls-22{fill:#a53b00;}.cls-23{fill:#9e3600;}.cls-24{fill:#a03800;}.cls-25{fill:#9c3500;}.cls-26{fill:#9a3400;}.cls-27{fill:#a23403;}.cls-28{fill:#802700;}.cls-29{fill:#852900;}.cls-30{fill:#a2531f;}.cls-31{fill:#a0501c;}.cls-32{fill:#95410c;}.cls-33{fill:#a1521e;}.cls-34{fill:#974410;}.cls-35{fill:#792300;}.cls-36{fill:#a73803;}.cls-37{fill:#b24606;}.cls-38{fill:#923e0a;}.cls-39{fill:#712000;}.cls-40{fill:#a45723;}.cls-41{fill:#a35521;}.cls-42{fill:#7f2d01;}.cls-43{fill:#7b2a01;}.cls-44{fill:#742600;}.cls-45{fill:#822901;}.cls-46{fill:#cf631e;}.cls-47{fill:#ca5d18;}.cls-48{fill:#d56822;}.cls-49{fill:#822803;}.cls-50{fill:#af4911;}.cls-51{fill:#c95c17;}.cls-52{fill:#551600;}.cls-53{fill:#691d00;}.cls-54{fill:#a93e00;}.cls-55{fill:#7d2500;}.cls-56{fill:#792200;}.cls-57{fill:#903c08;}.cls-58{fill:#8d3805;}.cls-59{fill:#6c1e00;}.cls-60{fill:#8a3604;}.cls-61{fill:#5f1a00;}.cls-62{fill:#631a00;}</style></defs><title>Asset 13</title><g id="Layer_2" data-name="Layer 2"><g id="Layer_1-2" data-name="Layer 1"><rect class="cls-1" width="260.14" height="82.8" rx="14.4"/><path d="M85.39,58.11v7.71c0,1.69,0,3.37,0,5.05,0,.81-.24,1.09-1.07,1.07-3.47-.09-2.76.4-2.78-2.65,0-5.82,0-11.63,0-17.44,0-1.09.22-1.42,1.41-1.5a3.72,3.72,0,0,1,3.8,2c2.5,4,5.21,7.94,7.83,11.9.57-.25.32-.69.32-1,0-3.84,0-7.68,0-11.53,0-1.07.27-1.39,1.36-1.37,2.56.07,2.56,0,2.56,2.62,0,5.86,0,11.72,0,17.58,0,1.09-.33,1.3-1.37,1.39a3.61,3.61,0,0,1-3.8-2c-2.33-3.75-4.87-7.38-7.33-11C86.1,58.61,86,58.15,85.39,58.11Z"/><path d="M156.59,64.26V53.07c0-2.8,0-2.77,2.88-2.68.74,0,1,.22,1,1q0,9.79,0,19.6c0,.66-.21.89-.9,1a3.92,3.92,0,0,1-4.35-2.08c-2.24-3.75-4.79-7.31-7.23-10.94-.2-.29-.27-.73-.91-.82v4.55c0,2.69,0,5.38,0,8.07,0,1-.28,1.23-1.23,1.22-2.63,0-2.63,0-2.63-2.66,0-5.81,0-11.62,0-17.43,0-1.08.21-1.42,1.39-1.5a3.69,3.69,0,0,1,3.8,2c2.33,3.76,4.85,7.39,7.3,11.07C155.9,63.76,156,64.21,156.59,64.26Z"/><path d="M123.25,61.18c0-3.17,0-6.34,0-9.51,0-.86.11-1.3,1.16-1.28q6.85.09,13.7,0c1.05,0,1.17.41,1.16,1.28,0,2.43,0,2.43-2.43,2.43-2.78,0-5.57,0-8.36,0-.94,0-1.24.26-1.24,1.22,0,3.65-.06,3.65,3.54,3.65,2.16,0,4.33,0,6.49,0,.93,0,1.25.23,1.24,1.2,0,2.5,0,2.5-2.51,2.5s-4.9,0-7.36,0c-1,0-1.53.21-1.39,1.34.17,1.37-.6,3.14.32,4s2.58.2,3.91.22c2.31,0,4.62.06,6.93,0,1,0,1.32.27,1.3,1.29,0,2.45,0,2.45-2.42,2.45-4.23,0-8.46,0-12.69,0-1.11,0-1.39-.34-1.36-1.4C123.29,67.43,123.25,64.31,123.25,61.18Z"/><path d="M111.57,65.22c1.68-4.54,3.38-9.08,5-13.64a1.55,1.55,0,0,1,1.79-1.19c3,0,3,0,1.89,2.84C118,59,115.77,64.67,113.58,70.41c-.4,1.07-.86,1.69-2.14,1.54s-2.21.2-2.81-1.44c-2.3-6.31-4.79-12.55-7.28-18.79-.46-1.17-.16-1.35,1-1.33,2.86,0,2.87,0,3.87,2.71q2.3,6.19,4.55,12.43C111.41,66.48,111.37,65.54,111.57,65.22Z"/><path class="cls-2" d="M237.39,38.91c-1.07,0-2,0-3,0-.69,0-1-.41-1.39-.86-2.69-3.19-5.4-6.38-8.1-9.57-.3-.36-.61-.72-.92-1.07-.53.31-.29.74-.29,1.08,0,3.12-.06,6.24,0,9.37,0,1.32-.81,1-1.53,1s-1.38.13-1.38-1q.08-11,0-22c0-1.15.61-1.1,1.37-1.06s1.56-.26,1.53,1.05c-.07,3.25,0,6.51,0,9.75.55.21.63-.24.82-.45,2.45-2.84,5-5.59,7.28-8.56a4.21,4.21,0,0,1,4.73-1.68c.15.54-.35.75-.6,1-2.81,3.16-5.61,6.33-8.48,9.44-.7.75-.75,1.19,0,2,3.1,3.41,6.13,6.89,9.17,10.36A2.21,2.21,0,0,1,237.39,38.91Z"/><path class="cls-2" d="M115.65,23.49c0,2.45.11,4.91,0,7.35-.18,3.17-1.2,6-4.33,7.45a10.41,10.41,0,0,1-10.09-.41c-2.3-1.39-3.18-3.75-3.3-6.27-.18-3.88-.11-7.78-.14-11.67,0-1.35.07-2.7,0-4s.59-1.17,1.43-1.16,1.46-.05,1.44,1.15c-.06,4.33,0,8.65,0,13a14.21,14.21,0,0,0,.39,3.57c.77,3,3,4.44,6.45,4.27a5.26,5.26,0,0,0,5.29-4.92,67,67,0,0,0,.19-8.5c0-2.4.06-4.81,0-7.21,0-1.11.32-1.37,1.38-1.37s1.53.22,1.48,1.43c-.1,2.44,0,4.9,0,7.35Z"/><path class="cls-2" d="M186.78,26.86c0-3.65,0-7.3,0-11,0-1,.39-1.18,1.27-1.17,3.27,0,6.54.07,9.81,0,1.1,0,1.23.43,1.24,1.35s-.18,1.29-1.18,1.26c-2.35-.06-4.71,0-7.06,0-.92,0-1.29.22-1.26,1.21.08,1.92.06,3.84,0,5.76,0,.84.27,1.08,1.07,1.07,2.21,0,4.43,0,6.64,0,1,0,1.06.48,1,1.23s.15,1.43-1,1.38c-2.2-.08-4.42,0-6.63,0-.82,0-1.09.25-1.07,1.07,0,2.11,0,4.23,0,6.34,0,.85.29,1.07,1.09,1.06,2.59,0,5.19,0,7.79,0,1.08,0,1.13.49,1.12,1.31s0,1.34-1.12,1.32c-3.51-.07-7-.06-10.53,0-1,0-1.19-.36-1.18-1.26C186.81,34.07,186.78,30.46,186.78,26.86Z"/><path class="cls-2" d="M215.81,18.33a10.48,10.48,0,0,0-7.21-1.22c-1.59.32-2.95,1-3.31,2.77a3.44,3.44,0,0,0,1.84,3.89c2,1.17,4.06,2.19,6,3.38a6.7,6.7,0,0,1,3.58,4.8,5.75,5.75,0,0,1-3.8,6.53,14.09,14.09,0,0,1-9.89-.14c-.75-.26-1.34-2.66-.83-3.26s.69.05,1,.2a11.59,11.59,0,0,0,6.68,1.39c2.11-.19,3.46-1.15,3.85-2.7s-.2-3.17-2.06-4.35c-1.42-.9-2.93-1.64-4.41-2.43a16,16,0,0,1-2.79-1.79,5.78,5.78,0,0,1,1-9.84c3-1.58,6.2-1.48,9.42-.7a1,1,0,0,1,.92,1.22C215.77,16.74,215.81,17.42,215.81,18.33Z"/><path d="M174,63.11c0,2.54,0,5.09,0,7.63,0,.82-.13,1.19-1.09,1.21-3,0-3,.08-3-2.93,0-4.46,0-8.93,0-13.4,0-1.16-.22-1.65-1.48-1.54s-2.7,0-4,0c-.82,0-1.19-.15-1.19-1.09,0-2.62-.07-2.62,2.54-2.62,4.52,0,9,0,13.55,0,1.1,0,1.39.29,1.36,1.36-.06,2.35,0,2.31-2.37,2.37-1.42,0-3.32-.65-4.13.32S174,57.1,174,58.49,174,61.57,174,63.11Z"/><path class="cls-3" d="M128.38,28c0,3.22-.07,6.44,0,9.65,0,1.25-.58,1.23-1.49,1.26s-1.44-.11-1.43-1.29c.06-6.2,0-12.39.07-18.58,0-1.55-.46-1.88-1.85-1.76s-2.79,0-4.17,0c-1.07.05-1-.59-1-1.3s-.12-1.32,1-1.31q7.41.06,14.84,0c1.08,0,.95.63,1,1.31s.07,1.34-1,1.3c-1.58-.07-3.17,0-4.76,0-.93,0-1.25.25-1.24,1.22C128.41,21.69,128.37,24.86,128.38,28Z"/><path class="cls-3" d="M77.45,61.2c0,3.16,0,6.33,0,9.49,0,.94-.24,1.25-1.2,1.26-2.83,0-2.83.06-2.83-2.77,0-5.75,0-11.51,0-17.26,0-1.16.23-1.59,1.48-1.54,2.55.09,2.55,0,2.55,2.62Z"/><path class="cls-4" d="M27.37,56.29q0-12.48,0-25c0-.53,0-1-.05-1.58l.19-.12a1.31,1.31,0,0,1,.44,0c1,.15,2.06-.18,3,.27.26,2.57,2,4.12,3.85,5.59a10,10,0,0,1,2,2.59c1.63,2.58,3.58,5,4.41,8,.43,1.58.57,3.21,1,4.78.14.49.27.46.6.22,0,0,.19.2.24.33a23,23,0,0,1-.08,4.47,1.05,1.05,0,0,1-1.12.4,1.36,1.36,0,0,1-.8-.48,5.49,5.49,0,0,0-.86-3.54,17.71,17.71,0,0,1-1.47-4.5,13.14,13.14,0,0,0-1.71-3.61c-2.39-3.81-5.93-6.59-8.74-10.22A19.15,19.15,0,0,0,28,39.69c.1,2-.13,4,0,6s-.07,4.14,0,6.21a19.85,19.85,0,0,1-.1,3.93C27.82,56.05,27.7,56.29,27.37,56.29Z"/><path class="cls-5" d="M43.5,30.11c0,7.45,0,14.9.09,22.35,0,1.32-.6,3,.28,3.88s2.48.22,3.77.25c1.82,0,3.65,0,5.48,0,.45,0,1-.2,1.34.26.12.51.33,1-.15,1.48-.36-.05-.43-.37-.58-.62a.86.86,0,0,0-.26-.34,32,32,0,0,0-4.69-.12c-1.33,0-2.65.11-4,.05-.65,0-1.35,0-1.79-.63a1.11,1.11,0,0,1,0-.82c0-5.41-.42-10.82-.26-16.23q0-4.62,0-9.24c.06-.77-.51-1.19-1-1.68-2.52-2.71-5.36-5.09-8-7.7a4.54,4.54,0,0,1-1.16-1.45c-.76-1.41-2.13-2.26-3.13-3.44-.36-.43-1.06-.73-.71-1.5a1.89,1.89,0,0,1,.82,0,71.73,71.73,0,0,0,7.06,4.66c2.5,1.62,4.44,3.91,7,5.4.38,1,0,2.17.34,3.21a2.72,2.72,0,0,1,0,1.17C44,29.5,43.61,29.73,43.5,30.11Z"/><path class="cls-6" d="M16,68.71a51.74,51.74,0,0,1,0-6.35c2.83,1.19,6,.83,8.87,1.89.58.21,1.23.22,1.69.71a2.76,2.76,0,0,1,.26,1.44,3.45,3.45,0,0,1-.25,1.68,5.83,5.83,0,0,1-3.63.46,13.05,13.05,0,0,0-5.38.56A1.31,1.31,0,0,1,16,68.71Z"/><path class="cls-7" d="M26.44,66.4V65a1.05,1.05,0,0,1-.36-.76c.11-1.6-.88-2.08-2.21-2.17-1.53-.11-3-.55-4.51-.76-1.35-.19-2.73-.59-3.33-2.08a6.19,6.19,0,0,1,0-2.31c3.53-.51,6.74.6,9.88,2,1.08.49.79,1.64,1.12,2.49a15.41,15.41,0,0,1-.17,4.84A.43.43,0,0,1,26.44,66.4Z"/><path class="cls-8" d="M27.37,56.29l.27-.24a2.38,2.38,0,0,1,1.87-.5,46.8,46.8,0,0,1,7.94.4,1.13,1.13,0,0,1,.74.61,1.92,1.92,0,0,0,2.67.91c.35-.16.73-.33,1,.18a3.2,3.2,0,0,1-.77,1.41c-.44.39-.69,1-1.38,1.12-1.44.94-2.64.46-4.12-.23a16.32,16.32,0,0,0-5.12-1.28c-1.22-.13-2.54-.25-3.07-1.7a1.37,1.37,0,0,1-.15-.38Z"/><path class="cls-9" d="M43.5,30.11c-.08-.35.13-.63.26-.93a2.62,2.62,0,0,1,1.9-.46c2.05,0,4.11,0,6.17,0,1.73,0,1.82-.14,1.85-1.91,0-.43,0-.86,0-1.29.13-1.1-.07-2.19,0-3.29,0-.47,0-1,0-1.43A2.34,2.34,0,0,0,52,18.17c-1.5-.61-2.91-1.45-4.6-1.52a2.32,2.32,0,0,1-1.48-.83c-.4-.42-.6-.9.16-1.2,2.78.07,5.56-.16,8.34.12.34.31.2.72.2,1.08,0,4.17,0,8.34,0,12.5,0,1.09-.33,1.41-1.39,1.38-2.73-.06-5.47,0-8.2,0C44.52,29.69,43.9,29.51,43.5,30.11Z"/><path class="cls-10" d="M16,59.19A7.05,7.05,0,0,0,20.13,61c1.73.17,3.44.52,5.14.84a1.31,1.31,0,0,1,1.18,1.54c-.05.52,0,1.05,0,1.58-1.26-.28-2.53-.51-3.76-.87a31.93,31.93,0,0,0-4.47-.56A3,3,0,0,1,16,62.36,13.45,13.45,0,0,1,16,59.19Z"/><path class="cls-11" d="M54.43,71.57a2.88,2.88,0,0,1-1.79.36q-9.9,0-19.8,0a3.66,3.66,0,0,1-.56-.1.25.25,0,0,1,0-.42,3.55,3.55,0,0,1,1.51-.3c1.59,0,3.18.09,4.77,0,2.25,0,4.51.09,6.77.05,1.69,0,3.38.09,5.06-.07.61-.31.56-1,.7-1.48.54-2.16,1-4.34,1.45-6.53.49-.8.23-1.81.71-2.63.47-1,.47-1,1.05-.78C54.54,63.65,54.4,67.61,54.43,71.57Z"/><path class="cls-12" d="M16,68.71c.78.4,1.44-.09,2.16-.24a10.33,10.33,0,0,1,3.89-.39,26.4,26.4,0,0,0,4.36,0,.71.71,0,0,1,.24.37,1,1,0,0,1-.14.83,2.23,2.23,0,0,1-1.6.49,37.36,37.36,0,0,0-6.48,1c-.49.09-1.25,0-1,1-1.18.37-1.68,0-1.53-1.27C16,69.93,16,69.32,16,68.71Z"/><path class="cls-13" d="M26.73,61.21c-.28-2.18-2-2.42-3.68-3a19.53,19.53,0,0,0-7-1.36c.33-.54.86-.26,1.29-.26,3.29,0,6.58,0,9.87,0a.14.14,0,0,1,.14,0,.5.5,0,0,1,0,.43c-.06.13-.12.26-.17.4C26.88,58.68,27.55,60,26.73,61.21Z"/><path class="cls-14" d="M54.42,14.74l-8.65,0a3.41,3.41,0,0,1-2.38.4c-2.66.12-5.33,0-8,0-1.93-.09-3.91.41-5.78-.42h-.86a1.13,1.13,0,0,1-.78.33,3.24,3.24,0,0,1-.44,0l-.67,0-.46,0c-.93,0-1.87,0-2.8,0l-.71,0c-3.61.06-2.77-.55-3.89,3.26-.22.95-.41,1.91-.6,2.86a2.67,2.67,0,0,1-.54,1.24.32.32,0,0,1-.41,0c.49-2.44,1-4.88,1.45-7.32.16-.82.77-.72,1.34-.73l9.07,0,23.6,0C53.42,14.51,54,14.29,54.42,14.74Z"/><path class="cls-15" d="M17.47,71.81c-.14-.26-.73-.17-.61-.46a1.38,1.38,0,0,1,1.2-.9c2.47-.26,4.86-1.16,7.39-1a3.79,3.79,0,0,0,1-.16,1.19,1.19,0,0,1,.46,1c-.29.87-1.1.68-1.69.72-2.48.16-4.92.69-7.41.74Z"/><path class="cls-16" d="M27.3,29.75c-3.29,0-6.57,0-9.86-.08-.45,0-1,.22-1.34-.21a.91.91,0,0,1,.5-.55,16.35,16.35,0,0,1,3.83-.16c1.1,0,2.21-.07,3.32,0,1.93.1,1.93.1,1.95-1.75a16.78,16.78,0,0,1,.13-3A8.94,8.94,0,0,0,26,21.54c.05-.53-.12-1.2.71-1.33.5.51.37,1.15.38,1.76.05,2.28-.06,4.57.07,6.85a3.38,3.38,0,0,0,.18.44.94.94,0,0,1,.06.47l-.07,0Z"/><path class="cls-17" d="M17.8,71.8a56.34,56.34,0,0,1,8.48-1.27c.32,0,.41-.12.44-.38-.27-.47-.08-1-.13-1.47a.36.36,0,0,1,.21-.34.41.41,0,0,1,.38.18,2.19,2.19,0,0,1,.22,1.07c0,.5,0,1,0,1.51a1.43,1.43,0,0,1-.1.42,1.28,1.28,0,0,1-.29.32A90.68,90.68,0,0,1,17.8,71.8Z"/><path class="cls-18" d="M54.43,71.57a2.91,2.91,0,0,1-.28-1.67c0-3.48,0-7,0-10.43a.75.75,0,0,1,0-1.13c.42-.42.19-1,.3-1.44.41.57.15,1.21.15,1.81q0,5.74,0,11.5C54.62,70.66,54.84,71.17,54.43,71.57Z"/><path class="cls-19" d="M16.33,29.19l-.23.27a33.81,33.81,0,0,1,1.36-6.91h.32c.64.78,0,1.48-.14,2.22C17.22,26.24,17.46,27.92,16.33,29.19Z"/><path class="cls-20" d="M27,71.84A2,2,0,0,0,27,71.6a1.42,1.42,0,0,1,1-.4c1.4.16,2.88-.44,4.21.43a.37.37,0,0,0,.05.23A36.06,36.06,0,0,1,27,71.84Z"/><path class="cls-21" d="M111.57,65.22c.12.45,0,.89-.44,1s-.49-.3-.39-.66C111.24,66,111.31,65.36,111.57,65.22Z"/><path d="M225,71.21c-1.21-2.76-1.61-5.88-3.6-8.27-.59-.71-.32-.88.25-1.24a5.37,5.37,0,0,0,2.45-3.43,6,6,0,0,0-5.57-7.74c-3.64-.21-7.3-.07-10.95-.13-.93,0-.83.54-.83,1.13V69.1c0,2.92,0,2.89,2.9,2.84.85,0,1.21-.24,1.15-1.15-.07-1.24,0-2.49,0-3.74s-.39-2.77.21-3.49,2.35-.27,3.57-.28a4.17,4.17,0,0,1,4.38,3c.55,1.53,1.07,3.08,1.61,4.62.17.5.31,1,1,1,1,0,1.92,0,2.88,0C225,71.92,225.22,71.7,225,71.21ZM217.7,59.44c-2,.16-4.12.09-6.18.14-.57,0-.74-.26-.73-.79,0-1.34,0-2.68,0-4,0-.64.25-.84.85-.82,1,0,1.92,0,2.87,0v0c1,0,2-.07,3,0a2.49,2.49,0,0,1,2.61,2.64A2.41,2.41,0,0,1,217.7,59.44Z"/><path d="M194.29,50.16a9.92,9.92,0,0,0-10.94,6.14,12.67,12.67,0,0,0,.18,10.1c1.75,3.93,5,5.8,9.14,5.95,6,.22,10.47-4.65,10.48-11.47,0-.22,0-.75-.07-1.28C202.56,54.46,199.21,50.87,194.29,50.16ZM199.05,61c0,4-1.77,6.75-4.78,7.48a5.85,5.85,0,0,1-7-3.45,10,10,0,0,1-.32-6.9,6,6,0,0,1,11.65,0A8.51,8.51,0,0,1,199.05,61Z"/><path d="M182.56,23.37A9.5,9.5,0,0,0,175,15.31c-3.42-.84-6.89-.44-10.34-.58-1.07,0-1.27.39-1.26,1.35.05,3.6,0,7.2,0,10.8s0,7.21,0,10.81c0,.94.25,1.27,1.21,1.23,1.92-.06,3.85,0,5.77,0a14,14,0,0,0,6.38-1.55C181.55,34.74,183.71,29.54,182.56,23.37Zm-3.23,6.91c-1.07,3.55-4.18,5.77-8.45,6-1.48.08-3.34.62-4.34-.19s-.26-2.7-.31-4.12c-.06-1.72,0-3.45,0-5.18,0-2.74,0-5.48,0-8.21,0-1,.33-1.32,1.31-1.28a42.89,42.89,0,0,1,5.32.26c3.87.66,6.06,2.76,6.81,6.6A12.68,12.68,0,0,1,179.33,30.28Z"/><path d="M149.75,14.43c-5.66-.65-10.25,2-12.22,7.06a15.14,15.14,0,0,0-.93,5.37c0,.72,0,1.45.11,2.16.55,5.68,4.55,9.77,10,10.22,6.14.52,10.72-2.62,12.23-8.4a16.86,16.86,0,0,0,.33-6.86C158.47,18.69,154.85,15,149.75,14.43ZM156.16,30a7.86,7.86,0,0,1-8.07,6.77A8.05,8.05,0,0,1,140,30.15a11.76,11.76,0,0,1-.36-3.16,11.5,11.5,0,0,1,1.17-5.55A8.09,8.09,0,0,1,148.94,17a7.58,7.58,0,0,1,7,6A15,15,0,0,1,156.16,30Z"/><path d="M86.52,15.81a1.45,1.45,0,0,0-1.73-1.07c-.84,0-1.66-.16-2.05,1C81.9,18.21,80.91,20.61,80,23q-2.82,7.34-5.62,14.66c-.13.35-.61.76-.1,1.15.76.59,2.87-.13,3.2-1.07.55-1.54,1.11-3.07,1.62-4.63a1.28,1.28,0,0,1,1.46-1c2.69.05,5.39.05,8.08,0a1.32,1.32,0,0,1,1.48,1c.52,1.5,1.15,3,1.63,4.47.32,1,.86,1.56,1.84,1.29,1.83,0,1.84,0,1.22-1.58C92,30.15,89.25,23,86.52,15.81Zm1.29,13.8c-2.16,0-4.32,0-6.48,0-.6,0-.93-.08-.66-.82,1.29-3.44,2.54-6.9,3.9-10.61,1.34,3.66,2.59,7.08,3.86,10.48C88.69,29.34,88.61,29.62,87.81,29.61Z"/><path class="cls-22" d="M42.89,51.11l-.45.65c-.82-1-.8-2.19-1-3.31-.62-3-1.45-5.84-3.65-8.1a8.37,8.37,0,0,1-1.16-2.11c-1.27-2.34-3.77-3.5-5.19-5.66a2.21,2.21,0,0,1-.34-2.53c1.27-.77,2.65-.31,4-.34A3.26,3.26,0,0,1,36.87,31c.91,1.46,2,2.76,3.05,4.14a11.8,11.8,0,0,1,2.42,5.25c.15-.5-.54-1.35.68-1.28,0,.24,0,.48,0,.72v8.55A5.2,5.2,0,0,0,43,50.47.67.67,0,0,1,42.89,51.11Z"/><path class="cls-23" d="M27.62,45.61V39.26c.36-.45-.26-1.3.46-1.51s1.24.41,1.67.92c2.31,2.79,4.93,5.32,7,8.3a5.79,5.79,0,0,1,.75,1.54c.54,1.52.83,3.16,1.9,4.46a1.08,1.08,0,0,1,.29.8c-.22,1.19.48,1.66,1.44,2a.61.61,0,0,1,.58.28c-1.46.79-2.92.44-4.38,0-.83-.72-1.28-1.76-2.08-2.52a25.12,25.12,0,0,1-5.16-7.85,5.24,5.24,0,0,0-1.63-2C27.86,44.16,28.76,45.34,27.62,45.61Z"/><path class="cls-24" d="M41.16,55.73c-1.25.16-2.17,0-1.76-1.65a1.21,1.21,0,0,0-.28-.94c-1.26-1.37-1.46-3.18-2-4.83a1.65,1.65,0,0,0-.28-.66c-1.92-1.86-2.93-4.48-5.17-6.11a12.16,12.16,0,0,1-2.18-2.62,3.79,3.79,0,0,0-1.27-1c-.51.4-.1,1-.57,1.35a24.24,24.24,0,0,1,.44-6.36,51.88,51.88,0,0,0,5.82,6.51,54,54,0,0,1,3.9,5.05A5.76,5.76,0,0,1,39,46.87a30.6,30.6,0,0,0,2.54,7.23A1.21,1.21,0,0,1,41.16,55.73Z"/><path class="cls-25" d="M27.62,45.61c.61-.8,0-1.78.45-2.73a5.14,5.14,0,0,1,2.63,3.06,28.67,28.67,0,0,0,2.95,5.18A14.74,14.74,0,0,0,36.28,54a2.19,2.19,0,0,1,.84,1.74A2.58,2.58,0,0,1,34,55.24c-.74-.74-1.79-.92-2.6-1.5A8.33,8.33,0,0,1,28.56,51c-.53.2-.23,1.05-.94,1Z"/><path class="cls-26" d="M27.62,52c.6-.49-.17-1.7.75-1.81s.53,1.08,1.06,1.51a14,14,0,0,0,3,2.18,4.61,4.61,0,0,1,2.29,1.59c.48.73,1.6.18,2.43.3,1.51.5,3.08.21,4.62.28h1.15v.27a5.65,5.65,0,0,1-4.9,0,96.66,96.66,0,0,0-10.35-.25C27.63,54.68,27.63,53.32,27.62,52Z"/><path class="cls-27" d="M42.89,48.8V39.57c.1-.14.19-.13.28,0V56c-.1.13-.19.12-.28,0h0V50.53A2.35,2.35,0,0,1,42.89,48.8Z"/><path class="cls-24" d="M35.39,30.05H31.06c-1.15-.14-2.35.3-3.47-.28.83-.72,1.83-.34,2.76-.41.71-.06,1.43,0,2.15,0h5a2.3,2.3,0,0,1,1.63.35c.07.72-.52.7-1,.77A4.29,4.29,0,0,1,35.39,30.05Z"/><path class="cls-28" d="M32.5,29.76H27.59l-.15,0-.14-.25.17-.18c1.22-.45,2.49-.14,3.74-.24a2,2,0,0,1,1.2.27A.31.31,0,0,1,32.5,29.76Z"/><path class="cls-29" d="M32.5,29.76v-.29c1.17-.77,2.48-.26,3.71-.4a11,11,0,0,0,3.31.26c.38,0,.11-.32.2-.15s0,.1-.1.11c-1.84.27-3.41,0-4.22-2a5.06,5.06,0,0,0-1.48-1.75c-2.19-2-3.78-4.59-6.52-6a2.66,2.66,0,0,1-.22-1.21c.15-1.19-.35-2.46.42-3.57a.69.69,0,0,1,.25,0,26.78,26.78,0,0,1,4.93,4.58c2.67,3.12,6,5.56,8.76,8.59l1.63,1.77a2.24,2.24,0,0,1-.43.31c-1.22.18-2.45.46-3.6-.29Z"/><path class="cls-30" d="M54.15,25.43c0,3.75,0,3.75-3.68,3.75H43.76V28a1,1,0,0,1-.09-.86c.56-.57.58-1.39,1-2,1.22-1.72,3-1.9,4.87-1.86a15.58,15.58,0,0,1,2.69.45A2.18,2.18,0,0,1,54.15,25.43Z"/><path class="cls-31" d="M29.62,14.79h5.77c2.88,1.36,5.28,3.42,7.89,5.19a.87.87,0,0,1,.43.55c.15,1.36.46,2.73-.24,4-1.8,0-2.61-1.59-3.8-2.53a51.9,51.9,0,0,0-6.53-4.46A10.57,10.57,0,0,1,29.62,14.79Z"/><path class="cls-32" d="M53.58,60.65c-.43.8,0,1.79-.58,2.57a.58.58,0,0,1-.22-.47c-.12.7-.75.88-1.65.6a25.33,25.33,0,0,1-4.3-1.54c-2-1-3.92-2.06-6-2.92.24-.41.36-.93.86-1.15.29-.62.59-1.24,1.44-1.15,1.32.63,2.72.17,4.08.29.57.06,1.14,0,1.72,0,1.71.36,3.47-.14,5.18.26v.29c-.85.67-1.84.32-2.78.39a11.37,11.37,0,0,0-2.44.2c1.5.42,2.54,1.86,4.29,1.69C53.93,59.67,53.73,60.23,53.58,60.65Z"/><path class="cls-33" d="M43.47,24.57a2.8,2.8,0,0,1,0-.71c.84-3.22-1.5-4.48-3.62-5.85a32.9,32.9,0,0,1-4.47-3.22h8.07c.79,1.44.64,3.05.76,4.6.09,1.24-.11,2.49,0,3.73-.06,1.36.32,2.77-.45,4V28C43.16,26.92,43.62,25.72,43.47,24.57Z"/><path class="cls-34" d="M53.58,60.65c-.09-.23.14-.74-.31-.63-2.16.55-3.35-1.49-5.15-1.89a.3.3,0,0,1-.11-.48,1.13,1.13,0,0,1,.66-.18c1.82,0,3.65,0,5.48,0,0,.29,0,.58,0,.88s0,.75,0,1.13C54,59.86,53.77,60.25,53.58,60.65Z"/><path class="cls-35" d="M43.17,56.59l-1.44,1.15c-.42-.47-.63,0-.91.2a2.82,2.82,0,0,1-3-1c-.06-.18.11-.44.18-.66,1.63-.16,3.3.33,4.9-.28h.28Z"/><path class="cls-31" d="M32.78,19.38a52.11,52.11,0,0,1-4.93-4.58h.91c1.16,1.2,2.34,2.39,3.47,3.62C32.47,18.67,33.08,18.79,32.78,19.38Z"/><path class="cls-36" d="M42.89,29.76l.28,0v9.83h-.28V39C42.18,37.64,42.18,31.16,42.89,29.76Z"/><path class="cls-34" d="M54.15,57.17c-1.72-.15-3.48.33-5.18-.26C50.69,57,52.45,56.58,54.15,57.17Z"/><path class="cls-10" d="M26.44,68.42v-2h.28l.18.18a1.62,1.62,0,0,1-.17,1.84h0C26.63,68.56,26.53,68.56,26.44,68.42Z"/><path class="cls-37" d="M26.73,61.21c.17-1.43-.36-2.91.3-4.3a.87.87,0,0,1,.29.48,47.67,47.67,0,0,1-.12,8.86.33.33,0,0,1-.47.15h0C26.72,64.67,26.72,62.94,26.73,61.21Z"/><path class="cls-38" d="M40.87,58.89c1.52-.67,2.47.71,3.53,1.23a48.8,48.8,0,0,0,6.44,2.77c1,.32,1.74.42,2.16-.8v1.13c-.57,2.54-1.14,5.07-1.7,7.61-.06.27,0,.58-.33.74a2.06,2.06,0,0,1-.25-.26,1.33,1.33,0,0,0-.35-.4,6.26,6.26,0,0,1-1.78-.52,1.94,1.94,0,0,1-1.07-2A5.27,5.27,0,0,0,43,63.11c-1.59-.26-2.6-1.6-3.69-2.71,0-.24.13-.4.41-.36C40.14,59.7,40.31,59.1,40.87,58.89Z"/><path class="cls-39" d="M39.71,60l-.29.29A2.65,2.65,0,0,1,37.73,62c-.9.14-1.31.92-1.91,1.46a1.43,1.43,0,0,1-1.8.19c-1.62-.77-3.19-1.73-5.09-1.78a1.39,1.39,0,0,1-1.4-1.38c-.08-.72-.24-1.42-.37-2.13a4.28,4.28,0,0,1,.12-1.51.62.62,0,0,1,.08-.24c1,1.45,2.48,1.44,4,1.82,2,.5,4.25.43,5.89,2,.65.62,1,.1,1.41-.26C38.92,59.93,39.25,58.92,39.71,60Z"/><path class="cls-40" d="M43.76,23.13c.18-2.79-.25-5.56-.3-8.34h2.31a1.87,1.87,0,0,0,1.9,1.53c2.2,0,3.87,1.22,5.66,2.13,1.51.77.59,2.33.82,3.52-.36.31-.72.14-1.07,0A12.64,12.64,0,0,0,46,21c-.69.13-1,.35-1.18,1S44.57,23.2,43.76,23.13Z"/><path class="cls-41" d="M43.76,23.13c.8-.39.57-1.25.82-1.88.16-.38.22-.66.72-.71A16.06,16.06,0,0,1,54.15,22v3.46c-1.83-2-4.2-1.82-6.56-1.6a3.21,3.21,0,0,0-3,2.68.82.82,0,0,1-.83.65Z"/><path class="cls-20" d="M51,71.31v.26l-5.48,0a3.31,3.31,0,0,0-1.84-.12c-2.26.21-4.32-.61-6.44-1.12a24,24,0,0,0-5.41-.63c-.56,0-1.15.19-1.66-.21-.05-1.3.79-1.81,1.86-2.12,2.57.73,5.25.91,7.84,1.55a51.59,51.59,0,0,0,5.64,1.54c.81.11,1.61.1,2.41.14C48.93,70.83,50,70.72,51,71.31Z"/><path class="cls-42" d="M30.19,69.28a20.26,20.26,0,0,1,5.78.36c1.63.45,3.45.38,4.91,1.46.54.4,1.21.14,1.82.21.93.12,1.9-.28,2.79.28H38.56a52,52,0,0,0-8.45-.74c-.36,0-.76.12-1.1-.15-.3-.77.24-1.11.75-1.47A.42.42,0,0,1,30.19,69.28Z"/><path class="cls-43" d="M29,70.43a32.25,32.25,0,0,1,8.91.89,4.16,4.16,0,0,1,.62.27H33.65a18.89,18.89,0,0,0-5.36-.17C27.88,70.6,28.4,70.48,29,70.43Z"/><path class="cls-44" d="M28.16,71.31a9,9,0,0,1,5.49.28l-1.42,0-4.36-.07C27.85,71.34,27.93,71.23,28.16,71.31Z"/><path class="cls-6" d="M26.44,68.42h.29v1.73c-.33-.21-.27-.55-.28-.86Z"/><path class="cls-45" d="M27.28,56.85l0,1.77a6,6,0,0,1,.28,2.07,40,40,0,0,1,.13,4.51c-.13,1.41.24,2.85-.23,4.24a.36.36,0,0,1-.46.15l0-1.17a3.32,3.32,0,0,1,0-2c0-3.16,0-6.33,0-9.49A1,1,0,0,1,27.28,56.85Z"/><path class="cls-19" d="M26.15,24c0,1.18-.08,2.37,0,3.54s-.27,1.89-1.62,1.66a4.19,4.19,0,0,0-.71,0c.74-.73.39-1.2-.18-1.95-1.65-2.16-3.85-3.77-5.59-5.83a10.1,10.1,0,0,1,.58-2.89c.36-1.17.73-1.36,1.43-.59a56.86,56.86,0,0,0,6.17,5.23C26.28,23.44,26.36,23.73,26.15,24Z"/><path class="cls-46" d="M26.15,23.13c-1.84-.29-2.69-2-4.12-2.87a5.65,5.65,0,0,1-2-2c-.52-.91-1-.48-1.35.2-.11-1.13.68-2.07.68-3.21,0-.48.59-.54,1-.53l3.17,0A17.22,17.22,0,0,0,25,15.94,2.64,2.64,0,0,1,26.53,19C26.29,20.39,26.41,21.77,26.15,23.13Z"/><path class="cls-47" d="M18.07,21.4a24.09,24.09,0,0,1,5.45,5.12c.21.25.38.55.61.78,1.29,1.28,1.3,1.27-.29,1.88H20.38c-.25-1.59-1.38-2.66-2.35-3.8-.24-.28-.63-.43-.8-.8a3.63,3.63,0,0,0,.55-2A1.92,1.92,0,0,1,18.07,21.4Z"/><path class="cls-48" d="M26.15,23.13c0-1.67,0-3.33,0-5a1.4,1.4,0,0,0-1-1.55,2.55,2.55,0,0,1-1.66-1.8h3.23a8,8,0,0,1-.05,5.44c-.54.66-.18,1.44-.28,2.16-.08.53.19,1.13-.29,1.59Z"/><path class="cls-49" d="M27.6,14.81v3.7c-.42.72.11,1.39.11,2.09q0,3.9,0,7.78a1.49,1.49,0,0,1-.37,1.07l0,0L27,29.41c-.28-.34-.16-.74-.16-1.11q0-6.19,0-12.39c0-.37-.11-.77.15-1.11Z"/><path class="cls-50" d="M27,14.8q0,7.31,0,14.61c-.51-.33-.3-.86-.31-1.31,0-2.62,0-5.24,0-7.86,0-1.82,0-3.63.05-5.44A.57.57,0,0,1,27,14.8Z"/><path class="cls-51" d="M17.23,24.58a3.22,3.22,0,0,1,2.11,1.72,3.49,3.49,0,0,0,1.18,1.55c.8.46.26.92-.14,1.33H16.33Z"/><path class="cls-52" d="M28.16,71.31l-.29.25-.84,0c0-.1,0-.2,0-.29.28-.34.06-.75.18-1.11a9,9,0,0,0,2.05-1.32,1.07,1.07,0,0,1,.4,0c.2.09.36.19.25.45L29,70.43A2,2,0,0,0,28.16,71.31Z"/><path class="cls-15" d="M27,66.4v2h-.28v-2Z"/><path class="cls-53" d="M27.31,70.16c0,.4.11.84-.29,1.15,0-.58,0-1.15,0-1.72l.27,0A.41.41,0,0,1,27.31,70.16Z"/><path class="cls-54" d="M42.89,29.76V39c-.57.49-.08,1.22-.57,2.06-1.22-4.52-4.16-7.7-6.93-11,1.24-.16,2.54.34,3.75-.29Z"/><path class="cls-4" d="M42.89,48.8v1.73A1.32,1.32,0,0,1,42.89,48.8Z"/><path class="cls-55" d="M36.54,29.47h-5.2a8.14,8.14,0,0,0-2.83-.12c-.79,0-1.11-.22-1.07-1.05,0-1.33,0-2.67,0-4,.3-.8.83-.44,1.25-.2a7.52,7.52,0,0,1,2.36,2.27c1,1.47,2.16,2.81,4.29,2.45C35.78,28.74,36.46,28.69,36.54,29.47Z"/><path class="cls-56" d="M27.59,24v2.87c0,2.63-.28,2.29,2.26,2.33.51,0,1.07-.18,1.49.28l-4,0q0-4.95,0-9.88c0-.38-.07-.78.28-1.06v1.15A4.55,4.55,0,0,1,27.59,24Z"/><path class="cls-28" d="M27.59,24V19.66a4.07,4.07,0,0,1,3,1.76c1.28,1.62,2.83,3,4.23,4.46a3.15,3.15,0,0,1,.68.74c.86,1.91,2.06,3.21,4.54,2.42l-.12.43H36.54a1,1,0,0,0-1.06-.27c-2.5.5-3.72-1-4.91-2.85A5.34,5.34,0,0,0,27.59,24Z"/><path class="cls-57" d="M37.69,61.78l1.73-1.45c.85.75,2,1.08,2.66,2.14a.87.87,0,0,0,1,.34,1.93,1.93,0,0,1,2.21.64c1.47,1.45,3,2.87,2.55,5.31C47.63,70,48.93,70,49.64,70.41c.37.21,1-.13,1.33.32a.73.73,0,0,1-.83.42c-1.57-.33-3.24-.34-4.62-1.32A52.13,52.13,0,0,0,41,66.66c-1.51-.84-1.73-2.88-3-4.07-.24.21-.48,1-1.26.47C36.65,62.33,37.11,62,37.69,61.78Z"/><path class="cls-58" d="M36.82,62.93c1.63-1,2.25.16,2.83,1.32a4.64,4.64,0,0,0,3.07,2.9c.88.22,1.58,1.18,2.32,1.85,1.46,1.32,3.32,1.6,5.13,2,.24.05.53-.17.8-.26v.58c-1.08.17-2.1-.29-3.17-.29-3.91-.33-7.35-2.18-11-3.38a3.1,3.1,0,0,1-1.89-1.56c-.85.14-1.12,1.61-2.23.76-.1-1,.85-1.39,1.33-2C35,64.25,35.63,63.16,36.82,62.93Z"/><path class="cls-59" d="M36.82,62.93,34.25,65a6.54,6.54,0,0,0-1.75,1.65c-.4.46-.84.84-1.4.16-.26-1-1.05-1.27-1.92-1.43a1.76,1.76,0,0,1-1.62-2.08,8.43,8.43,0,0,0-.25-2.64v-2a2.43,2.43,0,0,1,.56,1.72,1,1,0,0,0,1.23,1.2c1.9-.19,3.35,1,4.9,1.69a1.4,1.4,0,0,0,1.88-.29c.52-.46.75-1.51,1.81-1.16Z"/><path class="cls-60" d="M32.79,66.69C34,67.1,34,65.61,35,65.47c.6,2,2.7,2.16,4.23,2.66a24.92,24.92,0,0,1,4,1.55c1.48.79,3.14.59,4.56,1.34a20.79,20.79,0,0,1-6.92-1.34,23.5,23.5,0,0,0-4.4-.89c-1.52-.22-3.2-.26-4.56-1.24A.74.74,0,0,1,32.79,66.69Z"/><path class="cls-61" d="M32.79,66.69a1.86,1.86,0,0,0-.87.86,6.62,6.62,0,0,0-1.73,1.73H29.9L29.61,69c0-1.14.88-1.59,1.74-2,.89-.1,1.2-1,1.84-1.39.34-.23.41-.93,1.06-.61Z"/><path class="cls-53" d="M31.35,67l-1.74,2h-.28a1.87,1.87,0,0,1-1.75-2.42,1.39,1.39,0,0,0-.27-1.33V60.64a4.24,4.24,0,0,1,.51,2.43c-.07,1.42.6,1.8,1.79,1.95S31.64,65.55,31.35,67Z"/><path class="cls-62" d="M27.31,65.25c1,.28.47,1.09.56,1.67s-.25,1.47,1,1.26c.62-.11.16.63.48.82-.59.54-.82,1.7-2,1.16,0-.2,0-.39,0-.59C27.3,68.13,27.3,66.69,27.31,65.25Z"/></g></g></svg>