<svg xmlns="http://www.w3.org/2000/svg" viewBox="0 0 261.18 82.8"><defs><style>.cls-1{fill:#ffedb4;}.cls-2{fill:#010101;}.cls-3{fill:#020202;}.cls-4{fill:#a23900;}.cls-5{fill:#9e4e19;}.cls-6{fill:#b84905;}.cls-7{fill:#be4f09;}.cls-8{fill:#720;}.cls-9{fill:#a65a26;}.cls-10{fill:#bb4c07;}.cls-11{fill:#c85b17;}.cls-12{fill:#b44603;}.cls-13{fill:#c2540f;}.cls-14{fill:#d26a27;}.cls-15{fill:#b04301;}.cls-16{fill:#d0621c;}.cls-17{fill:#a94005;}.cls-18{fill:#ca6424;}.cls-19{fill:#cd601b;}.cls-20{fill:#853303;}.cls-21{fill:#676767;}.cls-22{fill:#a53b00;}.cls-23{fill:#9e3600;}.cls-24{fill:#a03800;}.cls-25{fill:#9c3500;}.cls-26{fill:#9a3400;}.cls-27{fill:#a23403;}.cls-28{fill:#802700;}.cls-29{fill:#852900;}.cls-30{fill:#a2531f;}.cls-31{fill:#a0501c;}.cls-32{fill:#95410c;}.cls-33{fill:#a1521e;}.cls-34{fill:#974410;}.cls-35{fill:#792300;}.cls-36{fill:#a73803;}.cls-37{fill:#b24606;}.cls-38{fill:#923e0a;}.cls-39{fill:#712000;}.cls-40{fill:#a45723;}.cls-41{fill:#a35521;}.cls-42{fill:#7f2d01;}.cls-43{fill:#7b2a01;}.cls-44{fill:#742600;}.cls-45{fill:#822901;}.cls-46{fill:#cf631e;}.cls-47{fill:#ca5d18;}.cls-48{fill:#d56822;}.cls-49{fill:#822803;}.cls-50{fill:#af4911;}.cls-51{fill:#c95c17;}.cls-52{fill:#551600;}.cls-53{fill:#691d00;}.cls-54{fill:#a93e00;}.cls-55{fill:#7d2500;}.cls-56{fill:#792200;}.cls-57{fill:#903c08;}.cls-58{fill:#8d3805;}.cls-59{fill:#6c1e00;}.cls-60{fill:#8a3604;}.cls-61{fill:#5f1a00;}.cls-62{fill:#631a00;}</style></defs><title>Asset 49</title><g id="Layer_2" data-name="Layer 2"><g id="Layer_1-2" data-name="Layer 1"><rect class="cls-1" width="261.18" height="82.8" rx="14.4"/><path d="M105.38,55.61V62c0,1.4,0,2.8,0,4.19,0,.68-.21.91-.89.89-2.89-.07-2.3.34-2.32-2.2,0-4.83,0-9.67,0-14.5,0-.9.19-1.18,1.17-1.24a3.07,3.07,0,0,1,3.16,1.7c2.08,3.35,4.33,6.6,6.51,9.9.47-.22.26-.58.27-.85,0-3.2,0-6.39,0-9.59,0-.89.22-1.16,1.13-1.13,2.13,0,2.13,0,2.13,2.17,0,4.87,0,9.74,0,14.61,0,.91-.28,1.08-1.15,1.16a3,3,0,0,1-3.16-1.69c-1.93-3.12-4-6.13-6.09-9.18C106,56,105.92,55.65,105.38,55.61Z"/><path d="M164.57,60.73v-9.3c0-2.33,0-2.31,2.4-2.23.61,0,.84.18.84.82q0,8.15,0,16.29c0,.55-.17.74-.74.81a3.27,3.27,0,0,1-3.62-1.74c-1.86-3.11-4-6.07-6-9.09-.16-.24-.22-.61-.76-.68v3.78c0,2.24,0,4.48,0,6.71,0,.8-.23,1-1,1-2.19,0-2.19,0-2.19-2.21,0-4.84,0-9.67,0-14.5,0-.89.17-1.18,1.16-1.24a3.07,3.07,0,0,1,3.16,1.7c1.93,3.12,4,6.15,6.06,9.2C164,60.31,164.05,60.69,164.57,60.73Z"/><path d="M136.86,58.17c0-2.64,0-5.27,0-7.91,0-.71.09-1.08,1-1.06q5.7.07,11.4,0c.87,0,1,.34,1,1.06,0,2,0,2-2,2-2.32,0-4.64,0-7,0-.78,0-1,.21-1,1,0,3,0,3,2.94,3,1.8,0,3.6,0,5.4,0,.77,0,1,.19,1,1,0,2.08,0,2.08-2.08,2.08s-4.08,0-6.12,0c-.86,0-1.27.17-1.15,1.12.14,1.13-.5,2.61.26,3.33s2.14.17,3.25.19c1.92,0,3.84,0,5.76,0,.84,0,1.1.23,1.08,1.07,0,2,0,2-2,2-3.52,0-7,0-10.55,0-.92,0-1.15-.28-1.13-1.16C136.89,63.37,136.86,60.77,136.86,58.17Z"/><path d="M127.15,61.53c1.39-3.78,2.81-7.55,4.16-11.35a1.29,1.29,0,0,1,1.49-1c2.51,0,2.49,0,1.57,2.36q-2.81,7.14-5.55,14.28c-.34.89-.71,1.41-1.78,1.28s-1.83.17-2.33-1.19c-1.92-5.25-4-10.44-6-15.63-.39-1-.14-1.12.8-1.1,2.37,0,2.39,0,3.22,2.25,1.27,3.44,2.52,6.89,3.78,10.33C127,62.58,127,61.79,127.15,61.53Z"/><path class="cls-2" d="M231.74,39.65c-.89,0-1.68,0-2.47,0-.58,0-.85-.34-1.16-.71l-6.73-8c-.25-.3-.51-.59-.77-.88-.44.25-.24.61-.24.89,0,2.6-.05,5.19,0,7.79,0,1.1-.68.83-1.27.86s-1.15.1-1.15-.86q.06-9.18,0-18.34c0-.95.51-.91,1.15-.88s1.29-.21,1.27.88c-.06,2.7,0,5.41,0,8.1.46.18.53-.2.68-.38,2-2.35,4.17-4.64,6.06-7.11a3.49,3.49,0,0,1,3.93-1.4c.12.46-.29.62-.5.87-2.34,2.63-4.67,5.26-7.05,7.84-.58.63-.63,1,0,1.66,2.58,2.83,5.1,5.73,7.63,8.61A1.87,1.87,0,0,1,231.74,39.65Z"/><path class="cls-2" d="M130.54,26.84c0,2,.09,4.08,0,6.11-.15,2.63-1,5-3.59,6.19a8.66,8.66,0,0,1-8.4-.34,6.07,6.07,0,0,1-2.74-5.21c-.15-3.23-.09-6.47-.12-9.71,0-1.11.06-2.24,0-3.35s.49-1,1.19-1,1.22,0,1.2,1c-.05,3.6,0,7.19,0,10.79a12.34,12.34,0,0,0,.32,3c.64,2.51,2.46,3.69,5.36,3.54a4.36,4.36,0,0,0,4.4-4.08,53.81,53.81,0,0,0,.16-7.07c0-2,.06-4,0-6,0-.92.26-1.14,1.15-1.14s1.27.18,1.23,1.18c-.09,2,0,4.08,0,6.12Z"/><path class="cls-2" d="M189.67,29.64c0-3,0-6.07,0-9.11,0-.84.33-1,1.06-1,2.72,0,5.44.05,8.16,0,.91,0,1,.36,1,1.13s-.16,1.07-1,1.05c-2-.06-3.92,0-5.88,0-.76,0-1.07.17-1,1,.06,1.59.05,3.19,0,4.79,0,.7.23.9.9.89,1.84,0,3.68,0,5.51,0,.86,0,.88.4.86,1s.13,1.18-.86,1.14c-1.83-.07-3.68,0-5.51,0-.68,0-.91.2-.9.89,0,1.76.05,3.52,0,5.27,0,.7.25.89.91.88,2.16,0,4.32,0,6.47,0,.9,0,1,.4.94,1.09s0,1.11-.93,1.09q-4.38-.08-8.76,0c-.84,0-1-.3-1-1C189.69,35.63,189.67,32.63,189.67,29.64Z"/><path class="cls-2" d="M213.8,22.55a8.7,8.7,0,0,0-6-1c-1.32.27-2.45.84-2.75,2.31a2.85,2.85,0,0,0,1.53,3.23c1.65,1,3.38,1.82,5,2.81a5.57,5.57,0,0,1,3,4,4.78,4.78,0,0,1-3.17,5.43,11.75,11.75,0,0,1-8.22-.12c-.62-.21-1.11-2.21-.69-2.71s.58.05.81.17a9.68,9.68,0,0,0,5.55,1.15c1.76-.15,2.88-.95,3.21-2.24s-.17-2.64-1.72-3.62c-1.18-.74-2.44-1.36-3.67-2a14,14,0,0,1-2.32-1.48,4.81,4.81,0,0,1,.85-8.18,10.81,10.81,0,0,1,7.83-.59.87.87,0,0,1,.76,1C213.77,21.23,213.8,21.79,213.8,22.55Z"/><path d="M179,59.77c0,2.12,0,4.23,0,6.35,0,.68-.11,1-.9,1-2.47,0-2.47.07-2.47-2.43,0-3.71,0-7.43,0-11.14,0-1-.18-1.38-1.23-1.29s-2.24,0-3.35,0c-.69,0-1-.12-1-.91,0-2.17-.05-2.17,2.12-2.17,3.75,0,7.51,0,11.27,0,.9,0,1.15.24,1.13,1.13,0,2,0,1.92-2,2-1.18,0-2.76-.54-3.43.27s-.17,2.21-.18,3.37S179,58.49,179,59.77Z"/><path class="cls-3" d="M141.12,30.61c0,2.67-.05,5.35,0,8,0,1-.47,1-1.23,1s-1.2-.1-1.19-1.08c.05-5.15,0-10.3.06-15.45,0-1.29-.38-1.56-1.54-1.46s-2.32,0-3.47,0c-.89.05-.82-.49-.81-1.07s-.1-1.1.8-1.09q6.17,0,12.34,0c.9,0,.79.52.8,1.09s.06,1.11-.82,1.07c-1.31,0-2.63,0-4,0-.77,0-1,.2-1,1C141.15,25.34,141.12,28,141.12,30.61Z"/><path class="cls-3" d="M98.79,58.18c0,2.64,0,5.27,0,7.9,0,.77-.2,1-1,1-2.35,0-2.35,0-2.35-2.3,0-4.78,0-9.57,0-14.35,0-1,.2-1.32,1.23-1.28,2.13.08,2.13,0,2.13,2.18Z"/><path class="cls-4" d="M43.48,55.06q0-11.3,0-22.6c0-.47,0-.95,0-1.43l.17-.1a.9.9,0,0,1,.4,0c.91.13,1.86-.17,2.75.24.24,2.32,1.83,3.73,3.49,5.06a9.06,9.06,0,0,1,1.85,2.34c1.48,2.34,3.24,4.51,4,7.27.39,1.43.51,2.91.92,4.33.12.44.24.41.54.2,0,0,.17.18.22.3a21.8,21.8,0,0,1-.08,4,1,1,0,0,1-1,.37,1.3,1.3,0,0,1-.73-.43,5,5,0,0,0-.77-3.21,16.14,16.14,0,0,1-1.34-4.08,11.76,11.76,0,0,0-1.55-3.26c-2.16-3.45-5.36-6-7.91-9.26a17.43,17.43,0,0,0-.28,5.2c.09,1.8-.12,3.6,0,5.4s-.07,3.75,0,5.62A18.53,18.53,0,0,1,44,54.62C43.88,54.85,43.78,55.07,43.48,55.06Z"/><path class="cls-5" d="M58.09,31.36c0,6.74,0,13.49.08,20.24,0,1.2-.54,2.73.26,3.51s2.24.2,3.4.23c1.66,0,3.31,0,5,0,.41,0,.88-.18,1.22.24.1.46.29.93-.14,1.34-.33,0-.39-.33-.52-.56a.9.9,0,0,0-.24-.31A30.13,30.13,0,0,0,62.87,56c-1.2,0-2.4.1-3.6.05-.59,0-1.22,0-1.62-.58a1.11,1.11,0,0,1,0-.74c0-4.9-.37-9.79-.23-14.7q0-4.17,0-8.36c0-.7-.46-1.08-.88-1.52-2.28-2.46-4.86-4.62-7.23-7a4.19,4.19,0,0,1-1.06-1.31c-.69-1.27-1.93-2.05-2.83-3.12-.33-.39-1-.66-.64-1.36a1.68,1.68,0,0,1,.74,0,64.63,64.63,0,0,0,6.39,4.21c2.27,1.47,4,3.55,6.36,4.9.35.94,0,2,.31,2.9a2.75,2.75,0,0,1,0,1.07C58.52,30.8,58.19,31,58.09,31.36Z"/><path class="cls-6" d="M33.21,66.32a46.12,46.12,0,0,1,0-5.76c2.57,1.08,5.44.76,8,1.72.52.19,1.12.19,1.53.64a2.54,2.54,0,0,1,.24,1.3,3.08,3.08,0,0,1-.23,1.53,5.3,5.3,0,0,1-3.28.41,11.68,11.68,0,0,0-4.88.51A1.19,1.19,0,0,1,33.21,66.32Z"/><path class="cls-7" d="M42.64,64.23V62.92a1,1,0,0,1-.33-.69c.11-1.45-.79-1.88-2-2-1.39-.1-2.71-.5-4.09-.7-1.22-.16-2.47-.52-3-1.88a5.44,5.44,0,0,1,0-2.09c3.2-.46,6.1.54,8.95,1.82,1,.44.71,1.49,1,2.26a14,14,0,0,1-.15,4.38A.42.42,0,0,1,42.64,64.23Z"/><path class="cls-8" d="M43.48,55.06l.24-.21a2.22,2.22,0,0,1,1.7-.45,41.12,41.12,0,0,1,7.19.36,1,1,0,0,1,.67.55,1.75,1.75,0,0,0,2.42.83c.32-.14.65-.3.87.16a2.77,2.77,0,0,1-.69,1.27c-.4.36-.62.94-1.25,1-1.31.85-2.39.42-3.73-.2a14.86,14.86,0,0,0-4.64-1.17c-1.11-.12-2.3-.23-2.78-1.54a.83.83,0,0,1-.13-.34Z"/><path class="cls-9" d="M58.09,31.36a1.32,1.32,0,0,1,.23-.84A2.35,2.35,0,0,1,60,30.1c1.87,0,3.73,0,5.59,0,1.57,0,1.66-.13,1.68-1.73,0-.39,0-.78,0-1.17.11-1-.07-2,0-3,0-.44,0-.87,0-1.3a2.12,2.12,0,0,0-1.57-2.38,12.48,12.48,0,0,0-4.17-1.37,2.09,2.09,0,0,1-1.34-.76c-.36-.38-.54-.81.14-1.08,2.52.06,5-.14,7.56.11.31.28.18.65.18,1,0,3.77,0,7.55,0,11.32,0,1-.29,1.27-1.26,1.25-2.47-.06-4.94,0-7.42,0C59,31,58.45,30.81,58.09,31.36Z"/><path class="cls-10" d="M33.21,57.69a6.44,6.44,0,0,0,3.72,1.65,46,46,0,0,1,4.65.76,1.17,1.17,0,0,1,1.06,1.39c0,.47,0,.95,0,1.43-1.14-.26-2.29-.46-3.4-.79a30.85,30.85,0,0,0-4.06-.51,2.71,2.71,0,0,1-2-1.06A12,12,0,0,1,33.21,57.69Z"/><path class="cls-11" d="M68,68.91a2.58,2.58,0,0,1-1.63.32c-6,0-12,0-17.93,0a2.92,2.92,0,0,1-.5-.09.23.23,0,0,1,0-.38,3.22,3.22,0,0,1,1.37-.27c1.44,0,2.88.08,4.32,0,2,0,4.09.08,6.13,0,1.53,0,3.06.09,4.58-.06.56-.28.51-.86.63-1.34q.73-2.94,1.33-5.91c.44-.73.2-1.65.63-2.38.43-1,.43-1,1-.71C68.09,61.73,68,65.32,68,68.91Z"/><path class="cls-12" d="M33.21,66.32c.7.36,1.3-.09,2-.22a9.2,9.2,0,0,1,3.52-.35,24.75,24.75,0,0,0,4,0,.66.66,0,0,1,.22.32.93.93,0,0,1-.14.76,2,2,0,0,1-1.44.44,34,34,0,0,0-5.87.92c-.44.09-1.13.05-.9.88-1.06.34-1.52,0-1.38-1.15C33.2,67.42,33.18,66.87,33.21,66.32Z"/><path class="cls-13" d="M42.9,59.52c-.25-2-1.81-2.19-3.33-2.69a17.68,17.68,0,0,0-6.33-1.23c.3-.49.78-.23,1.16-.24,3,0,6,0,9,0a.13.13,0,0,1,.13,0,.5.5,0,0,1,0,.38c0,.13-.11.25-.16.37C43,57.23,43.64,58.46,42.9,59.52Z"/><path class="cls-14" d="M68,17.44l-7.83,0a3.08,3.08,0,0,1-2.16.37c-2.41.11-4.83,0-7.24,0-1.75-.09-3.53.37-5.23-.39h-.78a1,1,0,0,1-.71.3,2.61,2.61,0,0,1-.4,0H43l-.42,0c-.84,0-1.69,0-2.53,0l-.65,0c-3.26,0-2.51-.5-3.52,2.95-.2.86-.37,1.72-.54,2.59a2.46,2.46,0,0,1-.49,1.12.29.29,0,0,1-.37,0c.44-2.21.89-4.42,1.31-6.63.14-.75.7-.65,1.21-.66h8.21q10.69,0,21.38,0C67.07,17.23,67.58,17,68,17.44Z"/><path class="cls-15" d="M34.51,69.12c-.13-.23-.65-.15-.55-.41a1.26,1.26,0,0,1,1.09-.82c2.24-.23,4.4-1,6.69-.9a4,4,0,0,0,.9-.15,1.1,1.1,0,0,1,.42,1c-.26.79-1,.62-1.54.65-2.24.15-4.45.63-6.71.68Z"/><path class="cls-16" d="M43.42,31c-3,0-6,0-8.93-.07-.41,0-.87.2-1.22-.19a.81.81,0,0,1,.46-.5,15.39,15.39,0,0,1,3.46-.15c1,0,2-.06,3,0,1.75.09,1.75.09,1.77-1.59a16.63,16.63,0,0,1,.11-2.73,8,8,0,0,0,.2-2.18c0-.48-.11-1.09.64-1.21.45.46.33,1.05.35,1.6,0,2.06-.06,4.13,0,6.2a3.42,3.42,0,0,0,.17.4.79.79,0,0,1,0,.43l-.06,0Z"/><path class="cls-17" d="M34.81,69.12A50,50,0,0,1,42.49,68c.3,0,.37-.11.41-.35-.26-.42-.08-.88-.13-1.33A.35.35,0,0,1,43,66a.39.39,0,0,1,.34.16,2,2,0,0,1,.2,1c0,.46,0,.91,0,1.37a1.24,1.24,0,0,1-.09.38,1.2,1.2,0,0,1-.26.29C40.35,69.25,37.58,69.29,34.81,69.12Z"/><path class="cls-18" d="M68,68.91a2.63,2.63,0,0,1-.26-1.51V57.94a.68.68,0,0,1,0-1c.38-.37.17-.87.28-1.3.36.52.13,1.09.13,1.64q0,5.2,0,10.41C68.16,68.08,68.36,68.54,68,68.91Z"/><path class="cls-19" d="M33.49,30.52l-.22.25a30.31,30.31,0,0,1,1.24-6.26h.28c.58.71,0,1.34-.12,2C34.29,27.86,34.5,29.37,33.49,30.52Z"/><path class="cls-20" d="M43.13,69.15a1.43,1.43,0,0,0,0-.22,1.31,1.31,0,0,1,.9-.36c1.27.15,2.61-.4,3.81.39a.31.31,0,0,0,0,.21A33.44,33.44,0,0,1,43.13,69.15Z"/><path class="cls-21" d="M127.15,61.53c.1.37,0,.74-.37.81s-.41-.25-.32-.56C126.87,62.19,126.93,61.64,127.15,61.53Z"/><path d="M221.45,66.51c-1-2.3-1.34-4.89-3-6.88-.49-.59-.27-.73.21-1a4.5,4.5,0,0,0,2-2.85,5,5,0,0,0-4.64-6.43c-3-.18-6.07-.06-9.1-.11-.77,0-.69.45-.69.93V64.76c0,2.42,0,2.4,2.41,2.35.71,0,1-.19,1-1-.06-1,0-2.08,0-3.11s-.32-2.3.18-2.9,1.94-.23,3-.24a3.48,3.48,0,0,1,3.64,2.53c.46,1.27.89,2.56,1.34,3.84.14.42.26.84.85.82.8,0,1.6,0,2.4,0C221.43,67.1,221.63,66.91,221.45,66.51Zm-6.08-9.79c-1.7.14-3.42.08-5.13.12-.48,0-.62-.22-.61-.66,0-1.11,0-2.23,0-3.34,0-.53.21-.7.71-.68.79,0,1.59,0,2.38,0v0c.84,0,1.68-.06,2.51,0a2.07,2.07,0,0,1,2.17,2.2A2,2,0,0,1,215.37,56.72Z"/><path d="M195.91,49a8.24,8.24,0,0,0-9.09,5.1,10.53,10.53,0,0,0,.15,8.4,8.09,8.09,0,0,0,7.6,4.95c5,.18,8.7-3.87,8.71-9.54,0-.19,0-.63-.06-1.06A8.36,8.36,0,0,0,195.91,49Zm4,9c0,3.36-1.47,5.61-4,6.22a4.86,4.86,0,0,1-5.79-2.87,8.28,8.28,0,0,1-.26-5.74,5,5,0,0,1,9.68,0A7.11,7.11,0,0,1,199.87,58Z"/><path d="M186.16,26.74a7.88,7.88,0,0,0-6.33-6.7c-2.83-.7-5.72-.37-8.59-.48-.89,0-1.06.32-1,1.11,0,3,0,6,0,9s0,6,0,9c0,.78.21,1.06,1,1,1.6-.06,3.2,0,4.79,0a11.66,11.66,0,0,0,5.31-1.29C185.32,36.19,187.12,31.87,186.16,26.74Zm-2.68,5.74c-.89,3-3.48,4.8-7,5-1.23.07-2.78.52-3.6-.16s-.22-2.25-.26-3.42c-.05-1.44,0-2.87,0-4.31,0-2.28,0-4.55,0-6.82,0-.87.26-1.1,1.09-1.07a36.35,36.35,0,0,1,4.42.22,6.29,6.29,0,0,1,5.66,5.48A10.56,10.56,0,0,1,183.48,32.48Z"/><path d="M158.89,19.31c-4.7-.55-8.53,1.65-10.16,5.87a12.32,12.32,0,0,0-.77,4.46c0,.6,0,1.2.08,1.8a9,9,0,0,0,8.3,8.49c5.11.43,8.92-2.17,10.17-7a14.22,14.22,0,0,0,.28-5.7A8.88,8.88,0,0,0,158.89,19.31Zm5.33,12.9a6.55,6.55,0,0,1-6.71,5.63,6.7,6.7,0,0,1-6.77-5.47,10.12,10.12,0,0,1-.3-2.63,9.55,9.55,0,0,1,1-4.61,6.71,6.71,0,0,1,6.79-3.73,6.31,6.31,0,0,1,5.85,5A12.54,12.54,0,0,1,164.22,32.21Z"/><path d="M106.33,20.45a1.22,1.22,0,0,0-1.44-.89c-.7.05-1.38-.13-1.71.85-.69,2-1.52,4-2.3,6.05q-2.34,6.09-4.66,12.19c-.11.28-.51.63-.09,1a2.25,2.25,0,0,0,2.67-.89c.45-1.28.92-2.56,1.34-3.85a1.07,1.07,0,0,1,1.21-.85q3.36.08,6.72,0a1.11,1.11,0,0,1,1.23.85c.43,1.24,1,2.46,1.35,3.71.27.88.72,1.3,1.53,1.08,1.52,0,1.53,0,1-1.32C110.91,32.37,108.59,26.42,106.33,20.45Zm1.06,11.48c-1.79,0-3.59,0-5.38,0-.5,0-.78-.06-.55-.67,1.07-2.87,2.11-5.74,3.24-8.82,1.12,3,2.15,5.88,3.21,8.71C108.12,31.7,108.06,31.94,107.39,31.93Z"/><path class="cls-22" d="M57.54,50.38l-.41.58a6.11,6.11,0,0,1-.94-3c-.56-2.69-1.31-5.3-3.3-7.33a7.54,7.54,0,0,1-1.06-1.92c-1.15-2.12-3.41-3.17-4.7-5.13a2,2,0,0,1-.31-2.29c1.15-.7,2.4-.28,3.61-.31a3,3,0,0,1,1.65,1.18c.83,1.32,1.85,2.5,2.77,3.75A10.65,10.65,0,0,1,57,40.68c.14-.46-.49-1.23.61-1.16,0,.22,0,.43,0,.65v7.74a4.82,4.82,0,0,0-.06,1.89A.58.58,0,0,1,57.54,50.38Z"/><path class="cls-23" d="M43.71,45.4V39.65c.32-.42-.23-1.18.42-1.38s1.12.37,1.5.84c2.1,2.52,4.47,4.82,6.38,7.51a5.81,5.81,0,0,1,.67,1.4,12.46,12.46,0,0,0,1.72,4,1,1,0,0,1,.26.73c-.19,1.07.44,1.5,1.31,1.77a.55.55,0,0,1,.52.26,4.88,4.88,0,0,1-4,0c-.76-.64-1.16-1.59-1.88-2.27A23.11,23.11,0,0,1,46,45.42a4.56,4.56,0,0,0-1.48-1.83C43.93,44.08,44.74,45.15,43.71,45.4Z"/><path class="cls-24" d="M56,54.56c-1.13.14-2,0-1.59-1.49a1.07,1.07,0,0,0-.26-.85C53,51,52.8,49.34,52.28,47.84a1.41,1.41,0,0,0-.25-.6c-1.74-1.68-2.65-4.05-4.68-5.53a10.89,10.89,0,0,1-2-2.37,3.29,3.29,0,0,0-1.14-.92c-.47.36-.1.94-.52,1.23a22.12,22.12,0,0,1,.39-5.76,49.53,49.53,0,0,0,5.27,5.89,48.64,48.64,0,0,1,3.54,4.58A5.22,5.22,0,0,1,54,46.54a28,28,0,0,0,2.29,6.55A1.07,1.07,0,0,1,56,54.56Z"/><path class="cls-25" d="M43.71,45.4c.55-.73,0-1.62.4-2.48a4.63,4.63,0,0,1,2.38,2.77,25.78,25.78,0,0,0,2.68,4.69A13.21,13.21,0,0,0,51.55,53a2,2,0,0,1,.76,1.57,2.33,2.33,0,0,1-2.83-.44c-.67-.67-1.62-.83-2.36-1.36a7.59,7.59,0,0,1-2.56-2.51c-.48.18-.21,1-.85.89Z"/><path class="cls-26" d="M43.71,51.14c.54-.43-.16-1.53.67-1.63s.49,1,1,1.37a13.38,13.38,0,0,0,2.69,2,4.12,4.12,0,0,1,2.08,1.44c.43.66,1.45.16,2.2.27a15.44,15.44,0,0,0,4.18.26h1v.25a5.12,5.12,0,0,1-4.44,0,88.76,88.76,0,0,0-9.37-.23C43.72,53.61,43.72,52.38,43.71,51.14Z"/><path class="cls-27" d="M57.54,48.29V39.93c.08-.13.17-.12.25,0v14.9c-.09.12-.17.11-.25,0h0v-5A2.13,2.13,0,0,1,57.54,48.29Z"/><path class="cls-24" d="M50.74,31.3H46.82c-1-.12-2.13.27-3.14-.25.75-.65,1.66-.31,2.5-.37.64-.05,1.29,0,1.94,0h4.52a2,2,0,0,1,1.47.32c.06.65-.47.63-.86.69A3.84,3.84,0,0,1,50.74,31.3Z"/><path class="cls-28" d="M48.13,31H43.68l-.14,0-.12-.23.15-.17c1.11-.4,2.26-.12,3.38-.21a1.77,1.77,0,0,1,1.1.24A.29.29,0,0,1,48.13,31Z"/><path class="cls-29" d="M48.13,31v-.26c1-.7,2.24-.24,3.36-.37a9.87,9.87,0,0,0,3,.24c.34,0,.09-.28.18-.13s0,.08-.09.1c-1.68.24-3.1,0-3.82-1.81a4.62,4.62,0,0,0-1.34-1.58c-2-1.78-3.43-4.16-5.91-5.4a2.32,2.32,0,0,1-.2-1.1c.13-1.08-.32-2.22.37-3.23a.91.91,0,0,1,.23,0,24.1,24.1,0,0,1,4.47,4.15c2.42,2.82,5.43,5,7.93,7.78L57.79,31a2.09,2.09,0,0,1-.39.27c-1.11.17-2.22.42-3.26-.26Z"/><path class="cls-30" d="M67.73,27.12c0,3.4,0,3.4-3.33,3.4H58.32V29.47a.93.93,0,0,1-.08-.78c.51-.51.53-1.26.94-1.83,1.1-1.56,2.73-1.73,4.41-1.69a13.56,13.56,0,0,1,2.43.41A2,2,0,0,1,67.73,27.12Z"/><path class="cls-31" d="M45.52,17.48h5.23c2.6,1.23,4.78,3.1,7.14,4.7a.76.76,0,0,1,.38.5,5.88,5.88,0,0,1-.21,3.66c-1.63,0-2.36-1.44-3.44-2.29a47.45,47.45,0,0,0-5.91-4A9.64,9.64,0,0,1,45.52,17.48Z"/><path class="cls-32" d="M67.22,59c-.39.73,0,1.63-.53,2.34a.49.49,0,0,1-.19-.44c-.11.64-.69.81-1.5.55a22.38,22.38,0,0,1-3.9-1.4c-1.77-.93-3.55-1.86-5.4-2.63.22-.38.33-.85.79-1,.26-.56.53-1.12,1.3-1,1.2.57,2.46.15,3.69.26.52,0,1,0,1.56,0,1.55.33,3.14-.13,4.69.24v.26c-.76.61-1.67.29-2.51.35a11.17,11.17,0,0,0-2.21.18c1.35.39,2.29,1.69,3.89,1.53C67.53,58.13,67.35,58.64,67.22,59Z"/><path class="cls-33" d="M58.06,26.34a2.82,2.82,0,0,1,0-.65c.76-2.91-1.36-4.05-3.28-5.29a29.62,29.62,0,0,1-4-2.92h7.3c.72,1.31.58,2.77.69,4.17.08,1.12-.1,2.25,0,3.38s.29,2.5-.41,3.66v.78C57.78,28.47,58.19,27.38,58.06,26.34Z"/><path class="cls-34" d="M67.22,59c-.08-.2.13-.66-.28-.56-2,.5-3-1.36-4.67-1.72-.13,0-.26-.3-.09-.43a1.07,1.07,0,0,1,.59-.16c1.65,0,3.31,0,5,0,0,.26,0,.53,0,.79s0,.68,0,1Z"/><path class="cls-35" d="M57.79,55.34l-1.3,1c-.38-.42-.57,0-.83.18a2.54,2.54,0,0,1-2.72-.89c-.06-.16.1-.39.15-.59,1.48-.15,3,.3,4.45-.26h.25Z"/><path class="cls-31" d="M48.38,21.64a47.32,47.32,0,0,1-4.46-4.15h.82c1,1.09,2.12,2.17,3.14,3.28C48.1,21,48.65,21.11,48.38,21.64Z"/><path class="cls-36" d="M57.54,31h.25v8.9h-.25V39.4C56.89,38.17,56.89,32.31,57.54,31Z"/><path class="cls-34" d="M67.73,55.87c-1.56-.14-3.15.29-4.69-.24C64.6,55.73,66.19,55.33,67.73,55.87Z"/><path class="cls-10" d="M42.64,66.06V64.23h.26l.15.15a1.48,1.48,0,0,1-.15,1.68h0C42.81,66.18,42.72,66.18,42.64,66.06Z"/><path class="cls-37" d="M42.9,59.52c.16-1.29-.33-2.63.27-3.89a.73.73,0,0,1,.26.44,43,43,0,0,1-.1,8,.32.32,0,0,1-.43.14h0Z"/><path class="cls-38" d="M55.7,57.43c1.38-.61,2.24.64,3.2,1.11A44.79,44.79,0,0,0,64.74,61c.91.3,1.57.39,2-.72v1c-.52,2.29-1,4.59-1.54,6.88-.05.25,0,.53-.3.68a2.39,2.39,0,0,1-.22-.23,1.26,1.26,0,0,0-.32-.37,5.41,5.41,0,0,1-1.61-.47,1.77,1.77,0,0,1-1-1.8,4.76,4.76,0,0,0-4.1-4.79c-1.45-.24-2.36-1.45-3.34-2.46,0-.22.11-.36.37-.33C55.05,58.16,55.2,57.61,55.7,57.43Z"/><path class="cls-39" d="M54.66,58.46l-.27.27a2.4,2.4,0,0,1-1.53,1.51c-.81.12-1.18.84-1.72,1.32a1.29,1.29,0,0,1-1.64.17C48,61,46.61,60.17,44.9,60.12a1.26,1.26,0,0,1-1.28-1.25c-.06-.65-.21-1.28-.33-1.93a4,4,0,0,1,.11-1.37.39.39,0,0,1,.08-.21c.86,1.31,2.24,1.3,3.6,1.64,1.8.46,3.84.39,5.33,1.8.59.56.87.09,1.28-.23C53.94,58.37,54.24,57.45,54.66,58.46Z"/><path class="cls-40" d="M58.32,25c.17-2.52-.22-5-.27-7.55h2.1a1.7,1.7,0,0,0,1.72,1.39c2,0,3.5,1.1,5.12,1.93,1.37.69.54,2.11.74,3.19-.32.28-.64.12-1,0a11.45,11.45,0,0,0-6.44-.85c-.62.12-.9.32-1.06.89S59.06,25.09,58.32,25Z"/><path class="cls-41" d="M58.32,25c.73-.35.52-1.12.75-1.7.14-.34.2-.6.65-.64a14.45,14.45,0,0,1,8,1.3v3.13c-1.65-1.83-3.8-1.65-5.94-1.45a2.89,2.89,0,0,0-2.71,2.43.74.74,0,0,1-.76.59Z"/><path class="cls-20" d="M64.86,68.67c0,.08,0,.16,0,.24h-5a3,3,0,0,0-1.66-.11c-2,.19-3.92-.54-5.84-1a21.78,21.78,0,0,0-4.89-.57c-.51,0-1,.18-1.51-.19-.05-1.17.71-1.64,1.68-1.92,2.33.66,4.76.82,7.1,1.41a49.38,49.38,0,0,0,5.11,1.39c.73.1,1.46.09,2.19.12A7.71,7.71,0,0,1,64.86,68.67Z"/><path class="cls-42" d="M46,66.83a18.6,18.6,0,0,1,5.23.33c1.49.4,3.13.34,4.46,1.32.48.36,1.09.12,1.64.19.84.11,1.73-.25,2.53.25H53.61A47.68,47.68,0,0,0,46,68.25a1.34,1.34,0,0,1-1-.13c-.28-.7.21-1,.67-1.33A.39.39,0,0,1,46,66.83Z"/><path class="cls-43" d="M45,67.87a29.25,29.25,0,0,1,8.07.81,2.34,2.34,0,0,1,.56.25H49.17a16.84,16.84,0,0,0-4.86-.16C43.94,68,44.42,67.92,45,67.87Z"/><path class="cls-44" d="M44.2,68.67a8.05,8.05,0,0,1,5,.26l-1.29,0-4-.07C43.91,68.69,44,68.6,44.2,68.67Z"/><path class="cls-6" d="M42.64,66.06h.26v1.56c-.3-.19-.26-.49-.26-.78Z"/><path class="cls-45" d="M43.4,55.57l0,1.6a5.45,5.45,0,0,1,.26,1.88,37.25,37.25,0,0,1,.12,4.09c-.12,1.27.22,2.58-.21,3.83a.31.31,0,0,1-.42.14l0-1a3,3,0,0,1,0-1.83c0-2.87,0-5.74,0-8.6Z"/><path class="cls-19" d="M42.37,25.82c0,1.06-.06,2.14,0,3.2s-.24,1.71-1.47,1.5a4.55,4.55,0,0,0-.64,0c.67-.66.36-1.09-.16-1.77-1.49-2-3.49-3.42-5.06-5.28a9,9,0,0,1,.52-2.62c.33-1.06.66-1.23,1.3-.54a52.62,52.62,0,0,0,5.58,4.75A.86.86,0,0,1,42.37,25.82Z"/><path class="cls-46" d="M42.37,25c-1.66-.26-2.44-1.79-3.73-2.59a5.16,5.16,0,0,1-1.83-1.77c-.48-.82-.9-.44-1.23.18-.09-1,.62-1.88.62-2.9,0-.44.53-.49.94-.49l2.87,0a14.09,14.09,0,0,0,1.33,1,2.41,2.41,0,0,1,1.38,2.8C42.5,22.55,42.61,23.81,42.37,25Z"/><path class="cls-47" d="M35.06,23.47A21.93,21.93,0,0,1,40,28.11c.2.23.35.49.56.7,1.16,1.16,1.17,1.16-.27,1.71H37.15c-.22-1.45-1.25-2.41-2.13-3.45-.22-.25-.57-.39-.73-.72a3.23,3.23,0,0,0,.5-1.84A1.8,1.8,0,0,1,35.06,23.47Z"/><path class="cls-48" d="M42.37,25c0-1.5,0-3,0-4.52a1.28,1.28,0,0,0-.87-1.4A2.28,2.28,0,0,1,40,17.48h2.93a7.32,7.32,0,0,1,0,4.93c-.49.6-.16,1.3-.25,1.95-.07.49.17,1-.27,1.45Z"/><path class="cls-49" d="M43.68,17.5v3.35c-.38.66.1,1.26.1,1.9,0,2.35,0,4.7,0,7.05a1.36,1.36,0,0,1-.33,1l0,0-.24-.07c-.25-.3-.14-.66-.14-1q0-5.61,0-11.22c0-.34-.1-.7.14-1Z"/><path class="cls-50" d="M43.18,17.49V30.72c-.46-.3-.27-.78-.28-1.18,0-2.37,0-4.75,0-7.12,0-1.65,0-3.29,0-4.93Z"/><path class="cls-51" d="M34.29,26.35a2.92,2.92,0,0,1,1.92,1.56,3.14,3.14,0,0,0,1.06,1.4c.73.42.24.84-.12,1.21H33.49C33.75,29.13,34,27.74,34.29,26.35Z"/><path class="cls-52" d="M44.2,68.67l-.27.23-.76,0a2.26,2.26,0,0,0,0-.26c.26-.3.05-.68.17-1a8.28,8.28,0,0,0,1.86-1.19.69.69,0,0,1,.35,0c.18.07.33.17.23.4-.26.34-.52.69-.79,1A1.83,1.83,0,0,0,44.2,68.67Z"/><path class="cls-15" d="M43.15,64.23v1.83H42.9V64.23Z"/><path class="cls-53" d="M43.42,67.63c0,.36.11.76-.26,1,0-.52,0-1,0-1.56l.25,0A.38.38,0,0,1,43.42,67.63Z"/><path class="cls-54" d="M57.54,31V39.4c-.52.44-.08,1.1-.52,1.87-1.1-4.1-3.77-7-6.28-10,1.13-.14,2.3.31,3.4-.26Z"/><path class="cls-4" d="M57.54,48.29v1.57A1.2,1.2,0,0,1,57.54,48.29Z"/><path class="cls-55" d="M51.79,30.78H47.08a7.35,7.35,0,0,0-2.56-.11c-.72,0-1-.2-1-1,.05-1.21,0-2.42,0-3.63.27-.72.76-.39,1.13-.18A6.79,6.79,0,0,1,46.82,28c1,1.33,2,2.54,3.89,2.21C51.09,30.12,51.71,30.07,51.79,30.78Z"/><path class="cls-56" d="M43.68,25.82v2.59c0,2.39-.26,2.08,2,2.12.46,0,1-.17,1.35.25l-3.63,0,0-9c0-.34-.06-.7.26-1v1A4.13,4.13,0,0,1,43.68,25.82Z"/><path class="cls-28" d="M43.68,25.82V21.9a3.7,3.7,0,0,1,2.72,1.58C47.56,25,49,26.17,50.23,27.53c.21.22.5.4.61.66.78,1.74,1.87,2.92,4.11,2.2l-.1.39H51.79a.92.92,0,0,0-1-.25c-2.26.46-3.36-.92-4.44-2.58A4.85,4.85,0,0,0,43.68,25.82Z"/><path class="cls-57" d="M52.83,60l1.56-1.31c.77.68,1.83,1,2.41,1.93a.77.77,0,0,0,.93.31,1.75,1.75,0,0,1,2,.58c1.33,1.31,2.72,2.6,2.3,4.81-.21,1.15,1,1.13,1.61,1.49.34.2.87-.11,1.21.3a.69.69,0,0,1-.76.38c-1.42-.31-2.93-.31-4.18-1.2a44.76,44.76,0,0,0-4.14-2.87c-1.36-.76-1.56-2.61-2.68-3.68-.22.19-.43.89-1.14.42C51.88,60.54,52.3,60.25,52.83,60Z"/><path class="cls-58" d="M52,61.08c1.48-.93,2,.14,2.56,1.2a4.19,4.19,0,0,0,2.78,2.62c.8.21,1.44,1.07,2.11,1.68,1.32,1.19,3,1.45,4.64,1.8.22,0,.48-.15.73-.23v.52A17.42,17.42,0,0,1,62,68.41c-3.54-.3-6.66-2-10-3.06a2.79,2.79,0,0,1-1.71-1.42c-.77.13-1,1.46-2,.7-.09-.94.77-1.26,1.21-1.86C50.39,62.28,51,61.29,52,61.08Z"/><path class="cls-59" d="M52,61.08l-2.33,1.85a6.26,6.26,0,0,0-1.58,1.5c-.37.41-.77.76-1.27.15-.24-.89-1-1.15-1.74-1.3a1.58,1.58,0,0,1-1.46-1.88,7.84,7.84,0,0,0-.24-2.4V57.17a2.22,2.22,0,0,1,.51,1.57.93.93,0,0,0,1.12,1.08c1.72-.17,3,.9,4.44,1.53a1.24,1.24,0,0,0,1.69-.26c.48-.42.69-1.36,1.65-1.05Z"/><path class="cls-60" d="M48.39,64.49c1.06.37,1.13-1,2-1.11.55,1.86,2.45,2,3.83,2.41a22.43,22.43,0,0,1,3.65,1.4c1.35.72,2.85.54,4.13,1.22a18.72,18.72,0,0,1-6.26-1.22,21.7,21.7,0,0,0-4-.8c-1.38-.2-2.9-.24-4.13-1.12A.67.67,0,0,1,48.39,64.49Z"/><path class="cls-61" d="M48.39,64.49a1.71,1.71,0,0,0-.79.78A6.13,6.13,0,0,0,46,66.83h-.26l-.26-.26c0-1,.79-1.44,1.57-1.83.81-.1,1.1-.87,1.67-1.26.31-.21.37-.84,1-.56Z"/><path class="cls-53" d="M47.08,64.75l-1.57,1.83h-.26a1.7,1.7,0,0,1-1.58-2.2,1.24,1.24,0,0,0-.25-1.2V59a3.73,3.73,0,0,1,.46,2.2c-.06,1.29.55,1.64,1.63,1.77S47.35,63.46,47.08,64.75Z"/><path class="cls-62" d="M43.42,63.18c.89.26.44,1,.51,1.51s-.23,1.34.89,1.14c.57-.1.15.57.43.75-.53.49-.73,1.54-1.83,1V63.18Z"/></g></g></svg>