<svg xmlns="http://www.w3.org/2000/svg" xmlns:xlink="http://www.w3.org/1999/xlink" viewBox="0 0 296.94 82.8"><defs><style>.cls-1{fill:none;}.cls-2{fill:#ffedb4;}.cls-3{clip-path:url(#clip-path);}.cls-4{fill:#010101;}.cls-5{fill:#020202;}.cls-6{fill:#030303;}.cls-7{fill:#070707;}.cls-8{fill:#f68523;}.cls-9{fill:#fdbb57;}.cls-10{fill:#f58523;}.cls-11{fill:#ba814f;}.cls-12{fill:#e9a153;}.cls-13{fill:#f5aa55;}.cls-14{fill:#c08751;}.cls-15{fill:#f28222;}.cls-16{fill:#ee8122;}.cls-17{fill:#ca6221;}.cls-18{fill:#fcb056;}.cls-19{fill:#d1661e;}.cls-20{fill:#e57822;}.cls-21{fill:#feb657;}.cls-22{fill:#cf9051;}.cls-23{fill:#df9a52;}.cls-24{fill:#e67d23;}.cls-25{fill:#ef8023;}.cls-26{fill:#faac50;}.cls-27{fill:#f5ab55;}.cls-28{fill:#e17420;}.cls-29{fill:#ef8324;}.cls-30{fill:#d99651;}.cls-31{fill:#ea8024;}.cls-32{fill:#c2864f;}.cls-33{fill:#e67e23;}.cls-34{fill:#df7b23;}.cls-35{fill:#f48727;}.cls-36{fill:#e47f27;}.cls-37{fill:#ce641f;}.cls-38{fill:#e97e27;}.cls-39{fill:#d67c2c;}.cls-40{fill:#e4994c;}.cls-41{fill:#f6a652;}.cls-42{fill:#f99e40;}.cls-43{fill:#f7a94e;}.cls-44{fill:#e67820;}.cls-45{fill:#de7220;}.cls-46{fill:#e27520;}.cls-47{fill:#da6d20;}.cls-48{fill:#fe9a3b;}.cls-49{fill:#fb9d3d;}.cls-50{fill:#fba242;}.cls-51{fill:#fca643;}.cls-52{fill:#d6741e;}.cls-53{fill:#e0791f;}.cls-54{fill:#c86d1e;}.cls-55{fill:#cd7021;}.cls-56{fill:#d56920;}.cls-57{fill:#cd641e;}.cls-58{fill:#be681d;}.cls-59{fill:#ee913b;}.cls-60{fill:#fdad55;}.cls-61{fill:#f9a852;}.cls-62{fill:#d47b2a;}.cls-63{fill:#faa047;}.cls-64{fill:#fea649;}.cls-65{fill:#fba84b;}.cls-66{fill:#faa345;}.cls-67{fill:#fcae58;}.cls-68{fill:#f69f48;}.cls-69{fill:#fa9639;}.cls-70{fill:#ea7b21;}.cls-71{fill:#d36b21;}.cls-72{fill:#f79d43;}</style><clipPath id="clip-path"><rect class="cls-1" x="22.63" y="6.26" width="270.2" height="70.29"/></clipPath></defs><title>Asset 51</title><g id="Layer_2" data-name="Layer 2"><g id="Layer_1-2" data-name="Layer 1"><rect class="cls-2" width="296.94" height="82.8" rx="14.4"/><g class="cls-3"><path class="cls-4" d="M191.46,60.73c0-4.28.08-8.56-.05-12.83,0-1.66.84-1.48,1.91-1.53s1.71.08,1.69,1.49c-.08,5.68,0,11.37-.07,17,0,.74.65,2.15-.68,2.14s-3.27,1.06-4.32-1c-2.08-4.15-4.23-8.27-6.37-12.39-.22-.41-.22-1-1-1.2,0,4.39-.06,8.71,0,13,0,1.38-.36,1.78-1.74,1.74S179,67,179,65.51q.13-8.76,0-17.5c0-1.49.58-1.55,1.8-1.67,2.13-.21,3.28.46,4.19,2.49,1.84,4.07,4,8,6.09,12Z"/><path class="cls-4" d="M121,65.52a8.91,8.91,0,0,1-4.8,2c-4.13.35-7.21-2.08-7.36-6.17-.16-4.57,0-9.15-.06-13.72,0-1.77,1.19-1.13,2-1.16s2-.53,1.92,1.19c-.09,4.21,0,8.42,0,12.62,0,2.89,1.32,4.3,3.88,4.25,2.79,0,4.47-1.65,4.47-4.27,0-4.13.09-8.27,0-12.39-.06-1.76,1-1.42,2-1.42s2-.35,2,1.42c-.12,5.68,0,11.36-.08,17,0,.78.76,2.13-.88,2.26C122.69,67.21,121.14,67.68,121,65.52Z"/><path class="cls-4" d="M136.77,46c3.81,0,6.62,1.53,7.43,4.2.19.6,1,1.74-.16,1.94-1,.17-2.6.92-3.24-.77-.86-2.27-2.65-2.53-4.69-2.36-1.46.13-2.63.72-2.81,2.31s.9,2.24,2.15,2.68c1.8.64,3.67,1.12,5.45,1.82,2.21.86,3.72,2.3,3.74,4.92,0,4-1.84,6.14-5.84,6.63a11.8,11.8,0,0,1-6.71-.87,5.19,5.19,0,0,1-2.8-3c-.26-.77-1.31-2.08-.14-2.43s2.88-1.17,3.55,1.19c.54,1.92,3.15,2.66,5.69,2.07a2.72,2.72,0,0,0,2.34-3.18A2.37,2.37,0,0,0,139,58.86c-1.52-.57-3.06-1.07-4.61-1.58-4.07-1.32-5.34-3-4.91-6.43.34-2.7,2.67-4.47,6.33-4.8C136.12,46,136.49,46,136.77,46Z"/><path class="cls-4" d="M218.57,56.05c3.19,1.13,3.87,3.44,3.53,6.28-.25,2.18-2.06,4-4.67,4.8-4,1.13-8.39-.24-9.82-3.14-.35-.7-1.18-2-.29-2.27s2.64-1,3.45.66a3.67,3.67,0,0,0,2.73,2.05c2.39.5,4.43-.68,4.77-2.75.39-2.41-1-3.86-3.71-4.16-.78-.08-2,.63-2.26-.58s-.5-2.42,1.54-2.21c1.73.17,3.35-.27,3.69-2.33A2.56,2.56,0,0,0,216,49.28a4,4,0,0,0-4.77,1.26c-.34.5-.26,1.39-1.25,1.27s-2.05.43-2.53-.26.15-1.84.67-2.64c2.35-3.64,9.44-4,12.17-.6C222.18,50.61,221.51,53.83,218.57,56.05Z"/><path class="cls-5" d="M92.78,56.64c0-2.88,0-5.77,0-8.65,0-1.2.24-1.67,1.56-1.63,3.12.1,6.24.06,9.35,0,1.08,0,1.76,0,1.76,1.47s-.67,1.66-1.88,1.62c-1.86-.07-3.72,0-5.57,0-1.08,0-1.34.35-1.38,1.4-.18,4.54-.21,4.49,4.64,4.57,1.14,0,3.07-.93,2.83,1.69-.08.94-.3,1.33-1.28,1.3-1.55-.06-3.12,0-4.67,0-1.14-.06-1.58.26-1.52,1.46.1,2,0,4,.06,6,.09,1.58-.9,1.37-1.86,1.35s-2.11.32-2.05-1.42C92.86,62.7,92.78,59.67,92.78,56.64Z"/><path class="cls-5" d="M212.38,36.92c-4,0-6.49-1.53-7.27-4.52-.13-.51-.87-1.35.33-1.53.65-.11,1.34-.29,1.8.72,1.5,3.26,4.48,4.29,7.88,3a3.17,3.17,0,0,0,2.26-3c.12-1.55-.31-2.84-1.79-3.47-1.63-.7-3.32-1.26-5-1.83-4.24-1.43-5.59-3.23-4.91-6.62.52-2.58,3.7-4.41,7.27-4.19s6,1.81,6.57,4.52c.1.47.76,1.23-.24,1.43-.74.16-1.5.29-2-.81C216,17.69,213,16.68,210,18a3,3,0,0,0-2,2.69,2.56,2.56,0,0,0,1.64,2.84c1.71.69,3.45,1.3,5.2,1.9,3.95,1.36,5.42,3.27,4.94,6.5s-2.76,4.93-6.75,5Z"/><path class="cls-5" d="M227.57,26.49l7.29-9.14c1.2-1.5,1.21-1.5,3.74-1.35-2.07,2.62-3.95,5.13-6,7.51-.94,1.11-1.17,1.91-.16,3.16,1.58,1.95,2.89,4.11,4.34,6.15.66.93,1.09,2.16,2.59,2.11.66,0,.56.54.58,1s-.23.78-.77.85a3.65,3.65,0,0,1-3.73-1.87c-1.79-2.61-3.6-5.21-5.4-7.82-2.94,1.93-3.18,4.74-3,7.77,0,.74.52,1.84-1.07,1.87s-1.18-1-1.18-1.79q0-8.62,0-17.27c0-.81-.37-1.81,1.18-1.79s1.07,1.11,1.08,1.86c0,2.85,0,5.71,0,8.57Z"/><path class="cls-5" d="M123.7,34.43a8.47,8.47,0,0,1-6.86,2.49c-3.19-.24-5.5-2.27-5.63-5.48-.19-4.8-.07-9.6-.11-14.4,0-.82.22-1.18,1.13-1.19,1.09,0,1.16.57,1.16,1.41,0,4.21,0,8.42,0,12.63,0,2.09.48,4.06,2.77,4.82a6.09,6.09,0,0,0,6.2-1.35,3.69,3.69,0,0,0,1.39-3.09c-.08-4.13,0-8.27,0-12.41,0-.81-.57-2,1.17-2s1,1.16,1,1.88q.06,8.54,0,17.07c0,.64.58,1.7-.78,1.87C123.6,36.87,124,35.6,123.7,34.43Z"/><path class="cls-5" d="M189.93,26.26c0-2.88,0-5.76,0-8.64,0-1.27.2-1.84,1.67-1.78,2.74.13,5.48,0,8.23,0,.73,0,1.49-.15,1.47,1s-.82,1-1.53,1c-2,0-4,.07-6,0-1.21-.06-1.44.37-1.46,1.49-.12,5.55-.16,5.5,5.41,5.59,1,0,2.79-1,2.83.89,0,2.1-1.88.87-2.89,1-1.66.23-3.93-.51-4.92.33-1.19,1-.16,3.34-.43,5.06-.3,2,.44,2.56,2.38,2.36,1.76-.17,3.56,0,5.34,0,.74,0,1.26.08,1.27,1s-.57,1-1.29,1c-2.89,0-5.78-.08-8.67,0-1.3,0-1.42-.55-1.4-1.59C190,32.16,189.93,29.21,189.93,26.26Z"/><path class="cls-6" d="M152.64,56.65c0,3-.09,6.05,0,9.07.07,1.75-1,1.42-2,1.43s-2,.28-2-1.45q.15-9,0-17.92c0-1.8,1.07-1.37,2-1.38s2.08-.39,2,1.4C152.54,50.74,152.64,53.7,152.64,56.65Z"/><path class="cls-7" d="M136.68,27.06c0-2.51-.06-5,0-7.52,0-1.21-.25-1.75-1.56-1.62s-2.37,0-3.56,0c-.74,0-1.06-.29-1.07-1.05s.32-1,1.07-1c4.22,0,8.44,0,12.66,0,.8,0,1,.33,1,1.06s-.36,1-1.09,1c-1.18,0-2.37.08-3.55,0s-1.48.36-1.47,1.5c.06,4.94.07,9.88,0,14.82,0,.86.89,2.38-1.15,2.45s-1.23-1.45-1.26-2.33C136.62,31.93,136.68,29.49,136.68,27.06Z"/><path class="cls-8" d="M47.49,16.72a54.34,54.34,0,0,1,10.17,1.22,3.34,3.34,0,0,1-.55,1.85c1.94.43,3.61,3.86,2.93,5.86-1.17.35-2.32-.26-3.49-.07-1.75-.06-3.5.1-5.24-.11a1.71,1.71,0,0,1-.64-.3c-.2-.25-.24-.5.07-.7a1.25,1.25,0,0,1,.83-.13c-.24-.08-.52,0-.75-.08C49.18,23.52,47,18.45,47.49,16.72Z"/><path class="cls-9" d="M46.56,31.09v3.07a1.31,1.31,0,0,1-.69.8,18.05,18.05,0,0,0-7.54,5.63c-.29.39-.63.13-.85-.22a17.06,17.06,0,0,1,.12-7.22c.56-.95,1.1-1.91,1.61-2.89a12.12,12.12,0,0,1,1.47-1.65c.7-.52,1.18-1.57,2.35-1.06C43.09,29.84,45.26,30,46.56,31.09Z"/><path class="cls-10" d="M32.18,38.51c-.2-5.24-.37-10.48-.12-15.72,2.11-.84,3.08.76,4.24,2a2.75,2.75,0,0,1,.23,1,11.31,11.31,0,0,1-.35,1.93c0,.21-.08.42-.13.63a22.16,22.16,0,0,0-.49,2.82c-.24.73-.24,1.51-.49,2.24-.65.75-.53,2.45-2.29,1.84,0,.21.15.36.17.56C33,36.76,33.58,37.91,32.18,38.51Z"/><path class="cls-11" d="M63.22,46c-3.52.81-7.17.77-10.7,1.61-2.26.53-4.06,1.49-5.11,3.61-1.32-.15-1.72-1-1.35-2.1.52-1.63,1.07-3.29,2.68-4.25a2.8,2.8,0,0,1,.67-.23c.71-.11,1.43-.08,2.14-.12s1.7.05,2.55,0,1.74.07,2.6,0C58.91,44.8,61.26,44.57,63.22,46Z"/><path class="cls-12" d="M46.53,57.32v2.6c-1.92.49-2.73-1.58-4.33-1.84a1.26,1.26,0,0,1-1-1c.24-.45-.05-.84-.16-1.25-.43-1.9-1.41-3.65-1.57-5.62-1-4.35,1.49-7.11,4.4-9.68.74-.66,1.41-.71,2,.24a1.31,1.31,0,0,1,.13.65,2.28,2.28,0,0,1-.53,1.17C39.79,47.05,40.77,53.47,46.53,57.32Z"/><path class="cls-13" d="M45.68,41.14c-.41-.13-.54-1.14-1.17-.47C42.8,42.48,40.78,44,40,46.59c-.44,1.37.28,2.54,0,3.8-1.5-.65-1.4-2.07-1.62-3.34,1-6.17,5.83-10.41,11.8-10.3a76.66,76.66,0,0,1,8.73,1.76.38.38,0,0,1-.06.57,1.4,1.4,0,0,1-.64.11,20.1,20.1,0,0,0-3.29-.08h-3l-1.94,0a7.72,7.72,0,0,0-1.8.1,3.7,3.7,0,0,1-.57.07c-.6,0-1,.19-1.14.85a2.52,2.52,0,0,1-.14.54A.87.87,0,0,1,45.68,41.14Z"/><path class="cls-14" d="M64.17,27.09c-2.1.87-4.3.44-6.46.42a27.16,27.16,0,0,0-7.58.55c-2.49.78-2.83.66-4.09-1.47.62-1.22,1.94-1.14,3-1.59.75-.25,1.44.23,2.17.2h5.24c1.32-.27,2.53.56,3.83.41a7.32,7.32,0,0,1,2,.19,3.6,3.6,0,0,1,.63.15C63.37,26.24,64.19,26.2,64.17,27.09Z"/><path class="cls-15" d="M47.49,16.72c.23,2.91,2.9,7.11,4.85,7.61-.52.44-1.37-.06-1.78.62-.46.41-1,.17-1.53.23a3.55,3.55,0,0,1-3.42-2.57c-.5-1.36-1.59-2.47-1.84-3.93s-1-1.55-2.16-.89a2.59,2.59,0,0,1-1,.41.7.7,0,0,1-.7-.5c0-.64.72-.69,1-1.13C43.1,15.86,45.29,16.54,47.49,16.72Z"/><path class="cls-16" d="M53.19,38.54H55c1.13.53,2.39-.14,3.52.4a2.67,2.67,0,0,1,.4,0c.56-.31,1.07-.31.81.48-.18.55-.84.69-1.48.66.83,1.26,2.62-.55,3.3,1,.15,1,1.17,1.61,1.16,2.67-2.77,2.17-5.14.31-7.51-.82C53.3,42.1,52.73,40.56,53.19,38.54Z"/><path class="cls-17" d="M44.82,66.58c-3.11.09-6.18-.38-9.26-.59-1.93-.13-2.93-1-2.44-3,.24-1,.59-1.85,1.82-1.88a.73.73,0,0,1,.5.27,9,9,0,0,0,5.89,3.24c1.35.16,2.65.81,4.07.41.3-.08.51.23.62.52C46.07,66.41,45.78,66.88,44.82,66.58Z"/><path class="cls-18" d="M50.18,36.75c-2.16.71-4.85.85-6.34,2.25-2.05,1.92-5.31,3.49-4.75,7.27,0,.16-.2.37-.3.55a2.41,2.41,0,0,1-1.18-2.57c.1-.27.07.08.07-.2,0-4.34,3.49-5.58,6.48-7.25.64-.35,1.3-.94,2.2-.32.12.08.84-.94,1.63-.61Z"/><path class="cls-19" d="M35.2,61.25h-.44c-.41-.69-1.53-.34-1.8-1.23a2.36,2.36,0,0,1,0-1.77L33,58a1.22,1.22,0,0,1,1.57-.29c1.78,1.16,3.89,1.48,5.76,2.39.64.31,1.47,1.31,1.71-.36,1.24-.27,1.23,1,1.85,1.49.29.76.81,1.46.61,2.35-.56.93-1.19.9-2.16.43A27.37,27.37,0,0,0,35.2,61.25Z"/><path class="cls-20" d="M32.55,48.14l0-1.61a14.92,14.92,0,0,1,0-4.9c1-.3,1,.73,1.47,1.17a3.93,3.93,0,0,1,0,1.67c.23-.44,0-1,.13-1.58.19-.73.55-1.22,1.42-1,.59.42.59,1.12.81,1.71a24.53,24.53,0,0,0,1.25,4.53,2,2,0,0,1,0,.6c-.45,1.17-1.11,1.5-2.3.79C34.42,49,33.43,48.65,32.55,48.14Z"/><path class="cls-21" d="M48,35.87A45.34,45.34,0,0,0,41.25,39c-1.51,1-3.1,1.89-2.56,4.15a.8.8,0,0,1-.8,1c-.69-.56-.63-1.35-.64-2.11a1.84,1.84,0,0,1,.58-1.38c1.57-3.19,4.51-4.68,7.53-6.08.39-.18.81-.31,1.21-.47Z"/><path class="cls-22" d="M47,52.52a9.29,9.29,0,0,1-.41,3c-.67.22-1.1-.21-1.55-.58-2.61-2.14-3.2-9.35,1-11.39a1.43,1.43,0,0,1,1.68.89c-.63,1.57-1.78,3-1.82,4.74C45.82,50.45,45.55,51.8,47,52.52Z"/><path class="cls-23" d="M46.53,57.32c-1.55.24-2.15-1.09-3-1.88a8.36,8.36,0,0,1-1.71-8.82c.81-1.69,1.22-3.71,3.51-4.16.33.72-.08,1.27-.48,1.77A7.9,7.9,0,0,0,46.57,56Z"/><path class="cls-24" d="M53.19,38.54a7.24,7.24,0,0,0,9.48,5.27c.24.7,1,1.27.55,2.14l-6.52-.88a8.84,8.84,0,0,1-5-4.11c-.48-.83-.93-1.68.18-2.41Z"/><path class="cls-25" d="M33.88,42.89c-.89,0-.88-.67-.88-1.31-.6-.42-.51-1.18-.83-1.74V38.51c.09-.12.26-.24.25-.34-.32-2.15.83-3.6,2.32-4.89,1.19,1.51.23,3.38.81,5,.24.92.17,1.87.38,2.8a1.15,1.15,0,0,1-.33,1c-.68-.07-.84.61-1.29.86-.32-.34-.18-.78-.23-1.17C34.06,42.12,34.2,42.55,33.88,42.89Z"/><path class="cls-26" d="M44.45,63.43l-.92-2.19c.26-1-.59-1.47-1.1-2.08a1.45,1.45,0,0,1-.24-1.4c.33-.09.77-.42,1-.08C44,59,45.4,59.19,46.52,59.92c0,1.81,0,3.63.19,5.43s-.64,1.78-1.89,1.23c.81-.13,1-.61.83-1.37A1.81,1.81,0,0,1,44.45,63.43Z"/><path class="cls-27" d="M46.13,26.73c1.15,1,2.35,1.83,4,1.33-1.23,1-2.87,1.44-3.57,3C44.9,31.47,44,30,42.74,29.43c-.82-.37.27-1.21.32-1.87l.18-.24a3.79,3.79,0,0,1,2.41-.91A.91.91,0,0,1,46.13,26.73Z"/><path class="cls-28" d="M32.55,48.14c1.42-1.08,3,.49,3.23.85,1.24,1.71,1-.57,1.57-.41a2.19,2.19,0,0,1,.83.77,2.56,2.56,0,0,1,.42.78,1.7,1.7,0,0,1-.14,1.19c-1.46,1.63-3,1-4.59.16-.51.46-.21,1.15-.29,1.77s0,1.36,0,2a4.79,4.79,0,0,1-.55,2.85l-.14.11A56,56,0,0,1,32.55,48.14Z"/><path class="cls-29" d="M62.42,26.27c-.61,0-1.29.22-1.77-.39-.14-.16-.39-.23-.43-.48-.27-1.68-1.52-2.95-1.87-4.63-.22-1.08-1.41-.32-2.14-.79,1.37-.09,0-2,1.45-2a3.61,3.61,0,0,1,2.23.42c-.66.58-.64,1.21.09,1.63,1.93,1.13,1.21,3.89,3.23,5C63.76,25.34,62.72,25.85,62.42,26.27Z"/><path class="cls-16" d="M36.09,25c-1.27-.86-2.25-2.26-4-2.19.15-1.16-.81-2.47.51-3.45A15.31,15.31,0,0,1,38,21.58C37.7,22.91,37.62,24.34,36.09,25Z"/><path class="cls-30" d="M46.57,56c-2.41-.69-4.63-4.76-4.19-7.36.39-2.37,1.68-4.26,2.91-6.2l.37-.89a1.82,1.82,0,0,1,.53,2.16c-3.74,3.74-3.57,8.66.41,11.84Z"/><path class="cls-31" d="M62.42,26.27c-.18-.48,1.07-1-.25-1.57A2.13,2.13,0,0,1,61,22c.35-1.11-1.09-1.15-1.52-1.95-.53-1-.73-1.39.44-1.73l.78.09c.7.24,1.51.53,1.55,1.32a5.47,5.47,0,0,0,1.53,3,.37.37,0,0,1,.08.39A2.25,2.25,0,0,0,64.21,25a1.63,1.63,0,0,1,.35,1.31,1.7,1.7,0,0,1-1.73,0A2.73,2.73,0,0,1,62.42,26.27Z"/><path class="cls-32" d="M47,52.52c-.53.55-.89.87-1.31-.19a7.39,7.39,0,0,1,1.79-7.7.73.73,0,0,1,.79-.2.83.83,0,0,1,.52.65,19.17,19.17,0,0,0-2,3.33,2,2,0,0,0,.6,2.76C47.27,51.62,47.14,52.07,47,52.52Z"/><path class="cls-33" d="M37.82,21.47a10,10,0,0,1-5.25-2.13,4.28,4.28,0,0,1,2.19-.89,5.41,5.41,0,0,1,3.72,1.79A.94.94,0,0,1,37.82,21.47Z"/><path class="cls-34" d="M38.3,20.18a11,11,0,0,1-3.54-1.73,7.25,7.25,0,0,1,3-.95,4.59,4.59,0,0,1,2.3,0l.42.45c.16.32,0,.54-.2.76a12.18,12.18,0,0,0-.92,1.1C39,20.12,38.74,20.38,38.3,20.18Z"/><path class="cls-35" d="M61.51,41.14c-1.41-.7-3.43.88-4.46-1.3.57-.83,1.85.47,2.36-.64,0,0-.06-.14-.11-.16a2.84,2.84,0,0,0-.42-.09l0-.44C60.91,38.27,61.37,39.55,61.51,41.14Z"/><path class="cls-36" d="M62.75,22.79c-.33,0-.54-.77-.81-.38-.76,1.07-1,.6-.94-.29,0-1.41,0-2.76-1.33-3.67C62.73,18.46,62.3,20.94,62.75,22.79Z"/><path class="cls-37" d="M33,60a1.48,1.48,0,0,1,1.8,1.23c-.89.26-.89,1.35-1.64,1.73Z"/><path class="cls-38" d="M32.17,39.84A2.55,2.55,0,0,1,33,41.58c-.93,1.58-.15,3.32-.49,5C31.89,44.33,32.34,42.07,32.17,39.84Z"/><path class="cls-39" d="M40,17.54c-.78.62-1.53.05-2.3,0a7.43,7.43,0,0,1,3.16-.93A1.34,1.34,0,0,1,40,17.54Z"/><path class="cls-36" d="M63.21,25c-.48-.52-1.3-1-.38-1.78A2.85,2.85,0,0,1,63.21,25Z"/><path class="cls-40" d="M61.83,26.3l1.73,0c.12.39.1.72-.39.82Z"/><path class="cls-6" d="M231.78,54a19.71,19.71,0,0,0-2.58,1.28c0-.94,0-1.67,0-2.41,0-1.75.53-3.34,2.46-3.7s3.71-.42,4.68,1.83c.65,1.51,2.15.77,3.09.59,1.13-.22.34-1.31.1-2a3.88,3.88,0,0,0-1-1.67c-2.59-2.26-5.64-2.5-8.74-1.45-2.91,1-4.24,3.33-4.36,6.31-.09,2.21.12,4.43,0,6.63-.49,6.47,4.42,8.83,9.66,7.78,4.09-.81,6.29-4.7,5.21-9C239.33,54.64,235.65,52.79,231.78,54Zm1.09,10.47c-2.41,0-3.68-1.42-3.67-4.16,0-2.15,1.77-3.7,4.23-3.71,2.09,0,3,1.14,3.06,3.65C236.49,63,235.27,64.47,232.87,64.48Z"/><path class="cls-6" d="M259,52.79c-.11-4.28-3.05-6.89-7.62-6.83s-7.39,2.68-7.46,7c0,1.25,0,2.51,0,3.76s0,2.52,0,3.77c0,4.35,2.73,6.89,7.39,7S258.84,65,259,60.77C259.05,58.11,259,55.45,259,52.79Zm-3.92,8.52a3.39,3.39,0,0,1-3.62,3.17,3.48,3.48,0,0,1-3.66-3.4q-.18-4.32,0-8.64A3.4,3.4,0,0,1,251.34,49c2.06-.07,3.4,1.08,3.72,3.29a19.68,19.68,0,0,1,.12,2.43c0,.74,0,1.48,0,2.21h-.11A38.29,38.29,0,0,1,255.05,61.31Z"/><path class="cls-5" d="M174.42,53.83c-.28-4.81-3.26-7.65-8.16-7.84s-8.38,2.41-8.88,7.25a26.84,26.84,0,0,0,.17,8.15,6.83,6.83,0,0,0,5.27,5.68c5.8,1.41,11.75-.67,11.62-8.59,0-.52,0-1,0-1.55C174.43,55.9,174.48,54.86,174.42,53.83Zm-4,6.11c-.18,2.92-2,4.59-4.66,4.55s-4.4-1.74-4.59-4.65c-.07-1,0-2.06,0-3.09s-.06-2.06,0-3.09c.2-2.92,1.88-4.58,4.6-4.6s4.49,1.53,4.67,4.48A50.62,50.62,0,0,1,170.44,59.94Z"/><path class="cls-5" d="M184.25,22.33a6.87,6.87,0,0,0-5.58-6.12c-2.49-.61-5-.2-7.53-.34-1.18-.06-1.06.72-1.06,1.47,0,3,0,5.91,0,8.87s0,6.06,0,9.09c0,.83.06,1.44,1.16,1.38,2.29-.11,4.59.18,6.87-.36,3.53-.85,5.74-3.13,6.16-6.69A30.22,30.22,0,0,0,184.25,22.33Zm-2.74,8.6c-.92,3-5.84,4.88-8.62,3.64-.78-.35-.5-1-.51-1.51,0-2.28,0-4.57,0-6.86s0-4.57,0-6.86c0-.47-.21-1,.44-1.34,2.71-1.4,7.93.54,8.76,3.55A16.81,16.81,0,0,1,181.51,30.93Z"/><path class="cls-5" d="M163.91,32c.68-1.88.32-3.8.36-5.7a36.76,36.76,0,0,0,0-4.2c-.45-3.94-3.06-6.21-7.39-6.55-4-.32-7.37,1.8-8.21,5.54a23.26,23.26,0,0,0,0,10.53c.81,3.4,3.48,5.24,7.24,5.32C160.15,37,162.68,35.4,163.91,32Zm-7.08,3c-3.19.23-5.44-1.38-6-4.6a23.46,23.46,0,0,1,0-8.56c.56-2.92,2.5-4.35,5.53-4.34A5.13,5.13,0,0,1,161.87,22a37.8,37.8,0,0,1,.27,4.4H162c0,1.1.08,2.21,0,3.31C161.73,32.88,159.83,34.8,156.83,35Z"/><path class="cls-4" d="M100.86,16.76c-.32-1-1-.93-1.76-.88s-1.65-.29-2,.83C95,23.29,92.79,29.86,90.65,36.43c1.74.65,2.66.13,2.93-1.58.09-.57.42-1.11.5-1.68.34-2.41,1.64-3.08,4-3,4.81.22,4.89.05,6.34,4.7.47,1.5,1.14,2.1,3,1.56C105.27,29.87,103.05,23.32,100.86,16.76ZM95.71,28.2,99,17.9l3.33,10.3Z"/><path class="cls-41" d="M56.71,25.38H51c-.14-.09-.19-.17-.14-.26S51,25,51,25h5.69c.15.09.21.17.16.26S56.75,25.38,56.71,25.38Z"/><path class="cls-42" d="M56.71,25.38c0-.13,0-.26,0-.39,1.22-.25,2.34.41,3.53.41l.43.48Z"/><path class="cls-43" d="M51,25v.39l-2.16.05a.39.39,0,0,1-.56,0c0-.35,0-.65.53-.44l1.75,0Z"/><path class="cls-44" d="M43.06,27.56c-1,0-1.36,1-2.15,1.36a2.52,2.52,0,0,1-2.3-2c-.39-1.1-.92-2.13-1.37-3.2a4.47,4.47,0,0,1,1.28-2.43c1.42.16,1.65,1.49,2.21,2.4a12.79,12.79,0,0,0,2.56,3.37.58.58,0,0,1-.22.52Z"/><path class="cls-45" d="M35.64,28V27.6c.43-.41.48-1.08,1-1.43,1.69.55,2,2.15,2.44,3.52.15.43.57.22.59.55a8.16,8.16,0,0,1-1.37,2.67c-1.25.35-1.68-.74-2.38-1.34a2.67,2.67,0,0,1-.48-1C35.34,29.67,36,28.88,35.64,28Z"/><path class="cls-46" d="M39.68,30.24c-1.46.67-1.7-1-1.67-1.35.11-1.3-.94-1.77-1.45-2.6a.44.44,0,0,1-.16-.52c.32-.71.33-1.58,1-2.11a3,3,0,0,1,1.32,2.16,4.89,4.89,0,0,0,2.16,3.1Z"/><path class="cls-47" d="M36.07,31.53c1,.06,1.43,1,2.24,1.38-.94,2.55-.38,5.19-.48,7.8L37.77,42c-1.1-.21-.9-1.13-1-1.85a29.38,29.38,0,0,0-.14-3C36.21,35.32,34.78,33.56,36.07,31.53Z"/><path class="cls-48" d="M35.19,38.54c-.89-1.7-.21-3.52-.44-5.26.11-.74-.26-1.58.43-2.21a1.72,1.72,0,0,1,.66,1.23c-.12,1.57.49,3.1.23,4.68A2.76,2.76,0,0,1,35.19,38.54Z"/><path class="cls-49" d="M37.43,23.66a5.28,5.28,0,0,1-.9,2.19c-.15.2-.3.21-.45,0,0-.29,0-.58,0-.87l1.73-3.51.48-1.29.84-.48a.89.89,0,0,1,.26.52,1.54,1.54,0,0,1-.71,1.24A6.81,6.81,0,0,0,37.43,23.66Z"/><path class="cls-50" d="M35.59,32c-.14-.29-.27-.59-.41-.89A5.75,5.75,0,0,1,35.64,28c1,.87-.07,1.78,0,2.67A1.05,1.05,0,0,1,35.59,32Z"/><path class="cls-51" d="M36.08,25.85h.45l0,.44a1.47,1.47,0,0,1-.92,1.31C35.79,27,35.93,26.43,36.08,25.85Z"/><path class="cls-52" d="M47.88,38.93c.5-.57,1.17-.38,1.79-.38a13.51,13.51,0,0,0,3.64,5.11c.42.36,1,.68.76,1.41H51.44c-.63-.49-1.55-.49-2-1.23a25.45,25.45,0,0,1-1.75-2.5A2.13,2.13,0,0,1,47.88,38.93Z"/><path class="cls-53" d="M54.07,45.07c-1.36-1.41-3-2.54-4-4.35-.38-.72-.79-1.35-.42-2.17h2.2c-.57,2.71,1.56,3.84,3.17,5.23.52.46,1.36.53,1.66,1.29Z"/><path class="cls-54" d="M47.88,38.93c-.51,2,1.2,3.23,1.8,4.84.5.64.08,1-.43,1.28l-.45,0-.44-.43c-1.78-.94-1.82-2.73-2.15-4.38h-.14a1.37,1.37,0,0,1,1.39-1.36Z"/><path class="cls-55" d="M49.25,45.05l.43-1.28c.64.36,1.44.52,1.76,1.3Z"/><path class="cls-56" d="M33.06,58.14l0-3c2.1.52,4.35.54,6.28,1.7.49.29.81,0,1.2-.19a.82.82,0,0,1,.84.22,1.39,1.39,0,0,0,.84.88c.15.44.31.88.47,1.31s-.21.63-.45.87c-1,1,.69,1.2.49,2.28-2.28-2.46-5.77-2.15-8.21-4.14C34.22,57.85,33.54,58.11,33.06,58.14Z"/><path class="cls-57" d="M37.37,36.8c.22,1.72-.41,3.52.4,5.2l.12,2.2.9,2.62A10.28,10.28,0,0,0,40,50.39c0,2,1.63,3.62,1.37,5.68-.64.17-.85-.36-1.18-.7a4.63,4.63,0,0,1-.66-1.29c-.21-.62-.39-1.24-.66-1.84-.08-.16-.14-.34-.21-.51-.25-.59,0-1.29-.39-1.84l-.43-.41a5.34,5.34,0,0,0-.67-2.16c-.3-1.2-.6-2.41-.91-3.62a17.71,17.71,0,0,1-.53-2.89,3.46,3.46,0,0,1-.07-1c.45-.71,1.14-1.3.92-2.33A.62.62,0,0,1,37.37,36.8Z"/><path class="cls-58" d="M46.21,40.27c1.18,1.24.84,3.21,2.15,4.38l-.87,0-1.3-.9a4,4,0,0,1-.53-2.16c0-.14,0-.29,0-.43C45.85,40.85,46,40.56,46.21,40.27Z"/><path class="cls-59" d="M40.46,55.11l.91,1c.05.27.47.56,0,.81l-.87,0a1.6,1.6,0,0,1-.55-1.71A.35.35,0,0,1,40.46,55.11Z"/><path class="cls-35" d="M58.48,39c-1.17-.16-2.42.42-3.52-.4C56.14,38.67,57.38,38.16,58.48,39Z"/><path class="cls-60" d="M47.46,38.9l-1.39,1.36C45.94,39.07,46.32,38.7,47.46,38.9Z"/><path class="cls-61" d="M48.36,25.41h.47l-2.7,1.31-.41,0c-.25-.32-.9-.05-1-.65.17-.47.59-.62,1-.77C46.64,25.07,47.53,24.67,48.36,25.41Z"/><path class="cls-25" d="M48.36,25.41l-2.63.43c-2.09-.63-3.88-1.49-3.67-4.16.12-1.51-1.47-1.76-2.15-2.7a.53.53,0,0,1,.12-.56l.42-.43c.39-.31.78-.87,1.19-.89.92,0,2-1.41,2.61,1,.61,2.61,1.43,5.65,4.56,6.86Z"/><path class="cls-37" d="M44.45,63.43l1.2,1.78C43,66.28,40.57,64.59,38,64.5c-.11-1.78-3.45-.81-2.8-3.25a1.31,1.31,0,0,1,1.77-.2c1.91,1,4.15,1.25,5.83,2.58C43.66,64.32,43.92,63.54,44.45,63.43Z"/><path class="cls-62" d="M42.21,59.94l.45-.87c.69.57,1.6,1,.87,2.17C42.87,61,43.11,59.91,42.21,59.94Z"/><path class="cls-63" d="M36.45,43.76a9.16,9.16,0,0,1,.95,3.91c.12.12.16.23.11.33s-.09.16-.13.16a8.34,8.34,0,0,1-1.3-4.39A.22.22,0,0,1,36.45,43.76Z"/><path class="cls-64" d="M36.45,43.76h-.37c-.63-.46-.36-1.15-.47-1.74,0-.3,0-.59,0-.88-.23-.45,0-.49.38-.42Z"/><path class="cls-38" d="M33.88,42.89l.09-1h.26l.09,1v1.7l-.35,0Z"/><path class="cls-65" d="M37.38,48.16c0-.16,0-.33,0-.49.44.53,1.11,1,.44,1.81l-.49-.9A3,3,0,0,0,37.38,48.16Z"/><path class="cls-66" d="M36,40.73l-.38.42c-.76-.77-.31-1.74-.44-2.61,0-.48-.08-1,.4-1.32,1.06.72-.08,1.83.46,2.65Z"/><path class="cls-67" d="M44.88,26.29a.85.85,0,0,1,.84.41l-2.65.87c0-.14,0-.28,0-.42C43.49,26.45,44,25.93,44.88,26.29Z"/><path class="cls-45" d="M40.46,55.11l-.43,0a1.23,1.23,0,0,1-1.87.43C36.54,54.47,34.43,54.38,33,53a5,5,0,0,1,.71-2.88c1.34,2,2.57,2.24,4.53,1.13a2.36,2.36,0,0,1,.89.42c0,.13,0,.27,0,.41.17.64.08,1.41.85,1.77Z"/><path class="cls-47" d="M33,53a14.07,14.07,0,0,1,4.43,1.76,2.83,2.83,0,0,0,2.6.42l.45,1.72c-.29.34-.52,1.31-.85.95-1.8-2-4.75-1-6.6-2.65Z"/><path class="cls-68" d="M39.13,51.62a.89.89,0,0,1-.89-.42l0-1.31C38.56,50.46,38.84,51,39.13,51.62Z"/><path class="cls-69" d="M40,18.42v.44c.13.72.08,1.33-.89,1.3,0-.15,0-.3,0-.46A1.3,1.3,0,0,1,40,18.42Z"/><path class="cls-70" d="M39.15,20.16l.89-1.3A3.71,3.71,0,0,1,42.72,23c-.07,1.8,2.26,1.63,3,2.88-.34,0-.68.08-.85.45l-1.79.86c-1.55-.21-1.8-1.6-2.44-2.66s-1.3-2-2-3C38.84,21,39,20.6,39.15,20.16Z"/><path class="cls-71" d="M36.05,39.87c-.7-.79-.27-1.78-.46-2.65V32c0-.42.06-.85.1-1.28a.87.87,0,0,1,.38.85,8.39,8.39,0,0,0,1.3,5.27C36.39,37.59,37.67,39.35,36.05,39.87Z"/><path class="cls-72" d="M40,53.8c-1.16-.18-1.08-.94-.85-1.77C39.44,52.62,39.72,53.21,40,53.8Z"/></g></g></g></svg>