<svg xmlns="http://www.w3.org/2000/svg" viewBox="0 0 287.2 82.8"><defs><style>.cls-1{fill:#ffe2aa;}.cls-2{fill:#e97500;}.cls-3{fill:#265686;}.cls-4{fill:#265787;}</style></defs><title>Asset 56</title><g id="Layer_2" data-name="Layer 2"><g id="Layer_1-2" data-name="Layer 1"><rect class="cls-1" width="287.2" height="82.8" rx="14.4"/><path class="cls-2" d="M44.09,46.31c-.15,0-.21.09-.29.15l-10,8.2A5.08,5.08,0,0,1,30.26,56a2.91,2.91,0,0,1-2.79-3.83,4.81,4.81,0,0,1,1.82-2.58L48.3,35l.49-.38h-.46l-10.14,0a4.06,4.06,0,0,1-1.72-.3,2.13,2.13,0,0,1-1-3.15,4,4,0,0,1,3.57-2c2.38,0,4.77,0,7.15,0H60.48a.58.58,0,0,0-.26-.29q-3.24-2.65-6.5-5.29l-.33-.3a1.79,1.79,0,0,1-.12-2.62,3.72,3.72,0,0,1,4.92-.33q8.24,6.34,16.49,12.67A16.91,16.91,0,0,1,81,42a15.71,15.71,0,0,1-3.31,15A18.54,18.54,0,0,1,66,63.48a19.72,19.72,0,0,1-14-2.8,16.88,16.88,0,0,1-7.59-10,9.47,9.47,0,0,1-.32-3.89C44.08,46.61,44.08,46.46,44.09,46.31Zm18.39,9.24a12.26,12.26,0,0,0,7.92-2.68,9.87,9.87,0,0,0,3.81-7.08,9.53,9.53,0,0,0-2.81-7.58A12.27,12.27,0,0,0,54.3,38a9.7,9.7,0,0,0-.93,13.16A11.53,11.53,0,0,0,62.48,55.55Z"/><path class="cls-3" d="M206.84,40.21V35.63c0-.78,0-1.57,0-2.35,0-.26.07-.41.35-.48q2.67-.66,5.33-1.37c.45-.12.39.14.39.4V57c0,.58,0,.58-.6.58-1.66,0-3.32,0-5,0-.37,0-.52-.09-.49-.48s0-.8,0-1.23c-.08,0-.14,0-.16,0a9,9,0,0,1-5.94,2.3,12.2,12.2,0,0,1-7.75-2,9.36,9.36,0,0,1-4.12-7.3,9.88,9.88,0,0,1,2.26-7.54A10.11,10.11,0,0,1,197.18,38a12.57,12.57,0,0,1,6.95.43A7.26,7.26,0,0,1,206.52,40Zm-5.76,2.26h-.58a5.1,5.1,0,0,0-4.92,3.76,7.35,7.35,0,0,0-.21,2.38,5,5,0,0,0,3.33,4.58,7.09,7.09,0,0,0,3.79.26,5.23,5.23,0,0,0,4.34-5.65,5.36,5.36,0,0,0-2-4.2A5.88,5.88,0,0,0,201.08,42.47Z"/><path class="cls-3" d="M113.28,40.25a8,8,0,0,1,2.66-1.79c3.39-1.37,9.51-1,12.79,2.64a10,10,0,0,1,2.52,7.64A9.48,9.48,0,0,1,128.52,55a10.73,10.73,0,0,1-6.72,3.09,12.26,12.26,0,0,1-5.79-.6,8.15,8.15,0,0,1-2.73-1.77c0,.51,0,.91,0,1.3s-.08.53-.5.52c-1.7,0-3.4,0-5.11,0-.38,0-.47-.12-.47-.49q0-6.3,0-12.61t0-12.62c0-.41.06-.51.49-.4,1.71.47,3.43.91,5.16,1.34a.47.47,0,0,1,.43.55c0,2.09,0,4.19,0,6.28ZM119,42.46a10.73,10.73,0,0,0-1.13.08A4.88,4.88,0,0,0,113.62,46a5.73,5.73,0,0,0,1.13,6c1.71,1.82,5.17,2.17,7.47.86,3.13-1.76,3-6.3,1.43-8.36A5.62,5.62,0,0,0,119,42.46Z"/><path class="cls-3" d="M229.56,49.31h-7.79c-.56,0-.58,0-.52.59A4.51,4.51,0,0,0,225.67,54a6.7,6.7,0,0,0,2.59-.33,4.38,4.38,0,0,0,2.47-2.14c.09-.17.13-.37.41-.2,1.51.88,3,1.76,4.54,2.62.33.19.14.32,0,.48a10.15,10.15,0,0,1-4.9,3.12,15.14,15.14,0,0,1-10.9-.62A9.22,9.22,0,0,1,214.45,49a11.56,11.56,0,0,1,.48-5A9.24,9.24,0,0,1,221.18,38a15.85,15.85,0,0,1,10,0,9.23,9.23,0,0,1,6.48,7.51,17.59,17.59,0,0,1,.29,3.24c0,.45-.1.59-.57.58C234.75,49.3,232.15,49.31,229.56,49.31Zm-3.29-4.09h4.34c.55,0,.6-.06.47-.61a3.86,3.86,0,0,0-2.17-2.73,6.19,6.19,0,0,0-3.79-.47,4.17,4.17,0,0,0-3.66,3.28c-.1.48-.06.53.42.53Z"/><path class="cls-3" d="M140.29,47.67a10.7,10.7,0,0,1,1.42-5.5A9.39,9.39,0,0,1,147.14,38a16,16,0,0,1,9.79,0,9.23,9.23,0,0,1,6.58,7.42,18.48,18.48,0,0,1,.3,3.41c0,.44-.15.53-.55.53-5,0-10,0-15,0a5.74,5.74,0,0,1-.72,0c-.38,0-.47.12-.44.47A4.54,4.54,0,0,0,151.4,54a6.81,6.81,0,0,0,2.25-.16,4.34,4.34,0,0,0,3-2.29c.14-.27.25-.31.52-.16q2.17,1.29,4.38,2.53c.33.18.25.32.06.54a10.42,10.42,0,0,1-5.5,3.28,15.28,15.28,0,0,1-9.81-.58,9.32,9.32,0,0,1-5.95-8.46c0-.3,0-.6,0-.9A.27.27,0,0,1,140.29,47.67Zm11.91-2.42h4.47c.36,0,.44-.1.37-.44a4,4,0,0,0-2.33-3,6.29,6.29,0,0,0-3.53-.44,4.22,4.22,0,0,0-3.82,3.37c-.09.41,0,.49.41.49C149.25,45.24,150.72,45.25,152.2,45.25Z"/><path class="cls-3" d="M171.36,40.89a13.51,13.51,0,0,1,2-1.72,10.28,10.28,0,0,1,10.26-.69,6,6,0,0,1,3.56,5.38c.07.76.09,1.53.09,2.3,0,3.63,0,7.27,0,10.9,0,.39-.09.52-.5.51-1.67,0-3.34,0-5,0-.42,0-.56-.1-.56-.54,0-3.2,0-6.39,0-9.59A10.2,10.2,0,0,0,181,45a3.09,3.09,0,0,0-2.76-2.55,7.51,7.51,0,0,0-3.49.27,4.87,4.87,0,0,0-3.32,4.71c0,3.18,0,6.36,0,9.54,0,.61,0,.61-.62.61-1.65,0-3.31,0-5,0-.38,0-.48-.12-.48-.49q0-8.56,0-17.14c0-.37.1-.49.48-.49,1.7,0,3.41,0,5.11,0,.38,0,.51.12.48.5A9.2,9.2,0,0,0,171.36,40.89Z"/><path class="cls-3" d="M245.47,40.52a18.43,18.43,0,0,1,1.61-1.59,6.81,6.81,0,0,1,5.71-1.52c.2,0,.29.12.29.32V42.3c0,.31-.2.27-.4.27a13.37,13.37,0,0,0-2.53,0,5.19,5.19,0,0,0-4.56,4.57,15.6,15.6,0,0,0-.15,2.26c0,2.53,0,5.06,0,7.6,0,.44-.14.55-.56.55-1.68,0-3.35,0-5,0-.37,0-.49-.11-.48-.49q0-8.56,0-17.14c0-.37.11-.49.49-.49,1.67,0,3.35,0,5,0,.48,0,.62.14.56.59C245.43,40.16,245.46,40.28,245.47,40.52Z"/><path class="cls-3" d="M132.76,45.23c0-3.92,0-7.84,0-11.76,0-.44.11-.59.58-.59,1.67,0,3.35,0,5,0,.36,0,.46.11.46.46q0,11.88,0,23.75c0,.39-.13.48-.49.47-1.68,0-3.35,0-5,0-.41,0-.54-.11-.53-.53C132.77,53.1,132.76,49.17,132.76,45.23Z"/><path class="cls-4" d="M261.43,36a2.31,2.31,0,1,1-2.3-2.31A2.31,2.31,0,0,1,261.43,36Zm-2.32,1.85A1.85,1.85,0,0,0,261,36a1.85,1.85,0,1,0-3.7,0A1.85,1.85,0,0,0,259.11,37.85Z"/><path class="cls-4" d="M62.62,51.41A7.31,7.31,0,0,1,57.33,49a6.18,6.18,0,0,1,.35-8.85,7.85,7.85,0,0,1,10.67.07,6.28,6.28,0,0,1-1.08,9.94A8.09,8.09,0,0,1,62.62,51.41Z"/><path class="cls-4" d="M258.8,36.27c0,.22,0,.42,0,.61s0,.36-.32.36-.33-.11-.33-.35q0-.95,0-1.89c0-.24.09-.33.32-.31s.45,0,.68,0c.4,0,.8.08,1,.53s-.11.73-.47.94a5.43,5.43,0,0,1,.41.61c.07.13.29.32.12.41a.48.48,0,0,1-.68-.13c-.11-.17-.21-.36-.33-.54A.41.41,0,0,0,258.8,36.27Zm0-.83c0,.19,0,.35.22.33s.38-.08.38-.3-.2-.3-.41-.32S258.82,35.34,258.81,35.44Z"/></g></g></svg>