<svg xmlns="http://www.w3.org/2000/svg" viewBox="0 0 258.25 82.8"><defs><style>.cls-1{fill:#ffe2aa;}.cls-2{fill:#e97500;}.cls-3{fill:#265686;}.cls-4{fill:#265787;}</style></defs><title>Asset 22</title><g id="Layer_2" data-name="Layer 2"><g id="Layer_1-2" data-name="Layer 1"><rect class="cls-1" width="258.25" height="82.8" rx="14.4"/><path class="cls-2" d="M36.88,47.75c-.2,0-.28.12-.38.2L23.38,58.7a6.68,6.68,0,0,1-4.64,1.8,3.82,3.82,0,0,1-3.65-5,6.36,6.36,0,0,1,2.37-3.38L42.39,33l.65-.5h-.6l-13.3,0a5.42,5.42,0,0,1-2.25-.38A2.8,2.8,0,0,1,25.51,28a5.17,5.17,0,0,1,4.69-2.58c3.12,0,6.24,0,9.36,0l18.33,0h.49A.82.82,0,0,0,58,25L49.51,18a5.34,5.34,0,0,1-.44-.39,2.34,2.34,0,0,1-.15-3.43,4.48,4.48,0,0,1,3.7-1.45,4.53,4.53,0,0,1,2.74,1Q66.18,22.1,77,30.39a22.14,22.14,0,0,1,8.26,11.67,20.58,20.58,0,0,1-4.33,19.71,24.25,24.25,0,0,1-15.37,8.49A25.88,25.88,0,0,1,47.21,66.6a22.18,22.18,0,0,1-10-13.18,12.19,12.19,0,0,1-.42-5.1C36.86,48.14,36.87,48,36.88,47.75ZM61,59.86a15.93,15.93,0,0,0,10.38-3.52,12.86,12.86,0,0,0,5-9.27,12.49,12.49,0,0,0-3.67-10,16.11,16.11,0,0,0-22.44-.28A12.72,12.72,0,0,0,49.05,54.1,15.1,15.1,0,0,0,61,59.86Z"/><path class="cls-3" d="M189.87,40.21V35.63c0-.78,0-1.57,0-2.35,0-.26.07-.41.34-.48q2.69-.66,5.34-1.37c.45-.12.39.14.39.4V57c0,.58,0,.58-.6.58-1.66,0-3.32,0-5,0-.37,0-.52-.09-.49-.48s0-.8,0-1.23c-.09,0-.14,0-.16,0a9,9,0,0,1-6,2.3,12.18,12.18,0,0,1-7.74-2,9.36,9.36,0,0,1-4.12-7.3,9.88,9.88,0,0,1,2.26-7.54A10.08,10.08,0,0,1,180.21,38a12.53,12.53,0,0,1,6.94.43,7.3,7.3,0,0,1,2.4,1.52Zm-5.76,2.26h-.59a5.12,5.12,0,0,0-4.92,3.76,7.34,7.34,0,0,0-.2,2.38,5,5,0,0,0,3.33,4.58,7.09,7.09,0,0,0,3.79.26,5.24,5.24,0,0,0,4.34-5.65,5.36,5.36,0,0,0-2-4.2A5.88,5.88,0,0,0,184.11,42.47Z"/><path class="cls-3" d="M96.31,40.25A7.86,7.86,0,0,1,99,38.46c3.39-1.37,9.51-1,12.79,2.64a10,10,0,0,1,2.51,7.64A9.47,9.47,0,0,1,111.55,55a10.73,10.73,0,0,1-6.72,3.09,12.25,12.25,0,0,1-5.79-.6,8.15,8.15,0,0,1-2.73-1.77c0,.51,0,.91,0,1.3s-.07.53-.49.52c-1.7,0-3.41,0-5.11,0-.38,0-.48-.12-.47-.49,0-4.2,0-8.41,0-12.61s0-8.42,0-12.62c0-.41.06-.51.49-.4,1.71.47,3.43.91,5.16,1.34a.46.46,0,0,1,.42.55c0,2.09,0,4.19,0,6.28ZM102,42.46a10.73,10.73,0,0,0-1.13.08A4.91,4.91,0,0,0,96.64,46a5.75,5.75,0,0,0,1.14,6c1.7,1.82,5.17,2.17,7.47.86,3.12-1.76,3-6.3,1.43-8.36A5.62,5.62,0,0,0,102,42.46Z"/><path class="cls-3" d="M212.58,49.31H204.8c-.57,0-.58,0-.53.59A4.52,4.52,0,0,0,208.7,54a6.63,6.63,0,0,0,2.58-.33,4.32,4.32,0,0,0,2.47-2.14c.09-.17.14-.37.42-.2,1.51.88,3,1.76,4.54,2.62.33.19.14.32,0,.48a10.07,10.07,0,0,1-4.89,3.12,15.14,15.14,0,0,1-10.9-.62A9.2,9.2,0,0,1,197.48,49a11.41,11.41,0,0,1,.48-5A9.22,9.22,0,0,1,204.2,38a15.88,15.88,0,0,1,10,0,9.24,9.24,0,0,1,6.48,7.51,18.5,18.5,0,0,1,.29,3.24c0,.45-.1.59-.57.58C217.77,49.3,215.18,49.31,212.58,49.31Zm-3.28-4.09h4.34c.55,0,.59-.06.47-.61a3.86,3.86,0,0,0-2.17-2.73,6.21,6.21,0,0,0-3.8-.47,4.17,4.17,0,0,0-3.65,3.28c-.1.48-.06.53.42.53Z"/><path class="cls-3" d="M123.31,47.67a10.7,10.7,0,0,1,1.42-5.5A9.41,9.41,0,0,1,130.17,38,16,16,0,0,1,140,38a9.21,9.21,0,0,1,6.57,7.42,16.9,16.9,0,0,1,.3,3.41c0,.44-.14.53-.54.53-5,0-10,0-15,0a5.93,5.93,0,0,1-.73,0c-.37,0-.46.12-.43.47A4.52,4.52,0,0,0,134.43,54a6.83,6.83,0,0,0,2.25-.16,4.36,4.36,0,0,0,3-2.29c.14-.27.25-.31.51-.16q2.19,1.29,4.39,2.53c.32.18.25.32.06.54a10.45,10.45,0,0,1-5.51,3.28,15.25,15.25,0,0,1-9.8-.58,9.32,9.32,0,0,1-6-8.46c0-.3,0-.6,0-.9Zm11.92-2.42h4.47c.36,0,.43-.1.36-.44a3.92,3.92,0,0,0-2.32-3,6.31,6.31,0,0,0-3.54-.44,4.24,4.24,0,0,0-3.82,3.37c-.08.41,0,.49.42.49C132.27,45.24,133.75,45.25,135.23,45.25Z"/><path class="cls-3" d="M154.39,40.89a13,13,0,0,1,2-1.72,10.3,10.3,0,0,1,10.27-.69,6,6,0,0,1,3.55,5.38c.07.76.1,1.53.1,2.3,0,3.63,0,7.27,0,10.9,0,.39-.09.52-.5.51-1.67,0-3.35,0-5,0-.43,0-.56-.1-.56-.54,0-3.2,0-6.39,0-9.59A10.73,10.73,0,0,0,164,45a3.1,3.1,0,0,0-2.77-2.55,7.48,7.48,0,0,0-3.48.27,4.9,4.9,0,0,0-3.33,4.71c0,3.18,0,6.36,0,9.54,0,.61,0,.61-.61.61-1.66,0-3.31,0-5,0-.38,0-.48-.12-.48-.49q0-8.56,0-17.14c0-.37.1-.49.48-.49,1.7,0,3.4,0,5.11,0,.38,0,.51.12.48.5A9.2,9.2,0,0,0,154.39,40.89Z"/><path class="cls-3" d="M228.5,40.52a18.43,18.43,0,0,1,1.61-1.59,6.8,6.8,0,0,1,5.71-1.52c.2,0,.29.12.29.32V42.3c0,.31-.2.27-.4.27a13.35,13.35,0,0,0-2.53,0,5.18,5.18,0,0,0-4.56,4.57,13.21,13.21,0,0,0-.15,2.26q0,3.8,0,7.6c0,.44-.14.55-.57.55-1.67,0-3.34,0-5,0-.37,0-.49-.11-.49-.49q0-8.56,0-17.14c0-.37.1-.49.48-.49,1.68,0,3.35,0,5,0,.47,0,.62.14.56.59A3.27,3.27,0,0,0,228.5,40.52Z"/><path class="cls-3" d="M115.79,45.23c0-3.92,0-7.84,0-11.76,0-.44.11-.59.58-.59,1.67,0,3.35,0,5,0,.36,0,.45.11.45.46,0,7.92,0,15.83,0,23.75,0,.39-.13.48-.5.47-1.67,0-3.34,0-5,0-.41,0-.54-.11-.54-.53C115.8,53.1,115.79,49.17,115.79,45.23Z"/><path class="cls-4" d="M244.46,36a2.31,2.31,0,1,1-2.3-2.31A2.31,2.31,0,0,1,244.46,36Zm-2.33,1.85A1.85,1.85,0,0,0,244,36a1.85,1.85,0,1,0-3.7,0A1.84,1.84,0,0,0,242.13,37.85Z"/><path class="cls-4" d="M61.17,54.43a9.5,9.5,0,0,1-6.93-3.16,8.11,8.11,0,0,1,.45-11.6,10.31,10.31,0,0,1,14,.09,8.23,8.23,0,0,1-1.42,13A10.47,10.47,0,0,1,61.17,54.43Z"/><path class="cls-4" d="M241.83,36.27a6.05,6.05,0,0,0,0,.61c0,.23-.05.36-.32.36s-.34-.11-.33-.35q0-.95,0-1.89c0-.24.09-.33.32-.31s.45,0,.67,0c.4,0,.8.08,1,.53s-.1.73-.46.94a5.43,5.43,0,0,1,.41.61c.07.13.28.32.12.41a.48.48,0,0,1-.68-.13c-.11-.17-.22-.36-.33-.54A.41.41,0,0,0,241.83,36.27Zm0-.83c0,.19,0,.35.21.33s.39-.08.39-.3-.2-.3-.41-.32S241.85,35.34,241.84,35.44Z"/></g></g></svg>