<svg xmlns="http://www.w3.org/2000/svg" viewBox="0 0 184.84 82.8"><defs><style>.cls-1{fill:#003561;}.cls-2{fill:#fff;}</style></defs><title>Asset 48</title><g id="Layer_2" data-name="Layer 2"><g id="Layer_1-2" data-name="Layer 1"><rect class="cls-1" width="184.84" height="82.8" rx="14.4"/><path class="cls-2" d="M99.32,41.44c0-8.45,6.44-13.35,14.66-13.35a14.71,14.71,0,0,1,6.39,1.47,2.21,2.21,0,0,1,.7,3.71h0a3.34,3.34,0,0,1-3.57.51,8.36,8.36,0,0,0-3.51-.72c-4.35,0-8.66,3-8.66,8.07s4.31,8.39,8.94,8.39a7.66,7.66,0,0,0,3.69-.94,3.34,3.34,0,0,1,3.72.41h0a2.18,2.18,0,0,1-.48,3.62,15,15,0,0,1-7.65,1.89C105.91,54.51,99.32,50,99.32,41.44Z"/><path class="cls-2" d="M126.94,43.17h-4.86a2,2,0,0,1-2-2h0a2,2,0,0,1,2-2h4.86V33.94a2,2,0,0,1,2-2h.15a2,2,0,0,1,2,2v5.17H136a2,2,0,0,1,2,2h0a2,2,0,0,1-2,2h-4.87v5.17a2,2,0,0,1-2,2H129a2,2,0,0,1-2-2Z"/><path class="cls-2" d="M146.76,43.17H141.9a2,2,0,0,1-2-2h0a2,2,0,0,1,2-2h4.86V33.94a2,2,0,0,1,2-2H149a2,2,0,0,1,2,2v5.17h4.86a2,2,0,0,1,2,2h0a2,2,0,0,1-2,2H151v5.17a2,2,0,0,1-2,2h-.16a2,2,0,0,1-2-2Z"/><path class="cls-2" d="M73.58,30.77A3.46,3.46,0,0,0,73,28.68a3.08,3.08,0,0,0-1.51-1.53C65.58,23.74,59.67,20.36,53.76,17A4.44,4.44,0,0,0,49,17c-5.76,3.32-11.51,6.66-17.3,9.94a4.47,4.47,0,0,0-2.46,4.2c0,6.73,0,13.45,0,20.18a4.16,4.16,0,0,0,.58,2.3,4.74,4.74,0,0,0,2,1.76Q40.44,60.3,49,65.26a4.48,4.48,0,0,0,4.79,0q8.77-5.07,17.57-10.1a4.08,4.08,0,0,0,2.19-3.75Q73.61,41.09,73.58,30.77ZM65.46,42c-.89,0-.88,0-.91.91,0,.26.19.6-.15.77a2.18,2.18,0,0,1-1.36.07c-.19,0-.18-.27-.2-.45,0-.42.21-1-.1-1.23S62,42,61.54,42c-.72-.07-.28-.64-.33-1s-.31-.73.33-.75c.42,0,1,.2,1.23-.1s.09-.78.07-1.19.13-.41.42-.39h.43c.87,0,.87,0,.87.88s0,.8.84.8.86,0,.86.88S66.26,42,65.46,42ZM64.13,33.8l-6.24,3.61-6.2,3.53,6.2-3.53a.69.69,0,0,1-.38-.35,7.2,7.2,0,0,0-6.91-3.17,7.3,7.3,0,1,0,6.94,11.24c.24-.36.39-.38.74-.17,1.84,1.09,3.69,2.15,5.54,3.2.35.2.36.35.16.65-3.1,4.69-7.44,7.13-13.08,7a14.27,14.27,0,0,1-12-6.9c-.09-.13-.14-.3-.31-.36a1,1,0,0,0-.21-.54A14.6,14.6,0,0,1,41.81,30a14.16,14.16,0,0,1,11.42-3.45,14.38,14.38,0,0,1,10.64,6.7,5,5,0,0,1,.26.52L67,32.17Zm8.26,7.59c.06.21.18.6-.34.59s-1-.19-1.24.07-.09.82-.09,1.24-.1.36-.38.37C69,43.72,69,43.73,69,42.43c0-.8-.58-.31-.82-.46-.85,0-.85,0-.86-.78,0-.94,0-.94.92-.94.75,0,.75,0,.75-.72,0-1,0-1,1-1h.43c.23,0,.33.09.31.32v0c0,.42-.19,1,.1,1.24s.83,0,1.25.09C72.8,40.41,72.29,41,72.39,41.39Z"/></g></g></svg>