<svg xmlns="http://www.w3.org/2000/svg" viewBox="0 0 159.02 82.8"><defs><style>.cls-1{fill:#003561;}.cls-2{fill:#fff;}</style></defs><title>Asset 5</title><g id="Layer_2" data-name="Layer 2"><g id="Layer_1-2" data-name="Layer 1"><rect class="cls-1" width="159.02" height="82.8" rx="14.4"/><path class="cls-2" d="M81.5,41.46c0-9.29,7.08-14.68,16.12-14.68a15.93,15.93,0,0,1,7,1.62,2.42,2.42,0,0,1,.77,4.07h0a3.7,3.7,0,0,1-3.93.56,9.21,9.21,0,0,0-3.85-.79c-4.79,0-9.52,3.26-9.52,8.87,0,5.76,4.73,9.23,9.82,9.23a8.41,8.41,0,0,0,4.06-1,3.66,3.66,0,0,1,4.09.45h0a2.39,2.39,0,0,1-.52,4,16.48,16.48,0,0,1-8.42,2.09C88.74,55.83,81.5,50.91,81.5,41.46Z"/><path class="cls-2" d="M111.86,43.36h-5.34a2.24,2.24,0,0,1-2.24-2.24h0a2.23,2.23,0,0,1,2.24-2.23h5.34V33.2A2.23,2.23,0,0,1,114.09,31h.18a2.23,2.23,0,0,1,2.23,2.23v5.69h5.34a2.23,2.23,0,0,1,2.24,2.23h0a2.24,2.24,0,0,1-2.24,2.24H116.5V49a2.23,2.23,0,0,1-2.23,2.24h-.18A2.23,2.23,0,0,1,111.86,49Z"/><path class="cls-2" d="M133.66,43.36h-5.34a2.24,2.24,0,0,1-2.24-2.24h0a2.23,2.23,0,0,1,2.24-2.23h5.34V33.2A2.23,2.23,0,0,1,135.89,31h.18a2.23,2.23,0,0,1,2.23,2.23v5.69h5.34a2.23,2.23,0,0,1,2.24,2.23h0a2.24,2.24,0,0,1-2.24,2.24H138.3V49a2.23,2.23,0,0,1-2.23,2.24h-.18A2.23,2.23,0,0,1,133.66,49Z"/><path class="cls-2" d="M68.84,28.35a4.08,4.08,0,0,0-.72-2.57,3.86,3.86,0,0,0-1.86-1.9Q55.34,17.58,44.4,11.31a5.47,5.47,0,0,0-5.85,0c-7.11,4.1-14.21,8.21-21.34,12.27a5.49,5.49,0,0,0-3,5.18q0,12.44,0,24.89a5.11,5.11,0,0,0,.72,2.84,5.76,5.76,0,0,0,2.44,2.17Q28,64.79,38.56,70.9a5.48,5.48,0,0,0,5.9,0Q55.3,64.66,66.15,58.45a5,5,0,0,0,2.7-4.63Q68.88,41.08,68.84,28.35Zm-10,13.82c-1.1,0-1.08,0-1.12,1.12,0,.32.23.74-.19,1a2.75,2.75,0,0,1-1.68.09c-.23,0-.22-.33-.24-.56,0-.52.26-1.21-.13-1.51s-1,0-1.47-.1c-.89-.1-.35-.79-.41-1.19s-.39-.9.4-.92c.52,0,1.21.24,1.52-.12s.11-1,.09-1.48.15-.51.51-.47c.18,0,.36,0,.53,0,1.09,0,1.09,0,1.09,1.07s0,1,1,1,1.07,0,1.07,1.09S59.82,42.17,58.83,42.17ZM57.19,32.09,49.5,36.54,41.84,40.9l7.66-4.36c-.24,0-.35-.25-.48-.43A8.86,8.86,0,0,0,40.5,32.2a9,9,0,1,0,8.56,13.86c.29-.43.48-.46.92-.2,2.26,1.34,4.54,2.65,6.83,4,.43.24.44.43.2.8-3.83,5.79-9.18,8.8-16.14,8.58C34.49,59,29.59,56,26.1,50.68c-.11-.16-.17-.37-.38-.45,0-.26-.15-.45-.26-.66a18,18,0,0,1,4.19-22.13,17.5,17.5,0,0,1,14.09-4.26,17.77,17.77,0,0,1,13.13,8.26,4.9,4.9,0,0,1,.32.65l3.5-2Zm10.19,9.36c.08.27.22.74-.42.73s-1.19-.23-1.53.09-.1,1-.11,1.53c0,.34-.12.44-.46.46-1.64.07-1.67.08-1.65-1.52,0-1-.71-.39-1-.57-1.05,0-1.05,0-1.06-1,0-1.16,0-1.16,1.13-1.16.93,0,.93,0,.93-.9,0-1.17,0-1.17,1.2-1.17.17,0,.35,0,.53,0s.41.11.38.39v.06c0,.52-.24,1.2.12,1.53s1,0,1.54.1C67.88,40.25,67.26,41,67.38,41.45Z"/></g></g></svg>