<svg xmlns="http://www.w3.org/2000/svg" viewBox="0 0 381.01 381.01"><defs><style>.cls-1{fill:#fdfdfd;}.cls-2{fill:#56c1b1;}.cls-3{fill:#76ccca;}.cls-4{fill:#e1e1e1;}.cls-5{fill:#159a86;}.cls-6{fill:#2c4750;}.cls-7{fill:#09b39b;}.cls-8{fill:#33baa3;}.cls-9{fill:#a1d7d7;}.cls-10{fill:#385c65;}.cls-11,.cls-17{fill:#16292e;}.cls-12{fill:#224d51;}.cls-13{fill:#065a4c;}.cls-14{fill:#6bb1a5;}.cls-15{fill:#076f5e;}.cls-16{fill:#7b7c7c;}.cls-17{font-size:37.14px;font-family:Montserrat-ExtraBold, Montserrat;font-weight:800;letter-spacing:-0.02em;}.cls-18{letter-spacing:-0.01em;}</style></defs><title>Asset 5</title><g id="Layer_2" data-name="Layer 2"><g id="Layer_1-2" data-name="Layer 1"><rect class="cls-1" width="381.01" height="381.01"/><path class="cls-2" d="M320.86,213.89c3.6,3.81,7.27,7.58,8.36,13a1.84,1.84,0,0,0,1.44,1.56c8.84,3.25,13.09,9.42,13.06,18.93,0,4,.36,8-.55,11.91-.41,1.73-.94,3.43-3.14,3.66-.68-1-.47-2.14-.57-3.24-.39-4.41-2.06-8.25-5.72-10.83-2.26-1.59-4.89-2.6-7.76-1.26-4.11,0-7.27,2.23-10.22,4.62-8.3,6.74-13.5,15.54-16.64,25.69-1.09,3.53-.84,7.26-1.94,10.77a3.36,3.36,0,0,0-2.22.71C285,295.16,275.12,301,265.12,306.6c-3.14,1.76-6.07,4-9.58,5.08a22.77,22.77,0,0,0,0-2.61c-.69-7-4.12-14.47-13.49-13.14a18,18,0,0,0-9.85,4.46c-9.68,7.91-15.1,18.25-17,30.52-.38,2.46.08,5.27-3.05,6.4a11.12,11.12,0,0,0-2.11.43,53.72,53.72,0,0,1-23.88,3.69,47.1,47.1,0,0,1-15.58-3.18,7.87,7.87,0,0,1-.92-4.82c.11-3.47-1-6.22-4.35-7.74-.64-.3-1.24-.71-1.86-1.07-7.22-4.17-14.72-7.87-21.77-12.35-3.28-2.08-6.32-4.54-9.82-6.29-.67-5,1.06-9.28,4.28-13,1.2,2.34,2.2,4.82,4.07,6.71,11,11.19,26.39,14.92,41.19,8.65,5.78-2.45,11.57-4.89,17.38-7.25s11.57-4.33,17.44-6.25c2.12-.69,4.5-.95,6.6-2.49-1.64-.55-2.6.45-3.71.76a265.42,265.42,0,0,0-32.91,11.81c-7.13,3-14.3,6.36-22.43,4.92-11.49-2-21.52-6.29-26.65-17.84,2.43-2.9,5.71-3.71,9.31-3.84,1.34-.05,1.1.73,1,1.52-.38,1.84-.75,3.91,1,5.06,1.57,1.05,3.39.16,4.95-.72a58.77,58.77,0,0,0,7-5.33,2.07,2.07,0,0,0,.53-2.6c-.88-2.25-4.54-4.89-6.95-4.86-2.8,0-4.17,2-5.32,4.18a10.56,10.56,0,0,0-.42,1.11c-3.91.31-7.79.73-11.07,3.2-.69,0-.93-.46-1-1.09a63.23,63.23,0,0,1-.89-7.07,70.29,70.29,0,0,1,6.23-30.79c.24-.52.68-1.07-.05-1.63-5.32,10.47-9.75,27.09-6.13,42.24a20.23,20.23,0,0,0-4.58,9.49c-.34,2.16-.74,3.95-3.33,4.17a11.17,11.17,0,0,1-4.79,3,8.92,8.92,0,0,1-1.68-2.27,37.15,37.15,0,0,1-4.07-10.29c-.93-7.12-.07-14.1,1.52-21a7.91,7.91,0,0,1,.52-1.29c.35.62.71,1.23,1.07,1.84,1.5,2.58,3.76,4,5.94,3.57,2.88-.53,4.28-2.54,4.91-5.19a27.36,27.36,0,0,0,.61-5.2,126.43,126.43,0,0,1,.93-14c.33-2.18,1.26-4.3.68-6.57,4-5.18,9-9.32,14.06-13.42,2.87-2.34,6.18-4.12,8.8-6.8L158.8,226a2.71,2.71,0,0,1-1,2.08,70.91,70.91,0,0,0-15.23,24.48c-1.43,3.88-3.06,7.7-3.75,11.89.55-.2.62-.59.75-1,2.61-7.94,5.57-15.75,10.33-22.69,2.4-3.51,4.54-7.26,7.91-10-2.13,5.24-.73,9.91,2.74,13.92,9.84,11.4,22.19,19.43,35.77,25.58a177.93,177.93,0,0,0,25.31,9.11,20,20,0,0,0,14.21-.94c.82-.38,1.63-.83,1.45-1.93a2,2,0,0,0-1.76-1.69c-2.79-.62-5.56-1.29-8.35-1.91a138.34,138.34,0,0,1-21.48-7,117.36,117.36,0,0,1-18.36-9.6c-2.18-1.35-5.11-2.1-6.11-5,1.76.29,2.85,1.8,4.45,2.43,1,.38,1.64.54,1.95-.68.28.14.58.24.85.41A125.92,125.92,0,0,0,225.9,269.4c7,1.69,14.13,3.32,21.46,2,.44,1.14-.73,1.36-1.18,2-1.16,1.6-1.12,4.08.37,4.56a17.54,17.54,0,0,0,9.06.77H257c0,6.29-.13,12.58.52,18.85a51.65,51.65,0,0,0,1,6.8c.38,1.6,1.49,2.11,3.09,1.09,5.28-3.36,10.62-6.62,15.9-10,1.91-1.23,4.13-2.07,5.53-4.06a19.3,19.3,0,0,0-4,1.42c-5.34,2.62-10.65,5.3-16,8-2.18,1.09-2.8.81-3.22-1.51-1.07-6-2.08-12-1.89-18.18a5.16,5.16,0,0,0-.52-2.54c.81-.27,1.63-.51,2.43-.81a8.32,8.32,0,0,0,5.78-8.62c-.12-1.81-.83-3.07-2.91-2.94l0,0-.81-.38c-1.24-.31-2.4.21-3.6.32.15-1.11,1.24-1.12,1.92-1.51q28.71-16.69,57.45-33.3c3.54-2.06,4.5-4.42,3.58-8.42a11.12,11.12,0,0,0-3.14-5.53c-5.67-5.52-12.44-7-19.62-4a95.2,95.2,0,0,0-25.28,15.21c-7.13,6-11,14.16-14.34,22.56-2.06,5.17-4.26,10.31-4.75,16-1.22,2.07-3.51,2.45-5.41,3.43,3.6-13.06,8.22-25.68,15.33-37.29.28-.46.72-.88.53-1.52a92.63,92.63,0,0,1,11.2-9.21c6.34-4.11,12.88-7.86,19.44-11.59,6.41-3.65,12.79-3.39,19.34-.31C316.78,211.57,318.39,213.53,320.86,213.89Zm-34.62,75.78a2.24,2.24,0,0,0-2.33,1.23,2.35,2.35,0,0,0,2.34-1.22l.11-.21ZM143,247c1.15-.72,1.41-1.89,1.94-3.49-1.63,1.61-1.63,1.61-2,3.47-.41.23-.86.44-.76,1a.4.4,0,0,0,.34.19C143.1,248,142.88,247.46,143,247Zm126.53,15.33c7-2.67,13.71-6.19,20.56-9.32.85-.39,1.3-1.06.81-1.91-.63-1.1-1.52-.83-2.46-.29-4.46,2.58-8.95,5.11-13.41,7.68-1.94,1.12-4.18,1.83-5.52,3.83l-.19.2ZM339,236.47l.2.12-.21-.11c-1.69-4.24-8.6-7.36-14.33-4.83s-11.55,5.6-17.19,8.7c-3,1.64-5.86,3.47-8.77,5.24-1.18.72-1.06,1.64-.52,2.66s1.07.65,1.76.19c6.89-4.55,14-8.73,21.09-12.94,5-3,10.11-3.38,15.36-.59C337.27,235.39,337.78,236.49,339,236.47ZM197.88,321.69c11.79.07,23.9-8.86,27.2-19.73,1-3.23-.15-4.8-3.5-4-6.74,1.6-13.71,2-20.38,3.81-5.15,1.4-9.89,3.7-12.62,8.69-2.07,3.78-.89,7.44,2.89,9.5A16.12,16.12,0,0,0,197.88,321.69Zm-4.44,14.82c8.69.18,12.88-2.14,15.49-8.08.37-.84,1-1.76.33-2.69s-1.71-.45-2.63-.28c-7.15,1.3-13.74,3.82-19.31,8.64-.35.3-.95.42-.87,1s.64.72,1.1.77C189.83,336.14,192.12,336.37,193.44,336.51Zm23.17-44.85a10.82,10.82,0,0,0-2.13,0,114.32,114.32,0,0,0-18,5.27c-6.07,2.4-11.85,5.43-18,7.65a35.29,35.29,0,0,1-19.89,1.64c-1.69-.36-3.35-1.22-5.18-.93a28,28,0,0,0,14.32,3.41,42.35,42.35,0,0,0,16.51-4.28C194.8,299.57,205.28,294.48,216.61,291.66Zm78.26-12.11c.32-4.23.42-8.37,1-12.45.46-3.23.32-6.48.78-9.72a14.5,14.5,0,0,0-1-8.88,1.47,1.47,0,0,0-2.15-.78c-1.17.48-.74,1.05-.29,1.84,1.48,2.55,1.61,5.44,1.64,8.27C294.93,265.07,294.87,272.31,294.87,279.55Zm-174.71,1.12c-2.35,3.43-2.19,12.65.13,15.75.28.37.56.88,1.1.72s.43-.8.4-1.24c-.21-3.65-.36-7.31-.72-10.94C120.93,283.58,121.26,282.05,120.16,280.67ZM285,261c2.22-1.28,4.42-2.53,6.6-3.8a1.47,1.47,0,0,0,.71-2c-.44-.84-1.28-.52-1.89-.18-1.52.86-3,1.74-4.47,2.74A2.46,2.46,0,0,0,285,261Zm-59.54,30.29c-.49-.23-.93-.25-1.26.22-.05.07.07.37.14.38A1,1,0,0,0,225.45,291.27Zm-79.68-48.81c-.08-.31-.21-.5-.45-.32a.74.74,0,0,0-.26.54c0,.09.28.19.44.28Zm122.07,21c0-.35-.11-.53-.37-.47a.84.84,0,0,0-.5.38c-.12.28.13.4.36.35A1.53,1.53,0,0,0,267.84,263.46Zm-2.33.81a1.57,1.57,0,0,0-.35-.11s-.15.13-.13.16a1,1,0,0,0,.21.27Z"/><path class="cls-3" d="M320.86,213.89c-2.47-.36-4.08-2.32-6.23-3.33-6.55-3.08-12.93-3.34-19.34.31-6.56,3.73-13.1,7.48-19.44,11.59a92.63,92.63,0,0,0-11.2,9.21C247.48,221,230.2,210.4,212.54,200.49a204.24,204.24,0,0,0-20.19-10.35,2.84,2.84,0,0,0-3.39.57c-1.33,1.14-2.26,2.86-4.19,3.24-.41-1.14.64-1.51,1.18-2.11,5.15-5.75,11.82-9.34,18.53-12.85a224.75,224.75,0,0,1,24.69-11.34c6.74-2.55,13.36-1.92,19.8.62,18.38,7.26,36,16,52.27,27.32a90.78,90.78,0,0,1,18.62,16.71C320.26,212.79,320.8,213.19,320.86,213.89Z"/><path class="cls-4" d="M255.54,311.68c3.51-1.1,6.44-3.32,9.58-5.08,10-5.63,19.91-11.44,29.84-17.19a3.36,3.36,0,0,1,2.22-.71,3.25,3.25,0,0,0,1.35,2.63c2.4,1.43,4.86,2.77,7.29,4.14,4.59,3.69,9.43,3.83,14.45,1a26.75,26.75,0,0,0,8.6-7.83,39.61,39.61,0,0,0,8.81-21.56l.32-.41c3.41,1.71,7,3.28,9.78,5.83,5.65,5.12,5.22,11.52-1.86,15.76-15.55,9.32-31.37,18.18-47.06,27.26-13.7,7.93-27.36,15.93-41.08,23.83-6.41,3.69-12.73,7.59-19.4,10.72a81.78,81.78,0,0,1-22.72,6.78,96.56,96.56,0,0,1-18.5,1.35,123.41,123.41,0,0,1-30.91-5,129.31,129.31,0,0,1-25.83-11.07,3.54,3.54,0,0,0-3.89,0c-5.22,2.71-9.92,6.34-15.5,8.4-8.43,3.13-19,1.67-25.5-5.47-2.29-2.51-3-5.73-3.38-9a1.15,1.15,0,0,1,.72-1.37c.81,5.93,4.15,10,9.36,12.67a22.6,22.6,0,0,0,17.54,1.71c1.23,0,2.61.28,3-1.45l0,0,.51-.37.87-.61c4.6-.8,8-3.94,11.89-6.12.89-.5.57-1.11-.15-1.36-2.13-.75-3.47-2.68-5.5-3.56.63-5.79,1.11-11.57.29-17.4-.21-1.45.83-.89,1.55-.64l0,0a1.64,1.64,0,0,0,1.09,1c11.28,8.74,24,14.82,37.29,19.71a47.1,47.1,0,0,0,15.58,3.18,53.72,53.72,0,0,0,23.88-3.69,11.12,11.12,0,0,1,2.11-.43c2.62,3,6.14,4.55,9.63,6.17l.07-.05c-.09.47.32.49.58.65a11.28,11.28,0,0,0,12.47,1.52,26.32,26.32,0,0,0,10.52-9.05,39.57,39.57,0,0,0,8.7-25.29Z"/><path class="cls-2" d="M214.37,134.55c-4.37.83-7.51,4-11.36,5.9-1.88.9-3.53,2.37-5.84,2-.92-3.49-.68-7.06-.68-10.61,0-16.77,0-33.55,0-50.32A15,15,0,0,1,197.9,74a7.9,7.9,0,0,1,3.27-3.16c17.33-10.07,34.63-20.19,52-30.19,1.87-1.07,3.58-2.9,6.12-2.39,1.14,1,.89,2.4.9,3.67,0,20,0,40,0,60a9,9,0,0,1-4.79,8.15c-5,3-9.85,6.33-15.15,8.65-6.16,2.69-8.64,7.52-10.18,13.45-.75,2.86-1.93,5.61-2.85,8.42-.53,1.6-1.16,2.7-2.93,1.24-.42-2.67-2.42-4.55-3.51-6.9C218.94,130.89,217.26,130.86,214.37,134.55Z"/><path class="cls-5" d="M118.38,144a7.61,7.61,0,0,1,.53,2.8q0,50,0,99.93c0,.24,0,.48,0,.71s-.21.68-.32,1q-15.48,9.31-31.28,18.06a44.76,44.76,0,0,1-.35-8.58c.54-.39.43-1,.43-1.52q0-6.4,0-12.81V186.17c0-3.25.1-6.5,0-9.74,0-1.54.49-3.15-.42-4.61a35.18,35.18,0,0,1,.37-8.14c1.59-1.39,3.82-1.73,5.33-3.24l1-.65,0,0a1,1,0,0,0,1-.5l0,0a13.69,13.69,0,0,0,4.81-2.89h0a5.81,5.81,0,0,0,3.36-1.93h0c.85-.17,1.74-.27,1.79-1.43,1.34.8.8-1,1.71-1.17,3.53-.53,5.94-3.49,9.29-4.51A4,4,0,0,0,118.38,144Zm-28.22,69.2q0,23,0,46c0,1.59,0,2.58,2,1.4q10.91-6.47,21.91-12.75a3.62,3.62,0,0,0,2-3.62q-.06-45.65,0-91.3c0-2.58-.07-2.66-2.26-1.41-7.13,4.07-14.19,8.27-21.38,12.24A4,4,0,0,0,90.12,168C90.2,183.05,90.16,198.15,90.16,213.24Z"/><path class="cls-6" d="M184.77,194c1.93-.38,2.86-2.1,4.19-3.24a2.84,2.84,0,0,1,3.39-.57,204.24,204.24,0,0,1,20.19,10.35c17.66,9.91,34.94,20.46,52.11,31.18.19.64-.25,1.06-.53,1.52-7.11,11.61-11.73,24.23-15.33,37.29l-1.43.9c-7.33,1.34-14.43-.29-21.46-2a125.92,125.92,0,0,1-37.39-15.87c-.27-.17-.57-.27-.85-.41l-.06,0a2.06,2.06,0,0,0-1.47-.93v0a2,2,0,0,0-1.43-1h0a2.64,2.64,0,0,0-1.46-1.1l-.44-.27-.56-.44,0,0-.49-.37a.42.42,0,0,0-.33-.14l-.58-.53c-7.14-5.29-13.15-11.57-17.28-19.53l-.43-.78-.15-.67c0-.27,0-.5-.32-.57h0c-.44-2-1-4.06-.51-6.17l0,0a1.69,1.69,0,0,0,1-1.47l0,0a1.58,1.58,0,0,0,1-1.47l0,0c.85-.4,1.08-1.24,1.4-2l0,0a1.9,1.9,0,0,0,1.45-1.94v0a.46.46,0,0,0,.5-.49h0a1.23,1.23,0,0,0,1-1.44v0a1.31,1.31,0,0,0,1-1v0c.6-.11.44-.6.5-1h0a.46.46,0,0,0,.5-.49l0,0a.5.5,0,0,0,.48-.52l0,0c.29,0,.53-.12.52-.48l0,0c.62-.07.46-.63.62-1,1.6-1.94,3.59-3.56,4.93-5.73.4.09.66,0,.71-.47h0c.34,0,.5-.15.48-.48h0c.33,0,.49-.15.47-.48h0c.34,0,.47-.17.47-.48h0a.42.42,0,0,0,.47-.48h0c.32,0,.48-.15.47-.47h0c.32,0,.48-.15.46-.48h0c.33,0,.49-.14.48-.47h0c.33,0,.48-.13.46-.47h0c.33,0,.49-.14.45-.47l0,0c.62-.23,1.23-.45,1.09-1.31h0c.71.06,1.14-.16,1-1v0c.8.16,1.15-.14,1-1ZM257,239.34h0a20.57,20.57,0,0,0,2.16-3.57,4.27,4.27,0,0,0-.45-4.23c-.66-.92-.81,0-1.18.14a2.2,2.2,0,0,0-1.23-2.11c-2.09-1.43-4.26-2.75-6.41-4.11-2.81-1.89-5.59-3.84-8.47-5.63-.78-.49-1.41-1.57-2.62-1.12l-1.39-.51c-.21-1.42-1.53-1.73-2.49-2.33-2.81-1.76-5.71-3.38-8.55-5.1-.88-.53-1.65-1.27-2.79-1.07-.73-1.45-2.23-1.8-3.5-2.48a40.19,40.19,0,0,0-4.71-2.79c-2.29-1-4.21-2.81-6.83-3a1,1,0,0,0-.58-.94c-4.67-2.32-9.32-4.66-14-7a4.93,4.93,0,0,0-1.61-.16c-1.24-.79-2.29-.8-3.27.49a14.29,14.29,0,0,1-2.08,1.95,129.89,129.89,0,0,0-21.75,24.76c-.55.81-1.19,1.57-.27,2.51,0,3.31,1.48,6.21,3.12,8.88,4.19,6.83,10.14,12,16.79,16.33a131.42,131.42,0,0,0,28.89,14.57A117.8,117.8,0,0,0,241.6,269c1.43.12,3,.55,4.39-.43,1.26-.62.87-1.8.95-2.82l1.92-5.86c1.76-6.84,4.8-13.18,7.67-19.59A1,1,0,0,0,257,239.34Z"/><path class="cls-7" d="M118.38,144a4,4,0,0,1-2.91,3.38c-3.35,1-5.76,4-9.29,4.51-.91.14-.37,2-1.71,1.17-.75.29-1.72.29-1.79,1.43h0c-1.44.09-2.71.47-3.36,1.93h0a7.47,7.47,0,0,0-4.81,2.89l0,0c-.42,0-.82,0-1,.5l0,0a.88.88,0,0,0-1,.65c-1.51,1.51-3.74,1.85-5.32,3.24q-2.94-8.37-5.86-16.73c2.3-1,4.65-2,6.39-3.9.76-.11,1.8.35,1.94-1h0c2.38-.06,4-1.78,5.91-2.81,3.25-1.73,6.59-3.38,9.42-5.82h0c1.23-.27,2.4-.62,2.93-1.94l5.18-2.38Q115.78,136.59,118.38,144Z"/><path class="cls-2" d="M48,245.63c-2-1.29-2-3.16-1.66-5.25.66-3.62.17-4.58-3-6.06-1.9-.9-3.88-1.73-3.54-4.4.25-1.92,2.67-4,5.14-4.37a6.31,6.31,0,0,1,2.37-.05A21.19,21.19,0,0,0,58.17,225c2.52-.41,4.53,1,6.66,1.93.5,2.68-.19,5.43.48,8.09l-.3,2.1L63.85,237c0-1.27-1.1-1.57-1.89-2.14A7.35,7.35,0,0,0,57.33,232c-.32-1-1.24-.78-1.95-1a18,18,0,0,0-11.79-2.4,81.13,81.13,0,0,1,11.53,2.71,2.41,2.41,0,0,0,1.9,1l4.25,2.89c-.57.51-1.36.15-1.74.74-3,.09-6,.3-8.13,2.93-.46-.06-.91-.06-1.19.39-.15.24,0,.45.24.43a1.06,1.06,0,0,0,.95-.82c2.62-1.1,5.22-2.27,8.12-2.42h2l2.36.51a1.2,1.2,0,0,0,1.29.93q.07,8.4.14,16.81l-.42.61c-2.67-.68-3.93-2.73-4.92-5s-2.37-4.42-5.16-4A22.64,22.64,0,0,1,48,245.63Z"/><path class="cls-3" d="M259.29,38.27c-2.54-.51-4.25,1.32-6.12,2.39-17.37,10-34.67,20.12-52,30.19A7.9,7.9,0,0,0,197.9,74c-.73-.37-1.44-.76-2.18-1.1-3.61-1.65-6.54-4.62-10.6-5.36.8-2.64,3-3.83,5.2-5.08Q209.1,51.63,227.9,40.83c4.93-2.84,9.82-5.76,14.8-8.51C248.69,29,256.59,31.89,259.29,38.27Z"/><path class="cls-8" d="M87.81,143.05c-1.74,1.94-4.09,2.88-6.39,3.9l-10.26-5.57-.3-.79c4.87-3.46,10.26-6.07,15.37-9.14,4.3-2.58,8.75-4.94,13-7.59,2-1.24,3.6-1.54,5.59-.09,2.67,2,6,3,8.37,5.35L108,131.5c-1.21.29-2.53.42-2.93,1.94h0a2,2,0,0,0-1.8.25c-2.26,1.28-4.61,2.43-6.73,3.9s-5,2.31-6.8,4.48h0A1.88,1.88,0,0,0,87.81,143.05Z"/><path class="cls-7" d="M185.12,67.55c4.06.74,7,3.71,10.6,5.36.74.34,1.45.73,2.18,1.1a15,15,0,0,0-1.45,7.51c.07,16.77,0,33.55,0,50.32,0,3.55-.24,7.12.68,10.61-7.81,0-13-5.1-13-12.78q0-28.47,0-56.95C184.19,71,184.06,69.14,185.12,67.55Z"/><path class="cls-4" d="M116.92,295.42A37.15,37.15,0,0,0,121,305.71a8.7,8.7,0,0,0,1.68,2.26,20.92,20.92,0,0,0,4,4.72l.48.47h0a3.8,3.8,0,0,0,1.53,1.42l.9.91,0,.06c0,2.45.08,4.91.06,7.37,0,3.79.29,7.6-.67,11.34-3.8-1.71-6.55-4.72-9.21-7.72-3.58-4-6.7-8.48-7.69-13.91A20.78,20.78,0,0,1,115.91,296C116.12,295.68,116.58,295.59,116.92,295.42Z"/><path class="cls-4" d="M87.26,266.56q15.78-8.78,31.28-18.06l.57-.54c.62.34,1.27.64,1.86,1,1.2.8,1.19,1.56-.12,2.3-7.6,4.29-15.19,8.57-22.75,12.91-2.83,1.62-5.59,3.34-8.35,5.07a2.41,2.41,0,0,1-3.18-.13,67.93,67.93,0,0,0-7-4.1,2.36,2.36,0,0,0-2.49.12q-18.14,10.5-36.3,21A28.29,28.29,0,0,1,35,289.17c.38-1.87,2-2.66,3.34-3.53,4.58-2.87,9.22-5.66,13.84-8.48a3.6,3.6,0,0,0,2.48-.64l8.22-4.8c4-2.31,8-4.6,11.94-7,.78-.47,2.37-1.24.78-2.16-3.06-1.76-6-3.81-9.34-5.05l-.08-1a2.11,2.11,0,0,0,.16-.34l4.14.07c0,1,.87,1.26,1.52,1.64,1.78,1.06,3.57,2.11,5.4,3.09C80.7,262.82,83.75,265.1,87.26,266.56Z"/><path class="cls-8" d="M64.83,226.91c-2.13-.95-4.14-2.34-6.66-1.93-1.92-2.45-4.72-3.71-7.27-5.27-2.1-1.29-4.29-2.43-6.41-3.69-1.8-1.07-3.25-2.48-2.88-4.78s2.18-3.41,4.25-4c3.35-1,6.47-.1,9.46,1.34a25.54,25.54,0,0,1,7.9,6.07c.46.5.7,1.31,1.58,1.33a32.21,32.21,0,0,1-.13,6.13L62.19,220c-.31-.51-.57-1-1.18-1.26l-.8-.69c-3-3.77-10.38-8.06-13.6-7.83.79,1.05,2,.94,3,1.35,3.86,1.66,7,4.33,10.35,6.78l.81.69a2.07,2.07,0,0,0,1.07,1.25,9.17,9.17,0,0,0,3,3.26Z"/><path class="cls-4" d="M106.57,303.12c-2-4-5.64-4.38-9.59-4.93-6.8-.94-13.54-.2-20.25.26-8.19.55-16.37,1-24.56.76a41.57,41.57,0,0,1-15.31-2.93c-4.13-1.75-4.72-3-3.37-7.58-.32,2.54,1.31,3.8,3.23,4.76a36.09,36.09,0,0,0,11.27,3c11.1,1.57,22.13-.06,33.17-.72l.61-.14a1.2,1.2,0,0,0,1.42-.1c1,0,1.9.05,2.86,0,5.17-.1,10.34-.16,15.45.89,3.32.68,5.9,2.29,5.43,6.65A1.36,1.36,0,0,1,106.57,303.12Z"/><path class="cls-6" d="M106.57,303.12a1.36,1.36,0,0,0,.36-.06l.92,1c-.78,3.7-3.1,6.58-5.17,9.59-2.47,3.61-5.27,7-6.87,11.16-3,7.77-1.89,14.31,3.3,18.87,6.08,5.35,15.59,6.7,22.11,3.1a14.56,14.56,0,0,0,7.46-10.81l.21-.72.07-.95c1-3.74.65-7.55.67-11.34,0-2.46,0-4.92-.06-7.37h1c-.45,1.52,1.29,1.22,1.69,2-.72-.25-1.76-.81-1.55.64.82,5.83.34,11.61-.29,17.4-1.09,4.24-2.75,8.16-6.24,11l-.87.61-.51.37,0,0-3,1.45a22.6,22.6,0,0,1-17.54-1.71c-5.21-2.71-8.55-6.74-9.36-12.67-.42-6.58,1.85-12.32,5.54-17.62,2.72-3.9,5.93-7.49,7.63-12a.9.9,0,0,0,.34-1Z"/><path class="cls-6" d="M81.16,295.73c-11,.66-22.07,2.29-33.17.72a36.09,36.09,0,0,1-11.27-3c-1.92-1-3.55-2.22-3.23-4.76.86-2.22,2.71-3.45,4.65-4.59,5.61-3.29,11.33-6.42,16.36-10.61,4.85-4,8.82-8.7,10-15.19a1.32,1.32,0,0,0,.24-1.22l.07-1,.1-.83.42-.61c.25.65-.34,1.67.86,1.89l.08,1A28.21,28.21,0,0,1,61,268.91a52.12,52.12,0,0,1-8.87,8.25c-4.62,2.82-9.26,5.61-13.84,8.48-1.38.87-3,1.66-3.34,3.53-.31,2.15,1.49,2.64,2.81,3.27,3.85,1.83,8,2.4,12.21,2.92,10.28,1.28,20.47-.35,30.69-.95l.93.17Z"/><path class="cls-9" d="M119.39,271.37a19.51,19.51,0,0,1,3-12.59,12,12,0,0,1,5.23-4.62,2.76,2.76,0,0,1,1.61,2.24c.68,4.42,1.42,8.84.69,13.33a12.35,12.35,0,0,1-1.79,5.15c-1.87,2.71-4.36,2.82-6.56.4C120.56,274.13,120.23,272.61,119.39,271.37Zm8.66-8.68c0-1,0-1.63,0-2.27,0-.86.18-1.85-.89-2.24a2.36,2.36,0,0,0-2.59.72c-2.36,2.25-2.27,6.91.18,9,1,.88,1.75.9,2.37-.46A8.61,8.61,0,0,0,128.05,262.69Z"/><path class="cls-10" d="M337.68,267.06a39.61,39.61,0,0,1-8.81,21.56,4.55,4.55,0,0,1,.47-2.05,66.31,66.31,0,0,0,4.09-8.28c2.3-6,3.46-12.06,2-18.36-.79-3.48-2.36-6.74-6.43-7.49a12.83,12.83,0,0,0-8.54,1.32,4.48,4.48,0,0,1-2.64.91,14.27,14.27,0,0,1,12-4.26c5.73,2.11,7.6,6.68,7.85,12.29l.09,1.25A5.77,5.77,0,0,0,337.68,267.06Z"/><path class="cls-5" d="M158.8,226,156,227.32a8,8,0,0,1-.68-3.69c.95-2.49.81-5.28,2.21-7.68,1.61-2.78,3-3.67,6.14-3.38l0,.12-.12,0,.28.43c.11.4.21.8.31,1.2,0,1.16-.05,2.31-.08,3.46l0,0c-1,0-1,.73-1,1.47l0,0a1.28,1.28,0,0,0-1,1.47l0,0a6.24,6.24,0,0,0-2.4,4.33h0l-.42.47-.05.05-.45.42Z"/><path class="cls-10" d="M119.39,271.37c.84,1.24,1.17,2.76,2.22,3.91,2.2,2.42,4.69,2.31,6.56-.4a12.35,12.35,0,0,0,1.79-5.15c.73-4.49,0-8.91-.69-13.33a2.76,2.76,0,0,0-1.61-2.24c.16-.3.32-.6.47-.9,1,.07,2.06,1.88,2.82-.14.57-1.52,1.39-3,1.24-4.7l.91-.88c.58,2.27-.35,4.39-.68,6.57a126.43,126.43,0,0,0-.93,14,27.36,27.36,0,0,1-.61,5.2c-.63,2.65-2,4.66-4.91,5.19-2.18.4-4.44-1-5.94-3.57-.36-.61-.72-1.22-1.07-1.84A2.65,2.65,0,0,1,119.39,271.37Z"/><path class="cls-6" d="M64.83,226.91c0-1.13,0-2.26,0-3.39l-.14-1.44A32.21,32.21,0,0,0,64.8,216c0-3.34.08-6.69-.06-10a20.22,20.22,0,0,1,4.78-14.11,3.62,3.62,0,0,0,1.09-1.8,1,1,0,0,0,.92-.51c.67-.83.48-1.88.72-2.82.24.5-.19,1.16.37,1.59l.43-.68c.82.3,1.52-1.43,2.26-.28.49.77-.73,1.07-1,1.7-1.08.62-2,1.35-1.88,2.78-1.34-.37-1.3,1-2,1.53a13.91,13.91,0,0,0-4.3,10c-.11,5.17.09,10.34.16,15.52l-.18,4.73c-1.1,3.76-.44,7.65-.87,11.45C64.64,232.34,65.33,229.59,64.83,226.91Z"/><path class="cls-5" d="M337.72,262.7c-.25-5.61-2.12-10.18-7.85-12.29-1-1.33-2.84-1.52-3.89-2.79,2.87-1.34,5.5-.33,7.76,1.26,3.66,2.58,5.33,6.42,5.72,10.83.1,1.1-.11,2.24.57,3.24C339.19,263.47,338.55,262.22,337.72,262.7Z"/><path class="cls-4" d="M64.87,255.3l-.1.83c-3.83-1.51-7.18-3.93-10.8-5.84-1.38-.74-2.73-1.53-4.06-2.35A3.21,3.21,0,0,1,48,245.63a22.64,22.64,0,0,0,6.75.59c2.79-.38,4.17,1.73,5.16,4S62.2,254.62,64.87,255.3Z"/><path class="cls-11" d="M81.16,295.73l.45-1.15,14.82-.16c2,.35,4.09.57,6.08,1.07,5,1.23,6.18,3.22,5.34,8.53l-.92-1c.47-4.36-2.11-6-5.43-6.65-5.11-1.05-10.28-1-15.45-.89-1,0-1.91,0-2.86,0l-1.42.1Z"/><path class="cls-12" d="M163.63,212.57c-3.09-.29-4.53.6-6.14,3.38-1.4,2.4-1.26,5.19-2.21,7.68-.59-4.52.31-8.66,3.46-12C160.67,209.51,162.27,209.93,163.63,212.57Z"/><path class="cls-13" d="M71.53,189.51a1,1,0,0,1-.92.51q0-24.28-.07-48.57a2.83,2.83,0,0,1,.32-.86l.3.79c0,.32-.1.64-.1,1q0,22.71,0,45.43C71,188.38,70.92,189.05,71.53,189.51Z"/><path class="cls-7" d="M214.37,134.55c2.89-3.69,4.57-3.66,6.44.36,1.09,2.35,3.09,4.23,3.51,6.9C220.81,139.65,216.37,138.78,214.37,134.55Z"/><path class="cls-9" d="M132.19,248.42c.15,1.71-.67,3.18-1.24,4.7-.76,2-1.86.21-2.82.14C128.08,249.78,129,248.63,132.19,248.42Z"/><path class="cls-9" d="M96.43,294.42l-14.82.16-.93-.17A58.5,58.5,0,0,1,96.43,294.42Z"/><path class="cls-2" d="M164,217.82c0-1.15.06-2.3.08-3.46.43.5.16,1.63,1.32,1.46C165.12,216.58,164.89,217.42,164,217.82Z"/><path class="cls-2" d="M166.87,213.9a1.9,1.9,0,0,1-1.45,1.94A1.58,1.58,0,0,1,166.87,213.9Z"/><path class="cls-5" d="M337.68,267.06a5.77,5.77,0,0,1,.13-3.11c.06.9.13,1.8.19,2.7C337.89,266.79,337.78,266.92,337.68,267.06Z"/><path class="cls-2" d="M168.32,212a1.23,1.23,0,0,1-1,1.44C167.17,212.62,167.33,212,168.32,212Z"/><path class="cls-3" d="M182.81,195.81c.14.86-.47,1.08-1.09,1.31C181.6,196.28,181.83,195.73,182.81,195.81Z"/><path class="cls-3" d="M183.76,194.84c.18.82-.25,1-1,1C182.68,195.06,183,194.7,183.76,194.84Z"/><path class="cls-3" d="M184.72,193.89c.18.83-.17,1.13-1,1C183.61,194.07,183.92,193.74,184.72,193.89Z"/><path class="cls-2" d="M169.28,211a1.31,1.31,0,0,1-1,1C168.25,211.3,168.49,210.89,169.28,211Z"/><path class="cls-2" d="M169.77,210.09c-.06.37.1.86-.5,1A.64.64,0,0,1,169.77,210.09Z"/><path class="cls-2" d="M171.81,207.68c-.16.36,0,.92-.62,1A.71.71,0,0,1,171.81,207.68Z"/><path class="cls-4" d="M64.7,257.09a1.32,1.32,0,0,1-.24,1.22A1.07,1.07,0,0,1,64.7,257.09Z"/><path class="cls-4" d="M106.38,304.06a.9.9,0,0,1-.34,1A.9.9,0,0,1,106.38,304.06Z"/><path class="cls-14" d="M119.11,248l-.57.54c.11-.34.21-.68.32-1Z"/><path class="cls-3" d="M179.81,199.07c0,.32-.15.47-.47.47C179.3,199.19,179.46,199,179.81,199.07Z"/><path class="cls-3" d="M179.34,199.55a.42.42,0,0,1-.47.48C178.85,199.7,179,199.52,179.34,199.55Z"/><path class="cls-3" d="M181.7,197.14c0,.33-.12.48-.45.47C181.17,197.24,181.31,197.07,181.7,197.14Z"/><path class="cls-3" d="M178.86,200c0,.31-.13.5-.47.48C178.37,200.18,178.53,200,178.86,200Z"/><path class="cls-3" d="M181.24,197.62c0,.34-.13.49-.46.47C180.72,197.72,180.87,197.57,181.24,197.62Z"/><path class="cls-3" d="M178.39,200.52c0,.33-.14.49-.47.48C177.9,200.66,178.06,200.5,178.39,200.52Z"/><path class="cls-3" d="M177.92,201c0,.33-.14.5-.48.48A.41.41,0,0,1,177.92,201Z"/><path class="cls-3" d="M177.45,201.48c0,.43-.31.56-.71.47Z"/><path class="cls-2" d="M171.21,208.65c0,.36-.23.44-.52.48C170.66,208.75,170.82,208.58,171.21,208.65Z"/><path class="cls-2" d="M170.71,209.11a.5.5,0,0,1-.48.52C170.22,209.3,170.35,209.1,170.71,209.11Z"/><path class="cls-2" d="M170.25,209.61a.46.46,0,0,1-.5.49A.46.46,0,0,1,170.25,209.61Z"/><path class="cls-3" d="M180.77,198.1c0,.33-.15.48-.48.47C180.23,198.19,180.38,198,180.77,198.1Z"/><path class="cls-2" d="M167.36,213.43a.46.46,0,0,1-.5.49C166.79,213.52,167,213.35,167.36,213.43Z"/><path class="cls-4" d="M128.89,335.21l-.21.72Z"/><path class="cls-12" d="M163.81,213.16l-.28-.43Z"/><path class="cls-3" d="M180.28,198.58c0,.33-.14.48-.46.48C179.78,198.71,179.91,198.53,180.28,198.58Z"/><path class="cls-11" d="M254.2,267.05c.49-5.64,2.69-10.78,4.75-16,3.37-8.4,7.21-16.6,14.34-22.56a95.2,95.2,0,0,1,25.28-15.21c7.18-2.92,13.95-1.48,19.62,4a11.12,11.12,0,0,1,3.14,5.53c.92,4,0,6.36-3.58,8.42Q289,248,260.3,264.62c-.68.39-1.77.4-1.92,1.51h.06c-.34-.46-.62-.09-.91.07C256.37,266.31,255.59,267.9,254.2,267.05Zm22-28.66c-.19-2.06-2-2.78-3.26-3.9-1.13-1-2-.91-2.94.4a60,60,0,0,0-4.61,6.93,136.38,136.38,0,0,0-5.77,13.39c-.8,2.07.72,3.07,1.94,4.19.53.49.92,1.26,2,.61,3.73-2.29,7.52-4.47,11.29-6.7,1.09-.24,2.16-.93,2.17-1.92C277,247.05,277.82,242.63,276.17,238.39Zm21.09-8.64c.26,2.54-.37,5.5.32,8.42.34,1.41.8,1.83,2.29.93C305,236,310.27,233,315.54,230c4.11-2.3,5.08-5.53,2.46-9.44-2.8-4.19-9.82-8.51-17-5.81a4.48,4.48,0,0,0-3.27,3.87C297.12,222.19,297.32,225.78,297.26,229.75Zm-14.79-1.09c4.37,1.38,4.94,4.6,4.83,8.42a88.42,88.42,0,0,0,.6,9c2.76-2,6.43-2.54,6.48-6.61.08-6.06,0-12.12,0-18.17,0-1.9-.88-2.58-2.55-1.72-2.41,1.23-4.71,2.65-7.08,4a1.65,1.65,0,0,0-.94,1.77A3.81,3.81,0,0,1,282.47,228.66Z"/><path class="cls-7" d="M181.26,251.37c1,2.89,3.93,3.64,6.11,5a117.36,117.36,0,0,0,18.36,9.6,138.34,138.34,0,0,0,21.48,7c2.79.62,5.56,1.29,8.35,1.91a2,2,0,0,1,1.76,1.69c.18,1.1-.63,1.55-1.45,1.93a20,20,0,0,1-14.21.94,177.93,177.93,0,0,1-25.31-9.11c-13.58-6.15-25.93-14.18-35.77-25.58-3.47-4-4.87-8.68-2.74-13.92a.89.89,0,0,1,.92-.46c2.25.66,3.5,2.43,4.81,4.21,1,1.36,1.72,3,3.36,3.84h0c.19,1.47,1.3,2.16,2.4,2.87,1.13,1.94,3.12,3,4.74,4.37a1.33,1.33,0,0,0,1,1.37c.44,1.36,2.35.64,2.81,2a1.35,1.35,0,0,0,1.47,1.4h0c.33.9,1.07,1,1.88,1Z"/><path class="cls-10" d="M132.21,317.59c-.4-.81-2.14-.51-1.69-2,.91-1.21.84-2.63.93-4.05.13-1.84-.53-3.76.45-5.53,3.5,1.75,6.54,4.21,9.82,6.29,7.05,4.48,14.55,8.18,21.77,12.35.62.36,1.22.77,1.86,1.07,3.35,1.52,4.46,4.27,4.35,7.74a7.87,7.87,0,0,0,.92,4.82c-13.32-4.89-26-11-37.29-19.71a1.14,1.14,0,0,0-1.09-1Z"/><path class="cls-11" d="M326,247.62c1,1.27,2.88,1.46,3.89,2.79a14.27,14.27,0,0,0-12,4.26h0l-.49.49v0a1,1,0,0,0-1,.5c-2.33,1.39-3.61,3.75-5.2,5.78-3.93,5-6.12,10.9-7.5,17a22.72,22.72,0,0,0,.23,12.21c.54,1.66,1.89,3,1.88,4.82-2.43-1.37-4.89-2.71-7.29-4.14a3.25,3.25,0,0,1-1.35-2.63c1.1-3.51.85-7.24,1.94-10.77,3.14-10.15,8.34-18.95,16.64-25.69C318.71,249.85,321.87,247.6,326,247.62Z"/><path class="cls-11" d="M221.82,343.48c-3.49-1.62-7-3.2-9.63-6.17,3.13-1.13,2.67-3.94,3.05-6.4,1.9-12.27,7.32-22.61,17-30.52a18,18,0,0,1,9.85-4.46l4.19,2.81a15,15,0,0,0-12.3,4.34h0a2.57,2.57,0,0,0-.48,0,40.13,40.13,0,0,0-10,13.66c-3.91,8.32-5.9,16.71-1.82,25.58A3.57,3.57,0,0,1,221.82,343.48Z"/><path class="cls-10" d="M197.88,321.69a16.12,16.12,0,0,1-6.41-1.74c-3.78-2.06-5-5.72-2.89-9.5,2.73-5,7.47-7.29,12.62-8.69,6.67-1.83,13.64-2.21,20.38-3.81,3.35-.79,4.49.78,3.5,4C221.78,312.83,209.67,321.76,197.88,321.69Zm9.85-19.16a22.43,22.43,0,0,0-16.38,6.62c-3.68,3.72-2.59,8.36,2.32,10.23a15.79,15.79,0,0,0,8,.42A19,19,0,0,0,216,310c1.86-3.27.79-5.68-2.79-6.81A18.21,18.21,0,0,0,207.73,302.53Zm13.39-2.76c-2.63,0-5.46,1.13-5.29,2.13.39,2.18,2.47,2.37,4.12,3a1.5,1.5,0,0,0,.7,0c1.93-.26,2.68-1.63,2.76-3.32S222,299.82,221.12,299.77Z"/><path class="cls-5" d="M254.2,267.05c1.39.85,2.17-.74,3.33-.84.35.53.64.37.91-.07h-.06c1.2-.11,2.36-.63,3.59-.32l.82.38,0,0c1.32,4.47.55,7.12-3,9.94a10.11,10.11,0,0,1-4.64,2.18,3.73,3.73,0,0,0,.26.3.68.68,0,0,0,.21.1,17.54,17.54,0,0,1-9.06-.77c-1.49-.48-1.53-3-.37-4.56.45-.61,1.62-.83,1.18-2l1.43-.9C250.69,269.5,253,269.12,254.2,267.05Z"/><path class="cls-10" d="M193.44,336.51c-1.32-.14-3.61-.37-5.89-.65-.46-.05-1-.23-1.1-.77s.52-.69.87-1c5.57-4.82,12.16-7.34,19.31-8.64.92-.17,1.91-.7,2.63.28s0,1.85-.33,2.69C206.32,334.37,202.13,336.69,193.44,336.51Z"/><path class="cls-3" d="M174.08,245.6c-1.62-1.42-3.61-2.43-4.74-4.37a2.9,2.9,0,0,0-2.4-2.87h0a20.75,20.75,0,0,0-5.65-8c-.67-.55-1.67-1.12-2.52,0a.89.89,0,0,0-.92.46c-3.37,2.76-5.51,6.51-7.91,10-4.76,6.94-7.72,14.75-10.33,22.69-.13.38-.2.77-.75,1,.69-4.19,2.32-8,3.75-11.89a70.91,70.91,0,0,1,15.23-24.48,2.71,2.71,0,0,0,1-2.08V226l.45-.42.05-.05.42-.47h0c1.73-.58,1.54,1.85,2.91,1.84h0c.11.19.22.38.32.57l.15.67.43.78c4.13,8,10.14,14.24,17.28,19.53l.58.53a.42.42,0,0,1,.33.14l.49.37,0,0,.56.44.44.27c-.07,1.11.59,1.25,1.46,1.1h0c-.08,1.14.68,1.06,1.43,1v0c0,1.13.69,1.08,1.47.93l.06,0c-.31,1.22-1,1.06-1.95.68-1.6-.63-2.69-2.14-4.45-2.43h0c-.32-.92-1.06-1-1.88-1h0a1.34,1.34,0,0,0-1.47-1.4c-.46-1.34-2.37-.62-2.81-2C175.07,246.28,175,245.59,174.08,245.6Z"/><path class="cls-7" d="M137.16,292c5.13,11.55,15.16,15.82,26.65,17.84,8.13,1.44,15.3-1.89,22.43-4.92a265.42,265.42,0,0,1,32.91-11.81c1.11-.31,2.07-1.31,3.71-.76-2.1,1.54-4.48,1.8-6.6,2.49-5.87,1.92-11.71,3.92-17.44,6.25s-11.6,4.8-17.38,7.25c-14.8,6.27-30.18,2.54-41.19-8.65-1.87-1.89-2.87-4.37-4.07-6.71A1.72,1.72,0,0,1,137.16,292Z"/><path class="cls-10" d="M148.28,286.48a10.56,10.56,0,0,1,.42-1.11c1.15-2.18,2.52-4.16,5.32-4.18,2.41,0,6.07,2.61,6.95,4.86a2.07,2.07,0,0,1-.53,2.6,58.77,58.77,0,0,1-7,5.33c-1.56.88-3.38,1.77-4.95.72-1.72-1.15-1.35-3.22-1-5.06.91-.05.62-1.65,1.78-1.39a10.86,10.86,0,0,0,.66,2.25c.43.79,1.13,1.42,2.13.74,1.31-.88,2.39-2.08,2.15-3.69-.28-1.81-1.93-1.14-3.11-1.22C150.14,286,149.26,287.27,148.28,286.48Z"/><path class="cls-3" d="M339,236.47c-1.19,0-1.7-1.08-2.61-1.56-5.25-2.79-10.32-2.4-15.36.59-7.09,4.21-14.2,8.39-21.09,12.94-.69.46-1.27.71-1.76-.19s-.66-1.94.52-2.66c2.91-1.77,5.78-3.6,8.77-5.24,5.64-3.1,11.31-6.1,17.19-8.7s12.64.59,14.33,4.83Z"/><path class="cls-8" d="M257.46,278.53a5.16,5.16,0,0,1,.52,2.54c-.19,6.14.82,12.17,1.89,18.18.42,2.32,1,2.6,3.22,1.51,5.33-2.66,10.64-5.34,16-8a19.3,19.3,0,0,1,4-1.42c-1.4,2-3.62,2.83-5.53,4.06-5.28,3.37-10.62,6.63-15.9,10-1.6,1-2.71.51-3.09-1.09a51.65,51.65,0,0,1-1-6.8c-.65-6.27-.49-12.56-.52-18.85Z"/><path class="cls-3" d="M216.61,291.66c-11.33,2.82-21.81,7.91-32.41,12.77a42.35,42.35,0,0,1-16.51,4.28,28,28,0,0,1-14.32-3.41c1.83-.29,3.49.57,5.18.93a35.29,35.29,0,0,0,19.89-1.64c6.15-2.22,11.93-5.25,18-7.65a114.32,114.32,0,0,1,18-5.27A10.82,10.82,0,0,1,216.61,291.66Z"/><path class="cls-12" d="M149.27,288.25c-1.16-.26-.87,1.34-1.78,1.39.08-.79.32-1.57-1-1.52-3.6.13-6.88.94-9.31,3.84a1.72,1.72,0,0,0-1,1c-3.22,3.76-5,8-4.28,13-1,1.77-.32,3.69-.45,5.53-.09,1.42,0,2.84-.93,4.05h-1l0-.06,0-.9c0-2.36-.32-4.79.16-7s-.41-2.64-2.22-2.54c2.59-.22,3-2,3.33-4.17a20.23,20.23,0,0,1,4.58-9.49l1.84-1.66c3.28-2.47,7.16-2.89,11.07-3.2,1,.79,1.86-.48,2.82-.15C151.25,287.7,150.8,288.49,149.27,288.25Z"/><path class="cls-7" d="M137.21,289.68l-1.84,1.66c-3.62-15.15.81-31.77,6.13-42.24.73.56.29,1.11.05,1.63a70.29,70.29,0,0,0-6.23,30.79,63.23,63.23,0,0,0,.89,7.07C136.28,289.22,136.52,289.65,137.21,289.68Z"/><path class="cls-5" d="M246.28,298.74l-4.19-2.81c9.37-1.33,12.8,6.17,13.49,13.14a22.77,22.77,0,0,1,0,2.61l-1.38-.42C253.72,305.71,252,301,246.28,298.74Z"/><path class="cls-8" d="M294.87,279.55c0-7.24.06-14.48,0-21.72,0-2.83-.16-5.72-1.64-8.27-.45-.79-.88-1.36.29-1.84a1.47,1.47,0,0,1,2.15.78,14.5,14.5,0,0,1,1,8.88c-.46,3.24-.32,6.49-.78,9.72C295.29,271.18,295.19,275.32,294.87,279.55Z"/><path class="cls-3" d="M269.46,262.35c1.34-2,3.58-2.71,5.52-3.83,4.46-2.57,8.95-5.1,13.41-7.68.94-.54,1.83-.81,2.46.29.49.85,0,1.52-.81,1.91-6.85,3.13-13.51,6.65-20.56,9.32Z"/><path class="cls-10" d="M120.16,280.67c1.1,1.38.77,2.91.91,4.29.36,3.63.51,7.29.72,10.94,0,.44.19,1.06-.4,1.24s-.82-.35-1.1-.72C118,293.32,117.81,284.1,120.16,280.67Z"/><path class="cls-10" d="M127.46,305c1.81-.1,2.72.2,2.22,2.54s-.14,4.69-.16,7H129a2,2,0,0,0-1.85-1.43h0c-.15-.17.24-.9-.48-.47a20.92,20.92,0,0,1-4-4.72A11.05,11.05,0,0,0,127.46,305Z"/><path class="cls-12" d="M257.46,278.53l-.47.16h-1.38a.68.68,0,0,1-.21-.1,3.73,3.73,0,0,1-.26-.3,10.11,10.11,0,0,0,4.64-2.18c3.53-2.82,4.3-5.47,3-9.94,2.08-.13,2.79,1.13,2.91,2.94a8.32,8.32,0,0,1-5.78,8.62C259.09,278,258.27,278.26,257.46,278.53Z"/><path class="cls-12" d="M285,261a2.46,2.46,0,0,1,.95-3.28c1.43-1,2.95-1.88,4.47-2.74.61-.34,1.45-.66,1.89.18a1.47,1.47,0,0,1-.71,2C289.41,258.45,287.21,259.7,285,261Z"/><path class="cls-7" d="M142.93,247c.33-1.86.33-1.86,2-3.47-.53,1.6-.79,2.77-1.94,3.49Z"/><path class="cls-8" d="M286.25,289.68a2.35,2.35,0,0,1-2.34,1.22,2.24,2.24,0,0,1,2.33-1.23Z"/><path class="cls-7" d="M225.45,291.27a1,1,0,0,1-1.12.6c-.07,0-.19-.31-.14-.38C224.52,291,225,291,225.45,291.27Z"/><path class="cls-7" d="M143,247c-.07.43.15,1-.44,1.2a.4.4,0,0,1-.34-.19c-.1-.59.35-.8.76-1Z"/><path class="cls-7" d="M145.77,242.46l-.27.5c-.16-.09-.45-.19-.44-.28a.74.74,0,0,1,.26-.54C145.56,242,145.69,242.15,145.77,242.46Z"/><path class="cls-3" d="M267.84,263.46a1.53,1.53,0,0,1-.51.26c-.23,0-.48-.07-.36-.35a.84.84,0,0,1,.5-.38C267.73,262.93,267.86,263.11,267.84,263.46Z"/><path class="cls-3" d="M265.51,264.27l-.27.32a1,1,0,0,1-.21-.27s.09-.17.13-.16A1.57,1.57,0,0,1,265.51,264.27Z"/><path class="cls-12" d="M262.79,266.19l-.82-.38Z"/><path class="cls-8" d="M286.24,289.67l.12-.2-.11.21Z"/><path class="cls-3" d="M339,236.48l.21.11-.2-.12Z"/><path class="cls-3" d="M269.48,262.36l-.21.19.19-.2Z"/><path class="cls-6" d="M305.82,295.47c0-1.84-1.34-3.16-1.88-4.82a22.72,22.72,0,0,1-.23-12.21c1.38-6.12,3.57-12,7.5-17,1.59-2,2.87-4.39,5.2-5.78a1,1,0,0,0,1-.5v0l.49-.49h0a4.48,4.48,0,0,0,2.64-.91,12.83,12.83,0,0,1,8.54-1.32c4.07.75,5.64,4,6.43,7.49,1.43,6.3.27,12.4-2,18.36a66.31,66.31,0,0,1-4.09,8.28,4.55,4.55,0,0,0-.47,2.05,26.75,26.75,0,0,1-8.6,7.83C315.25,299.3,310.41,299.16,305.82,295.47Zm25.47-27c0-1.12.07-2.24,0-3.35-.29-4.36-4.33-7.66-8.18-6.49a13.49,13.49,0,0,0-6.17,3.95c-5.13,5.79-7.83,12.41-7.25,20.29.22,3,1.35,5.35,3.88,6.69a6.65,6.65,0,0,0,7.23-.73C327.73,283.86,330.93,276.9,331.29,268.5Z"/><path class="cls-6" d="M221.82,343.48a3.57,3.57,0,0,0-.12-1.15c-4.08-8.87-2.09-17.26,1.82-25.58a40.13,40.13,0,0,1,10-13.66c.18.34.34.34.48,0h0c1.46.11,2.5-.92,3.76-1.38,7.35-2.68,12.36-.5,13.92,6.59,1.67,7.57-.13,14.72-3.36,21.67-1,2.15-3.09,3.9-2.84,6.59a26.32,26.32,0,0,1-10.52,9.05,11.28,11.28,0,0,1-12.47-1.52c-.08-.32-.21-.59-.58-.65Zm4-15.07c0,1-.06,2.08,0,3.11.32,4.49,3.64,7.54,7.66,7a9.61,9.61,0,0,0,5.73-2.67c5.66-5.79,9.06-12.6,8.62-20.91-.29-5.46-3.14-8.39-7.66-8a9.32,9.32,0,0,0-5.28,2.54C229.38,314.51,226,320.73,225.86,328.41Z"/><path class="cls-10" d="M245.46,336.55c-.25-2.69,1.84-4.44,2.84-6.59,3.23-6.95,5-14.1,3.36-21.67-1.56-7.09-6.57-9.27-13.92-6.59-1.26.46-2.3,1.49-3.76,1.38a15,15,0,0,1,12.3-4.34c5.7,2.24,7.44,7,7.88,12.52A39.57,39.57,0,0,1,245.46,336.55Z"/><path class="cls-1" d="M124.13,346.67c3.49-2.88,5.15-6.8,6.24-11,2,.88,3.37,2.81,5.5,3.56.72.25,1,.86.15,1.36C132.13,342.73,128.73,345.87,124.13,346.67Z"/><path class="cls-1" d="M119.77,349.06l3-1.45C122.38,349.34,121,349.05,119.77,349.06Z"/><path class="cls-6" d="M132.24,317.56a1.14,1.14,0,0,1,1.09,1A1.64,1.64,0,0,1,132.24,317.56Z"/><path class="cls-11" d="M221.89,343.43c.37.06.5.33.58.65C222.21,343.92,221.8,343.9,221.89,343.43Z"/><path class="cls-1" d="M122.75,347.65l.51-.37Z"/><path class="cls-10" d="M90.16,213.24c0-15.09,0-30.19,0-45.29a4,4,0,0,1,2.32-4.14c7.19-4,14.25-8.17,21.38-12.24,2.19-1.25,2.26-1.17,2.26,1.41q0,45.65,0,91.3a3.62,3.62,0,0,1-2,3.62q-11,6.27-21.91,12.75c-2,1.18-2,.19-2-1.4Q90.19,236.26,90.16,213.24Zm23-18.52q0-19.36,0-38.72c-.26-.59-.58-.53-.94-.09l-.64.07c-5.5,3.19-11,6.47-16.54,9.52a4,4,0,0,0-2.38,4.11c.06,11.71,0,23.42,0,35.13.14,2.57,1.5,1.56,2.66.87,4.9-2.88,9.76-5.82,14.68-8.66C111.13,196.29,112.63,196.21,113.17,194.72Z"/><path class="cls-15" d="M71.53,189.51c-.61-.46-.49-1.13-.49-1.75q0-22.71,0-45.43c0-.31.07-.63.1-1L81.42,147q2.92,8.36,5.86,16.73a34.64,34.64,0,0,0-.38,8.14q0,7.16,0,14.33c0,1-.09,2.07-.1,3.1q-.12,11.85-.23,23.71a15.53,15.53,0,0,0,0,4.86l.14,16.25c0,.06-.12.12-.11.16a1.81,1.81,0,0,0,.16.35c0,3,.09,6,.13,9.08q0,7.16,0,14.32a44.76,44.76,0,0,0,.35,8.58c-3.51-1.46-6.56-3.74-9.89-5.52-1.83-1-3.62-2-5.4-3.09-.65-.38-1.55-.6-1.52-1.64q0-4.44,0-8.88c0-.77,0-1.53-.07-2.29l.09-12.1a3.62,3.62,0,0,0-.4-2.14c1-1.58.11-3.39.6-5a1.67,1.67,0,0,0,.36-1.34V195.39c0-.55.07-1.13-.43-1.55l-.11-.51c.65-.51.61-1.9,2-1.53,1,2.53,2.16,5,4.51,6.57s5.66.79,6-2.06c.57-4.91,1.34-10-1.24-14.65-1.5-2.31-2.89-4.77-6.32-4.16-2.11.48-3,1.89-3,4,0,1.75-.1,3.49-.15,5.23C72,187.63,72.2,188.68,71.53,189.51Z"/><path class="cls-3" d="M86.55,213q.12-11.85.23-23.71c0-1,.06-2.07.1-3.1l.42,0v57.48h-.43c0-3-.09-6-.13-9.08,0-.17,0-.34,0-.51q-.07-8.13-.14-16.25A9.64,9.64,0,0,0,86.55,213Z"/><path class="cls-2" d="M86.87,243.66h.43q0,6.4,0,12.81c0,.54.11,1.13-.43,1.52Q86.9,250.83,86.87,243.66Z"/><path class="cls-2" d="M87.3,186.17l-.42,0q0-7.17,0-14.33c.91,1.46.38,3.07.42,4.61C87.4,179.67,87.31,182.92,87.3,186.17Z"/><path class="cls-3" d="M94.53,159.33a7.47,7.47,0,0,1,4.81-2.89A13.69,13.69,0,0,1,94.53,159.33Z"/><path class="cls-3" d="M99.33,156.45c.65-1.46,1.92-1.84,3.36-1.93A5.81,5.81,0,0,1,99.33,156.45Z"/><path class="cls-3" d="M102.68,154.53c.07-1.14,1-1.14,1.79-1.43C104.42,154.26,103.53,154.36,102.68,154.53Z"/><path class="cls-3" d="M92.6,160.44a.88.88,0,0,1,1-.65Z"/><path class="cls-3" d="M93.57,159.81c.17-.48.57-.5,1-.5A1,1,0,0,1,93.57,159.81Z"/><path class="cls-11" d="M220.08,207.23c1.27.68,2.77,1,3.49,2.48A90.56,90.56,0,0,0,221,231.9a6.36,6.36,0,0,0,2.81,5.44,79,79,0,0,0,11.74,6.84c1.06.52,1.78.46,2.45-.47.67-.17.83-.67.81-1.28-.15-3.09.36-6.16.43-9.24a106.1,106.1,0,0,0-.41-14.48c1.21-.44,1.84.64,2.62,1.13,2.88,1.79,5.66,3.74,8.47,5.63.14,3.26.29,6.51.42,9.77a61,61,0,0,0,.38,7.63c.22,1.4.79,3.33-.76,4.23-2.21,1.27-2.19,3.16-2,5.13a5,5,0,0,1-2.3,4.9c-1.9,1.44-3.77,2.92-5.63,4.41-.52.42-1.44.76-1,1.65s1.29.34,1.89.09c2.65-1.08,5.27-2.24,7.9-3.37l-1.92,5.85c-2.73,1.17-2.75,1.23-.95,2.83-1.38,1-3,.55-4.39.43a117.8,117.8,0,0,1-27.83-6.18,131.42,131.42,0,0,1-28.89-14.57c-6.65-4.31-12.6-9.5-16.79-16.33-1.64-2.67-3.09-5.57-3.12-8.88l.95.45a4.58,4.58,0,0,0,2.84.51c.89,1.35,2.49,1.31,3.77,1.82a242,242,0,0,1,29.14,13.63,4,4,0,0,0,4,.39c3-1.46,6.08-2.76,9.12-4.12a2,2,0,0,0,1.43-1.71c.26-2.52.6-5,1-7.54C218.16,220.07,219.13,213.65,220.08,207.23Zm-2.41,33.07a26.66,26.66,0,0,0-7.42,2.34c-1.36.68-1.19,1.13,0,1.87,5,3.09,10,6.26,14.92,9.4,4.8,3,4.8,3,9-.72.18-.16.36-.32.52-.49,1.56-1.68,1.51-2.79-.36-4.11-2.2-1.56-4.42-3.11-6.76-4.45C224.6,242.41,221.6,240.55,217.67,240.3Z"/><path class="cls-13" d="M220.08,207.23c-1,6.42-1.92,12.84-2.86,19.26-.36,2.5-.7,5-1,7.54a2,2,0,0,1-1.43,1.71c-3,1.36-6.12,2.66-9.12,4.12a4,4,0,0,1-4-.39,242,242,0,0,0-29.14-13.63c-1.28-.51-2.88-.47-3.77-1.82,7.57-4.84,15.5-9.07,23.29-13.54,5.44-3.13,10.78-6.44,16.49-9.08,2.62.23,4.54,2.06,6.83,3A40.19,40.19,0,0,1,220.08,207.23Z"/><path class="cls-16" d="M208.54,201.4c-5.71,2.64-11,5.95-16.49,9.08-7.79,4.47-15.72,8.7-23.29,13.54a4.58,4.58,0,0,1-2.84-.51,7.65,7.65,0,0,1,.58-1.54c5.4-8.55,12.32-15.81,19.5-22.83,2.05-2,4.22-3.86,6.34-5.79a4.93,4.93,0,0,1,1.61.16c4.69,2.29,9.34,4.63,14,7A1,1,0,0,1,208.54,201.4Z"/><path class="cls-15" d="M238,243.71c-.67.93-1.39,1-2.45.47a79,79,0,0,1-11.74-6.84A6.36,6.36,0,0,1,221,231.9a90.56,90.56,0,0,1,2.6-22.19c1.15-.2,1.92.54,2.8,1.07,2.84,1.72,5.74,3.34,8.55,5.1,1,.6,2.28.91,2.49,2.33-.64,1.22,0,2.49-.14,3.68-.85,6.1-.18,12.21-.35,18.31A4.64,4.64,0,0,0,238,243.71Z"/><path class="cls-13" d="M248.86,259.91c-2.63,1.13-5.25,2.29-7.9,3.37-.6.25-1.42.85-1.89-.09s.46-1.23,1-1.65c1.86-1.49,3.73-3,5.63-4.41a5,5,0,0,0,2.3-4.9c-.24-2-.26-3.86,2-5.13,1.55-.9,1-2.83.76-4.23a61,61,0,0,1-.38-7.63c-.13-3.26-.28-6.51-.42-9.77,2.15,1.36,4.32,2.68,6.41,4.11a2.2,2.2,0,0,1,1.23,2.11c.1,2.57-.85,5.07-.53,7.66h0c-.43.2-.46.58-.47,1C253.66,246.73,250.62,253.07,248.86,259.91Z"/><path class="cls-13" d="M192.34,193.35c-2.12,1.93-4.29,3.79-6.34,5.79-7.18,7-14.1,14.28-19.5,22.83a7.65,7.65,0,0,0-.58,1.54l-.95-.45c-.92-.94-.28-1.7.27-2.51A129.89,129.89,0,0,1,187,195.79a14.29,14.29,0,0,0,2.08-1.95C190.05,192.55,191.1,192.56,192.34,193.35Z"/><path class="cls-13" d="M238,243.71a4.64,4.64,0,0,1-1.05-3.51c.17-6.1-.5-12.21.35-18.31.16-1.19-.5-2.46.14-3.68l1.39.51a105.91,105.91,0,0,1,.41,14.47c-.07,3.08-.58,6.15-.43,9.24C238.8,243,238.64,243.54,238,243.71Z"/><path class="cls-11" d="M257,239.35c-.32-2.59.63-5.09.53-7.66.37-.16.52-1.06,1.18-.14a4.27,4.27,0,0,1,.45,4.23A20.57,20.57,0,0,1,257,239.35Z"/><path class="cls-2" d="M162.66,226.84c-1.37,0-1.18-2.42-2.91-1.84a6.24,6.24,0,0,1,2.4-4.33C161.61,222.78,162.22,224.8,162.66,226.84Z"/><path class="cls-15" d="M246,268.59c-1.8-1.6-1.78-1.66.95-2.83C246.86,266.79,247.25,268,246,268.59Z"/><path class="cls-2" d="M163.09,219.26c-.06-.74-.06-1.46,1-1.47A1.58,1.58,0,0,1,163.09,219.26Z"/><path class="cls-2" d="M184.7,251.26c-.87.15-1.53,0-1.46-1.1A2.64,2.64,0,0,1,184.7,251.26Z"/><path class="cls-2" d="M186.14,252.23c-.75.08-1.51.16-1.43-1A2,2,0,0,1,186.14,252.23Z"/><path class="cls-2" d="M187.6,253.14c-.78.15-1.5.2-1.47-.93A2.06,2.06,0,0,1,187.6,253.14Z"/><path class="cls-2" d="M162.13,220.69a1.28,1.28,0,0,1,1-1.47A1.69,1.69,0,0,1,162.13,220.69Z"/><path class="cls-11" d="M256.53,240.32c0-.4,0-.78.47-1A1,1,0,0,1,256.53,240.32Z"/><path class="cls-2" d="M163.53,228.86l-.43-.78Z"/><path class="cls-2" d="M163,227.41c-.1-.19-.21-.38-.32-.57C162.94,226.91,163,227.14,163,227.41Z"/><path class="cls-2" d="M182.8,249.89l-.56-.44Z"/><path class="cls-2" d="M182.21,249.43l-.49-.37Z"/><path class="cls-2" d="M181.39,248.92l-.58-.53Z"/><path class="cls-9" d="M89.75,142.07c1.81-2.17,4.56-2.94,6.8-4.48s4.47-2.62,6.73-3.9a2,2,0,0,1,1.8-.25c-2.83,2.44-6.17,4.09-9.42,5.82C93.74,140.29,92.13,142,89.75,142.07Z"/><path class="cls-9" d="M105.09,133.44c.4-1.52,1.72-1.65,2.93-1.94C107.49,132.82,106.32,133.17,105.09,133.44Z"/><path class="cls-9" d="M87.81,143.05a1.88,1.88,0,0,1,1.94-1C89.61,143.4,88.57,142.94,87.81,143.05Z"/><path class="cls-11" d="M65.31,235c.43-3.8-.23-7.69.87-11.45,0,.65.1,1.29.14,1.93l0,.93v13.34l.06.67-.09,15.82a2.11,2.11,0,0,1-.16.34c-1.2-.22-.61-1.24-.86-1.89q-.06-8.4-.14-16.81c-.05-.26-.1-.52-.14-.78Z"/><path class="cls-9" d="M55.12,231.33a81.13,81.13,0,0,0-11.53-2.71A18,18,0,0,1,55.38,231Z"/><path class="cls-9" d="M57.33,232A7.35,7.35,0,0,1,62,234.82c-.15.54-.31,1.08-.46,1.62h-2c0-.17,0-.34,0-.51.38-.59,1.17-.23,1.74-.74L57,232.31C57.12,232.2,57.22,232.1,57.33,232Z"/><path class="cls-4" d="M59.53,235.94c0,.17,0,.34,0,.51-2.9.15-5.5,1.32-8.12,2.42h0C53.51,236.24,56.5,236,59.53,235.94Z"/><path class="cls-4" d="M61.5,236.44c.15-.54.31-1.08.46-1.62.79.57,1.89.87,1.89,2.14h0Z"/><path class="cls-9" d="M57,232.31a2.41,2.41,0,0,1-1.9-1l.26-.31c.71.2,1.63,0,1.95,1C57.22,232.1,57.12,232.2,57,232.31Z"/><path class="cls-4" d="M51.4,238.87a1.06,1.06,0,0,1-.95.82c-.27,0-.39-.19-.24-.43.28-.45.73-.45,1.19-.39Z"/><path class="cls-4" d="M65,237.1c0,.26.09.52.14.78a1.2,1.2,0,0,1-1.29-.93h0Z"/><path class="cls-12" d="M127.12,313.16a2.06,2.06,0,0,1,1.86,1.43h-.33A3.8,3.8,0,0,1,127.12,313.16Z"/><path class="cls-6" d="M128.65,314.58h.87l0,.9Z"/><path class="cls-12" d="M126.64,312.69c.72-.43.33.3.48.47Z"/><path class="cls-1" d="M52.15,277.16A52.12,52.12,0,0,0,61,268.91a28.21,28.21,0,0,0,5.21-11.35c3.35,1.24,6.28,3.29,9.34,5.05,1.59.92,0,1.69-.78,2.16-4,2.35-8,4.64-11.94,7l-8.22,4.8A3.6,3.6,0,0,1,52.15,277.16Z"/><path class="cls-2" d="M66.31,256.24q0-7.92.08-15.82c.89.81,1.07,2.19,2.26,2.76h0a6.43,6.43,0,0,0,1.8,4.24q0,4.44,0,8.88Z"/><path class="cls-4" d="M60,218.32c-3.32-2.45-6.49-5.12-10.35-6.78-1-.41-2.22-.3-3-1.35,3.22-.23,10.59,4.06,13.6,7.84Z"/><path class="cls-4" d="M64.67,222.08l.14,1.44a9.17,9.17,0,0,1-3-3.26l.34-.29Z"/><path class="cls-4" d="M61,218.71c.61.22.87.75,1.18,1.26l-.34.29A2.07,2.07,0,0,1,60.78,219Z"/><path class="cls-4" d="M60.78,219l-.81-.69.24-.29.8.68Z"/><path class="cls-6" d="M81.77,295.59l1.42-.1A1.2,1.2,0,0,1,81.77,295.59Z"/><path class="cls-4" d="M128.05,262.69a8.61,8.61,0,0,1-.93,4.73c-.62,1.36-1.33,1.34-2.37.46-2.45-2.07-2.54-6.73-.18-9a2.36,2.36,0,0,1,2.59-.72c1.07.39.87,1.38.89,2.24C128.07,261.06,128.05,261.7,128.05,262.69Z"/><path class="cls-2" d="M159.26,225.53l-.45.42Z"/><path class="cls-2" d="M159.73,225l-.42.47Z"/><path class="cls-9" d="M72.25,186.69c0-1.74.13-3.48.15-5.23,0-2.07.88-3.48,3-4,1.73,1.38,3.89,2.24,5.06,4.31.32.56.91.54,1.26-.15,2.58,4.69,1.81,9.74,1.24,14.65-.33,2.85-3.5,3.73-6,2.06s-3.49-4-4.51-6.57c-.12-1.43.8-2.16,1.88-2.78,1.94,1.56,3.53,1.39,5.29-.54a4.9,4.9,0,0,0-2.36-5.32c-2.78-.65-4.15.78-4.21,4.44l-.43.68C72.06,187.85,72.49,187.19,72.25,186.69Z"/><path class="cls-1" d="M70.5,193.33l.11.51q0,15.78-.11,31.57c-.75,0-.76-.63-1-1.11a23.74,23.74,0,0,0-3.16-5.48c-.07-5.18-.27-10.35-.16-15.52A13.91,13.91,0,0,1,70.5,193.33Z"/><path class="cls-2" d="M73.05,187.6c.06-3.66,1.43-5.09,4.21-4.44.62,1.85,2.13,3.3,2.36,5.32-1.76,1.93-3.35,2.1-5.29.54.25-.63,1.47-.93,1-1.7C74.57,186.17,73.87,187.9,73.05,187.6Z"/><path class="cls-8" d="M66.36,218.82a23.74,23.74,0,0,1,3.16,5.48c.22.48.23,1.12,1,1.11l.18.46c-.49,1.64.35,3.45-.6,5-1.46-1.66-1.75-4.14-3.76-5.42,0-.64-.09-1.28-.14-1.93Z"/><path class="cls-13" d="M297.26,229.75c.06-4-.14-7.56.46-11.12a4.48,4.48,0,0,1,3.27-3.87c7.19-2.7,14.21,1.62,17,5.81,2.62,3.91,1.65,7.14-2.46,9.44-5.27,3-10.51,6-15.67,9.09-1.49.9-1.95.48-2.29-.93C296.89,235.25,297.52,232.29,297.26,229.75Z"/><path class="cls-15" d="M274.8,253.31c-3.77,2.23-7.56,4.41-11.29,6.7-1.06.65-1.45-.12-2-.61-1.22-1.12-2.74-2.12-1.94-4.19a136.38,136.38,0,0,1,5.77-13.39,60,60,0,0,1,4.61-6.93c.92-1.31,1.81-1.37,2.94-.4,1.3,1.12,3.07,1.84,3.26,3.9a1.61,1.61,0,0,0-.94,1.75C275.59,244.54,274.47,248.9,274.8,253.31Z"/><path class="cls-13" d="M282.47,228.66a3.81,3.81,0,0,0,1.37-3.37,1.65,1.65,0,0,1,.94-1.77c2.37-1.31,4.67-2.73,7.08-4,1.67-.86,2.55-.18,2.55,1.72,0,6.05,0,12.11,0,18.17-.05,4.07-3.72,4.65-6.48,6.61a88.42,88.42,0,0,1-.6-9C287.41,233.26,286.84,230,282.47,228.66Z"/><path class="cls-13" d="M274.8,253.31c-.33-4.41.79-8.77.43-13.17a1.61,1.61,0,0,1,.94-1.75c1.65,4.24.85,8.66.8,13C277,252.38,275.89,253.07,274.8,253.31Z"/><path class="cls-2" d="M258.44,266.14c-.27.44-.56.6-.91.07C257.82,266.05,258.1,265.68,258.44,266.14Z"/><path class="cls-2" d="M158.76,230.31c.85-1.09,1.85-.52,2.52,0a20.75,20.75,0,0,1,5.65,8c-1.64-.82-2.35-2.48-3.36-3.84C162.26,232.74,161,231,158.76,230.31Z"/><path class="cls-2" d="M166.94,238.36a2.9,2.9,0,0,1,2.4,2.87C168.24,240.52,167.13,239.83,166.94,238.36Z"/><path class="cls-2" d="M177.91,249a1.34,1.34,0,0,1,1.47,1.4A1.34,1.34,0,0,1,177.91,249Z"/><path class="cls-2" d="M179.38,250.35c.82,0,1.56.09,1.88,1C180.45,251.37,179.71,251.25,179.38,250.35Z"/><path class="cls-2" d="M174.08,245.6c1,0,1,.68,1,1.37A1.33,1.33,0,0,1,174.08,245.6Z"/><path class="cls-10" d="M317.39,255.14a1,1,0,0,1-1,.5A1,1,0,0,1,317.39,255.14Z"/><path class="cls-10" d="M317.87,254.67l-.49.49Z"/><path class="cls-10" d="M234,303.07c-.14.36-.3.36-.48,0A2.57,2.57,0,0,1,234,303.07Z"/><path class="cls-9" d="M207.73,302.53a18.21,18.21,0,0,1,5.45.7c3.58,1.13,4.65,3.54,2.79,6.81a19,19,0,0,1-14.26,9.76,15.79,15.79,0,0,1-8-.42c-4.91-1.87-6-6.51-2.32-10.23A22.43,22.43,0,0,1,207.73,302.53Zm-.36,1.62c-2-.7-4,.36-6,1-1.37.46-3.06,1.26-3.18,2.92s1.13,2.73,2.52,3.5a11.48,11.48,0,0,0,8,1.28,7.86,7.86,0,0,0,4-2,4.32,4.32,0,0,0,1.55-4.27c-.36-1.62-1.85-2.15-3.27-2.4A21.41,21.41,0,0,0,207.37,304.15Z"/><path class="cls-9" d="M221.12,299.77c.91.05,2.37.05,2.29,1.87s-.83,3.06-2.76,3.32a1.5,1.5,0,0,1-.7,0c-1.65-.64-3.73-.83-4.12-3C215.66,300.9,218.49,299.75,221.12,299.77Z"/><path class="cls-11" d="M149.27,288.25c1.53.24,2-.55,1.83-1.92,1.18.08,2.83-.59,3.11,1.22.24,1.61-.84,2.81-2.15,3.69-1,.68-1.7.05-2.13-.74A10.86,10.86,0,0,1,149.27,288.25Z"/><path class="cls-10" d="M331.29,268.5c-.36,8.4-3.56,15.36-10.5,20.36a6.65,6.65,0,0,1-7.23.73c-2.53-1.34-3.66-3.73-3.88-6.69-.58-7.88,2.12-14.5,7.25-20.29a13.49,13.49,0,0,1,6.17-3.95c3.85-1.17,7.89,2.13,8.18,6.49C331.36,266.26,331.29,267.38,331.29,268.5Zm-15.82,9.11c0,1.76.19,3.53,2,4.28s3.26-.32,4.43-1.58a13.23,13.23,0,0,0,3.74-9.76,3.72,3.72,0,0,0-2.18-3.64c-1.41-.58-2.67.26-3.67,1.19A13.09,13.09,0,0,0,315.47,277.61Z"/><path class="cls-10" d="M225.86,328.41c.16-7.68,3.52-13.9,9.08-18.92a9.32,9.32,0,0,1,5.28-2.54c4.52-.38,7.37,2.55,7.66,8,.44,8.31-3,15.12-8.62,20.91a9.61,9.61,0,0,1-5.73,2.67c-4,.52-7.34-2.53-7.66-7C225.8,330.49,225.86,329.45,225.86,328.41Zm16.23-8.94c-.21-1.56-.33-3.36-2.14-4.13s-3.12.31-4.26,1.46a13.15,13.15,0,0,0-4,9.92,3.65,3.65,0,0,0,2,3.55c1.36.58,2.68-.09,3.73-1C240.4,326.73,241.66,323.36,242.09,319.47Z"/><path class="cls-2" d="M92.65,235.43c0-11.72.1-54.11,0-65.82a4,4,0,0,1,2.38-4.11c5.58-3.05,11-6.33,16.54-9.52.06.87.15,1.75.15,2.62,0,11.9,0,54.48,0,66.38L94.19,235.24A1.42,1.42,0,0,1,92.65,235.43Z"/><path class="cls-11" d="M111.77,225c0-11.9,0-54.48,0-66.38,0-.87-.09-1.75-.15-2.62l.64-.07.94.09c0,12.9,0,56.49,0,69.4Z"/><path class="cls-6" d="M111.77,225l1.41.42c-.55,1.49-2.05,1.57-3.19,2.23-4.92,2.84-9.78,5.78-14.68,8.66-1.16.69-2.52,1.7-2.66-.86a1.42,1.42,0,0,0,1.54-.19Z"/><path class="cls-6" d="M113.19,156l-.94-.09C112.61,155.47,112.93,155.41,113.19,156Z"/><path class="cls-2" d="M66.34,239.75q0-6.67,0-13.34c1.78,2,2.23,4.75,4.13,6.63l-.09,12.1c-.91-.36-.39-2-1.73-1.95h0A3.19,3.19,0,0,0,66.34,239.75Z"/><path class="cls-13" d="M70.68,225.87l-.18-.46q.06-15.78.11-31.57c.5.42.43,1,.43,1.55v29.14A1.67,1.67,0,0,1,70.68,225.87Z"/><path class="cls-4" d="M81.71,181.66c-.35.69-.94.71-1.26.15-1.17-2.07-3.33-2.93-5.06-4.31C78.82,176.89,80.21,179.35,81.71,181.66Z"/><path class="cls-4" d="M70.48,233c-1.9-1.88-2.35-4.67-4.13-6.63l0-.93c2,1.28,2.3,3.76,3.76,5.42A3.62,3.62,0,0,1,70.48,233Z"/><path class="cls-9" d="M68.66,243.19c1.34,0,.82,1.59,1.73,1.95,0,.76,0,1.52.07,2.29A6.43,6.43,0,0,1,68.66,243.19Z"/><path class="cls-5" d="M86.55,213a9.64,9.64,0,0,1,0,4.86A15.53,15.53,0,0,1,86.55,213Z"/><path class="cls-5" d="M86.69,234.07c0,.17,0,.34,0,.51a1.81,1.81,0,0,1-.16-.35S86.65,234.13,86.69,234.07Z"/><path class="cls-15" d="M217.67,240.3c3.93.25,6.93,2.11,10,3.84,2.34,1.34,4.56,2.89,6.76,4.45,1.87,1.32,1.92,2.43.36,4.11-.16.17-.34.33-.52.49-4.24,3.77-4.24,3.76-9,.72-5-3.14-9.92-6.31-14.92-9.4-1.2-.74-1.37-1.19,0-1.87A26.66,26.66,0,0,1,217.67,240.3Zm-.44,5.28c.34.56.91.47,1,.2,1.93,1.85,3.66,3,5.94,3.25a10.14,10.14,0,0,0-5.52-3c-.35-.57-.91-.47-1.44-.48-.17-1-.77-1.26-1.83-1.15A2.06,2.06,0,0,0,217.23,245.58Zm11.17,2.09c-.13,0-.26-.12-.4-.16s-.31,0-.11.18a1,1,0,0,0,.39.16s.08-.11-.47-.16c-.22-1.84-1.55-1.61-3-2.19C225.61,247,226.66,247.09,228.4,247.67Zm-3.8-2.45c-1.15-.84-1.94-1.58-3.45-1.34C222.1,245,222.88,245.71,224.6,245.22Zm1.93,5.49c-.18-.68-.53-1.05-1.11-1.12a.32.32,0,0,0-.35.45C225.27,250.61,225.69,250.87,226.53,250.71Zm-6.63-7.65-.39-.17c-.06.13-.19.29-.15.38s.24.12.37.18Zm8.06,8.88c.13.06.29.18.38.15s.13-.24.18-.37c-.13-.06-.29-.19-.38-.15S228,251.81,228,251.94Z"/><path class="cls-9" d="M66.34,239.75a3.19,3.19,0,0,1,2.31,3.43c-1.19-.57-1.37-2-2.26-2.76C66.38,240.19,66.36,240,66.34,239.75Z"/><path class="cls-15" d="M79.62,188.48c-.23-2-1.74-3.47-2.36-5.32A4.9,4.9,0,0,1,79.62,188.48Z"/><path class="cls-4" d="M207.37,304.15a21.41,21.41,0,0,1,3.62,0c1.42.25,2.91.78,3.27,2.4a4.32,4.32,0,0,1-1.55,4.27,7.86,7.86,0,0,1-4,2,11.48,11.48,0,0,1-8-1.28c-1.39-.77-2.64-1.91-2.52-3.5s1.81-2.46,3.18-2.92C203.39,304.51,205.4,303.45,207.37,304.15Z"/><path class="cls-4" d="M315.47,277.61a13.09,13.09,0,0,1,4.3-9.51c1-.93,2.26-1.77,3.67-1.19a3.72,3.72,0,0,1,2.18,3.64,13.23,13.23,0,0,1-3.74,9.76c-1.17,1.26-2.65,2.33-4.43,1.58S315.44,279.37,315.47,277.61Z"/><path class="cls-4" d="M242.09,319.47c-.43,3.89-1.69,7.26-4.64,9.8-1,.91-2.37,1.58-3.73,1a3.65,3.65,0,0,1-2-3.55,13.15,13.15,0,0,1,4-9.92c1.14-1.15,2.54-2.19,4.26-1.46S241.88,317.91,242.09,319.47Z"/><path class="cls-11" d="M97,250.8c.38-2.47,2.34-2.9,3.8-3.85,2.46-1.59,5.07-2.93,7.63-4.34.37-.21.85-.65,1.27-.15a.81.81,0,0,1-.28,1.23C105.3,246.08,101.15,248.43,97,250.8Z"/><path class="cls-11" d="M109.84,239.34a1,1,0,0,1-.66,1l-11.4,6.84c-.37.22-.82.26-1-.14s.17-.72.42-1c1-1.21,2.55-1.58,3.82-2.37,2.42-1.5,4.89-2.92,7.37-4.31C108.78,239.06,109.44,238.38,109.84,239.34Z"/><path class="cls-11" d="M96.6,243.86c.35-1.69,1.79-1.85,2.75-2.51a82.2,82.2,0,0,1,9.21-5.37c.39-.2.8-.76,1.19-.17s-.06,1.09-.51,1.41c-.65.44-1.38.74-2.06,1.13-2.54,1.45-5.06,2.94-7.63,4.36A6.38,6.38,0,0,1,96.6,243.86Z"/><path class="cls-13" d="M218.25,245.78a12.1,12.1,0,0,1,5.94,3.25C221.91,248.82,220.18,247.63,218.25,245.78Z"/><path class="cls-13" d="M224.6,245.22c-1.72.49-2.5-.27-3.45-1.34C222.66,243.64,223.45,244.38,224.6,245.22Z"/><path class="cls-13" d="M227.81,247.69c-1.15-.6-2.2-.73-3-2.19C226.26,246.08,227.59,245.85,227.81,247.69Z"/><path class="cls-13" d="M217.23,245.58a2.06,2.06,0,0,1-1.83-1.15c1.06-.11,1.66.14,1.83,1.15Z"/><path class="cls-13" d="M226.53,250.71c-.84.16-1.26-.1-1.46-.67a.32.32,0,0,1,.35-.45C226,249.66,226.35,250,226.53,250.71Z"/><path class="cls-13" d="M219.9,243.06l-.17.39c-.13-.06-.33-.09-.37-.18s.09-.25.15-.38Z"/><path class="cls-13" d="M228,251.94c.06-.13.09-.33.18-.37s.25.09.38.15c-.05.13-.08.33-.18.37S228.09,252,228,251.94Z"/><path class="cls-13" d="M218.67,246.06c-.53,0-1.1.08-1.44-.48h0C217.76,245.59,218.32,245.49,218.67,246.06Z"/><path class="cls-13" d="M228.4,247.67c0,.07-.09.19-.12.18a1,1,0,0,1-.39-.16c-.2-.18-.15-.26.11-.18S228.27,247.62,228.4,247.67Z"/><path class="cls-1" d="M104,168.77c-.33,3.29-.47,6.61-1.07,9.84-.37,2,0,2.76,2,3.2,3.72.79,3.68.94,2.21,4.52-1.78,4.32-3.11,8.83-5.65,12.92.47-3.48.87-7,1.45-10.44.24-1.38.12-2-1.44-2.28-4.3-.87-4.3-1-2.76-5.11s3.24-8.51,4.86-12.76Z"/><path class="cls-1" d="M102.75,210.61a17.39,17.39,0,0,0-3.56,11.72c0,.41.31,1-.26,1.2s-.8-.4-1.05-.74c-2.23-3-2.08-6.24-.7-9.44,2.19-5.06,6.16-8.43,10.92-11,.14-.08.34,0,.51,0l0,0c0,3.83,0,7.67,0,11.5a14,14,0,0,1-2.93,8.09,3.89,3.89,0,0,1-.72.74c-1.1.88-2.42,1.84-3.72,1.26s-.5-2.06-.46-3.12a27.11,27.11,0,0,1,2.78-10.19c.32-.58,1-1,.83-1.93A4.55,4.55,0,0,0,102.75,210.61Z"/><text class="cls-17" transform="matrix(1, -0.6, 0, 1, 202.69, 119.05)">E<tspan class="cls-18" x="24.37" y="0">V</tspan></text></g></g></svg>