<svg xmlns="http://www.w3.org/2000/svg" viewBox="0 0 151.1 82.8"><defs><style>.cls-1{fill:#feddc9;}.cls-2{fill:#ef5033;}.cls-3{fill:#3e2e03;}</style></defs><title>Asset 15</title><g id="Layer_2" data-name="Layer 2"><g id="Layer_1-2" data-name="Layer 1"><rect class="cls-1" width="151.1" height="82.8" rx="14.4"/><path class="cls-2" d="M42,34.72c1.71,1.75,3.07,3.17,4.48,4.55a1.27,1.27,0,0,1,.33,1.36A3.68,3.68,0,0,0,50.25,45a3.76,3.76,0,0,0,3.91-3.63A3.65,3.65,0,0,0,50,37.69a1.6,1.6,0,0,1-1.5-.54c-1-1-2-2.1-3.1-3.09a3.71,3.71,0,0,1-1.48-3.16,3.34,3.34,0,0,0-3.74-3.32,2.08,2.08,0,0,1-2-.77C36.94,25.5,35.66,24.2,34.33,23c-.57-.55-.67-.92,0-1.51C35.55,20.27,36.71,19,38,17.82a3,3,0,0,1,4.59.07Q53,28.24,63.36,38.66c1.57,1.58,1.52,3.33-.09,4.93Q53.06,53.84,42.8,64c-1.64,1.63-3.31,1.65-4.92,0Q27.58,53.81,17.3,43.53c-1.71-1.71-1.72-3.33,0-5,4.48-4.51,9-9,13.47-13.51.67-.68,1-.55,1.56.07.83.92,1.73,1.8,2.65,2.65,1.15,1.06,2.22,2.05,1.84,3.9A2.43,2.43,0,0,0,38,34,2.11,2.11,0,0,1,39,36.1c0,3.49,0,7,0,10.46a2,2,0,0,1-.86,2,3.57,3.57,0,0,0-.39,5.36,3.7,3.7,0,0,0,5.2.11,3.64,3.64,0,0,0-.14-5.39c-.37-.35-.77-.6-.77-1.24C42,43.31,42,39.26,42,34.72Z"/><path class="cls-3" d="M94.28,33.46c3.55,5.24,1,12.09-6.87,12.72a11.5,11.5,0,0,1-4-.17c-.71-.2-1.23-.09-1.5.64-.19.55-1,.92-.64,1.6.42.86,1.09.08,1.65.12a70.52,70.52,0,0,1,9.95.93c2.38.47,4.38,1.4,5,4a7.18,7.18,0,0,1-2.27,7.62c-2.2,1.89-4.92,2.44-7.68,2.69a27.63,27.63,0,0,1-9.33-.6c-5.14-1.32-6.34-5.53-2.71-9.35.11-.11.2-.23.3-.35-2.35-1.91-2.5-3.82-.44-6,.77-.84,2.11-1.48,2.34-2.42S76.63,43.46,76,42.56A8.69,8.69,0,0,1,81.69,29,19.51,19.51,0,0,1,88.38,29a53.67,53.67,0,0,0,8.6.17c1.13,0,1.53.23,1.48,1.45-.09,2.58,0,2.59-2.63,2.79Zm-8.75-.1c-2.89,0-4.37,1.44-4.36,4.24,0,2.43,1.44,3.72,4.13,3.74s4.39-1.47,4.39-3.91C89.7,34.76,88.27,33.37,85.53,33.36Zm-.48,26a10.93,10.93,0,0,0,4.87-.81,2,2,0,0,0,1.24-2c-.12-.9-.86-1.2-1.7-1.32-2.57-.35-5.18-.35-7.76-.63-1.5-.16-2,.67-2.31,1.73a1.85,1.85,0,0,0,1.36,2.42A11.85,11.85,0,0,0,85.05,59.33Z"/><path class="cls-3" d="M116.9,40.37c0-2.08-.05-4.16,0-6.24,0-1-.3-1.42-1.33-1.3-.51.06-1,0-1.56,0s-.86-.2-.8-.82a4.42,4.42,0,0,0,0-1.09c-.26-1.57.27-2.27,2-2.66,2.58-.61,3.54-2.78,4-5.22.12-.61-.08-1.65.6-1.76a16.25,16.25,0,0,1,3.88,0c.36,0,.19.64.19,1,0,1.61,0,3.23,0,4.84,0,.8.2,1.1,1,1.07,1.56-.05,3.13,0,4.69,0,.81,0,1.17.11,1.19,1.07.07,3.59.11,3.59-3.47,3.59s-3.44,0-3.44,3.48c0,2.49,0,5,0,7.48,0,3.28,1.08,4.19,4.33,3.73,2.68-.39,2.63-.37,3.49,2.2.36,1.07.08,1.47-.95,1.86a18.43,18.43,0,0,1-8.11,1.18c-3.44-.28-5.53-2.39-5.66-5.85-.09-2.18,0-4.36,0-6.55Z"/><path class="cls-3" d="M110.66,38.71c0,2.81.08,5.62,0,8.42-.06,1.32.45,1.83,1.62,1.79,1.32,0,1.62.53,1.56,1.77-.11,2.09,0,2.09-2.2,2.09-3.23,0-6.47-.05-9.7,0-1.11,0-1.51-.28-1.34-1.37a5.23,5.23,0,0,0,0-1.25c-.09-.81.12-1.24,1.07-1.21,1.51.05,2.11-.59,2.05-2.24-.15-3.8-.1-7.6,0-11.39,0-1.29-.29-2-1.63-2.35-.5-.11-1.44,0-1.39-.93a21.94,21.94,0,0,1,.5-3.2c0-.1.57-.14.87-.14,2.5,0,5,.06,7.51,0,1.07,0,1.17.4,1.15,1.27C110.63,32.88,110.66,35.8,110.66,38.71Z"/><path class="cls-3" d="M110.69,21c0,2.67-1.47,4.07-4.21,4.06s-4.17-1.53-4.15-4.16,1.49-4,4.26-4S110.7,18.24,110.69,21Z"/></g></g></svg>