<svg xmlns="http://www.w3.org/2000/svg" viewBox="0 0 170.54 82.8"><defs><style>.cls-1{fill:#feddc9;}.cls-2{fill:#ef5033;}.cls-3{fill:#3e2e03;}</style></defs><title>Asset 52</title><g id="Layer_2" data-name="Layer 2"><g id="Layer_1-2" data-name="Layer 1"><rect class="cls-1" width="170.54" height="82.8" rx="14.4"/><path class="cls-2" d="M47.74,34.72c1.71,1.75,3.07,3.17,4.48,4.55a1.27,1.27,0,0,1,.33,1.36A3.68,3.68,0,0,0,56,45a3.76,3.76,0,0,0,3.9-3.63,3.64,3.64,0,0,0-4.14-3.64,1.58,1.58,0,0,1-1.49-.54c-1-1-2-2.1-3.1-3.09a3.69,3.69,0,0,1-1.48-3.16,3.35,3.35,0,0,0-3.74-3.32,2.08,2.08,0,0,1-2-.77C42.67,25.5,41.38,24.2,40.06,23c-.57-.55-.67-.92,0-1.51,1.26-1.17,2.41-2.45,3.67-3.62a3,3,0,0,1,4.59.07Q58.72,28.24,69.09,38.66c1.57,1.58,1.51,3.33-.1,4.93Q58.78,53.84,48.52,64c-1.64,1.63-3.3,1.65-4.92,0Q33.29,53.81,23,43.53c-1.71-1.71-1.72-3.33,0-5,4.48-4.51,9-9,13.47-13.51.67-.68,1-.55,1.56.07.84.92,1.73,1.8,2.65,2.65,1.15,1.06,2.22,2.05,1.84,3.9A2.46,2.46,0,0,0,43.76,34a2.11,2.11,0,0,1,.93,2.1c0,3.49,0,7,0,10.46a2,2,0,0,1-.85,2,3.57,3.57,0,0,0-.4,5.36,3.7,3.7,0,0,0,5.2.11,3.64,3.64,0,0,0-.13-5.39c-.38-.35-.78-.6-.77-1.24C47.76,43.31,47.74,39.26,47.74,34.72Z"/><path class="cls-3" d="M110.82,34.12c3.2,4.73.93,10.93-6.21,11.5a10.24,10.24,0,0,1-3.66-.16c-.64-.18-1.12-.08-1.35.58-.18.5-.9.83-.59,1.45.38.78,1,.07,1.49.1a66.19,66.19,0,0,1,9,.84c2.15.43,4,1.27,4.53,3.64A6.46,6.46,0,0,1,112,59,11.73,11.73,0,0,1,105,61.39a24.92,24.92,0,0,1-8.43-.54c-4.65-1.2-5.73-5-2.45-8.45l.27-.32c-2.12-1.72-2.26-3.45-.4-5.46.7-.76,1.91-1.34,2.12-2.19s-1.28-1.27-1.86-2.09a7.87,7.87,0,0,1,5.16-12.22,17.5,17.5,0,0,1,6-.07,49.27,49.27,0,0,0,7.78.16c1,0,1.38.2,1.34,1.3-.08,2.34,0,2.34-2.38,2.52C111.81,34.07,111.39,34.08,110.82,34.12ZM102.91,34c-2.61,0-4,1.3-3.94,3.83,0,2.2,1.3,3.36,3.73,3.38s4-1.32,4-3.54C106.68,35.3,105.38,34,102.91,34Zm-.44,23.47a9.91,9.91,0,0,0,4.41-.73A1.74,1.74,0,0,0,108,55c-.11-.82-.78-1.1-1.53-1.2-2.34-.32-4.69-.32-7-.57-1.35-.14-1.79.61-2.08,1.56A1.68,1.68,0,0,0,98.59,57,10.67,10.67,0,0,0,102.47,57.5Z"/><path class="cls-3" d="M131.26,40.37c0-1.88,0-3.77,0-5.64,0-.94-.27-1.29-1.2-1.18-.46.05-.94,0-1.41,0s-.78-.18-.73-.73a3.65,3.65,0,0,0,0-1c-.23-1.41.24-2.05,1.77-2.41,2.34-.54,3.2-2.51,3.61-4.71.11-.56-.07-1.49.54-1.59a13.75,13.75,0,0,1,3.51,0c.33,0,.17.57.17.88,0,1.46.05,2.92,0,4.37,0,.73.18,1,.94,1,1.41-.05,2.83,0,4.24,0,.73,0,1.06.1,1.08,1,.06,3.25.09,3.25-3.14,3.25s-3.11,0-3.11,3.14c0,2.26,0,4.51,0,6.77,0,3,1,3.78,3.92,3.36,2.42-.34,2.37-.33,3.15,2,.32,1,.07,1.33-.86,1.69a16.56,16.56,0,0,1-7.33,1.06,5.13,5.13,0,0,1-5.12-5.28c-.08-2,0-3.95,0-5.92Z"/><path class="cls-3" d="M125.62,38.86c0,2.54.08,5.08,0,7.62-.06,1.18.41,1.65,1.46,1.62,1.2,0,1.47.47,1.41,1.59-.1,1.89,0,1.89-2,1.89-2.93,0-5.85,0-8.77,0-1,0-1.37-.26-1.22-1.24a3.82,3.82,0,0,0,0-1.12c-.08-.74.11-1.13,1-1.1,1.37.05,1.91-.54,1.85-2-.13-3.43-.08-6.87,0-10.3,0-1.16-.27-1.83-1.47-2.11-.46-.11-1.31,0-1.26-.85A19.07,19.07,0,0,1,117,30c0-.09.51-.12.79-.12,2.26,0,4.53,0,6.79,0,1,0,1.05.37,1,1.15C125.6,33.6,125.62,36.23,125.62,38.86Z"/><path class="cls-3" d="M125.65,22.84c0,2.41-1.33,3.68-3.8,3.67a3.43,3.43,0,0,1-3.76-3.77c0-2.38,1.36-3.65,3.85-3.64S125.66,20.36,125.65,22.84Z"/></g></g></svg>