<svg xmlns="http://www.w3.org/2000/svg" viewBox="0 0 253.08 82.8"><defs><style>.cls-1{fill:#010205;}.cls-2,.cls-3{fill:#fff;}.cls-3{stroke:#010205;stroke-miterlimit:10;stroke-width:2px;}</style></defs><title>Asset 75</title><g id="Layer_2" data-name="Layer 2"><g id="Layer_1-2" data-name="Layer 1"><rect class="cls-1" width="253.08" height="82.8" rx="14.4"/><path class="cls-2" d="M58.64,52.75c.94-.19,1.71-.32,2.47-.49,5-1.15,7.59-3.84,8.32-9,.44-3.08.19-6-1.92-8.61-.21-.26-.15-.77-.16-1.17-.07-1.59-.08-3.18-.18-4.77a.91.91,0,0,0-1.32-.88c-1.58.58-3.15,1.18-4.67,1.89a2.7,2.7,0,0,1-2,.36,23.06,23.06,0,0,0-10.29,0,2.81,2.81,0,0,1-1.52-.24c-1.64-.64-3.24-1.38-4.88-2a.94.94,0,0,0-1.4.91C41,30.35,41,32,41,33.54a2.41,2.41,0,0,1-.19,1.16c-5.1,7.33-1.23,16.45,7.58,17.81l1,.2c-.39,1-.74,2-1.16,2.92a1.32,1.32,0,0,1-.67.58,5,5,0,0,1-6.23-1.92,10.8,10.8,0,0,0-2.72-2.5c-.54-.36-1.42-.21-2.15-.29l-.15.43c.3.31.62.62.91,1,.81.94,1.93,1.76,2.35,2.86,1,2.76,3.59,4.24,7.31,3.81l1.22-.2c0,1.62.07,3.17,0,4.72-.05.88-.85,1.17-2,.79a21.58,21.58,0,0,1-7.35-4.15c-7.63-6.71-10.6-15.1-7.95-24.94S40.18,20,50.17,18.16C61.41,16,72.81,22.7,76.86,33.53a24.15,24.15,0,0,1-10,29.1,31.79,31.79,0,0,1-4.56,2.18c-1.41.57-2.08,0-2.1-1.49s0-3.22,0-4.83C60.21,56.46,60.2,54.47,58.64,52.75Z"/><path class="cls-3" d="M192.86,56.48a12.42,12.42,0,0,1-9,1.68c-2.74-.53-4.43-2.15-4.63-4.92-.23-3.17-.15-6.36-.19-9.53,0-1.58,0-3.15,0-4.73,0-.7.24-1,.95-1,1.45,0,2.89,0,4.34,0,.79,0,1.07.23,1.06,1,0,3.72,0,7.45,0,11.18,0,2.6,1,3.41,3.56,2.89a5.07,5.07,0,0,0,.56-.13c1.53-.44,1.6-.56,1.6-2.12,0-3.89,0-7.77,0-11.66,0-.9.25-1.26,1.2-1.21,1.38.08,2.76,0,4.15,0,.65,0,.92.22.92.89q0,9,0,18c0,.68-.29.91-.93.89a17,17,0,0,0-2,0C193.49,58,192.82,57.77,192.86,56.48Z"/><path class="cls-3" d="M137,47.88c0,2.92,0,5.84,0,8.77,0,.88-.29,1.2-1.17,1.17-1.34,0-2.69,0-4,0-.76,0-1.13-.25-1.12-1q0-8.86,0-17.73c0-.71.22-1.06,1-1,1.48,0,3,0,4.43,0,.69,0,.89.27.88.92,0,3,0,6,0,9Z"/><path class="cls-3" d="M121.37,46.37c-1.2,0-2.22,0-3.25,0-.65,0-.94-.19-.92-.87,0-1.29,0-2.58,0-3.86,0-.63.26-.85.87-.84h8.78c.56,0,.82.22.82.8,0,4.63,0,9.26,0,13.89a1.55,1.55,0,0,1-.78,1,17,17,0,0,1-10.78,1.67c-6-.85-9.33-4.06-10.38-10.09a27.2,27.2,0,0,1,.43-11.67c1.41-5.34,4.86-8.22,10.36-8.68a22.06,22.06,0,0,1,9,.94c.87.29,1.17.73.89,1.64-.33,1.08-.58,2.18-.8,3.28-.15.77-.48.91-1.21.68a15.62,15.62,0,0,0-6.86-.54,5.66,5.66,0,0,0-5,4.1,17,17,0,0,0,0,10.72,5.26,5.26,0,0,0,5,3.84,21,21,0,0,0,3.17-.13.92.92,0,0,0,.63-.61C121.39,50,121.37,48.22,121.37,46.37Z"/><path class="cls-3" d="M170.12,45.4h-8.31v1.19c0,3.38,0,6.75,0,10.13,0,.85-.27,1.14-1.12,1.1-1.34,0-2.7-.06-4.05,0-.87,0-1.16-.24-1.15-1.14,0-7.72,0-15.44,0-23.16,0-1.22,0-2.45,0-3.66-.05-.87.3-1.13,1.12-1.09,1.38,0,2.77.06,4.15,0,.82,0,1.06.28,1,1.07,0,3,0,6,0,9,0,.22,0,.44.05.73h8.26c0-.26,0-.54,0-.82,0-3,0-5.92,0-8.87,0-.87.29-1.13,1.12-1.09,1.42,0,2.83,0,4.25,0,.73,0,.94.28.94,1q0,13.56,0,27.11c0,.7-.22,1-.94,1-1.48,0-3,0-4.44,0-.73,0-.94-.28-.93-1,0-3.48,0-7,0-10.42C170.17,46.1,170.14,45.79,170.12,45.4Z"/><path class="cls-3" d="M206.42,38.41a32.93,32.93,0,0,1,4.57-.95c4.22-.26,6.77,1.71,7.62,5.87a21,21,0,0,1-.38,10.21c-.93,3.18-3,4.67-6.3,4.81a10.86,10.86,0,0,1-7.05-2c.1,1.39-.65,1.56-1.64,1.48a16.45,16.45,0,0,0-2.22,0c-.73,0-1-.27-.94-1,0-2.29,0-4.57,0-6.85,0-6.65,0-13.31,0-20,0-.95.23-1.34,1.23-1.29,1.35.08,2.7.06,4.05,0,.8,0,1.08.25,1.07,1.05,0,2.54,0,5.08,0,7.62Zm6.5,9.44a29.19,29.19,0,0,0-.56-3.3,2.58,2.58,0,0,0-2.91-2,10.77,10.77,0,0,0-2.6.65,1.11,1.11,0,0,0-.55.84c-.05,2.57,0,5.15,0,7.72,0,.3.29.8.53.85a17.84,17.84,0,0,0,3.47.58,2,2,0,0,0,2.1-1.79C212.63,50.28,212.74,49.12,212.92,47.85Z"/><path class="cls-3" d="M142.2,43.24c-.95,0-1.72,0-2.49,0-.53,0-.77-.23-.76-.75,0-1,0-1.93,0-2.89,0-.28.41-.54.63-.8,0,0,.06,0,.1,0,.81-.25,1.95-.27,2.35-.82s.13-1.67.14-2.54,0-1.54,0-2.31c0-.55.21-.75.74-.74,1.54,0,3.09,0,4.63,0,.63,0,.84.21.83.84,0,1.54,0,3.08,0,4.8,1.18,0,2.29.05,3.4,0,.86-.05,1.14.27,1.1,1.1,0,1.06,0,2.13,0,3.19,0,.7-.23,1-.95,1-1.12,0-2.25,0-3.54,0v1.18c0,2.05,0,4.11,0,6.17s.82,2.71,2.79,2.68c1.78,0,1.78,0,1.79,1.73v.78c0,2.14,0,2.22-2.16,2.44a15,15,0,0,1-3.73-.11,5.1,5.1,0,0,1-4.71-5c-.23-2.65-.13-5.33-.18-8C142.19,44.53,142.2,43.9,142.2,43.24Z"/><path class="cls-3" d="M137.37,33a3.48,3.48,0,1,1-3.46-3.55A3.54,3.54,0,0,1,137.37,33Z"/></g></g></svg>