<svg xmlns="http://www.w3.org/2000/svg" viewBox="0 0 254.26 82.8"><defs><style>.cls-1{fill:#e4405f;}.cls-2{fill:#fff;}</style></defs><title>Asset 78</title><g id="Layer_2" data-name="Layer 2"><g id="Layer_1-2" data-name="Layer 1"><rect class="cls-1" width="254.26" height="82.8" rx="14.4"/><path class="cls-2" d="M125.36,49.18a9,9,0,0,0,3.2-6.51c.09-2.8,0-5.6.1-8.39,0-.59-.18-.86-.79-.87-1.11,0-2.22-.06-3.33-.11-.71,0-.9-.23-.92-.94a3.46,3.46,0,0,1,.15-1.05c.29-1,.52-1.22,1.59-1.2.86,0,1.73.07,2.6.11s.91-.09,1-.85c.09-1.41,0-2.84.18-4.26.11-1.08.47-1.4,1.56-1.24a10.29,10.29,0,0,1,2.31.64,1.1,1.1,0,0,1,.8,1.22c-.07,1.2-.11,2.4-.15,3.6,0,1,0,1.06,1,1.13,1.19.09,2.39.11,3.59.2.51,0,1.17-.1,1.42.5a2.11,2.11,0,0,1-.34,1.9,1,1,0,0,1-.94.38c-1.35,0-2.71.09-4.06.1-.59,0-.85.24-.87.83,0,1.19-.14,2.39-.15,3.59a100.48,100.48,0,0,0-.07,10.12,7.19,7.19,0,0,0,.58,2.46c.47,1.06,1.16,1.24,2.12.56a3.53,3.53,0,0,0,.81-.78,9.52,9.52,0,0,0,2-5.41c.11-3.17.65-6.25,2.72-8.83a5,5,0,0,1,5.23-2,4.22,4.22,0,0,1,2.11,1.2c.24.23.46.47.76.76.14-.52.11-1,.6-1.27a2.41,2.41,0,0,1,1.57-.06c.22,0,.43.1.65.16,1.33.38,1.5.71,1.47,2.09a113.36,113.36,0,0,0-.07,11.66,8.06,8.06,0,0,0,.47,2.27c.56,1.42,1.84,1.63,2.76.4A4.4,4.4,0,0,0,158,48a17.79,17.79,0,0,1,1.74-10.68,7.25,7.25,0,0,1,2-2.4,4.75,4.75,0,0,1,6.37.5c.34.35.59.77.77-.11a1,1,0,0,1,1-.68,5.35,5.35,0,0,1,2.51.58,1.2,1.2,0,0,1,.59,1.3c-.16,2.73-.11,5.47-.13,8.2,0,1.2,0,2.4,0,3.6a1.14,1.14,0,0,0,.11.72c.28,0,.35-.25.46-.42a31,31,0,0,0,4-8.53,1.25,1.25,0,0,0-.32-1.43,2.9,2.9,0,0,1-.42-3.35,2.76,2.76,0,0,1,2.54-1.86,1.92,1.92,0,0,1,2.15,2.3c-.06.87,0,.89.8.75s1.75-.32,2.63-.48a7.62,7.62,0,0,1,1.05-.16,2.1,2.1,0,0,1,2.39,2.72c-.33,1.77-.82,3.51-1,5.3a17.2,17.2,0,0,0,.07,5.31,5.57,5.57,0,0,0,.75,2,1.53,1.53,0,0,0,2.66.17,3.65,3.65,0,0,0,.88-3,18.34,18.34,0,0,1,1-9.89,8.7,8.7,0,0,1,2.36-3.43,4.69,4.69,0,0,1,6.56.28l.33.33c.21.21.31.17.4-.12.27-.87.54-1,1.45-1a5,5,0,0,1,.66.1c1.95.37,2.15.75,2.1,2.74-.12,4-.47,8.12,0,12.18a5.32,5.32,0,0,0,.36,1.41,1.36,1.36,0,0,0,2.43.47,7.35,7.35,0,0,0,1.9-4.8c.09-3.46.09-6.93.13-10.39,0-.36,0-.71,0-1.07a.84.84,0,0,1,1-.91,8,8,0,0,1,2.41.5c.6.22.69.76.69,1.32v5.95a1.09,1.09,0,0,0,.41-.7c.59-1.75,1.15-3.51,1.86-5.21.85-2,1.76-2.36,3.77-1.47a2.63,2.63,0,0,1,1.72,2.6c0,2.27.12,4.53.27,6.79,0,.4.09.79.14,1.27a.73.73,0,0,0,.24-.56,44.91,44.91,0,0,1,2.8-9.23,1.73,1.73,0,0,1,2.33-1.19,4.71,4.71,0,0,1,.64.19c2.43.86,2.72,1.43,2.59,4a68.9,68.9,0,0,0,.06,9.85,6.62,6.62,0,0,0,.69,2.5c.27.5.61,1,1.25,1a1.46,1.46,0,0,0,1.31-1,15.82,15.82,0,0,0,.85-2.66c.13-.48.19-1.14.87-1.07s.66.76.64,1.27a9,9,0,0,1-1.13,4.14,3.8,3.8,0,0,1-6.17.81,7.63,7.63,0,0,1-2-4.67,52.77,52.77,0,0,1-.28-8.05V39.46c-.32,0-.33.24-.39.38a33,33,0,0,0-2.81,12c0,.82-.27,1.1-1.08,1.25a2.76,2.76,0,0,1-3.26-2.17A33,33,0,0,1,219.8,45c-.13-1.59-.18-3.19-.27-4.79,0-.21.07-.51-.21-.57s-.35.24-.44.42a23.13,23.13,0,0,0-2.56,9c-.1,1.35-.1,2.71-.17,4.06-.05,1.15-.36,1.44-1.51,1.49a6.53,6.53,0,0,1-2.24-.22,1.3,1.3,0,0,1-1-1.3,6.58,6.58,0,0,0-.21-1.31c-.94,1.84-2.21,3.16-4.44,2.79A4.53,4.53,0,0,1,203,50.87c-.34.1-.41.39-.54.59a6.94,6.94,0,0,1-3.31,2.79A5,5,0,0,1,193,52.41c-.5-.71-.5-.71-1,0-1.9,2.87-5.2,3-7.37.33A8.6,8.6,0,0,1,183,47.94a25.53,25.53,0,0,1,.65-7.74c.2-1,.12-1.05-.84-1-2.16,0-2.16,0-3,2a40.35,40.35,0,0,1-6.49,10.89,2.08,2.08,0,0,0-.51,1.39c0,2.17.24,4.35,0,6.52a21.53,21.53,0,0,1-.86,4.58,6.82,6.82,0,0,1-3.6,4.26,5.92,5.92,0,0,1-6.41-.67,4.73,4.73,0,0,1-1.21-5.7A10.91,10.91,0,0,1,163,59.16c1.67-1.76,3.46-3.39,5.26-5a1.88,1.88,0,0,0,.53-2.32c-.27.09-.38.36-.55.55a6.2,6.2,0,0,1-4,2.23,4.91,4.91,0,0,1-5-2.48c-.42-.65-.42-.65-.82,0-1.4,2.37-3.71,3.14-5.87,1.94a4.19,4.19,0,0,1-2-2.42c-.09-.25-.16-.51-.29-.9l-.6.87a6.83,6.83,0,0,1-4,2.88,5,5,0,0,1-5.49-2.36,11.71,11.71,0,0,1-1.1-2.48c-.31.12-.31.37-.4.56a11.62,11.62,0,0,1-2,3c-2.07,2.25-4.95,1.53-6.41-.68a10.85,10.85,0,0,1-1.45-4.32c0-.24,0-.5-.2-.7-.27.09-.28.37-.38.57a12,12,0,0,1-4.3,5.24,9.49,9.49,0,0,1-9.26.35c-1.08-.48-1.22-1.09-.73-2.17a6.6,6.6,0,0,1,.36-.64c.75-1.1,1.36-1.21,2.44-.45a8.86,8.86,0,0,0,1.23.79,2.11,2.11,0,0,0,3.24-1.84,4.74,4.74,0,0,0-1.48-3.79c-.73-.77-1.55-1.46-2.31-2.21-.42-.42-.69-.32-1,.16-1,1.74-2.07,3.47-3.1,5.21A18.81,18.81,0,0,1,110,53.19a4.51,4.51,0,0,1-3,1.45,2.28,2.28,0,0,1-2.22-1.32A8.83,8.83,0,0,1,104,50a55.66,55.66,0,0,1,0-7.19c0-1.4.13-2.79.19-4.19,0-.23.1-.55-.18-.66s-.47.19-.63.38a22.32,22.32,0,0,0-3.66,6.7,39.5,39.5,0,0,0-2.21,8.63.94.94,0,0,1-.95.92h-.13c-2.14.17-2.83-.38-3.08-2.51a11.85,11.85,0,0,1-.07-1.33q0-7.66.1-15.33c0-1,.25-1.16,1.22-1.09a2.71,2.71,0,0,1,.4,0c2,.35,2.27.65,2.26,2.67,0,2.18,0,4.36,0,6.53v.82a1.29,1.29,0,0,0,.45-.77,29.09,29.09,0,0,1,3-6.61,7.36,7.36,0,0,1,1.9-2,3.26,3.26,0,0,1,3.59-.25c.35.19.7.38,1,.59a2.4,2.4,0,0,1,1.27,2.32c-.13,3.24-.32,6.47-.27,9.72a12,12,0,0,0,.21,2.32c.2,1,.71,1.11,1.45.46a6.73,6.73,0,0,0,1.15-1.46c1.38-2.16,2.63-4.39,3.83-6.64a1.11,1.11,0,0,0-.06-1.34,3.9,3.9,0,0,1,0-4.57,4.22,4.22,0,0,1,4.2-2.18,1.71,1.71,0,0,1,1.64,2.28,8.74,8.74,0,0,1-1.59,3.27c-.53.74-.54.74.2,1.3.94.71,1.87,1.43,2.83,2.12,2.11,1.53,3.44,3.45,3.16,6.2Zm24.26-5.9c0-.27,0-.54,0-.8a8.88,8.88,0,0,0-.87-3.93A2.29,2.29,0,0,0,145,38a5.24,5.24,0,0,0-1.31,2.44,18.81,18.81,0,0,0-.34,8.31,6.43,6.43,0,0,0,.74,2.06,2,2,0,0,0,3.25.5,5.54,5.54,0,0,0,1.39-2.17A16.59,16.59,0,0,0,149.62,43.28Zm46,2.17c0,.46,0,.93,0,1.39a8.53,8.53,0,0,0,1,4.09,1.92,1.92,0,0,0,3.16.42,5.91,5.91,0,0,0,1.54-2.54,17,17,0,0,0,.77-6.64,7.8,7.8,0,0,0-.9-3.72,2.28,2.28,0,0,0-3.68-.5,5.2,5.2,0,0,0-1.38,2.55A17.18,17.18,0,0,0,195.65,45.45Zm-33.48.21c0,.49,0,1,0,1.46a8.78,8.78,0,0,0,.86,3.53,2,2,0,0,0,3.62.43,5.59,5.59,0,0,0,1.09-1.89,19.05,19.05,0,0,0,.88-8.21,7.76,7.76,0,0,0-.46-2.07,2.34,2.34,0,0,0-4.15-.67,6.26,6.26,0,0,0-1.08,2A15.2,15.2,0,0,0,162.17,45.66Zm7,13.62c0-.35,0-.71,0-1.06s.26-1.21-.18-1.41-.72.54-1.05.89a20.69,20.69,0,0,0-3.85,5,5.37,5.37,0,0,0-.63,3,2.06,2.06,0,0,0,2.37,1.87,2.68,2.68,0,0,0,2-1.35,7.73,7.73,0,0,0,.79-2.25A28.65,28.65,0,0,0,169.21,59.28Z"/><path class="cls-2" d="M85.09,40V28.31c0-.27,0-.54,0-.8s.09-.59-.21-.72-.47.17-.65.35a13,13,0,0,0-3.41,7.58A8.73,8.73,0,0,0,82,41a.82.82,0,0,1,.1,1c-.29.38-.69.22-1,.11a6.5,6.5,0,0,1-4.16-5.42A10.87,10.87,0,0,1,78.26,31a14.81,14.81,0,0,1,6.09-6.61,4.16,4.16,0,0,1,4.41.24,1.54,1.54,0,0,1,.74,1.46c.08,7.71,0,15.41,0,23.12A15.19,15.19,0,0,1,89.2,52c-.45,2.36-1.34,4.47-3.47,5.83a2.91,2.91,0,0,1-1,.45c-.63.15-.91-.1-.81-.72a2.28,2.28,0,0,1,.11-.45,19.53,19.53,0,0,0,.9-6.3C85,47.23,85.13,43.63,85.09,40Z"/><path class="cls-2" d="M125.36,49.18h0Z"/><path class="cls-2" d="M49.23,64.29H34.43c-1.31-.12-2.61-.22-3.91-.37A11.51,11.51,0,0,1,20.2,54.55c-.3-1.54-.39-3.11-.58-4.67V34.48c.12-1.3.22-2.6.38-3.9a11.5,11.5,0,0,1,9.26-10.11c1.63-.33,3.31-.41,5-.6h15c1.34.12,2.68.23,4,.38a11.5,11.5,0,0,1,10.2,9.27c.33,1.69.41,3.44.6,5.16V49.49c-.12,1.33-.22,2.67-.38,4a11.48,11.48,0,0,1-9.45,10.23C52.57,64,50.89,64.11,49.23,64.29ZM23.77,42.05c0,3.25-.07,6.51,0,9.76.13,4.95,3.44,8.25,8.4,8.31,6.4.08,12.82.09,19.22,0,5-.06,8.36-3.35,8.45-8.38q.16-9.6,0-19.23c-.09-5.08-3.32-8.36-8.36-8.46q-9.66-.18-19.33,0c-5,.09-8.25,3.37-8.38,8.24C23.7,35.54,23.77,38.79,23.77,42.05Z"/><path class="cls-2" d="M30.46,42.06A11.37,11.37,0,1,1,41.83,53.45,11.3,11.3,0,0,1,30.46,42.06Zm4,0a7.41,7.41,0,1,0,7.39-7.39A7.35,7.35,0,0,0,34.42,42.07Z"/><path class="cls-2" d="M53.69,27.57A2.67,2.67,0,1,1,51,30.2,2.73,2.73,0,0,1,53.69,27.57Z"/></g></g></svg>