<svg xmlns="http://www.w3.org/2000/svg" viewBox="0 0 254.26 82.8"><defs><style>.cls-1{fill:#20beff;}.cls-2{fill:#fff;stroke:#20beff;stroke-miterlimit:10;stroke-width:0.5px;}</style></defs><title>Asset 76</title><g id="Layer_2" data-name="Layer 2"><g id="Layer_1-2" data-name="Layer 1"><rect class="cls-1" width="254.26" height="82.8" rx="14.4"/><path class="cls-2" d="M154.44,65l-1,1.32-1.26,1-1.07.63a18.21,18.21,0,0,1-2.87,1l-1.86.22H144l-2.37-.51-2.31-1-.44-.26a14.83,14.83,0,0,0-1.94-1.48A4.37,4.37,0,0,0,136,65a1,1,0,0,1,.28-.85c.66-.78,1.46-1.4,2.15-2.14a1,1,0,0,1,.84-.34l.65.57c1.23,1,2.41,2.11,4.09,2.34a5.62,5.62,0,0,0,2.38.12,5.46,5.46,0,0,0,2.37-.65,4.39,4.39,0,0,0,1.62-1.37,7.07,7.07,0,0,0,1.23-4.76c0-.65,0-1.29,0-1.94s-.25-.42-.52-.14a16.51,16.51,0,0,1-2.36,1.13l-2.37.47H144L141.6,57l-2.37-1.13-.42-.33a18.51,18.51,0,0,1-1.93-1.93.62.62,0,0,0-.31-.43l-1.26-2.37a25.31,25.31,0,0,1-1-4.73V43.67a23.92,23.92,0,0,1,1.11-4.73,19.08,19.08,0,0,1,1.37-2.36l.21-.33,1.9-1.89a.43.43,0,0,0,.33-.27L141.62,33l2.36-.41h.63l.19-.06a3.34,3.34,0,0,0,1.54.06l2.33.48a16.36,16.36,0,0,1,2.4,1.12c.14.11.22.34.43.26s.12-.29.09-.43c-.11-.8.32-1,1-1a8.38,8.38,0,0,0,.86,0l.34,0a5.91,5.91,0,0,0,1.68,0l.34,0c.72.17.41.8.55,1.23v2.35a11.93,11.93,0,0,0,0,2.39V41.3a11.83,11.83,0,0,0,0,2.38V46a11.93,11.93,0,0,0,0,2.39v2.35a11.93,11.93,0,0,0,0,2.39V55.5a11.93,11.93,0,0,0,0,2.39l0,1.1,0,.15,0,.76A13.61,13.61,0,0,1,154.44,65Zm-2.87-23.68a1.69,1.69,0,0,0-.34-1.42,2.55,2.55,0,0,0-.9-1.15,3.2,3.2,0,0,0-1.6-.94,5.12,5.12,0,0,0-2.39-.53l-.62,0-.16,0a4.68,4.68,0,0,0-1.58.16,5,5,0,0,0-4.21,3.9,6,6,0,0,0-.38,2.4,5,5,0,0,0,0,2.38,6.39,6.39,0,0,0,.41,2.4,5.32,5.32,0,0,0,4.2,4.09,5.58,5.58,0,0,0,2.37.11,6,6,0,0,0,2.4-.51,4.2,4.2,0,0,0,2-1.35,1,1,0,0,0,.38-.6c.58-.48.51-1.13.46-1.78v-7.1Z"/><path class="cls-2" d="M115.57,68.2a17.78,17.78,0,0,1-4-2.74c-.83-.71-.82-.84-.07-1.59l1.64-1.68c.86-.74.86-.74,1.7,0,.2.17.41.32.61.48a6.72,6.72,0,0,0,2.41,1.54,4.44,4.44,0,0,0,2.37.5,5.15,5.15,0,0,0,2.37-.31,4.74,4.74,0,0,0,3.7-3.91,6.71,6.71,0,0,0,.26-2.6V55.47l-1.6,1-2.37.79-2.36.22-2.37-.19a15,15,0,0,1-2.36-.73,11.46,11.46,0,0,1-3.94-3.38c-.27-.47-.54-.94-.82-1.4s-.17-.7-.44-1l-.66-2.36L109.35,46V43.67l.34-2.35.77-2.38.31-.65,1.06-1.71L113.15,35l.78-.66,1.59-1,2.37-.78a13.48,13.48,0,0,0,2.37-.15,23.64,23.64,0,0,0,2.37.31l2.32.73,1.61,1c.15-.63-.22-1.48.81-1.53h2.37c1.66.1,1.66.1,1.74,1.26V57.88l-.29,2.53-.53,2.2A9.66,9.66,0,0,1,125,68.46l-2.39.55-2.36.15h-.63a.19.19,0,0,0-.15,0L117.89,69Zm-.77-26.91a6.88,6.88,0,0,0-.4,2.38,7.85,7.85,0,0,0,0,2.37,6,6,0,0,0,.4,2.38,2.79,2.79,0,0,0,.7,1.5c0,.41.32.6.53.87a4.07,4.07,0,0,0,1.86,1.41,4.15,4.15,0,0,0,2.37.48,6.55,6.55,0,0,0,2.37-.21A5.44,5.44,0,0,0,125.37,51a3,3,0,0,0,1.22-2.63V41.3a1.92,1.92,0,0,0-.26-1.34,4.94,4.94,0,0,0-3.69-2.51,7.21,7.21,0,0,0-2.22-.24,5.27,5.27,0,0,0-2.73.59,3,3,0,0,0-1.59,1.12,1.66,1.66,0,0,0-.6.87A3,3,0,0,0,114.8,41.29Z"/><path class="cls-2" d="M163,20.63c2.07.13,2.06.13,2.06,2.21q0,13,0,26c0,2.58,0,5.16,0,7.74-.55.62-1.29.15-1.91.33l-2.52,0c-.49-.38-.2-.94-.33-1.4V22.36c.16-.56-.2-1.22.32-1.71Z"/><path class="cls-2" d="M66.45,43.84V21.1l0-.16c.45-.5,1.07-.18,1.59-.31h2.37c.59,0,.84.29.8.88a7.85,7.85,0,0,0,0,.84v20.5l1.39-1.55.16-.16A21,21,0,0,0,75,38.93l.16-.16,2.11-2.18a.32.32,0,0,0,.29-.29l2.08-2.07.3-.3a2.41,2.41,0,0,1,2.34-1,9.48,9.48,0,0,0,2.38,0h1c.36,0,.73,0,.93.38s-.22.57-.36.84a23.34,23.34,0,0,0-2.49,2.38c-2.09,2-4.14,4-6.2,6-.24.34-1,.46-.58,1.09.61.83,1.31,1.59,2,2.38a5.31,5.31,0,0,0,1,1.23l.92,1.14a9.78,9.78,0,0,0,1.44,1.77l.46.6a14.42,14.42,0,0,0,1.91,2.29l0,.06,2.15,2.7c.25.31.51.62.23,1L84.68,57a13.4,13.4,0,0,0-2.37,0,1.53,1.53,0,0,1-1.37-.72c-.81-1-1.64-2.08-2.47-3.11a3.42,3.42,0,0,0-.89-1,4.54,4.54,0,0,0-1-1.32,7,7,0,0,0-1.39-1.68,1.83,1.83,0,0,0-.61-.89,6.44,6.44,0,0,1-.71-.94c-.38-.71-.72-.6-1.09,0l-1.23,1.15a.62.62,0,0,0-.33.65c0,.57,0,1.14,0,1.71v4.74c-.07,1.39-.07,1.39-1,1.44H68.24c-1.89-.06-1.77.3-1.76-1.86,0-.49,0-1,0-1.48V43.84Z"/><path class="cls-2" d="M184.29,52.2a4.15,4.15,0,0,0,1.9-.88.83.83,0,0,1,1.28.15c.6.64,1.24,1.25,1.87,1.88.77.89.76.87-.2,1.58a24,24,0,0,1-2.47,1.39c-.94.26-1.84.62-2.8.79a25,25,0,0,1-4.32.29,19.77,19.77,0,0,1-2-.33l-2.7-1a2.83,2.83,0,0,0-1.08-.61l-1.32-1.05-1.29-1.29-1.07-1.43-.54-1-.86-2.33L168.3,46V43.36l.33-2,.83-2.36a14.46,14.46,0,0,1,3.23-4,22.38,22.38,0,0,1,2.11-1.37l2.38-.77a21.05,21.05,0,0,0,2.37-.31l2.36.18,2.38.63c.5.27,1,.51,1.51.81a12.14,12.14,0,0,1,4.47,4.85l.79,2.37.24,1.57,0,.48.07.19a.13.13,0,0,0,0,.12c-.06.75-.15,1.5-.15,2.26,0,.54-.22.75-.74.74s-1,0-1.49,0a13.29,13.29,0,0,0-2.36,0h-2.38a13.4,13.4,0,0,0-2.37,0H174.8c-1.43-.12-1.52,0-1,1.33a3.29,3.29,0,0,0,.21.42,2.74,2.74,0,0,0,.81,1.44,2,2,0,0,0,.77.92,3.72,3.72,0,0,0,1.62,1.11,5.57,5.57,0,0,0,2.38.77,7.31,7.31,0,0,0,2.38.12A5.88,5.88,0,0,0,184.29,52.2ZM173.81,41.26l-.1.2a1.35,1.35,0,0,0-.17.79c.19.29.48.14.72.14h11.05c1,0,1,0,.73-1.08A5.82,5.82,0,0,0,181.92,37a4.59,4.59,0,0,0-2.37-.32,4.41,4.41,0,0,0-2.38.61,5.27,5.27,0,0,0-2,1.61.7.7,0,0,0-.38.53,4,4,0,0,0-.95,1.77Z"/><path class="cls-2" d="M106.83,53.14v2.38c-.17.53.28,1.41-.8,1.44H103.5c-1.36-.07-1.36-.07-1.69-1.13l-.58.39a15.91,15.91,0,0,1-2.32.9l-2.37.29-2.37-.14-2.37-.78-1.59-1.1-.65-.65a10.29,10.29,0,0,1-1.23-1.9l-.48-1.9c0-.83,0-1.67,0-2.51a11.77,11.77,0,0,1,1-2.36l.54-.62a18.59,18.59,0,0,1,2.3-1.75h.06l2.38-1a15.82,15.82,0,0,0,2.37-.49l2.39-.39c.78-.09,1.55-.18,2.33-.24.5,0,.74-.19.71-.76a3.48,3.48,0,0,0-.61-2A3.33,3.33,0,0,0,98.91,37a5.14,5.14,0,0,0-2.37-.12,6.75,6.75,0,0,0-2.37.61,6.39,6.39,0,0,0-2.45,1.34c-.32.06-.64.35-1,.05a11.78,11.78,0,0,0-1.29-1.77l-.37-.58c-.63-.69-.3-1.15.35-1.55l1.31-.8,1.3-.58,2.13-.73,2.38-.36h.31l.19-.06a10.5,10.5,0,0,0,1.86.1l2.37.51,2.34,1.15h0a8.62,8.62,0,0,1,3,4.73c.09.77.17,1.54.26,2.31a14.43,14.43,0,0,0,0,2.37V46a11.73,11.73,0,0,0,0,2.37v2.37A11.63,11.63,0,0,0,106.83,53.14Zm-4.91-2.36V46c0-.16-.16-.18-.3-.17a21.91,21.91,0,0,0-3.22.46,6,6,0,0,0-1.86.37,5.23,5.23,0,0,0-2.37.92,1.93,1.93,0,0,0-1,.78,2.11,2.11,0,0,0-.47,2.39,2.48,2.48,0,0,0,1.44,1.68,4.86,4.86,0,0,0,2.39.61,5.27,5.27,0,0,0,2.36-.29,4.61,4.61,0,0,0,2.39-1.17C101.63,51.43,102,51.27,101.92,50.78Z"/></g></g></svg>