<svg xmlns="http://www.w3.org/2000/svg" viewBox="0 0 254.26 82.8"><defs><style>.cls-1{fill:#0076b4;}.cls-2,.cls-3{fill:#fff;}.cls-3{stroke:#0076b4;stroke-miterlimit:10;}</style></defs><title>Asset 77</title><g id="Layer_2" data-name="Layer 2"><g id="Layer_1-2" data-name="Layer 1"><rect class="cls-1" width="254.26" height="82.8" rx="14.4"/><path class="cls-2" d="M195,64.45H175.68c-2.47,0-3.84-1.33-3.84-3.8q0-19.21,0-38.44c0-2.58,1.3-3.85,3.87-3.85h38.58c2.46,0,3.83,1.37,3.83,3.8q0,19.22,0,38.44c0,2.55-1.3,3.84-3.87,3.85q-9.64,0-19.29,0Zm1.5-25.86a19.27,19.27,0,0,1,0-1.94c.08-.8-.21-1.06-1-1-1.56.06-3.12,0-4.68,0-.64,0-.95.11-.95.87q0,10.14,0,20.3c0,.66.22.85.86.84,1.67,0,3.35,0,5,0,.79,0,1.05-.2,1-1,0-3.31,0-6.62,0-9.93a9.75,9.75,0,0,1,.46-3.26c.61-1.69,2-2.45,4.13-2.29a3,3,0,0,1,2.87,2.76,12.37,12.37,0,0,1,.22,2.5c0,3.42,0,6.84,0,10.27,0,.74.21,1,1,1,1.67-.06,3.35-.06,5,0,.8,0,.94-.29.93-1,0-2.06,0-4.11,0-6.16a69.53,69.53,0,0,0-.23-8.66c-.57-4.14-2.65-6.23-6.79-6.7A7.9,7.9,0,0,0,196.47,38.59Zm-10.89,8.06c0-3.35,0-6.69,0-10,0-.72-.17-1-.95-1-1.71.05-3.42,0-5.13,0-.65,0-.85.22-.85.86q0,10.14,0,20.28c0,.75.3.88,1,.87,1.67,0,3.34,0,5,0,.75,0,1-.22,1-1C185.56,53.33,185.58,50,185.58,46.65Zm-7.41-18.08a4,4,0,0,0,3.89,4.07,4,4,0,0,0,4.09-3.88,4,4,0,0,0-3.9-4.05A3.93,3.93,0,0,0,178.17,28.57Z"/><path class="cls-3" d="M158.11,37.87v-8c0-1.29,0-2.58,0-3.87,0-.54.07-.85.72-.83,1.83,0,3.65,0,5.48,0,.86,0,.65.54.65,1q0,7.31,0,14.59c0,5.25,0,10.49,0,15.74,0,.84-.14,1.21-1.09,1.15a37.13,37.13,0,0,0-4.22,0c-.79,0-1.11-.19-1-1a13.07,13.07,0,0,0,0-1.53c-.23-.19-.33-.05-.42.06-3.74,4.36-10.12,3.29-13.35.82s-4-5.51-4.08-9.15a12.07,12.07,0,0,1,3.75-9.39C148.2,33.86,155.17,34.27,158.11,37.87Zm-5,14.26c3.39,0,5.61-2.16,5.49-5.6S156.93,41,153.17,41c-3.31-.05-5.44,2.14-5.47,5.53S149.8,52.13,153.16,52.13Z"/><path class="cls-3" d="M101.45,44.52c2.4-2.77,4.64-5.29,6.81-7.89a2.48,2.48,0,0,1,2.22-1c2.27.07,4.53,0,7,0l-4.87,5.52c-1,1.2-2.07,2.44-3.19,3.57a1.36,1.36,0,0,0-.13,2.16c2.68,3.45,5.25,7,7.85,10.49-.23.39-.57.22-.83.22-2.21,0-4.42,0-6.62,0a1.6,1.6,0,0,1-1.55-.85c-2-3-4-5.95-6-8.91a2.2,2.2,0,0,0-.82-.93v8.93c0,1.75,0,1.75-1.71,1.74-1.41,0-2.82,0-4.22,0-.76,0-1-.21-1-1,0-6.69,0-13.38,0-20.07,0-3.5,0-7,0-10.49,0-.73.17-1,.94-1,1.67.06,3.35.07,5,0,.82,0,.9.3.9,1,0,5.78,0,11.56,0,17.34C101.4,43.75,101.43,44,101.45,44.52Z"/><path class="cls-3" d="M131,48.7c-2.36,0-4.71,0-7.07,0-.89,0-.92.28-.66,1a5.31,5.31,0,0,0,8.82,1.69c.85-.86,1.36-1,2.24-.16a19.42,19.42,0,0,0,2.74,2c.69.44.76.74.16,1.34a11.85,11.85,0,0,1-8,3.58c-4.38.19-8.18-1.14-10.91-4.76-4.08-5.41-2.86-16.06,7.33-18.12,3.78-.77,7.37-.32,10.25,2.61,2.15,2.19,2.85,5,3,7.9s.17,3-2.78,2.94H131Zm-3.53-4.62h0c1.21,0,2.42-.05,3.63,0,1,0,1.06-.34.83-1.15a4.17,4.17,0,0,0-4.24-3.09,4.65,4.65,0,0,0-4.57,3.49c-.13.61,0,.73.59.72C124.92,44.06,126.18,44.08,127.43,44.08Z"/><path class="cls-3" d="M76.22,38.26c2.23-2.73,5-3.48,8.35-3a6.52,6.52,0,0,1,5.91,5,22.46,22.46,0,0,1,.56,6c0,3.43,0,6.85,0,10.27,0,.94-.29,1.13-1.15,1.1-1.6-.07-3.2-.05-4.8,0-.72,0-1-.16-1-.94,0-3,0-6.08,0-9.12,0-1.33-.29-2.6-.32-3.92a2.82,2.82,0,0,0-2.35-2.48,3.83,3.83,0,0,0-4.33,1.75,7.37,7.37,0,0,0-.68,3.55c0,3.35,0,6.69,0,10,0,.91-.24,1.17-1.14,1.13-1.56-.08-3.12-.08-4.68,0-.84,0-1.08-.2-1.07-1.06,0-6.35,0-12.7,0-19.06,0-1.88,0-1.88,1.93-1.87,1.21,0,2.43,0,3.65,0,.71,0,1.06.14,1,.93A15.85,15.85,0,0,0,76.22,38.26Z"/><path class="cls-3" d="M35.46,41.38c0-5,0-10,0-15.06,0-1,.27-1.2,1.19-1.16,1.64.08,3.28.07,4.91,0,.86,0,1.07.22,1.07,1.07,0,7.8,0,15.59-.06,23.39,0,1.2.32,1.5,1.5,1.47,3.57-.07,7.15,0,10.73,0,.75,0,1.08.12,1,1-.07,1.56,0,3.12,0,4.68,0,.77-.23.94-1,.94q-9.24,0-18.49,0c-.78,0-.93-.25-.92-1,0-5.09,0-10.19,0-15.29Z"/><path class="cls-3" d="M65.84,46.76c0,3.3,0,6.61,0,9.92,0,.73-.18,1-.94,1-1.71-.06-3.43-.05-5.14,0-.67,0-.8-.23-.8-.85q0-10.16,0-20.3c0-.63.15-.86.82-.85,1.75.05,3.5.06,5.25,0,.68,0,.81.24.8.85,0,3.42,0,6.84,0,10.27Z"/><path class="cls-3" d="M62.43,24.71a3.95,3.95,0,1,1-4,3.83A3.87,3.87,0,0,1,62.43,24.71Z"/></g></g></svg>