<svg xmlns="http://www.w3.org/2000/svg" viewBox="0 0 268.92 82.8"><defs><style>.cls-1{fill:#01292a;}.cls-2{fill:#59b686;}.cls-3{fill:#e6e7e8;}</style></defs><title>Asset 25</title><g id="Layer_2" data-name="Layer 2"><g id="Layer_1-2" data-name="Layer 1"><rect class="cls-1" width="268.92" height="82.8" rx="14.4"/><path class="cls-2" d="M47.76,14.39c8.61,0,17.23,0,25.85,0,1.07,0,1.47.21,1.43,1.38-.1,2.64-.06,5.29,0,7.94,0,.79-.24,1-1,1-2.1,0-4.21,0-6.31,0a2,2,0,0,1-1.36-.49,2.48,2.48,0,0,0-3.6.15,2.59,2.59,0,0,0,.06,3.45,2.37,2.37,0,0,0,3.58.06c.88-.82,1.92-.48,2.86-.58,1.63-.16,3.28,0,4.92-.1.75,0,1.06.22,1,1,0,1.72,0,3.45,0,5.17,0,.76-.29,1.06-1,1.05-1.64,0-3.28,0-4.92,0a2.15,2.15,0,0,1-1.44-.64,2.46,2.46,0,0,0-3.53,0,2.73,2.73,0,0,0,0,3.58,2.6,2.6,0,0,0,3.63,0,2.23,2.23,0,0,1,1.7-.61c1.47,0,3,.06,4.41,0,1,0,1.22.34,1.22,1.25q0,14.68,0,29.37c0,.87-.26,1.2-1.15,1.15a36.43,36.43,0,0,0-3.91,0c-.93.06-1.13-.33-1.13-1.17q0-8.39,0-16.77a2.06,2.06,0,0,1,.52-1.48,2.52,2.52,0,1,0-3.51-3.61,2.41,2.41,0,0,0,0,3.59,1.87,1.87,0,0,1,.52,1.34c0,5.67,0,11.34,0,17,0,.8-.19,1.12-1,1.08-1.38-.06-2.77,0-4.16,0-.64,0-.9-.19-.89-.86,0-3.78,0-7.57,0-11.35a1.76,1.76,0,0,1,.56-1.2,2.52,2.52,0,0,0,0-3.53,2.59,2.59,0,0,0-3.55,0,2.51,2.51,0,0,0-.16,3.52,2.36,2.36,0,0,1,.6,1.7c0,3.53-.05,7.06,0,10.59,0,1-.27,1.23-1.2,1.18-1.3-.08-2.61,0-3.91,0-.68,0-1-.17-1-.91q0-7.63,0-15.26a2.24,2.24,0,0,1,.67-1.43,2.44,2.44,0,0,0-.23-3.5,2.64,2.64,0,0,0-3.46.07A2.49,2.49,0,0,0,48.59,51a2.54,2.54,0,0,1,.7,2c0,4.71,0,9.42,0,14.12,0,1-.17,1.39-1.29,1.38q-13.11-.08-26.23,0c-1.07,0-1.37-.31-1.33-1.35q.12-2.83,0-5.67c0-1,.34-1.27,1.31-1.26,5,0,10.09,0,15.13,0a2.43,2.43,0,0,1,1.72.58,2.5,2.5,0,0,0,3.51-.16A2.75,2.75,0,0,0,42,57.13a2.48,2.48,0,0,0-3.53,0,1.88,1.88,0,0,1-1.44.56c-5.12,0-10.25,0-15.38,0-1,0-1.24-.29-1.19-1.22.07-1.55.07-3.11,0-4.67-.05-1,.33-1.2,1.24-1.19,4.21,0,8.41,0,12.61,0a2.14,2.14,0,0,1,1.59.56,2.52,2.52,0,0,0,3.61,0,2.55,2.55,0,0,0-.07-3.54,2.44,2.44,0,0,0-3.59,0,2.13,2.13,0,0,1-1.59.56c-4.16,0-8.32,0-12.49,0-1.09,0-1.36-.38-1.31-1.39a36,36,0,0,0,0-4.28c-.07-1.13.32-1.42,1.42-1.42,9.46,0,18.92,0,28.38,0,1,0,2.11,0,3.16,0a3,3,0,0,1,2.3.73,2.4,2.4,0,0,0,3.3-.24,2.7,2.7,0,0,0,.07-3.47,2.46,2.46,0,0,0-3.41-.31,3,3,0,0,1-2.29.7c-8,0-16,0-24,0-1.18,0-1.42-.34-1.36-1.41a40.55,40.55,0,0,0,0-4.41c0-.9.18-1.23,1.17-1.22,6.39,0,12.78,0,19.17,0a2,2,0,0,1,1.49.53,2.48,2.48,0,0,0,3.59,0,2.7,2.7,0,0,0,0-3.56,2.47,2.47,0,0,0-3.6,0,2,2,0,0,1-1.61.49c-7.19,0-14.38,0-21.57,0-1.12,0-1.44.27-1.39,1.39.09,2.22,0,4.45.05,6.68,0,1-.31,1.27-1.24,1.2a15.15,15.15,0,0,0-2.52,0c-.92.08-1.13-.32-1.12-1.16,0-4.25,0-8.49,0-12.74,0-.68.09-1.08.94-1.07q16.08.06,32.16,0a3,3,0,0,1,1.94.69,2.35,2.35,0,0,0,3.3-.2,2.8,2.8,0,0,0,.07-3.48,2.46,2.46,0,0,0-3.4-.35,2.94,2.94,0,0,1-2.18.68c-10.47,0-20.94,0-31.41,0-1.22,0-1.52-.38-1.43-1.49s0-2.1,0-3.15c0-1.6,0-1.61,1.68-1.61Z"/><path class="cls-3" d="M108,52.5l5.56-16.41c1-3.1,2.11-6.19,3.14-9.3.25-.77.57-1.27,1.52-1.17,1.66.18,3.79-.69,4.89.38.94.92.25,3,.26,4.58,0,8.32,0,16.64,0,25,0,1.57-.48,2-1.91,1.8a2.51,2.51,0,0,0-.67,0c-1.37.22-1.83-.26-1.82-1.72.08-7.35,0-14.71,0-22.06V32l-.37-.06q-1.73,5-3.43,10c-1.61,4.7-3.29,9.38-4.78,14.11-.61,1.93-2,1.16-3.15,1.31a1.65,1.65,0,0,1-2.11-1.3c-2.58-7.77-5.28-15.5-7.94-23.24a2.13,2.13,0,0,0-.69-1.08V33c0,7.53,0,15,0,22.57,0,1.43-.37,2-1.77,1.73a3,3,0,0,0-.85,0c-1.29.19-1.79-.24-1.73-1.64.11-2.65,0-5.31,0-8,0-6.79,0-13.58,0-20.37,0-1.24.18-1.91,1.63-1.74,1.67.2,3.76-.65,4.94.33s1.25,2.93,1.77,4.47Q104.08,40.7,107.47,51C107.6,51.37,107.74,51.73,108,52.5Z"/><path class="cls-3" d="M221,37.28c2.19-2.32,4.61-3.49,7.71-3.17a6.27,6.27,0,0,1,4.77,2.53c.61.87.86.79,1.55.08,3.22-3.34,8.74-3.56,11.56-.54a7.42,7.42,0,0,1,1.88,5.13c.07,5.15,0,10.29.06,15.44,0,.87-.27,1.15-1.16,1.17-2.71.08-2.7.12-2.7-2.5,0-4.07,0-8.14,0-12.21a18.21,18.21,0,0,0-.26-2.86A2.86,2.86,0,0,0,242.22,38a5.4,5.4,0,0,0-7,4.13c-.61,3-.2,6.09-.28,9.14,0,1.75-.08,3.5,0,5.25.07,1.17-.38,1.43-1.45,1.4-3-.1-2.54.32-2.56-2.48,0-4.07,0-8.14,0-12.21,0-.73,0-1.47-.12-2.2-.28-2.74-2.18-4-4.88-3.32s-4.18,2.79-4.28,6c-.12,4.13-.11,8.26,0,12.38,0,1.35-.26,1.89-1.74,1.83-2.72-.12-2.72,0-2.72-2.67,0-6.39.07-12.78,0-19.17,0-1.66.74-1.64,1.92-1.6s2.38-.18,2,1.66A6,6,0,0,0,221,37.28Z"/><path class="cls-3" d="M193.39,34.18c3.19-.07,6.09.56,8,3.46a5.54,5.54,0,0,1,.49.89c.31.83,1,1.95.33,2.5s-2.06.22-3.12.18c-.33,0-.39-.37-.46-.64-.57-2.33-2.38-3-4.45-3.25a9.16,9.16,0,0,0-3.53.27,2.77,2.77,0,0,0-2.25,2.27,2.66,2.66,0,0,0,1.47,2.82,10.24,10.24,0,0,0,2.35,1c2.06.6,4.14,1.13,6.21,1.7,2.46.67,4.34,2,4.71,4.7a7,7,0,0,1-2.64,6.77c-3.13,2.54-10.19,2.79-13.53.51a7,7,0,0,1-3-5c-.08-.49-.5-1.48.51-1.43s2.31-.8,2.94.68a6.84,6.84,0,0,0,9.86,3.13,3.17,3.17,0,0,0,1.9-3.29A2.83,2.83,0,0,0,196.77,49c-2.3-.58-4.64-1-6.91-1.68-2.7-.79-5.13-2-5.52-5.24-.46-3.88,2.62-7.35,7-7.85A19.62,19.62,0,0,1,193.39,34.18Z"/><path class="cls-3" d="M143.82,54.91c-2.53,3.29-5.77,3.91-9.36,3.15-3.21-.68-5-3-5.14-6.67-.13-5.26,0-10.53-.06-15.79,0-1,.41-1.08,1.22-1.1,2.83-.07,2.83-.1,2.83,2.67,0,4.24,0,8.49,0,12.73,0,3,.84,4.35,3,4.86A5.6,5.6,0,0,0,142.51,52a11.4,11.4,0,0,0,1.12-5.6c0-3.45.06-6.9,0-10.35,0-1.26.3-1.66,1.6-1.61,2.42.1,2.42,0,2.42,2.42,0,6.4,0,12.79,0,19.19,0,1.31-.17,2-1.71,1.85-1.27-.08-2.44.06-2.07-1.8A6.45,6.45,0,0,0,143.82,54.91Z"/><path class="cls-3" d="M165,45.76c0-2.26-.07-4.52,0-6.78.05-1.22-.37-1.54-1.53-1.48a1.72,1.72,0,0,1-1.6-2.63c.39-.69,1.13-.36,1.68-.33,1.07.07,1.53-.22,1.44-1.38s0-2.6,0-3.9c-.06-1,.35-1.21,1.27-1.22,3.07,0,3.07-.08,3.07,3v1c0,2.41,0,2.51,2.48,2.46,1.34,0,1.29.67,1.26,1.57s.25,1.93-1.26,1.74c-.39,0-.8,0-1.18,0-1.08-.14-1.33.34-1.32,1.35.05,4.46,0,8.93,0,13.39,0,1.56.56,2.53,2.29,2.37.83-.07,1.33.14,1.17,1.08s.54,2.07-1.08,2.15c-4.84.25-6.48-.93-6.67-5.4-.09-2.31,0-4.63,0-7Z"/><path class="cls-3" d="M157.09,42c0,4.63-.12,9.27.06,13.9.08,2-.78,2.08-2.34,2.08-1.41,0-1.93-.37-1.77-1.79a28.21,28.21,0,0,0,0-3c0-8.48.07-17-.05-25.42,0-2,1.17-1.52,2.27-1.63,1.3-.13,1.89.13,1.85,1.68C157,32.48,157.09,37.23,157.09,42Z"/><path class="cls-3" d="M177.61,46.4c0-3.39,0-6.79,0-10.18,0-1.09.27-1.59,1.42-1.43a6.52,6.52,0,0,0,1.53,0c.8-.06,1.08.24,1.08,1.06q0,10.44,0,20.88c0,.85-.23,1.28-1.15,1.18a4.24,4.24,0,0,0-1.18,0c-1.32.2-1.76-.29-1.72-1.66C177.68,53,177.61,49.69,177.61,46.4Z"/><path class="cls-3" d="M211.11,46.35c0,3.39-.05,6.79,0,10.17,0,1.15-.35,1.44-1.44,1.4-3-.1-2.51.32-2.52-2.51,0-6.33.07-12.66-.06-19,0-1.84.93-1.63,2.09-1.64s2-.15,2,1.56C211,39.68,211.11,43,211.11,46.35Z"/><path class="cls-3" d="M181.58,28.31c.29,1.57.1,2.42-2,2.43s-2.11-.91-2-2.43c.1-2.53-.23-2.06,2.13-2.27C181.7,25.86,181.89,26.81,181.58,28.31Z"/><path class="cls-3" d="M211.06,28.51c.44,1.65-.18,2.13-2,2.23-2.33.12-1.79-1.25-1.91-2.52-.15-1.57.18-2.18,2-2.24C211.32,25.92,211.24,27,211.06,28.51Z"/></g></g></svg>