<svg xmlns="http://www.w3.org/2000/svg" viewBox="0 0 268.92 82.8"><defs><style>.cls-1{fill:#01292a;}.cls-2{fill:#59b686;}.cls-3{fill:#e6e7e8;}</style></defs><title>Asset 59</title><g id="Layer_2" data-name="Layer 2"><g id="Layer_1-2" data-name="Layer 1"><rect class="cls-1" width="268.92" height="82.8" rx="14.4"/><path class="cls-2" d="M48.39,20.36c6.71,0,13.43,0,20.15,0,.84,0,1.14.16,1.11,1.07-.07,2.06-.05,4.12,0,6.19,0,.61-.19.78-.78.77-1.64,0-3.28,0-4.92,0A1.56,1.56,0,0,1,62.88,28a1.93,1.93,0,0,0-2.81.12,2,2,0,0,0,0,2.68,1.85,1.85,0,0,0,2.79.06c.69-.64,1.5-.38,2.23-.45,1.27-.13,2.56,0,3.83-.08.59,0,.83.17.82.77,0,1.35,0,2.69,0,4,0,.6-.23.83-.81.82H65.15a1.61,1.61,0,0,1-1.12-.5,1.93,1.93,0,0,0-2.76,0,2.13,2.13,0,0,0,0,2.79,2,2,0,0,0,2.83,0,1.76,1.76,0,0,1,1.33-.48c1.14,0,2.29,0,3.44,0,.75,0,1,.26.94,1q0,11.44,0,22.9c0,.67-.2.93-.9.89a28,28,0,0,0-3,0c-.73,0-.88-.26-.88-.91,0-4.36,0-8.71,0-13.07a1.63,1.63,0,0,1,.41-1.16,2,2,0,1,0-2.74-2.81,1.87,1.87,0,0,0,0,2.79A1.4,1.4,0,0,1,63,48.46q0,6.63,0,13.26c0,.63-.15.88-.82.85-1.08,0-2.16,0-3.24,0-.5,0-.7-.15-.7-.67q0-4.42,0-8.85a1.41,1.41,0,0,1,.44-.94,2,2,0,0,0,0-2.75,2,2,0,0,0-2.77,0,2,2,0,0,0-.12,2.75,1.78,1.78,0,0,1,.46,1.32c0,2.75,0,5.51,0,8.26,0,.75-.22,1-1,.91-1-.06-2,0-3,0-.53,0-.77-.13-.77-.71q0-6,0-11.89A1.73,1.73,0,0,1,52,48.85a1.9,1.9,0,0,0-.18-2.73,2.06,2.06,0,0,0-2.69.05A1.94,1.94,0,0,0,49,48.92a2,2,0,0,1,.54,1.58c0,3.66,0,7.33,0,11,0,.77-.13,1.08-1,1.08q-10.23-.06-20.45,0c-.84,0-1.07-.25-1-1,.06-1.48.07-3,0-4.43,0-.8.27-1,1-1,3.93,0,7.86,0,11.8,0a2,2,0,0,1,1.34.45A2,2,0,0,0,44,56.45a2.14,2.14,0,0,0-.1-2.78,1.92,1.92,0,0,0-2.75,0,1.51,1.51,0,0,1-1.12.44c-4,0-8,0-12,0-.76,0-1-.23-.93-.95.05-1.21.05-2.43,0-3.64,0-.76.26-.94,1-.93,3.27,0,6.55,0,9.83,0a1.69,1.69,0,0,1,1.24.43A2,2,0,0,0,42,49a2,2,0,0,0-.05-2.76,1.92,1.92,0,0,0-2.81,0,1.65,1.65,0,0,1-1.23.44c-3.25,0-6.49,0-9.74,0-.85,0-1.06-.29-1-1.08a28.63,28.63,0,0,0,0-3.34c-.05-.88.26-1.11,1.11-1.1,7.38,0,14.75,0,22.12,0,.82,0,1.64,0,2.46,0a2.4,2.4,0,0,1,1.8.57,1.87,1.87,0,0,0,2.57-.19,2.1,2.1,0,0,0,.05-2.71,1.94,1.94,0,0,0-2.66-.24,2.28,2.28,0,0,1-1.78.55c-6.23,0-12.45,0-18.68,0-.91,0-1.1-.27-1.06-1.1a32.89,32.89,0,0,0,0-3.44c0-.7.14-1,.91-1,5,0,10,0,14.94,0a1.6,1.6,0,0,1,1.16.41,1.94,1.94,0,0,0,2.8,0,2.11,2.11,0,0,0,0-2.78,1.93,1.93,0,0,0-2.81,0,1.55,1.55,0,0,1-1.25.38c-5.6,0-11.21,0-16.81,0-.87,0-1.12.21-1.09,1.08.08,1.74,0,3.48,0,5.21,0,.75-.24,1-1,.94a10.8,10.8,0,0,0-2,0c-.71.06-.88-.25-.87-.91,0-3.31,0-6.62,0-9.93,0-.53.07-.84.74-.84q12.54.06,25.07,0a2.29,2.29,0,0,1,1.51.54A1.85,1.85,0,0,0,57,27.67,2.19,2.19,0,0,0,57.06,25a1.91,1.91,0,0,0-2.66-.27,2.28,2.28,0,0,1-1.69.52c-8.16,0-16.32,0-24.48,0-.95,0-1.19-.29-1.12-1.16s0-1.64,0-2.46c0-1.25,0-1.25,1.31-1.25Z"/><path class="cls-3" d="M109.74,51.79,115,36.44c1-2.9,2-5.79,2.93-8.7.24-.72.54-1.19,1.42-1.09,1.56.16,3.55-.65,4.57.35s.24,2.82.25,4.29c0,7.77,0,15.55,0,23.33,0,1.47-.45,1.9-1.79,1.68a2.22,2.22,0,0,0-.63,0c-1.28.21-1.71-.24-1.7-1.6.08-6.88,0-13.76,0-20.64V32.58l-.35-.06-3.21,9.35c-1.5,4.4-3.08,8.77-4.47,13.2-.56,1.8-1.86,1.08-2.94,1.23a1.55,1.55,0,0,1-2-1.23c-2.42-7.26-4.94-14.49-7.43-21.72a2,2,0,0,0-.64-1v1.25c0,7,0,14.07,0,21.11,0,1.33-.34,1.84-1.66,1.62a2.61,2.61,0,0,0-.79,0c-1.2.18-1.67-.22-1.62-1.53.11-2.48,0-5,0-7.46,0-6.35,0-12.7,0-19,0-1.17.17-1.79,1.53-1.63,1.56.18,3.51-.61,4.61.31s1.18,2.73,1.66,4.18q3.21,9.61,6.37,19.25C109.34,50.73,109.47,51.07,109.74,51.79Z"/><path class="cls-3" d="M215.41,37.55a8.23,8.23,0,0,1,7.2-3A5.84,5.84,0,0,1,227.08,37c.56.8.8.73,1.45.07,3-3.13,8.17-3.33,10.81-.51a6.91,6.91,0,0,1,1.75,4.8c.08,4.81,0,9.63.06,14.44,0,.82-.25,1.07-1.08,1.1-2.53.07-2.53.11-2.53-2.34,0-3.81,0-7.62,0-11.42a18.42,18.42,0,0,0-.25-2.68,2.68,2.68,0,0,0-2-2.2,5,5,0,0,0-6.53,3.87c-.57,2.82-.19,5.69-.27,8.54-.05,1.64-.07,3.28,0,4.92.06,1.09-.36,1.33-1.36,1.3-2.83-.09-2.37.3-2.39-2.31,0-3.81,0-7.62,0-11.43a20.11,20.11,0,0,0-.11-2c-.26-2.57-2-3.77-4.56-3.11s-3.92,2.61-4,5.63c-.11,3.86-.1,7.72,0,11.58,0,1.27-.24,1.77-1.62,1.71-2.54-.11-2.55,0-2.55-2.5,0-6,.07-11.95,0-17.92,0-1.55.69-1.54,1.8-1.5s2.22-.17,1.86,1.55A5.26,5.26,0,0,0,215.41,37.55Z"/><path class="cls-3" d="M189.58,34.66c3-.08,5.69.51,7.47,3.23a4.44,4.44,0,0,1,.45.83c.29.78.93,1.83.31,2.34s-1.92.2-2.91.16c-.31,0-.37-.34-.43-.59-.53-2.18-2.23-2.8-4.17-3a8.57,8.57,0,0,0-3.3.25A2.59,2.59,0,0,0,184.9,40a2.48,2.48,0,0,0,1.38,2.64,9.5,9.5,0,0,0,2.19.89c1.93.56,3.87,1.06,5.81,1.59,2.3.63,4.06,1.82,4.41,4.4a6.57,6.57,0,0,1-2.48,6.33c-2.92,2.37-9.52,2.6-12.65.47a6.55,6.55,0,0,1-2.78-4.62c-.07-.47-.46-1.39.48-1.34s2.16-.75,2.75.63a6.38,6.38,0,0,0,9.22,2.93A3,3,0,0,0,195,50.8a2.63,2.63,0,0,0-2.28-2.32c-2.15-.54-4.33-1-6.46-1.58-2.52-.73-4.79-1.84-5.16-4.89-.43-3.64,2.45-6.88,6.56-7.34A17.37,17.37,0,0,1,189.58,34.66Z"/><path class="cls-3" d="M143.22,54c-2.37,3.08-5.4,3.67-8.76,3-3-.64-4.71-2.77-4.8-6.25-.13-4.91,0-9.84-.06-14.76,0-.9.38-1,1.14-1,2.65-.07,2.65-.09,2.65,2.5,0,4,0,7.93,0,11.9,0,2.81.79,4.07,2.78,4.54A5.21,5.21,0,0,0,142,51.35a10.62,10.62,0,0,0,1-5.23c0-3.23.06-6.46,0-9.68,0-1.18.28-1.55,1.49-1.51,2.27.09,2.27,0,2.27,2.27,0,6,0,12,0,17.94,0,1.23-.16,1.83-1.6,1.74-1.19-.09-2.29,0-1.94-1.69A5.58,5.58,0,0,0,143.22,54Z"/><path class="cls-3" d="M163,45.48c0-2.11-.07-4.23,0-6.34.05-1.14-.34-1.44-1.43-1.38a1.62,1.62,0,0,1-1.5-2.46c.37-.65,1.06-.34,1.58-.31,1,.06,1.43-.21,1.35-1.3s0-2.43,0-3.64c-.06-.94.33-1.13,1.19-1.14,2.87,0,2.87-.07,2.87,2.77v1c0,2.26,0,2.35,2.32,2.3,1.25,0,1.2.63,1.18,1.47s.23,1.81-1.18,1.62c-.37,0-.75,0-1.11,0-1-.13-1.24.32-1.23,1.26,0,4.18,0,8.35,0,12.52,0,1.46.52,2.37,2.14,2.22.77-.07,1.24.13,1.09,1s.51,1.93-1,2c-4.54.23-6.07-.86-6.24-5.05-.09-2.16,0-4.33,0-6.5Z"/><path class="cls-3" d="M155.63,41.94c0,4.33-.12,8.67.05,13,.08,1.89-.72,2-2.19,2-1.31,0-1.8-.34-1.65-1.68a27.08,27.08,0,0,0,0-2.85c0-7.92.06-15.85-.05-23.77,0-1.91,1.1-1.42,2.12-1.52,1.22-.12,1.77.12,1.74,1.57C155.56,33.06,155.63,37.5,155.63,41.94Z"/><path class="cls-3" d="M174.81,46.08c0-3.17,0-6.35,0-9.52,0-1,.26-1.49,1.34-1.34a6.13,6.13,0,0,0,1.42,0c.75-.07,1,.22,1,1q0,9.76,0,19.53c0,.8-.22,1.2-1.07,1.1a4.58,4.58,0,0,0-1.11,0c-1.24.19-1.65-.27-1.61-1.55C174.88,52.22,174.81,49.15,174.81,46.08Z"/><path class="cls-3" d="M206.14,46c0,3.17,0,6.34,0,9.51,0,1.07-.34,1.34-1.35,1.3-2.8-.09-2.35.3-2.36-2.34,0-5.92.07-11.84-.05-17.76,0-1.72.87-1.52,2-1.53s1.9-.14,1.82,1.47C206,39.8,206.14,42.92,206.14,46Z"/><path class="cls-3" d="M178.53,29.16c.27,1.47.1,2.27-1.83,2.28s-2-.85-1.91-2.28c.11-2.36-.2-1.93,2-2.13C178.64,26.87,178.82,27.76,178.53,29.16Z"/><path class="cls-3" d="M206.1,29.35c.41,1.54-.17,2-1.88,2.08-2.18.12-1.67-1.17-1.79-2.35-.13-1.47.17-2,1.9-2.09C206.35,26.93,206.27,27.93,206.1,29.35Z"/></g></g></svg>