<svg xmlns="http://www.w3.org/2000/svg" viewBox="0 0 308.08 82.8"><defs><style>.cls-1{fill:#0054ff;}.cls-2{font-size:43px;font-family:Corbel-Bold, Corbel;font-weight:700;}.cls-2,.cls-3{fill:#fff;}</style></defs><title>Asset 47</title><g id="Layer_2" data-name="Layer 2"><g id="Layer_1-2" data-name="Layer 1"><rect class="cls-1" width="308.08" height="82.8" rx="14.4"/><text class="cls-2" transform="translate(104.72 55.31)">NodeMcu</text><path class="cls-3" d="M75.94,34.75a1.65,1.65,0,0,1-1.48-1.5A19.9,19.9,0,0,0,45,20.53a19.54,19.54,0,0,0-9.4,12.89c-.13.54-.14,1.07-.92,1.21-8,1.39-12.79,10.91-6.95,18.82a21.27,21.27,0,0,0,6.87,5.89,41.2,41.2,0,0,0,20.14,5,42.93,42.93,0,0,0,19-4c4-2,7.56-4.56,9.76-8.6A11.55,11.55,0,0,0,75.94,34.75Zm-9.37,7.92a1.63,1.63,0,0,1,0-3.26c1.17,0,2.34,0,3.5,0A1.54,1.54,0,0,1,71.67,41a1.57,1.57,0,0,1-1.6,1.68c-.56,0-1.13,0-1.7,0h0C67.77,42.68,67.17,42.71,66.57,42.67Zm-.09-8.24a37,37,0,0,1,3.8,0A1.46,1.46,0,0,1,71.67,36a1.57,1.57,0,0,1-1.39,1.68l-.2,0h-1.7c-.63,0-1.27,0-1.9,0a1.53,1.53,0,0,1-1.43-1.63A1.51,1.51,0,0,1,66.48,34.43ZM58.41,26a1.64,1.64,0,0,1,3.27,0c0,.57,0,1.13,0,1.7h0c0,.6,0,1.2,0,1.8A1.54,1.54,0,0,1,60,31.05a1.51,1.51,0,0,1-1.62-1.54C58.37,28.34,58.37,27.17,58.41,26Zm-5,0a1.64,1.64,0,0,1,3.27,0c0,.6,0,1.2,0,1.8s0,1.21,0,1.8A1.54,1.54,0,0,1,55,31.05a1.52,1.52,0,0,1-1.58-1.48C53.38,28.37,53.38,27.17,53.42,26Zm-5-.15a1.63,1.63,0,0,1,3.23,0,15,15,0,0,1,0,1.9h0c0,.63,0,1.27,0,1.9a1.53,1.53,0,0,1-1.62,1.44,1.51,1.51,0,0,1-1.62-1.43C48.39,28.36,48.39,27.08,48.45,25.82ZM40,34.42c.63,0,1.27,0,1.9,0s1.07,0,1.6,0a1.64,1.64,0,0,1,0,3.27c-1.16,0-2.33,0-3.5,0a1.53,1.53,0,0,1-1.54-1.62A1.57,1.57,0,0,1,40,34.42Zm3.54,13.25h-1.8c-.57,0-1.13,0-1.7,0a1.59,1.59,0,0,1-1.58-1.61,1.55,1.55,0,0,1,1.51-1.65c1.2-.06,2.41,0,3.6,0a1.52,1.52,0,0,1,1.52,1.65A1.57,1.57,0,0,1,43.51,47.67Zm.12-5c-.63.06-1.26,0-1.9,0h0c-.6,0-1.2,0-1.8,0A1.56,1.56,0,0,1,38.44,41a1.52,1.52,0,0,1,1.48-1.58c1.23-.05,2.47-.05,3.7,0A1.5,1.5,0,0,1,45.06,41,1.52,1.52,0,0,1,43.63,42.66ZM51.7,56.1a1.56,1.56,0,0,1-1.61,1.56,1.54,1.54,0,0,1-1.65-1.52q-.07-1.8,0-3.6A1.53,1.53,0,0,1,50.1,51a1.51,1.51,0,0,1,1.59,1.46c.05.6,0,1.2,0,1.8h0C51.71,54.9,51.74,55.5,51.7,56.1Zm5,0A1.55,1.55,0,0,1,55,57.66a1.53,1.53,0,0,1-1.59-1.47c0-1.24,0-2.47,0-3.7A1.51,1.51,0,0,1,55,51a1.54,1.54,0,0,1,1.65,1.51c0,.6,0,1.2,0,1.8S56.73,55.56,56.68,56.15Zm5,0A1.57,1.57,0,0,1,60,57.66a1.53,1.53,0,0,1-1.6-1.46c-.05-1.23-.06-2.47,0-3.7A1.52,1.52,0,0,1,60.12,51a1.55,1.55,0,0,1,1.56,1.5,1.34,1.34,0,0,1,0,.2v1.6h0C61.68,54.94,61.72,55.54,61.68,56.14Zm1.68-8.49c0,1.26-.43,1.69-1.69,1.7H48.45c-1.27,0-1.69-.44-1.7-1.7q0-6.6,0-13.22c0-1.25.44-1.69,1.7-1.69q6.6,0,13.21,0c1.27,0,1.7.43,1.7,1.69Q63.38,41,63.36,47.65Zm6.74,0c-1.17,0-2.34,0-3.5,0a1.63,1.63,0,0,1,0-3.26c.59,0,1.2,0,1.8,0h0c.56,0,1.13,0,1.7,0a1.57,1.57,0,0,1,1.6,1.67A1.54,1.54,0,0,1,70.1,47.66Z"/><path class="cls-3" d="M56.5,37.32a1.58,1.58,0,0,0-.14,2.31c.25.34.46.64.21,1.07-.38,0-.55-.35-.78-.57-.65-.63-1.31-1.25-1.91-1.92a1.58,1.58,0,0,0-1.73-.45c-.65.19-.4.83-.42,1.3,0,.73,0,1.46,0,2.2a1.84,1.84,0,0,1-.41,1.28,1.55,1.55,0,0,0,.21,2.23,1.61,1.61,0,0,0,2.11,0,1.58,1.58,0,0,0,.17-2.24c-.27-.36-.53-.68-.27-1.15.33,0,.47.24.65.42.74.72,1.49,1.44,2.19,2.19a1.51,1.51,0,0,0,1.57.36c.62-.16.43-.74.45-1.18,0-.74,0-1.47,0-2.2a1.9,1.9,0,0,1,.32-1.31,1.57,1.57,0,0,0-.11-2.32A1.61,1.61,0,0,0,56.5,37.32Z"/></g></g></svg>