<svg xmlns="http://www.w3.org/2000/svg" viewBox="0 0 356.79 82.8"><defs><style>.cls-1{fill:#bb1042;}.cls-2{fill:#fff;}</style></defs><title>Asset 70</title><g id="Layer_2" data-name="Layer 2"><g id="Layer_1-2" data-name="Layer 1"><rect class="cls-1" width="356.79" height="82.8" rx="14.4"/><path class="cls-2" d="M113.83,43.31c3.23,1,4.51,3.26,4.62,6.37a23.16,23.16,0,0,0,.25,4.55,4.05,4.05,0,0,0,1,2.08.46.46,0,0,1,.19.48c-.07.25-.29.15-.45.15-1.69,0-3.38,0-5.06,0-.64,0-.84-.47-1-.9a8.77,8.77,0,0,1-.57-3.09c-.09-1.29.09-2.6-.11-3.89a3.79,3.79,0,0,0-3.74-3.4c-1.84-.06-3.69,0-5.53-.05-.51,0-.45.29-.45.6,0,3.34,0,6.68,0,10,0,.54-.1.73-.68.72-1.48-.05-3,0-4.45,0-.41,0-.58-.06-.58-.53q0-13.62,0-27.24c0-.35,0-.52.46-.51,3.87,0,7.74-.05,11.6,0a9.67,9.67,0,0,1,7,2.79c2.55,2.63,2.74,7.25.42,9.83A9.17,9.17,0,0,1,113.83,43.31Zm-10.89-6.18c0,1.21,0,2.42,0,3.64,0,.32,0,.48.43.48,1.77,0,3.55,0,5.32-.06A3.82,3.82,0,0,0,112,39.48,4.17,4.17,0,0,0,109,33.13c-1.89-.22-3.78-.05-5.66-.11-.39,0-.37.22-.37.48Z"/><path class="cls-2" d="M193.23,38.08c2.72-3.86,9.75-3.43,12,1.83a17.86,17.86,0,0,1,1.24,8.48,12,12,0,0,1-2,6c-2.37,3.5-8.86,4.15-11.46.24l-.22-.27c-.12.75-.24,1.41-.33,2.07-.05.34-.18.48-.56.47-1.3,0-2.61,0-3.91,0-.43,0-.53-.13-.52-.53,0-2.09,0-4.17,0-6.26,0-7.6,0-15.2,0-22.8,0-.61.17-.73.74-.72,1.46.05,2.92,0,4.39,0,.46,0,.59.1.59.58,0,3.34,0,6.68,0,10Zm0,8.42v4a1.18,1.18,0,0,0,.16.71,4.17,4.17,0,0,0,4.08,1.67,3.08,3.08,0,0,0,2.9-2.41,14,14,0,0,0-.15-8.14,3.17,3.17,0,0,0-3-2.43,4,4,0,0,0-3.71,1.61,1.51,1.51,0,0,0-.32,1C193.24,43.85,193.23,45.17,193.23,46.5Z"/><path class="cls-2" d="M170.75,55.11c0,3.13,0,6.14,0,9.14,0,.59-.11.81-.76.79-1.48-.06-3,0-4.45,0-.43,0-.53-.12-.53-.53q0-14,0-28.06c0-.39.06-.56.51-.55,1.39,0,2.79,0,4.18,0,.43,0,.53.17.57.54,0,.58.14,1.15.22,1.78.1-.06.16-.08.19-.12,2.63-3.81,8.73-3.16,11.14.36A12.79,12.79,0,0,1,184,44.86a16.66,16.66,0,0,1-.63,6.84c-1,2.76-2.65,4.84-5.68,5.44A6.68,6.68,0,0,1,171,55.29S170.91,55.23,170.75,55.11Zm0-8.62c0,1.39,0,2.78,0,4.17a1.28,1.28,0,0,0,.32.92A4.2,4.2,0,0,0,175,52.89a3.23,3.23,0,0,0,2.82-2.46,12,12,0,0,0-.27-8.29,3.72,3.72,0,0,0-6-1.19,2,2,0,0,0-.75,1.7C170.79,43.93,170.75,45.21,170.75,46.49Z"/><path class="cls-2" d="M290.29,42.84c0-4.51,0-9,0-13.52,0-.54.14-.66.66-.66,4,0,8-.07,11.94.07a9.13,9.13,0,0,1,8,4.39A8.85,8.85,0,0,1,305,46.34a28.78,28.78,0,0,1-5.64.33c-.92,0-1.84,0-2.76,0-.5,0-.65.11-.64.63,0,3,0,6,0,8.94,0,.62-.17.74-.75.73-1.46-.05-2.92,0-4.38,0-.48,0-.59-.13-.59-.59C290.3,51.85,290.29,47.34,290.29,42.84Zm5.69-5.2c0,1.39,0,2.78,0,4.17,0,.3,0,.5.41.49,1.89,0,3.78,0,5.67,0a4.12,4.12,0,0,0,4.24-3.58c.44-2.65-.84-5.42-4.11-5.59-1.93-.1-3.87,0-5.8-.07-.42,0-.41.22-.41.51C296,34.9,296,36.27,296,37.64Z"/><path class="cls-2" d="M267.51,49.12l1.71-5.63c.69-2.29,1.39-4.58,2-6.88a.84.84,0,0,1,1-.73c1.55,0,3.11,0,4.66,0,.61,0,.7.12.49.69-2.28,6.38-4.53,12.76-6.8,19.15-.47,1.35-.95,2.7-1.42,4A12.89,12.89,0,0,1,268,62.23c-1.76,2.83-4.18,3.52-7.44,3-1.39-.21-1.38-.28-1.14-1.66.13-.75.26-1.5.36-2.25,0-.39.15-.52.58-.49,2.13.18,3.08-.48,4-2.45a3.61,3.61,0,0,0,.09-3c-2.3-6.27-4.51-12.58-6.76-18.87-.17-.48-.21-.68.43-.67,1.66,0,3.33,0,5,0,.37,0,.54.08.65.47,1.12,3.89,2.27,7.77,3.4,11.66.11.36.16.74.24,1.11Z"/><path class="cls-2" d="M141.21,56.94c-1.9,0-3.67,0-5.44,0-.31,0-.37-.19-.46-.39a15,15,0,0,1-.71-2.66,8.88,8.88,0,0,1-2.06,2.28c-2.7,2-7.46,1.36-9.38-1.27a6.27,6.27,0,0,1,3.4-9.78,17.8,17.8,0,0,1,5.13-.66c.76,0,1.53,0,2.29,0,.4,0,.58-.06.54-.51a9.75,9.75,0,0,1,0-1.21,2.88,2.88,0,0,0-3.32-3.08,2.45,2.45,0,0,0-2.64,2.22c0,.26-.16.28-.35.28-1.62,0-3.24,0-4.86,0-.44,0-.38-.28-.37-.54a5.21,5.21,0,0,1,1.77-3.73,8.5,8.5,0,0,1,4.54-2.19,12.5,12.5,0,0,1,6.13.35,6.61,6.61,0,0,1,4.83,6.67c0,2.45,0,4.89,0,7.34A17.29,17.29,0,0,0,141.21,56.94Zm-6.7-7.6c0-.36,0-.72,0-1.08s-.1-.54-.52-.53c-1,0-1.93,0-2.9,0a3.29,3.29,0,0,0-3,1.58,2.37,2.37,0,0,0,1.09,3.58,4.44,4.44,0,0,0,4-.68A2.57,2.57,0,0,0,134.51,49.34Z"/><path class="cls-2" d="M221.58,48.1c-1.91,0-3.82,0-5.73,0-.61,0-.65.2-.56.7.59,3.09,2.64,4.49,6,4.1a10.4,10.4,0,0,0,4-1.29c.44-.24.59-.15.76.29q.48,1.26,1.08,2.46c.21.42.17.64-.24.9a13.59,13.59,0,0,1-8.89,2,9,9,0,0,1-7.58-5.18,12.22,12.22,0,0,1-1.12-6,12.48,12.48,0,0,1,1.11-5.21c1.85-3.82,4.92-5.5,9.14-5.32a8.3,8.3,0,0,1,8.21,8.22c.07,1.29,0,2.6,0,3.89,0,.41-.15.47-.51.47Zm-2.8-3.77h1.88c1.84,0,1.84,0,1.44-1.83A3,3,0,0,0,219.37,40,3.09,3.09,0,0,0,216,41.66a7.2,7.2,0,0,0-.74,2.21c-.07.36,0,.48.39.47C216.71,44.32,217.74,44.33,218.78,44.33Z"/><path class="cls-2" d="M158.41,42.29H157.2a4,4,0,0,1-1.34,0c-.42-.16-.22-.74-.39-1.12a3.19,3.19,0,0,0-3.76-1.62,3.06,3.06,0,0,0-.88.3,2.11,2.11,0,0,0-1.23,1.94,2,2,0,0,0,1.23,1.84,15.1,15.1,0,0,0,3.49,1,16.84,16.84,0,0,1,4.24,1.49,5.53,5.53,0,0,1,.88,9.12,9.32,9.32,0,0,1-4.58,2,12,12,0,0,1-7.31-.88,6.67,6.67,0,0,1-3.93-5c-.18-1.1-.18-1.1.9-1.1h3.85c.26,0,.46,0,.5.35.19,2.27,2.11,2.86,3.95,2.86a4.4,4.4,0,0,0,1.52-.24,2.09,2.09,0,0,0,1.52-1.79,2,2,0,0,0-1.09-2,9.71,9.71,0,0,0-3.11-1.06,17.82,17.82,0,0,1-4.69-1.6A5.46,5.46,0,0,1,145.74,38a8,8,0,0,1,5-2.36,11.44,11.44,0,0,1,7.44,1.24,5.78,5.78,0,0,1,3.05,4.78c0,.47-.06.69-.6.65C159.9,42.25,159.15,42.29,158.41,42.29Z"/><path class="cls-2" d="M236.66,38.85a8.37,8.37,0,0,1,1.55-2.13,4.53,4.53,0,0,1,4.13-1.09c.36.07.48.21.43.58-.19,1.42-.37,2.84-.52,4.27,0,.32-.18.33-.43.33a17.77,17.77,0,0,0-2.42,0,3.2,3.2,0,0,0-2.21,1.28,1.82,1.82,0,0,0-.39,1.17c0,4.35,0,8.71,0,13.06,0,.48-.08.66-.62.65-1.53,0-3.06,0-4.59,0-.42,0-.53-.12-.53-.53q0-10,0-20c0-.46.16-.56.58-.55,1.42,0,2.84,0,4.25,0,.43,0,.53.12.55.52C236.49,37.16,236.58,37.92,236.66,38.85Z"/><path class="cls-2" d="M250.61,38.88a8.08,8.08,0,0,1,1.52-2.13,4.48,4.48,0,0,1,4.19-1.11c.33.07.43.19.39.54-.19,1.4-.34,2.8-.5,4.21,0,.31-.14.43-.5.42a14.18,14.18,0,0,0-2.35,0,3.13,3.13,0,0,0-2.25,1.32,1.89,1.89,0,0,0-.38,1.18c0,4.33,0,8.66,0,13,0,.51-.1.69-.65.68-1.51-.05-3,0-4.52,0-.43,0-.52-.12-.52-.53q0-10,0-20c0-.37,0-.56.49-.55,1.44,0,2.88,0,4.32,0,.39,0,.51.13.53.48C250.45,37.15,250.53,37.92,250.61,38.88Z"/><path class="cls-2" d="M321.77,46.47c0,3.27,0,6.55,0,9.82,0,.52-.13.68-.66.67-1.51,0-3,0-4.52,0-.45,0-.56-.13-.56-.56q0-10,0-20c0-.41.11-.54.53-.53,1.55,0,3.1,0,4.65,0,.45,0,.56.13.56.56C321.76,39.79,321.77,43.13,321.77,46.47Z"/><path class="cls-2" d="M318.93,30.92c-.81,0-1.62,0-2.43,0-.36,0-.46-.12-.46-.46,0-1.13,0-2.25,0-3.37,0-.35.1-.46.45-.45,1.62,0,3.24,0,4.86,0,.33,0,.43.09.42.42,0,1.14,0,2.28,0,3.43,0,.39-.16.43-.48.43C320.5,30.91,319.71,30.92,318.93,30.92Z"/><path class="cls-2" d="M69.75,25.71c0,.18-.13.2-.22.27a9.55,9.55,0,0,1-1.81,1c-.09,0-.23,0-.23.17s.13.18.24.21.4.08.64.13a4.52,4.52,0,0,1-1.26.55c-.33.12-.67.2-1,.3-.08,0-.19,0-.21.13s.08.19.16.24.35.16.55.25a6.67,6.67,0,0,1-1.95.38l-.42,0c-.17,0-.38,0-.42.18s.15.29.29.38a2.92,2.92,0,0,1,.32.21A8.84,8.84,0,0,1,59.12,29a3.7,3.7,0,0,1-1.51-1.92.53.53,0,0,1,.13-.65,27.09,27.09,0,0,1,5.18-4c1.2-.74,2.43-1.43,3.68-2.08.1-.05.23-.06.27-.2-.11-.11-.22,0-.31,0a33.55,33.55,0,0,0-9.4,5c-.65.51-.66.52-1.33,0a2.68,2.68,0,0,1-1.08-2.74,8.24,8.24,0,0,1,2.18-4.25l.26-.23s.05,0,.05.06c.06.23,0,.55.27.61s.31-.26.45-.41a9.06,9.06,0,0,1,1.35-1.35,1.64,1.64,0,0,0,0,.67c.12.32.31.36.52.1a5.53,5.53,0,0,1,.91-.9c.11-.08.21-.2.38-.16h0a1.81,1.81,0,0,0,0,.23.61.61,0,0,0,.19.57c.2.13.3-.13.43-.23a5.12,5.12,0,0,1,1.66-1c-.17.23-.33.38-.34.6a.36.36,0,0,0,.11.32c.12.11.21,0,.31-.05a5.87,5.87,0,0,1,2.07-.79c-.17.2-.32.35-.44.51s-.15.27,0,.4.23,0,.35,0a6.87,6.87,0,0,1,2-.48c-.13.12-.26.23-.37.35a.38.38,0,0,0-.06.47c.09.14.26.07.39,0a5.7,5.7,0,0,1,1.87-.32l.61.06c-.14.15-.27.27-.38.4s-.23.15-.17.28.2.07.32.08a14,14,0,0,0,2.16,0,5.69,5.69,0,0,0-.68,1.15c-.07.19-.13.39-.22.58s0,.32.24.3l.8-.06a2.54,2.54,0,0,1-.73.94c-.16.15-.33.29-.5.43s-.4.21-.3.44.34.14.52.14a4,4,0,0,0,.62-.09,7.25,7.25,0,0,1-1.14,1.26.88.88,0,0,0-.15.12c-.11.16-.44.25-.36.43s.4.17.63.16l.36,0a8.74,8.74,0,0,1-1.7,1.37c-.1.07-.29.1-.26.25s.21.16.35.18a4,4,0,0,0,.5,0Z"/><path class="cls-2" d="M47.68,17c.22,0,.31.15.43.27a10.19,10.19,0,0,1,1.12,1.24c.22.27.29.25.41-.08,0-.14.08-.28.12-.44a4.46,4.46,0,0,1,1,1,8.63,8.63,0,0,1,1.5,3.34,2.87,2.87,0,0,1-1.64,3.26.27.27,0,0,1-.35,0,32.55,32.55,0,0,0-9.49-5.25l-.29-.1a.37.37,0,0,0-.11,0c0,.18.11.19.2.23a47.6,47.6,0,0,1,6.39,4,21.66,21.66,0,0,1,2.28,2,.63.63,0,0,1,.15.79,4.29,4.29,0,0,1-2.71,2.44,10,10,0,0,1-4.1.56,4,4,0,0,0,.4-.26c.13-.09.3-.19.24-.36s-.22-.15-.36-.16l-.93-.07A5.65,5.65,0,0,1,40.38,29l.53-.23c.1-.06.21-.13.19-.26s-.16-.12-.25-.14a11.29,11.29,0,0,1-2-.68l-.29-.17a2.65,2.65,0,0,0,.7-.13c.09,0,.22-.06.23-.18s-.13-.15-.22-.19a9,9,0,0,1-2-1.19l-.18-.16a2.17,2.17,0,0,0,.67,0c.13,0,.3,0,.33-.17s-.14-.19-.24-.26a8.33,8.33,0,0,1-1.53-1.18l-.17-.2a1.7,1.7,0,0,0,.84,0c.17-.06.24-.13.06-.28a11.76,11.76,0,0,1-1.34-1.3,2.09,2.09,0,0,1-.19-.29,6.36,6.36,0,0,0,.72,0c.13,0,.32,0,.38-.14s-.09-.28-.22-.37a6.64,6.64,0,0,1-.84-.74,2,2,0,0,1-.49-.7c.3,0,.58,0,.86.06s.27-.07.2-.27a5.61,5.61,0,0,0-.92-1.76A12.61,12.61,0,0,0,37.74,18a2.86,2.86,0,0,0-.61-.69,4.28,4.28,0,0,1,2,.11c.14,0,.27.08.41.12s.33.13.43,0a.44.44,0,0,0-.1-.51c-.09-.1-.2-.18-.34-.31a7.15,7.15,0,0,1,1.89.44c.15,0,.34.21.46,0s0-.37-.12-.53l-.27-.35a5.85,5.85,0,0,1,1.85.68c.13.08.28.31.46.12a.42.42,0,0,0,0-.57s0-.07,0-.11c.2-.12.35,0,.5.07a7,7,0,0,1,1,.75c.1.08.17.23.32.18s.18-.24.22-.39a1,1,0,0,0-.06-.49,4.11,4.11,0,0,1,1.27,1.06c.09.1.13.29.31.24a.44.44,0,0,0,.29-.42,3.09,3.09,0,0,0,0-.43Z"/><path class="cls-2" d="M40.16,45a7.51,7.51,0,0,1,6.08-7.38,5.14,5.14,0,0,1,6,4.92,7.57,7.57,0,0,1-5.09,7.61,5.22,5.22,0,0,1-6.91-4.59C40.19,45.34,40.18,45.14,40.16,45Z"/><path class="cls-2" d="M66.51,44.73a5.3,5.3,0,0,1-2,4.42,4.66,4.66,0,0,1-3.34,1,6.66,6.66,0,0,1-5-3,6.8,6.8,0,0,1-.94-6.9,4.73,4.73,0,0,1,6-2.6,7.56,7.56,0,0,1,5.22,6.36A5.41,5.41,0,0,1,66.51,44.73Z"/><path class="cls-2" d="M53.28,60.85a6.13,6.13,0,0,1-5.4-3.2A5.65,5.65,0,0,1,51,49.73a6.52,6.52,0,0,1,5.56.18,5.49,5.49,0,0,1,3,6.55,5.87,5.87,0,0,1-3.77,3.94A7.46,7.46,0,0,1,53.28,60.85Z"/><path class="cls-2" d="M70.06,55.41A7.55,7.55,0,0,1,62.58,63a2.11,2.11,0,0,1-2.15-2,7.39,7.39,0,0,1,1.06-4.6,11.9,11.9,0,0,1,3.39-3.94,4.58,4.58,0,0,1,2.79-1,1.94,1.94,0,0,1,2,1.43A9.33,9.33,0,0,1,70,54.25,7.9,7.9,0,0,1,70.06,55.41Z"/><path class="cls-2" d="M39.24,52.27a4.49,4.49,0,0,1,2.76,1,11,11,0,0,1,3,3.38,7.7,7.7,0,0,1,1.13,3.46,2.81,2.81,0,0,1-.44,1.92,2.08,2.08,0,0,1-2.06.88,7.51,7.51,0,0,1-6.84-7.13A6.51,6.51,0,0,1,37,53.91,2,2,0,0,1,39.24,52.27Z"/><path class="cls-2" d="M53,37a7.63,7.63,0,0,1-3.57-1A3.18,3.18,0,0,1,48,34.73a1.66,1.66,0,0,1,.14-1.95,6,6,0,0,1,2.22-1.72,7,7,0,0,1,8.23,1.6c1.11,1.23.71,2.45-.57,3.27A8.32,8.32,0,0,1,53,37Z"/><path class="cls-2" d="M53.39,68.58a7.33,7.33,0,0,1-5.68-2.66,1,1,0,0,1,.15-1.72,5.85,5.85,0,0,1,2.49-1.11A14.32,14.32,0,0,1,54,62.72a11.61,11.61,0,0,1,4.46.9,2.39,2.39,0,0,1,.9.77.93.93,0,0,1-.09,1.08A7.32,7.32,0,0,1,53.39,68.58Z"/><path class="cls-2" d="M38.21,44.58a16,16,0,0,1-.88,5.17,5.64,5.64,0,0,1-.74,1.52c-.09.12-.18.26-.28.37a.65.65,0,0,1-1.07,0,6.76,6.76,0,0,1,1.36-10.3c.5-.3.67-.27,1,.16a2.16,2.16,0,0,1,.41,1A11.28,11.28,0,0,1,38.21,44.58Z"/><path class="cls-2" d="M73,46.91a6.72,6.72,0,0,1-1.88,4.55c-.38.4-.59.43-.95,0A4.42,4.42,0,0,1,69.27,50a19.78,19.78,0,0,1-1.09-5.69,6.53,6.53,0,0,1,.42-3.12.49.49,0,0,1,.75-.29A6.78,6.78,0,0,1,73,46.91Z"/><path class="cls-2" d="M68.68,38.48c0,.16,0,.31,0,.47,0,.51-.19.6-.7.38a13,13,0,0,1-2.58-1.55,29,29,0,0,1-4.66-4.19,4.59,4.59,0,0,1-1-1.33c-.11-.27-.08-.43.27-.51a7.05,7.05,0,0,1,8.54,5.62c.06.37.1.74.14,1.11Z"/><path class="cls-2" d="M37.56,38.49a7.07,7.07,0,0,1,6.6-6.91,6.64,6.64,0,0,1,2.08.17c.29.07.38.2.24.49a6.78,6.78,0,0,1-1.54,2,37.13,37.13,0,0,1-3.42,3,14,14,0,0,1-3.2,2,1.34,1.34,0,0,1-.18.07c-.35.06-.58.1-.58-.39Z"/><path class="cls-2" d="M47.69,17l0-.05,0,.06Z"/><path class="cls-2" d="M69.76,25.71l.08,0c0,.08,0,0-.09,0Z"/><path class="cls-2" d="M61.14,16.63l0-.05v0l0,0Z"/></g></g></svg>