<svg xmlns="http://www.w3.org/2000/svg" viewBox="0 0 320.32 82.8"><defs><style>.cls-1{fill:#bb1042;}.cls-2{fill:#fff;}</style></defs><title>Asset 37</title><g id="Layer_2" data-name="Layer 2"><g id="Layer_1-2" data-name="Layer 1"><rect class="cls-1" width="320.32" height="82.8" rx="14.4"/><path class="cls-2" d="M88.77,43.26c3.3,1,4.6,3.32,4.72,6.49a22.45,22.45,0,0,0,.25,4.63,4.12,4.12,0,0,0,1,2.13A.48.48,0,0,1,95,57c-.08.25-.31.15-.47.15-1.72,0-3.44,0-5.15,0-.66,0-.86-.49-1.06-.92a8.67,8.67,0,0,1-.58-3.15c-.1-1.32.09-2.65-.11-4a3.85,3.85,0,0,0-3.81-3.46c-1.88-.07-3.76,0-5.64-.05-.52,0-.46.28-.46.6,0,3.41,0,6.81,0,10.22,0,.54-.11.74-.7.72-1.51,0-3,0-4.54,0-.41,0-.59-.06-.59-.55q0-13.87,0-27.75c0-.36,0-.53.46-.52,3.94,0,7.89-.05,11.82.05a9.86,9.86,0,0,1,7.08,2.85c2.6,2.67,2.79,7.38.43,10A9.15,9.15,0,0,1,88.77,43.26ZM77.68,37c0,1.24,0,2.47,0,3.71,0,.32,0,.49.44.49,1.81,0,3.62,0,5.42-.06a3.88,3.88,0,0,0,3.4-1.74,4.26,4.26,0,0,0-3.12-6.48c-1.92-.22-3.84-.05-5.77-.1-.39,0-.37.22-.37.48Z"/><path class="cls-2" d="M169.68,37.93c2.78-3.93,9.94-3.5,12.27,1.87a18.22,18.22,0,0,1,1.25,8.63,12.2,12.2,0,0,1-2,6.16c-2.42,3.58-9,4.24-11.68.25,0-.07-.11-.13-.22-.27-.13.77-.25,1.43-.34,2.11-.05.35-.18.49-.57.48q-2,0-4,0c-.43,0-.53-.13-.53-.54,0-2.13,0-4.25,0-6.38,0-7.74,0-15.49,0-23.23,0-.63.17-.75.75-.73,1.49,0,3,0,4.47,0,.47,0,.61.1.61.59,0,3.4,0,6.81,0,10.21Zm0,8.58c0,1.37,0,2.74,0,4.11a1.17,1.17,0,0,0,.17.72A4.23,4.23,0,0,0,174,53a3.14,3.14,0,0,0,3-2.46,14.2,14.2,0,0,0-.15-8.29,3.24,3.24,0,0,0-3-2.47A4,4,0,0,0,170,41.45a1.56,1.56,0,0,0-.32,1C169.7,43.81,169.68,45.16,169.68,46.51Z"/><path class="cls-2" d="M146.78,55.29c0,3.18,0,6.24,0,9.31,0,.6-.12.82-.78.8-1.51-.06-3,0-4.53,0-.43,0-.54-.12-.54-.54q0-14.29,0-28.59c0-.4.07-.57.52-.56q2.13,0,4.26,0c.43,0,.54.17.57.55,0,.59.15,1.17.23,1.81.11-.06.17-.08.2-.12,2.68-3.88,8.89-3.22,11.35.36a13.07,13.07,0,0,1,2.2,6.54,17,17,0,0,1-.64,7c-1,2.82-2.7,4.93-5.79,5.55-2.57.51-4.93.13-6.81-1.89A1.79,1.79,0,0,0,146.78,55.29Zm0-8.79c0,1.41,0,2.83,0,4.25a1.32,1.32,0,0,0,.34.93,4.25,4.25,0,0,0,4,1.34A3.29,3.29,0,0,0,154,50.51a12.14,12.14,0,0,0-.28-8.44,3.79,3.79,0,0,0-6.16-1.22,2.13,2.13,0,0,0-.77,1.74C146.82,43.89,146.78,45.19,146.78,46.5Z"/><path class="cls-2" d="M268.59,42.78c0-4.6,0-9.19,0-13.78,0-.54.15-.67.68-.67,4.05,0,8.11-.07,12.16.07,3.42.12,6.36,1.42,8.19,4.47a9,9,0,0,1-6,13.47,27.73,27.73,0,0,1-5.75.34c-.94,0-1.88,0-2.82,0-.5,0-.65.12-.65.64,0,3,0,6.08,0,9.12,0,.62-.17.75-.76.73-1.48,0-3,0-4.46,0-.49,0-.61-.13-.6-.61Q268.59,49.67,268.59,42.78Zm5.8-5.3c0,1.41,0,2.83,0,4.25,0,.3,0,.51.42.5,1.93,0,3.86,0,5.78,0a4.21,4.21,0,0,0,4.32-3.65c.45-2.7-.85-5.53-4.19-5.69-2-.1-3.94,0-5.91-.07-.43,0-.42.22-.42.51C274.39,34.69,274.39,36.08,274.39,37.48Z"/><path class="cls-2" d="M245.38,49.18l1.74-5.74c.7-2.33,1.42-4.66,2.09-7,.16-.59.43-.76,1-.74,1.58.05,3.16,0,4.74,0,.63,0,.71.12.51.7q-3.5,9.75-6.93,19.51L247.11,60a12.73,12.73,0,0,1-1.24,2.51c-1.79,2.88-4.26,3.59-7.58,3.07-1.41-.22-1.4-.29-1.16-1.7.13-.76.27-1.52.36-2.29,0-.39.16-.53.6-.49,2.17.17,3.14-.5,4-2.5a3.68,3.68,0,0,0,.1-3c-2.35-6.39-4.6-12.82-6.9-19.23-.17-.48-.21-.7.44-.68,1.7.05,3.39,0,5.09,0,.37,0,.55.08.67.48,1.14,4,2.31,7.92,3.46,11.88.11.37.16.75.24,1.13Z"/><path class="cls-2" d="M116.67,57.15c-1.92,0-3.73,0-5.54,0-.31,0-.37-.19-.46-.4a14.72,14.72,0,0,1-.73-2.71,8.86,8.86,0,0,1-2.1,2.32c-2.74,2.05-7.6,1.39-9.56-1.29a6.39,6.39,0,0,1,3.47-10,18.43,18.43,0,0,1,5.22-.67c.78,0,1.56,0,2.34,0,.4,0,.59-.06.55-.52a10.08,10.08,0,0,1,0-1.23,2.93,2.93,0,0,0-3.38-3.14c-1.36.06-2.64.77-2.69,2.26,0,.27-.16.29-.36.29h-5c-.45,0-.39-.28-.38-.55a5.32,5.32,0,0,1,1.8-3.79,8.69,8.69,0,0,1,4.63-2.24,12.82,12.82,0,0,1,6.24.36,6.74,6.74,0,0,1,4.93,6.8q0,3.73,0,7.48A17.78,17.78,0,0,0,116.67,57.15Zm-6.82-7.75c0-.37,0-.74,0-1.1s-.1-.55-.53-.53c-1,0-2,0-2.95,0a3.37,3.37,0,0,0-3.07,1.61A2.41,2.41,0,0,0,104.41,53a4.52,4.52,0,0,0,4-.69A2.63,2.63,0,0,0,109.85,49.4Z"/><path class="cls-2" d="M198.57,48.14c-1.95,0-3.89,0-5.84,0-.62,0-.66.21-.56.72.6,3.14,2.69,4.56,6.13,4.17a10.86,10.86,0,0,0,4.08-1.31c.44-.25.6-.16.77.29.33.86.69,1.69,1.1,2.51.21.43.17.65-.25.92a13.87,13.87,0,0,1-9.06,2,9.17,9.17,0,0,1-7.72-5.28,12.42,12.42,0,0,1-1.14-6.12,12.76,12.76,0,0,1,1.13-5.31c1.88-3.89,5-5.61,9.32-5.42a8.46,8.46,0,0,1,8.36,8.37c.07,1.32,0,2.65,0,4,0,.41-.15.47-.51.47Zm-2.85-3.84h1.92c1.87,0,1.87,0,1.46-1.86a3.08,3.08,0,0,0-2.78-2.61,3.17,3.17,0,0,0-3.41,1.75,7.44,7.44,0,0,0-.74,2.25c-.08.37,0,.48.39.48C193.61,44.29,194.66,44.3,195.72,44.3Z"/><path class="cls-2" d="M134.21,42.22H133a4.09,4.09,0,0,1-1.36,0c-.43-.17-.23-.76-.4-1.14a3.24,3.24,0,0,0-3.83-1.65,3.08,3.08,0,0,0-.9.3,2.16,2.16,0,0,0-1.25,2,2,2,0,0,0,1.25,1.88,15.05,15.05,0,0,0,3.56,1,17.63,17.63,0,0,1,4.32,1.52,5.64,5.64,0,0,1,.89,9.3,9.44,9.44,0,0,1-4.67,2,12.19,12.19,0,0,1-7.44-.89,6.81,6.81,0,0,1-4-5.07c-.18-1.12-.18-1.12.92-1.12H124c.27,0,.48,0,.51.36.2,2.31,2.15,2.91,4,2.91a4.4,4.4,0,0,0,1.56-.25,2.13,2.13,0,0,0,1.55-1.82,2,2,0,0,0-1.11-2,10.15,10.15,0,0,0-3.17-1.07,18.23,18.23,0,0,1-4.79-1.64,5.56,5.56,0,0,1-1.25-8.9,8.31,8.31,0,0,1,5.11-2.41A11.68,11.68,0,0,1,134,36.71a5.9,5.9,0,0,1,3.11,4.87c0,.48-.06.7-.62.66C135.72,42.18,135,42.22,134.21,42.22Z"/><path class="cls-2" d="M213.94,38.71a8.88,8.88,0,0,1,1.58-2.17,4.58,4.58,0,0,1,4.21-1.1c.37.07.49.21.44.58-.2,1.45-.38,2.9-.53,4.35,0,.33-.18.34-.44.34a18.52,18.52,0,0,0-2.47,0,3.27,3.27,0,0,0-2.25,1.3,1.91,1.91,0,0,0-.4,1.2c0,4.43,0,8.87,0,13.3,0,.49-.08.68-.63.66-1.55,0-3.11,0-4.67,0-.43,0-.54-.12-.54-.54q0-10.18,0-20.36c0-.47.15-.57.59-.56,1.44,0,2.89,0,4.33,0,.43,0,.54.13.55.54C213.76,37,213.86,37.76,213.94,38.71Z"/><path class="cls-2" d="M228.15,38.74a8.34,8.34,0,0,1,1.56-2.17A4.56,4.56,0,0,1,234,35.45c.34.06.44.19.4.54-.19,1.43-.35,2.86-.51,4.29,0,.32-.14.44-.51.43a14.78,14.78,0,0,0-2.4,0A3.26,3.26,0,0,0,228.66,42a2,2,0,0,0-.39,1.21c0,4.41,0,8.82,0,13.23,0,.52-.1.7-.66.68-1.53,0-3.07,0-4.61,0-.43,0-.52-.13-.52-.54q0-10.18,0-20.36c0-.38,0-.58.5-.57,1.47,0,2.94,0,4.4,0,.39,0,.52.13.54.49C228,37,228.07,37.77,228.15,38.74Z"/><path class="cls-2" d="M300.66,46.48c0,3.34,0,6.67,0,10,0,.54-.12.7-.67.68-1.54,0-3.07,0-4.61,0-.45,0-.56-.13-.56-.58q0-10.17,0-20.34c0-.42.1-.55.53-.54q2.37,0,4.74,0c.46,0,.57.13.57.57C300.65,39.68,300.66,43.08,300.66,46.48Z"/><path class="cls-2" d="M297.77,30.64c-.83,0-1.65,0-2.48,0-.37,0-.47-.12-.46-.47,0-1.14,0-2.29,0-3.43,0-.36.1-.46.46-.46q2.47,0,4.95,0c.33,0,.43.1.43.43,0,1.16,0,2.33,0,3.49,0,.4-.17.45-.5.44C299.37,30.62,298.57,30.64,297.77,30.64Z"/><path class="cls-2" d="M54.52,25.71c0,.18-.13.2-.22.27a9.63,9.63,0,0,1-1.82,1c-.08,0-.23,0-.23.17s.14.18.24.21.4.08.64.13a4.39,4.39,0,0,1-1.26.55c-.33.12-.67.2-1,.3-.08,0-.2,0-.22.13s.08.19.17.24a5.87,5.87,0,0,0,.55.25,6.74,6.74,0,0,1-1.95.38c-.14,0-.29,0-.43,0s-.38,0-.42.18.15.29.29.38a2.92,2.92,0,0,1,.32.21A8.85,8.85,0,0,1,43.88,29a3.7,3.7,0,0,1-1.51-1.92.55.55,0,0,1,.13-.65,26.85,26.85,0,0,1,5.19-4c1.19-.74,2.42-1.43,3.68-2.08.09-.05.23-.06.26-.2s-.22,0-.31,0a33.83,33.83,0,0,0-9.4,5c-.65.51-.65.52-1.32,0a2.68,2.68,0,0,1-1.08-2.74,8.09,8.09,0,0,1,2.18-4.25L42,18s0,0,0,.06c.06.23.06.55.28.61s.31-.26.44-.41a10.13,10.13,0,0,1,1.35-1.35,1.84,1.84,0,0,0,0,.67c.13.32.31.36.52.1a5.6,5.6,0,0,1,.92-.9c.11-.08.21-.2.37-.16h0l0,.23a.61.61,0,0,0,.19.57c.21.13.31-.13.43-.23a5.17,5.17,0,0,1,1.67-1c-.18.23-.34.38-.35.6a.36.36,0,0,0,.11.32c.12.11.22,0,.31-.05a5.92,5.92,0,0,1,2.08-.79c-.18.2-.33.35-.45.51s-.15.27,0,.4.24,0,.36,0a6.8,6.8,0,0,1,2-.48c-.13.12-.26.23-.37.35a.38.38,0,0,0-.06.47c.1.14.26.07.4,0A5.64,5.64,0,0,1,54,17.26l.61.06-.38.4c-.07.09-.22.15-.17.28s.21.07.32.08a14.05,14.05,0,0,0,2.16,0,5.63,5.63,0,0,0-.67,1.15c-.08.19-.14.39-.23.58s0,.32.24.3l.81-.06A2.65,2.65,0,0,1,56,21c-.16.15-.34.29-.51.43s-.39.21-.3.44.34.14.53.14a3.75,3.75,0,0,0,.61-.09,6.87,6.87,0,0,1-1.14,1.26,1.49,1.49,0,0,0-.14.12c-.12.16-.45.25-.37.43s.41.17.64.16l.36,0a8.79,8.79,0,0,1-1.71,1.37c-.1.07-.29.1-.26.25s.22.16.35.18a4,4,0,0,0,.5,0Z"/><path class="cls-2" d="M32.45,17c.21,0,.3.15.43.27A10.12,10.12,0,0,1,34,18.53c.22.27.29.25.42-.08.05-.14.07-.28.12-.44a4.41,4.41,0,0,1,.94,1A8.65,8.65,0,0,1,37,22.34a2.86,2.86,0,0,1-1.65,3.26.26.26,0,0,1-.34,0,32.6,32.6,0,0,0-9.5-5.25l-.29-.1s-.07,0-.11,0c0,.18.12.19.21.23a48.24,48.24,0,0,1,6.39,4,23.88,23.88,0,0,1,2.28,2,.63.63,0,0,1,.14.79,4.28,4.28,0,0,1-2.7,2.44,10.1,10.1,0,0,1-4.11.56c.16-.1.29-.17.41-.26s.29-.19.24-.36-.23-.15-.37-.16l-.93-.07a5.58,5.58,0,0,1-1.5-.34l.52-.23c.1-.06.22-.13.19-.26s-.16-.12-.25-.14a11.88,11.88,0,0,1-2-.68l-.29-.17a2.65,2.65,0,0,0,.71-.13c.09,0,.21-.06.22-.18s-.12-.15-.21-.19a8.85,8.85,0,0,1-2-1.19l-.18-.16a2.23,2.23,0,0,0,.68,0c.12,0,.3,0,.33-.17s-.14-.19-.25-.26a8.33,8.33,0,0,1-1.53-1.18l-.16-.2a1.7,1.7,0,0,0,.84,0c.17-.06.24-.13.05-.28a12.64,12.64,0,0,1-1.34-1.3,2.15,2.15,0,0,1-.18-.29A6.24,6.24,0,0,0,21,22c.13,0,.32,0,.37-.14s-.09-.28-.21-.37a6.73,6.73,0,0,1-.85-.74,2.16,2.16,0,0,1-.49-.7c.3,0,.58,0,.86.06s.27-.07.2-.27A5.41,5.41,0,0,0,20,18.11,12.56,12.56,0,0,0,22.5,18a2.49,2.49,0,0,0-.61-.69,4.28,4.28,0,0,1,2.05.11c.14,0,.28.08.41.12s.33.13.43,0a.45.45,0,0,0-.09-.51c-.09-.1-.21-.18-.35-.31a7.32,7.32,0,0,1,1.9.44c.15,0,.34.21.46,0s0-.37-.13-.53l-.26-.35a5.8,5.8,0,0,1,1.84.68c.14.08.29.31.47.12a.43.43,0,0,0,0-.57.36.36,0,0,1,0-.11c.19-.12.35,0,.5.07a7.62,7.62,0,0,1,1,.75c.09.08.17.23.32.18s.18-.24.21-.39a.87.87,0,0,0-.06-.49,4.11,4.11,0,0,1,1.27,1.06c.09.1.14.29.32.24a.47.47,0,0,0,.29-.42c0-.14,0-.29,0-.43Z"/><path class="cls-2" d="M24.93,45A7.5,7.5,0,0,1,31,37.59a5.14,5.14,0,0,1,6,4.92,7.57,7.57,0,0,1-5.09,7.61A5.22,5.22,0,0,1,25,45.53C25,45.34,24.94,45.14,24.93,45Z"/><path class="cls-2" d="M51.28,44.73a5.33,5.33,0,0,1-2,4.42,4.68,4.68,0,0,1-3.34,1,6.7,6.7,0,0,1-5-3,6.82,6.82,0,0,1-.94-6.9,4.74,4.74,0,0,1,6-2.6,7.54,7.54,0,0,1,5.21,6.36A7.37,7.37,0,0,1,51.28,44.73Z"/><path class="cls-2" d="M38,60.85a6.13,6.13,0,0,1-5.4-3.2,5.65,5.65,0,0,1,3.13-7.92,6.52,6.52,0,0,1,5.56.18,5.49,5.49,0,0,1,3.05,6.55,5.85,5.85,0,0,1-3.77,3.94A7.46,7.46,0,0,1,38,60.85Z"/><path class="cls-2" d="M54.82,55.41A7.55,7.55,0,0,1,47.35,63a2.1,2.1,0,0,1-2.15-2,7.32,7.32,0,0,1,1.06-4.6,11.9,11.9,0,0,1,3.39-3.94,4.58,4.58,0,0,1,2.78-1,1.93,1.93,0,0,1,2,1.43,7.38,7.38,0,0,1,.36,1.38A6.73,6.73,0,0,1,54.82,55.41Z"/><path class="cls-2" d="M24,52.27a4.46,4.46,0,0,1,2.75,1,10.9,10.9,0,0,1,3,3.38,7.83,7.83,0,0,1,1.14,3.46,2.87,2.87,0,0,1-.45,1.92,2.08,2.08,0,0,1-2.06.88,7.5,7.5,0,0,1-6.83-7.13,6.19,6.19,0,0,1,.15-1.92A2,2,0,0,1,24,52.27Z"/><path class="cls-2" d="M37.73,37a7.61,7.61,0,0,1-3.57-1,3.25,3.25,0,0,1-1.44-1.31,1.68,1.68,0,0,1,.14-1.95,6,6,0,0,1,2.22-1.72,7,7,0,0,1,8.23,1.6c1.12,1.23.71,2.45-.57,3.27A8.29,8.29,0,0,1,37.73,37Z"/><path class="cls-2" d="M38.15,68.58a7.31,7.31,0,0,1-5.67-2.66,1,1,0,0,1,.14-1.72,5.9,5.9,0,0,1,2.49-1.11,14.4,14.4,0,0,1,3.7-.37,11.6,11.6,0,0,1,4.45.9,2.42,2.42,0,0,1,.91.77,1,1,0,0,1-.09,1.08A7.35,7.35,0,0,1,38.15,68.58Z"/><path class="cls-2" d="M23,44.58a15.73,15.73,0,0,1-.88,5.17,5.11,5.11,0,0,1-.74,1.52,3.27,3.27,0,0,1-.28.37.65.65,0,0,1-1.07,0,6.76,6.76,0,0,1,1.37-10.3c.49-.3.66-.27,1,.16a2.14,2.14,0,0,1,.4,1A10.48,10.48,0,0,1,23,44.58Z"/><path class="cls-2" d="M57.71,46.91a6.71,6.71,0,0,1-1.87,4.55c-.38.4-.59.43-1,0A4.79,4.79,0,0,1,54,50a19.78,19.78,0,0,1-1.09-5.69,6.66,6.66,0,0,1,.42-3.12.49.49,0,0,1,.75-.29A6.74,6.74,0,0,1,57.71,46.91Z"/><path class="cls-2" d="M53.45,38.48c0,.16,0,.31,0,.47,0,.51-.2.6-.7.38a13.06,13.06,0,0,1-2.59-1.55,29.83,29.83,0,0,1-4.66-4.19,4.78,4.78,0,0,1-1-1.33c-.11-.27-.08-.43.27-.51a7.05,7.05,0,0,1,8.54,5.62c.07.37.1.74.15,1.11Z"/><path class="cls-2" d="M22.33,38.49a7.06,7.06,0,0,1,6.59-6.91,6.64,6.64,0,0,1,2.08.17c.3.07.38.2.25.49a7.13,7.13,0,0,1-1.54,2,37.25,37.25,0,0,1-3.43,3,14,14,0,0,1-3.2,2,1.34,1.34,0,0,1-.18.07c-.35.06-.58.1-.57-.39Z"/><path class="cls-2" d="M32.45,17l0-.05,0,.06Z"/><path class="cls-2" d="M54.52,25.71l.09,0c0,.08-.06,0-.09,0Z"/><path class="cls-2" d="M45.9,16.63l0-.05v0l0,0Z"/></g></g></svg>