<svg xmlns="http://www.w3.org/2000/svg" viewBox="0 0 301.59 82.8"><defs><style>.cls-1{fill:#e31818;}.cls-2{fill:#fff;}</style></defs><title>Asset 66</title><g id="Layer_2" data-name="Layer 2"><g id="Layer_1-2" data-name="Layer 1"><rect class="cls-1" width="301.59" height="82.8" rx="14.4"/><path class="cls-2" d="M26.79,39.85l-1.06-.1c-.68-.15-1.62-.1-1.68-1s.9-.83,1.46-1.12a9.24,9.24,0,0,1,.92-.36l.45-.12.09,0a40.06,40.06,0,0,1,15.31-.55,22.46,22.46,0,0,1,5.13,2.21l1.35,1.7c.64,1.61.21,3.16-.26,4.71-.36.75-.73,1.51-1.09,2.27-.59.81-1.17,1.63-1.75,2.44l-3.4,3.61-2.36,2-2.82,1.94a88.18,88.18,0,0,1-10.32,5.2l-5.17,1.71c-.83.14-1.65.34-2.49.41-1.74.14-2-.25-1.36-1.91.24-.63.52-1.23.78-1.84l3-5.39.18-.35q1.57-2.43,3.16-4.86c1.48-2,2.93-4,4.45-6a3.2,3.2,0,0,1,2.66-1.63c.83.83,0,1.61-.07,2.41l-.05.13L29,50.23a31.4,31.4,0,0,0-3.12,6.21c-.28.76-.76,2,1,1.68,4.05-.91,7.23-3.33,10.29-5.95a8.15,8.15,0,0,0,1.94-1.81,12.46,12.46,0,0,0,3.37-5l0-.11a2.55,2.55,0,0,0,0-2.36c-.74-2.19-2.75-2.17-4.51-2.58a28.45,28.45,0,0,0-8.68-.53Z"/><path class="cls-2" d="M57.78,12.92l1,1.38c.61,1.76.09,3.4-.5,5l-.52,1-3.41,4.21a6.33,6.33,0,0,0-1.76,1.62l-4.77,3.53-.39.24-5.11,2.89-2.76.83c-.44.12-.94.24-1.2-.28s.12-.78.4-1c.82-.78,1.68-1.52,2.53-2.28l1-.77c.47-.32,1-.62,1.39-1,3.2-2.64,6.55-5.12,8.57-8.89,1.4-2.5,1-3.76-1.73-4.66a27.71,27.71,0,0,0-3-.68l-.13,0-.07.11a20.93,20.93,0,0,0-6.41-.48H38.83l-.68-.06-1-.13c-1.57-1-.21-1.39.43-1.92l4.72-1.07.71-.1,1.68-.08,2.44-.17,5.47.52A12.24,12.24,0,0,1,57.78,12.92Z"/><path class="cls-2" d="M281.49,55.38a6.19,6.19,0,0,1-1.57,2.4c-1.61.83-3.39.62-5.1.78h-5.18c-.68-.19-1.64.18-1.64-1.17s.79-1.29,1.66-1.36h5.13a4.68,4.68,0,0,0,3.47-.54c1.34-1.36,1.4-2.6.07-4-2-2.07-4.11-4.12-6.24-6.09a5.26,5.26,0,0,1-1.62-5.7c.61-2.24,2.24-3,4.34-3.2H280c.91,0,1.82.07,2.73,0s1.37.07,1.31,1.06-.3,1.41-1.31,1.37-1.82,0-2.73,0c-1.42,0-2.85,0-4.27-.06a2.64,2.64,0,0,0-2.85,1.39c-.59,1.22.06,2.18.81,3.07a10,10,0,0,0,1.14,1,1.58,1.58,0,0,0,.91.79,31.75,31.75,0,0,0,4.19,4.17l.79.92A5.82,5.82,0,0,1,281.49,55.38Z"/><path class="cls-2" d="M104.29,56.18l-.43-.71a13.23,13.23,0,0,1-1.27-5.13,27.85,27.85,0,0,1,.88-5,7.53,7.53,0,0,0,.84-2.47l2.16-2.73,3.1-2.25a17.25,17.25,0,0,1,7.81-1.31l2.41.39a7.83,7.83,0,0,1,5.41,5.76c.19.82.29,1.66.43,2.5a30.55,30.55,0,0,1-.9,5.11l-.09.39a21.24,21.24,0,0,1-2.46,4.42l-2.83,2.38A14.7,14.7,0,0,1,109.46,59,9.6,9.6,0,0,1,104.29,56.18Zm5.11-1.6a6.45,6.45,0,0,0,5.25.64,6,6,0,0,0,5-4.77l.27-.9a8.16,8.16,0,0,0,.64-3.3c.3-4.35-1.54-6.13-5.95-5.82a5.78,5.78,0,0,0-5.41,3.21,11.62,11.62,0,0,0-1.5,6.7A4.13,4.13,0,0,0,109.4,54.58Z"/><path class="cls-2" d="M207.72,55.58l-.07-.09a13.48,13.48,0,0,1-1.11-3.78l0-.68,0-.67a31.75,31.75,0,0,1,1-5.13c.12-.28.24-.56.35-.85a25,25,0,0,1,2.75-4.28l2.36-2A13.77,13.77,0,0,1,220,36.54l3.09.77a10.09,10.09,0,0,1,3.39,3.17,19.71,19.71,0,0,1,.75,2.07c1.2,4.86-.36,9-3.21,12.91l-1,.94A11.46,11.46,0,0,1,212.47,59,8.27,8.27,0,0,1,207.72,55.58Zm17.44-10.4a5.38,5.38,0,0,0-2-4.77.58.58,0,0,0-.55-.42,8,8,0,0,0-9.8,1.38,7.71,7.71,0,0,0-2.61,3.71A9.8,9.8,0,0,0,209,50.34c-.48,4.31,3.3,7,7.2,6.66,1-.1,1.74-1,2.47-1,2.39-.17,3.36-1.85,4.48-3.46a5.42,5.42,0,0,0,1-2.11A10,10,0,0,0,225.16,45.18Z"/><path class="cls-2" d="M47.45,55.43a27.08,27.08,0,0,0,5.17-.26L57.8,55c1-.12,2-.15,3-.36,3-.63,3.4-1.68,1.92-4.36C60.4,46.51,57.07,43.55,54.46,40l-1.54-2.36-1-2.77c0-2.74,1.62-4.24,3.94-5.22.63-.27,1.29-.47,1.94-.7L63,28.38l5.15.4c1.48.34,3,.57,4.42,1,.8.26,1.9.73.74,1.9l-5.14.44a29.25,29.25,0,0,0-5.21.13c-1.49.37-3.33-.07-4.14,1.82a.4.4,0,0,0-.08.65.29.29,0,0,0,0,.18,4.3,4.3,0,0,0,1,2.64c2.13,2.56,4.29,5.09,6.44,7.63l2,2.38,1.65,2.77a6,6,0,0,1-.28,5.13l-1.37,1.36A17.42,17.42,0,0,1,63,58.64l-1,.11a.19.19,0,0,0-.19,0l-3,.21L54,58.82l-.3-.09-.67,0L47.6,58h-.06L47.1,58c-.55-.13-1.11-.24-1.65-.38s-1-.33-1.09-.93.53-.78,1-1Z"/><path class="cls-2" d="M264,58.52a2.69,2.69,0,0,1-2.36-1c-2.53-2.83-5.15-5.58-7.73-8.36-.53.3-.46.76-.44,1.21l-1,5.17a10.51,10.51,0,0,0-.21,1.35c0,1.41-.74,1.9-2.07,1.64s-.16-1.29-.48-1.88c.41-2.06.81-4.13,1.21-6.19.3-1.74.59-3.47.89-5.21a27.58,27.58,0,0,0,1-5.17,11.18,11.18,0,0,1,.43-1.75c.26-.6-.11-1.55.92-1.74,1.33,0,1.81.63,1.44,1.93a10.6,10.6,0,0,0-.18,1.5,24.94,24.94,0,0,0-.91,5.55l-.19.2.15.05,0-.24c.42.19.64-.18.86-.37,3.06-2.6,6.09-5.23,9.14-7.85a6.36,6.36,0,0,1,.69-.46c.68-.35,1.47-.57,2,.11s-.19,1.3-.69,1.8-.89.83-1.34,1.25a1.05,1.05,0,0,0-.71.59L259.14,45c-1,1-2.92,1.62-2.92,2.84,0,1,1.56,2.12,2.54,3.07,1.74,1.71,3.17,3.71,5.11,5.25A1.48,1.48,0,0,1,264,58.52Z"/><path class="cls-2" d="M230.44,50.37a30.41,30.41,0,0,0,1-5.52.16.16,0,0,0,0-.24c.06-.14.13-.29.2-.43l.74-4.15c.6-1.09.05-2.53,1.09-3.48h5.18l5.15.35c1.68.55,3.11,1.37,3.72,3.16a8.74,8.74,0,0,1-.73,5.09,11,11,0,0,1-3,2.89l-3.35,1.07a2.76,2.76,0,0,0,.76,1.32,24.94,24.94,0,0,0,2.51,4.26,1,1,0,0,0,.47.8,7.23,7.23,0,0,0,.57,1.19c.82,1.19.3,1.69-.91,1.88-1.71-.34-1.67-2.16-2.65-3.11l-2.46-4.19a4,4,0,0,0-5-2.21c-.69.17-.53.64-.61,1-.46,2.4-1,4.8-1.3,7.23-.22,1.57-1.3,1.23-2.17,1.13-1.18-.13-.28-.93-.29-1.42a8.69,8.69,0,0,1,.21-1.52C229.84,53.8,230.14,52.08,230.44,50.37Zm8.21-11.3c-.89,0-1.77,0-2.66-.07s-1.16.24-1.08,1c-.31,1.7-.63,3.4-.94,5.1-.56,1.42-.09,1.93,1.42,1.79,1.3-.12,2.62,0,3.92-.11,1.71-.15,3.38-.5,4.49-2A3.38,3.38,0,0,0,245.07,41c-.4-1.52-1.84-1.75-3.16-1.89A32.2,32.2,0,0,0,238.65,39.07Z"/><path class="cls-2" d="M99,55.42A6.8,6.8,0,0,1,94,58.33c-2.9,0-5.8-.1-8.7,0-1.39,0-2.2-.2-1.89-1.81a3.9,3.9,0,0,0-.08-1l.34-1a2.24,2.24,0,0,1,1.72-.6c1.14,0,2.29,0,3.43-.08s2.41.12,3.61.05c.91-.05,2.16.35,2.56-.84s-.88-1.55-1.58-2.12a8,8,0,0,0-1-.6,16,16,0,0,0-3.5-2.46c-1-1-2.42-1.56-3.29-2.75a6.56,6.56,0,0,1-.46-5,7.36,7.36,0,0,1,3.68-3.51c3.21,0,6.42,0,9.63,0s3.29,0,2.56,3.35a2.27,2.27,0,0,1-1.85,1.16H94.28L90.88,41c-.54,0-1.06.08-1.27.63s.36.78.69,1c1,.77,2.14,1.49,3.21,2.23l.45.28c1.55,1.35,3.44,2.27,4.88,3.76l.74,1.42A7.21,7.21,0,0,1,99,55.43Z"/><path class="cls-2" d="M127.22,55.52c.3-1.71.61-3.43.91-5.15s.63-3.45.94-5.18l1-5.16c.06-.5.12-1,.17-1.49.13-1.83,1.25-2.23,2.86-2a17.92,17.92,0,0,0,2.2,0c.45,1.17-.14,2.28-.22,3.42l-.06.41c-.28,1.59-.55,3.18-.83,4.77a30.3,30.3,0,0,0-.93,5.17,13.77,13.77,0,0,0-.72,4.12c0,.28.12.32.35.24h1.38l1,0a32.24,32.24,0,0,0,5.2,0l1,0,.69.08.5.71c0,.34-.11.67-.12,1,0,1.42-.62,1.9-2.12,1.85-4.53-.14-9.05-.08-13.58-.09Z"/><path class="cls-2" d="M149.76,58.35h-.67c-.28,0-.57-.07-.85-.07-2.88-.05-2.88-.05-2.92-2.77a72.74,72.74,0,0,0,2.05-10.32,32.34,32.34,0,0,0,1-5.16l.74-3.43,1.7,0c3.1-.06,3.1-.06,2.71,2.9,0,.17,0,.34,0,.51l-.93,5.21-1,5.15-.88,5h0l-.51,2.85Z"/><path class="cls-2" d="M173.91,55.49l-2.46,1.64a21.67,21.67,0,0,1-5.15,1.2c-2.9,0-5.8-.13-8.69,0-1.64.07-2.09-.45-1.63-1.94a6,6,0,0,0,.13-.83.19.19,0,0,0,0-.18,21.49,21.49,0,0,0,1-5l1-5.15c.17-1.9.85-3.24,3.13-2.8,2.23.1,2.23.1,2,2.28,0,.16,0,.33,0,.5a23.89,23.89,0,0,0-.94,5.17,14.1,14.1,0,0,0-.72,4.12c0,.28.13.32.36.24H166c2.93-.07,4.49-1.87,5.54-4.33.9-2.24,1.71-4.49,1.06-7a3,3,0,0,0-.8-2,3.82,3.82,0,0,0-3.34-1.32c-2.52,0-5,0-7.54,0a5,5,0,0,1-2.51-.34c-1-.88-.76-2-.66-3.11l13.07-.11h.69a9.87,9.87,0,0,1,5.15,2.5l.71,1a14.39,14.39,0,0,1,1,5.15l-1.09,5.13-.66,1.61Z"/><path class="cls-2" d="M199.11,55.5a6,6,0,0,1-1.81,2.73c-.91.11-2,.73-2.66-.06s-.53-1.77-.76-2.68c-.42-2.86-1.08-5.66-1.84-8.78l-1.9,3.61a34.18,34.18,0,0,0-2.84,5.17l-.39.58a4.38,4.38,0,0,1-4.67,2.47c-.4-1,0-2-.25-3a32,32,0,0,0,0-5.18V45.21A32.12,32.12,0,0,0,182,40l.14-3.42c2.79,0,2.41,0,2.33,2.25,0,.39.06.79.09,1.19v5.49a22.26,22.26,0,0,0,0,4.47v4.84l.27.1q2.64-4.69,5.27-9.4c.6-.63.87-1.71,2.07-1.53h.68l.16.06h.17a2.06,2.06,0,0,1,1.1,1.11q.56,2.59,1.09,5.18c.35,1.62.7,3.25,1.15,5.36,1.56-3.66,2.94-6.88,4.32-10.09,1.25-2.75,2.53-5.49,3.73-8.26.41-.95,1.14-.89,1.83-.69s.65.92.41,1.55-.43,1.17-.65,1.75a37.41,37.41,0,0,0-2.37,5.19Z"/></g></g></svg>