<svg xmlns="http://www.w3.org/2000/svg" viewBox="0 0 308.65 82.8"><defs><style>.cls-1{fill:#010205;}.cls-2{fill:#eeeeef;}.cls-3{fill:#1194cd;stroke:#1194cd;stroke-miterlimit:10;stroke-width:2px;}</style></defs><title>Asset 83</title><g id="Layer_2" data-name="Layer 2"><g id="Layer_1-2" data-name="Layer 1"><rect class="cls-1" width="308.65" height="82.8" rx="14.4"/><path class="cls-2" d="M167.58,38c0-.74,0-1.24,0-1.73-.09-1,.12-1.62,1.44-1.61s1.31.62,1.3,1.57c-.06,6,.16,11.94-.17,17.89-.46,8.26-7.22,12.31-15.07,9.38a9.32,9.32,0,0,1-5.71-5.76c1.71-.36,2.87-.14,4,1.39,2,2.7,6.81,3.42,10.26,1.89,3-1.35,4.41-4.33,3.77-8.49a10.55,10.55,0,0,1-9.79,3.36,10.18,10.18,0,0,1-6.47-4c-3.24-4.15-2.69-10.9,1.2-14.67C156.56,33.09,161.85,33.27,167.58,38Zm.11,7.34c0-4.94-3.31-8.53-7.85-8.51s-8.17,3.76-8.12,8.7a7.71,7.71,0,0,0,7.92,8C164.42,53.55,167.68,50.22,167.69,45.29Z"/><path class="cls-2" d="M136.07,45.58c-2.65,0-5.3,0-7.95,0-1.09,0-1.33.31-1.12,1.38.69,3.59,2.89,6.21,5.9,6.83A7.92,7.92,0,0,0,141.44,50c.81-1.31,1.42-1,2.37-.4,1.21.74.26,1.37-.09,1.92a10.71,10.71,0,0,1-12.88,4.29c-4.4-1.6-7.31-6.82-6.65-11.9s4-8.79,8.42-9.59a10.39,10.39,0,0,1,11.24,5.35,6.41,6.41,0,0,1,.45.91c.51,1.44,1.37,3.11.75,4.39s-2.57.43-3.91.55c-1.68.16-3.38,0-5.07,0Zm-1.42-2.47h0c2,0,4.06-.06,6.09,0,1.3,0,1.57-.29,1.07-1.51a7.65,7.65,0,0,0-7.4-4.87,7.42,7.42,0,0,0-6.9,5.26c-.37,1,0,1.12.89,1.1C130.48,43.08,132.57,43.11,134.65,43.11Z"/><path class="cls-2" d="M193.37,53c-6.25,4.72-11.66,4.62-15.89-.26a11.62,11.62,0,0,1,.44-15.14c4.47-4.56,9.77-4.45,15.59.48,0-.67,0-1.2,0-1.74,0-.95-.11-1.7,1.32-1.68s1.39.59,1.38,1.63c0,6.13-.05,12.26,0,18.39,0,1.11-.27,1.42-1.4,1.43s-1.4-.48-1.33-1.49A2.45,2.45,0,0,0,193.37,53Zm.31-7.41c0-5-3.37-8.77-8-8.79-4.46,0-8.07,3.83-8.09,8.63,0,4.56,3.7,8.51,8,8.55A8.12,8.12,0,0,0,193.68,45.55Z"/><path class="cls-2" d="M228,41.65c0-4.33,0-8.66,0-13,0-1.06.3-1.34,1.33-1.29,3.1.12,6.2-.13,9.29.19a7.09,7.09,0,0,1,6.73,7.28c.07,4.25-2.32,7-6.53,7.6a28.08,28.08,0,0,1-6.07.23c-1.66-.11-1.88.53-1.84,2,.1,3.26,0,6.52.05,9.79,0,1.15-.16,1.7-1.53,1.68S228,55.56,228,54.48C228,50.21,228,45.93,228,41.65Zm3-6.73h-.08c0,1.29,0,2.58,0,3.87,0,.59.05,1,.76,1,2.36-.06,4.73.25,7.08-.26a4.48,4.48,0,0,0,3.63-4.6,4.38,4.38,0,0,0-4-4.42,21.08,21.08,0,0,0-2.86-.15c-1.5.05-3.5-.69-4.35.32C230.43,31.53,231,33.46,231,34.92Z"/><path class="cls-2" d="M108.72,49.34l5.08-12q1.88-4.43,3.73-8.86a2.75,2.75,0,0,1,3-1.11c.6.34.18.77,0,1.16q-4.05,9.63-8.1,19.27c-1,2.43-2,4.88-3,7.32-.14.34-.26.84-.71.86s-.54-.48-.68-.83q-5.55-13.41-11.12-26.8c-.39-.94-.06-1,.76-1a2.26,2.26,0,0,1,2.66,1.6C103,35.62,105.79,42.24,108.72,49.34Z"/><path class="cls-2" d="M260.82,45.3c0-6.36,4.55-11.07,10.69-11,5.86,0,10.54,4.9,10.59,11.08a10.79,10.79,0,0,1-10.54,11.12C265.25,56.45,260.82,51.86,260.82,45.3Zm2.74,0c0,5,3.36,8.69,7.92,8.65,4.38,0,7.77-3.71,7.8-8.47s-3.53-8.73-7.79-8.72C267.05,36.76,263.56,40.52,263.56,45.29Z"/><path class="cls-2" d="M206.11,56.44a8.19,8.19,0,0,1-5.23-2c-1.2-1-.2-1.5.25-2.2.62-1,1-.3,1.54.13,2.25,2,4.27,2.13,6,.51a3.16,3.16,0,0,0-.1-5,29.53,29.53,0,0,0-4-2.53c-1.9-1.16-3.34-2.63-3.53-5a5.56,5.56,0,0,1,7.78-5.67,10.23,10.23,0,0,1,2.51,1.66c.68.56,1.17,1,.29,1.85-.73.74-1.18,1-1.95.06a4.51,4.51,0,0,0-1.67-1.1,3.12,3.12,0,0,0-4,1,2.9,2.9,0,0,0,.71,3.92c1.51,1.37,3.45,2.09,5.07,3.3A5.83,5.83,0,0,1,212.12,52,5.91,5.91,0,0,1,206.11,56.44Z"/><path class="cls-2" d="M252.1,37.35c1.65-2,3.22-3.39,5.66-3.07.68.09,1.77.13,1.54,1-.18.68-.47,1.85-1.9,1.63-1.95-.3-3.31.61-4.27,2.57a10.48,10.48,0,0,0-1,4.4C252,47.44,252,51,252,54.53c0,1.2-.35,1.51-1.51,1.54s-1.32-.56-1.31-1.54c0-6,0-12.05,0-18.08,0-.93-.25-1.85,1.35-1.83s1.5.75,1.42,1.78A5.73,5.73,0,0,0,252.1,37.35Z"/><path class="cls-3" d="M74.54,18.51c0-.19,0-.25-.24-.25H27c-.19,0-.25,0-.25.24q0,23.64,0,47.29c0,.17,0,.23.22.23H74.29c.19,0,.25,0,.25-.24Q74.53,42.14,74.54,18.51ZM72.87,64.05c0,.23-.05.3-.3.3H28.75c-.25,0-.3-.07-.3-.3q0-21.91,0-43.83c0-.22.05-.29.28-.29q21.93,0,43.85,0c.24,0,.29.06.29.29Q72.85,42.14,72.87,64.05Z"/><path class="cls-3" d="M62.42,28.87h-3.1a.35.35,0,0,0-.4.26c-1.61,4.24-3.24,8.47-4.85,12.71-1.06,2.77-2.16,5.51-3.15,8.31-.25.73-.48,1.47-.72,2.22a.23.23,0,0,1-.09-.19c-.29-1-.59-2-.94-2.9L41.73,29a.23.23,0,0,0-.26-.17H38c-.27,0-.27,0-.17.25,1,2.62,2.09,5.25,3.14,7.87q3.63,9.1,7.25,18.19a.31.31,0,0,0,.34.24q1.59,0,3.18,0a.35.35,0,0,0,.39-.26q2-5,4-10,3.23-8,6.44-16C62.73,28.87,62.73,28.87,62.42,28.87Z"/></g></g></svg>