<svg xmlns="http://www.w3.org/2000/svg" viewBox="0 0 296.91 82.8"><defs><style>.cls-1{fill:#010205;}.cls-2{fill:#eeeeef;}.cls-3{fill:#0164ad;}.cls-4{fill:#019dc9;}.cls-5{fill:#010408;}</style></defs><title>Asset 38</title><g id="Layer_2" data-name="Layer 2"><g id="Layer_1-2" data-name="Layer 1"><rect class="cls-1" width="296.91" height="82.8" rx="14.4"/><path class="cls-2" d="M159.7,37c0-.74,0-1.24,0-1.73-.09-1,.12-1.62,1.43-1.61s1.32.62,1.31,1.57c-.06,6,.16,11.94-.17,17.89-.46,8.26-7.22,12.31-15.07,9.38a9.3,9.3,0,0,1-5.71-5.76c1.71-.36,2.87-.14,4,1.39,2,2.7,6.81,3.42,10.26,1.89,3-1.35,4.41-4.33,3.77-8.49a10.55,10.55,0,0,1-9.79,3.36,10.18,10.18,0,0,1-6.47-4c-3.24-4.15-2.69-10.9,1.2-14.67C148.69,32.09,154,32.27,159.7,37Zm.12,7.34c0-4.94-3.31-8.53-7.85-8.51s-8.17,3.76-8.12,8.7a7.71,7.71,0,0,0,7.92,8C156.55,52.55,159.81,49.22,159.82,44.29Z"/><path class="cls-2" d="M128.2,44.58c-2.65,0-5.3,0-7.95,0-1.09,0-1.33.31-1.12,1.38.69,3.59,2.89,6.21,5.9,6.83A7.93,7.93,0,0,0,133.57,49c.81-1.31,1.42-1,2.37-.4,1.21.74.26,1.37-.09,1.92A10.71,10.71,0,0,1,123,54.85c-4.4-1.6-7.31-6.82-6.65-11.9s4-8.79,8.42-9.59A10.39,10.39,0,0,1,136,38.71a6.41,6.41,0,0,1,.45.91c.51,1.44,1.37,3.11.74,4.39s-2.56.43-3.9.55c-1.68.16-3.38,0-5.07,0Zm-1.42-2.47h0c2,0,4.06-.06,6.09,0,1.3,0,1.57-.29,1.06-1.51a7.63,7.63,0,0,0-7.39-4.87,7.42,7.42,0,0,0-6.9,5.26c-.37,1,0,1.12.89,1.1C122.61,42.08,124.7,42.11,126.78,42.11Z"/><path class="cls-2" d="M185.49,52c-6.25,4.72-11.65,4.62-15.88-.26a11.62,11.62,0,0,1,.44-15.14c4.47-4.56,9.77-4.45,15.59.48,0-.67,0-1.2,0-1.74,0-.95-.11-1.7,1.31-1.68s1.4.59,1.39,1.63q-.06,9.2,0,18.39c0,1.11-.26,1.42-1.39,1.43s-1.4-.48-1.33-1.49A2.39,2.39,0,0,0,185.49,52Zm.32-7.41c0-5-3.37-8.77-8-8.79-4.46,0-8.07,3.83-8.09,8.63,0,4.56,3.69,8.51,8,8.55A8.12,8.12,0,0,0,185.81,44.55Z"/><path class="cls-2" d="M220.13,40.65c0-4.33,0-8.66,0-13,0-1.06.3-1.34,1.33-1.29,3.1.12,6.2-.13,9.29.19a7.09,7.09,0,0,1,6.73,7.28c.07,4.25-2.32,7-6.53,7.6a28.08,28.08,0,0,1-6.07.23c-1.66-.11-1.88.53-1.84,2,.1,3.26,0,6.52.05,9.79,0,1.15-.16,1.7-1.53,1.68s-1.44-.53-1.42-1.61C220.16,49.21,220.13,44.93,220.13,40.65Zm3-6.73h-.08c0,1.29,0,2.58,0,3.87,0,.59.06,1,.77,1,2.36-.06,4.73.25,7.07-.26a4.49,4.49,0,0,0,3.64-4.6,4.38,4.38,0,0,0-4-4.42,21.15,21.15,0,0,0-2.87-.15c-1.49.05-3.49-.69-4.34.32C222.56,30.53,223.13,32.46,223.13,33.92Z"/><path class="cls-2" d="M100.85,48.34l5.08-12q1.86-4.43,3.73-8.86a2.75,2.75,0,0,1,3-1.11c.59.34.18.77,0,1.16q-4.05,9.63-8.11,19.27c-1,2.43-2,4.88-3,7.32-.15.34-.26.84-.71.86s-.54-.48-.69-.83q-5.55-13.41-11.11-26.8c-.39-.94-.06-1,.76-1,1.29,0,2.09.16,2.65,1.6C95.11,34.62,97.91,41.24,100.85,48.34Z"/><path class="cls-2" d="M253,44.3c0-6.36,4.55-11.07,10.68-11,5.87,0,10.54,4.9,10.6,11.08a10.79,10.79,0,0,1-10.54,11.12C257.38,55.45,253,50.86,253,44.3Zm2.74,0c0,5,3.35,8.69,7.92,8.65,4.38,0,7.76-3.71,7.8-8.47s-3.53-8.73-7.79-8.72C259.18,35.76,255.69,39.52,255.69,44.29Z"/><path class="cls-2" d="M198.24,55.44a8.19,8.19,0,0,1-5.23-2c-1.2-1-.2-1.5.25-2.2.62-1,1-.3,1.54.13,2.25,2,4.27,2.13,6,.51a3.17,3.17,0,0,0-.1-5,30.17,30.17,0,0,0-4-2.53c-1.9-1.16-3.34-2.63-3.53-5A5.55,5.55,0,0,1,201,33.67a10.28,10.28,0,0,1,2.52,1.66c.68.56,1.16,1,.29,1.85s-1.18,1-1.95.06a4.51,4.51,0,0,0-1.67-1.1,3.12,3.12,0,0,0-4,1,2.89,2.89,0,0,0,.71,3.92c1.51,1.37,3.45,2.09,5.07,3.3A5.84,5.84,0,0,1,204.25,51,5.91,5.91,0,0,1,198.24,55.44Z"/><path class="cls-2" d="M244.23,36.35c1.65-2,3.22-3.39,5.66-3.07.68.09,1.77.13,1.54,1-.18.68-.47,1.85-1.91,1.63-1.94-.3-3.3.61-4.26,2.57a10.48,10.48,0,0,0-1,4.4c-.06,3.55-.14,7.1-.09,10.64,0,1.2-.35,1.51-1.51,1.54s-1.32-.56-1.31-1.54c0-6,0-12.05,0-18.08,0-.93-.26-1.85,1.35-1.83s1.5.75,1.42,1.78A5.73,5.73,0,0,0,244.23,36.35Z"/><path class="cls-3" d="M20.9,41.39c0-8.1,0-16.19,0-24.29,0-1.2.35-1.58,1.56-1.58q23.66,0,47.31,0c1,0,1.31.4,1.31,1.35q0,24.35,0,48.69c0,1.91,0,1.91-1.94,1.91q-23.35,0-46.71,0c-1.12,0-1.52-.26-1.52-1.46C20.93,57.82,20.9,49.6,20.9,41.39Zm48,0c0-7.53,0-15.07,0-22.6,0-1.06-.31-1.36-1.36-1.36q-21.68,0-43.35,0c-1.11,0-1.42.36-1.42,1.46q0,22.31,0,44.61c0,1.8,0,1.8,1.78,1.8H62.3c1.71,0,3.44-.08,5.14,0,1.14.09,1.47-.21,1.47-1.34C68.87,56.48,68.88,49,68.88,41.41Zm1.36-.12c0-8,0-15.95,0-23.93,0-1.12-.25-1.49-1.44-1.49q-22.29.06-44.56,0h-.6c-2.32.17-2.32.17-2.32,2.61v42c0,1,0,2.07,0,3.11,0,.28-.15.74.35.73s.62-.31.61-.74c0-.24,0-.48,0-.72V20.77a6.85,6.85,0,0,0-.15-1.42c-.31-1.51.28-2.28,1.69-2.28q22,0,44.08,0c1.06,0,1.37.37,1.37,1.4q0,23,0,45.94c0,1-.22,1.33-1.26,1.32-14.77,0-29.55,0-44.32,0a1.5,1.5,0,0,1-1.23-.3c-.22-.22-.49-.67-.87-.4s-.19.69-.11,1.1c.18,1,.79,1,1.59,1H68.38c1.64,0,1.86-.23,1.86-1.87Z"/><path class="cls-1" d="M68.88,41.41c0,7.54,0,15.07,0,22.61,0,1.13-.33,1.43-1.47,1.34-1.7-.13-3.43,0-5.14,0H24.58c-1.77,0-1.78,0-1.78-1.8q0-22.3,0-44.61c0-1.1.31-1.46,1.42-1.46q21.67.06,43.35,0c1,0,1.37.3,1.36,1.36C68.86,26.34,68.88,33.88,68.88,41.41ZM43.15,55.6l.26.24h0c1.3.56,2.65.2,4,.2.34,0,.31-.4.32-.68a.23.23,0,0,1,.06-.22c.5-.09.42-.47.4-.82,0-.06,0-.1,0-.13.5-.55,1.2-1,.72-1.92l.2-.47c1.15-1,1.32-2.42,1.49-3.82a1.22,1.22,0,0,1,.31-1c1.07-.11.49-.94.64-1.45a4.09,4.09,0,0,1,.17-.69q3.09-8,6.2-16c.74-1.92.73-1.94-1.34-1.94s-2,0-2.67,1.84Q49.94,39.49,46,50.24c-.13.35-.1,1-.54,1s-.55-.58-.69-1C44,48,43.31,45.8,42.53,43.59c-1.63-4.61-3.32-9.2-4.91-13.82-1-2.95-.95-2.95-4.09-2.86-.9,0-1.26.18-.84,1.17.62,1.45,1.11,3,1.68,4.45,2.42,6.34,4.83,12.7,7.31,19A5.11,5.11,0,0,0,42.85,54a.24.24,0,0,0,.08.2l0,.7c0,.27,0,.55.25.73Z"/><path class="cls-4" d="M70.24,41.29V65.22c0,1.64-.22,1.87-1.86,1.87H23.1c-.8,0-1.41-.06-1.59-1-.08-.41-.26-.83.11-1.1s.65.18.87.4a1.5,1.5,0,0,0,1.23.3c14.77,0,29.55,0,44.32,0,1,0,1.27-.37,1.26-1.32q0-23,0-45.94c0-1-.31-1.4-1.37-1.4q-22,0-44.08,0c-1.41,0-2,.77-1.69,2.28a6.85,6.85,0,0,1,.15,1.42V62.88c0,.24,0,.48,0,.72,0,.43-.2.73-.61.74s-.35-.45-.35-.73c0-1,0-2.07,0-3.11v-42c0-2.44,0-2.44,2.32-2.61h.6q22.27,0,44.56,0c1.19,0,1.45.37,1.44,1.49C70.21,25.34,70.24,33.31,70.24,41.29Z"/><path class="cls-4" d="M42.93,54.18a.24.24,0,0,1-.08-.2c.08-2-.91-3.69-1.62-5.34C40,45.77,38.88,42.85,37.77,40c-1.39-3.63-3-7.21-4.1-10.94-.18-.57-.66-1.08,0-1.56a2.6,2.6,0,0,1,2.61.55c1.33,2.42,1.84,5.13,2.82,7.67.8,2,1.51,4.1,2.24,6.15.56,1.58,1,3.2,1.64,4.74s.89,3.57,1.84,5.18a.83.83,0,0,0,.93.52c.48-.07.53-.41.53-.79a3.05,3.05,0,0,1,.3-1.24c.6-1.4,1.09-2.84,1.61-4.26l2.31-6.35c.68-1.87,1.26-3.77,2.06-5.58.87-2,1.47-4,2.29-6,.46-1.13,1.37-.66,2-.57s.54,1,.39,1.39A21.39,21.39,0,0,1,56.14,32c-1.2,2.11-1.66,4.49-2.67,6.67-1.31,2.82-2.18,5.86-3.38,8.75-.88,2.12-1.68,4.26-2.44,6.43-.28.78-.66,1.48-1.78,1.31-.91-.15-1.94.2-2.49-.91C43.34,54.18,43.09,54.21,42.93,54.18Z"/><path class="cls-3" d="M42.93,54.18c.16,0,.41,0,.45.09.55,1.11,1.58.76,2.49.91,1.12.17,1.5-.53,1.78-1.31.76-2.17,1.56-4.31,2.44-6.43,1.2-2.89,2.07-5.93,3.38-8.75,1-2.18,1.47-4.56,2.67-6.67a21.39,21.39,0,0,0,1.1-3.19c.15-.43.38-1.29-.39-1.39s-1.57-.56-2,.57c-.82,2-1.42,4.05-2.29,6-.8,1.81-1.38,3.71-2.06,5.58L48.16,46c-.52,1.42-1,2.86-1.61,4.26a3.05,3.05,0,0,0-.3,1.24c0,.38,0,.72-.53.79a.83.83,0,0,1-.93-.52c-.95-1.61-1.13-3.49-1.84-5.18s-1.08-3.16-1.64-4.74c-.73-2-1.44-4.12-2.24-6.15-1-2.54-1.49-5.25-2.82-7.67a2.6,2.6,0,0,0-2.61-.55c-.63.48-.15,1,0,1.56,1.15,3.73,2.71,7.31,4.1,10.94,1.11,2.9,2.22,5.82,3.46,8.69.71,1.65,1.7,3.38,1.62,5.34a5.11,5.11,0,0,1-1.17-2.43c-2.48-6.32-4.89-12.68-7.31-19-.57-1.49-1.06-3-1.68-4.45-.42-1-.06-1.15.84-1.17,3.14-.09,3.08-.09,4.09,2.86,1.59,4.62,3.28,9.21,4.91,13.82C43.31,45.8,44,48,44.79,50.24c.14.4.21,1,.69,1s.41-.63.54-1Q50,39.5,53.89,28.75c.67-1.84.68-1.84,2.67-1.84s2.08,0,1.34,1.94q-3.1,8-6.2,16a4.09,4.09,0,0,0-.17.69A2.53,2.53,0,0,0,50.89,47a1.22,1.22,0,0,0-.31,1,12.55,12.55,0,0,0-1.49,3.82l-.2.47a3.79,3.79,0,0,0-.72,1.92c-.05,0-.06.07,0,.13a1,1,0,0,0-.4.82.23.23,0,0,0-.06.22,1.63,1.63,0,0,1-1.37.52c-1,0-2,0-2.93,0h0l-.26-.24h0a.83.83,0,0,0-.25-.73Z"/><path class="cls-5" d="M49.09,51.79A12.55,12.55,0,0,1,50.58,48C50.41,49.37,50.24,50.77,49.09,51.79Z"/><path class="cls-5" d="M43.39,55.83c1,0,2,0,2.93,0a1.63,1.63,0,0,0,1.37-.52c0,.28,0,.68-.32.68C46,56,44.69,56.39,43.39,55.83Z"/><path class="cls-5" d="M48.17,54.18a3.79,3.79,0,0,1,.72-1.92C49.37,53.17,48.67,53.63,48.17,54.18Z"/><path class="cls-5" d="M50.89,47a2.53,2.53,0,0,1,.64-1.45C51.38,46.06,52,46.89,50.89,47Z"/><path class="cls-5" d="M47.75,55.13a1,1,0,0,1,.4-.82C48.17,54.66,48.25,55,47.75,55.13Z"/><path class="cls-5" d="M42.91,54.88a.83.83,0,0,1,.25.73C42.88,55.43,42.91,55.15,42.91,54.88Z"/><path class="cls-5" d="M43.15,55.6l.26.24Z"/></g></g></svg>