<svg xmlns="http://www.w3.org/2000/svg" viewBox="0 0 271.88 82.8"><defs><style>.cls-1{fill:#0438ed;}.cls-2{fill:#fff;}</style></defs><title>Asset 42</title><g id="Layer_2" data-name="Layer 2"><g id="Layer_1-2" data-name="Layer 1"><rect class="cls-1" width="271.88" height="82.8" rx="14.4"/><path class="cls-2" d="M76.9,65l-2.6-.35-5.53-.78L62.57,63l-5.64-.79-5.29-.73c-.41-.06-.41-.06-.41-.58V42.8c0-.51,0-.49.46-.49h24.8c.48,0,.48,0,.48.48V64.56A.81.81,0,0,1,76.9,65Z"/><path class="cls-2" d="M76.9,17.78a1.15,1.15,0,0,1,.07.56V40c0,.59,0,.55-.55.55H51.61c-.37,0-.37,0-.38-.36,0-.1,0-.21,0-.31V22c0-.63,0-.62.62-.7l7.16-1,6.25-.87,7-1Z"/><path class="cls-2" d="M49.29,21.58a1.79,1.79,0,0,1,0,.6V39.92c0,.65.09.61-.59.61H30.33c-.76,0-.64,0-.64-.63V24.77c0-.49,0-.48.5-.55l9.46-1.33,9.51-1.32Z"/><path class="cls-2" d="M49.33,61.24,47.52,61l-7.1-1-7-1-3.25-.45c-.47-.06-.48,0-.48-.52V42.72c0-.47,0-.47.49-.47h19a.17.17,0,0,1,.18.19c0,.12,0,.24,0,.36q0,9,0,17.9A1,1,0,0,1,49.33,61.24Z"/><path class="cls-2" d="M109.66,33.17c-.13.45-.25.84-.36,1.24q-2.92,10.34-5.84,20.68c-.17.59-.15.5-.67.5H99.9c-.43,0-.43.1-.6-.46q-1.41-4.86-2.83-9.71Q93.92,36.71,91.38,28a2,2,0,0,1-.16-.73c.1-.12.25-.07.38-.07h2.73c.47,0,.47,0,.59.45q1.47,5.25,2.92,10.51,1.72,6.18,3.44,12.37c0,.09,0,.17.08.27.21-.12.2-.33.25-.5l3.45-11.94,3.07-10.63a.83.83,0,0,0,0-.15c0-.29.19-.4.5-.39q1.23,0,2.46,0c.32,0,.42.12.49.4.51,1.91,1,3.81,1.56,5.72q2.34,8.53,4.67,17.09c.05.16,0,.36.23.48.33-1.24.66-2.46,1-3.69q2.57-9.71,5.15-19.41c.16-.58.16-.58.75-.58h3a1.32,1.32,0,0,1-.1.57l-7.71,27.29c-.18.64-.13.51-.71.52h-2.83c-.65,0-.51,0-.66-.5-.76-2.64-1.49-5.28-2.24-7.92q-1.89-6.73-3.79-13.48A1,1,0,0,0,109.66,33.17Z"/><path class="cls-2" d="M203.34,35.31c.75,0,1.52,0,2.28,0,.33,0,.73-.12,1,.06s.23.6.32.92q2,7.38,4,14.77a1.89,1.89,0,0,0,.2.56c.2-.11.21-.31.26-.47l2.28-7.42c.81-2.64,1.61-5.28,2.43-7.92.17-.55,0-.5.67-.5h2c.41,0,.41,0,.52.41l1.68,6.06q1.29,4.71,2.6,9.4c0,.16,0,.35.2.46a1,1,0,0,0,.23-.58q2.07-7.61,4.13-15.23c0-.1.06-.2.08-.3a.24.24,0,0,1,.25-.22h3c-.23.8-.45,1.54-.67,2.27q-2.61,8.74-5.24,17.48c0,.08-.06.16-.08.25s-.14.28-.36.28c-.94,0-1.89,0-2.83,0-.3,0-.33-.18-.39-.39q-.78-2.75-1.58-5.49c-.88-3.07-1.77-6.15-2.66-9.22a1.13,1.13,0,0,0-.21-.54.76.76,0,0,0-.18.41l-4.62,14.81c-.13.42-.14.42-.58.42h-2.36c-.46,0-.47,0-.6-.45l-2.63-8.69q-1.59-5.27-3.17-10.54A.8.8,0,0,1,203.34,35.31Z"/><path class="cls-2" d="M174.68,52.26c-.16.07-.2.23-.28.36a7.38,7.38,0,0,1-6,3.46,8.65,8.65,0,0,1-3.57-.46,7.92,7.92,0,0,1-4.65-4.77,11.65,11.65,0,0,1-.79-3.68,14.66,14.66,0,0,1,1-6.84,9.21,9.21,0,0,1,3.26-4.09,8.85,8.85,0,0,1,5.55-1.41,7.45,7.45,0,0,1,1.81.3,6.15,6.15,0,0,1,3.35,2.4l.34.49c.16-.16.09-.34.09-.5V26c0-.45,0-.45.47-.46h2.36c.42,0,.42,0,.43.44V54.94c0,.73.09.64-.64.65h-2.2c-.41,0-.41,0-.42-.4V52.51C174.74,52.43,174.78,52.34,174.68,52.26Zm0-7.23c0-.68,0-1.37,0-2.05a5.41,5.41,0,0,0-1.08-3.06,5.88,5.88,0,0,0-7.11-1.83,6,6,0,0,0-3.23,3.61,12,12,0,0,0-.6,5.33,8.52,8.52,0,0,0,.94,3.3,5.73,5.73,0,0,0,8.4,1.92,6.5,6.5,0,0,0,2.6-4.39A19.12,19.12,0,0,0,174.73,45Z"/><path class="cls-2" d="M202.11,45.32a12,12,0,0,1-1.39,6A9.07,9.07,0,0,1,193.51,56a11.61,11.61,0,0,1-4.73-.34,8.54,8.54,0,0,1-5.71-5.11A12.72,12.72,0,0,1,183.34,40a8.7,8.7,0,0,1,6.87-5,12.33,12.33,0,0,1,5.06.13,8.47,8.47,0,0,1,6.25,6A13.67,13.67,0,0,1,202.11,45.32Zm-9.88,8h.36A5.73,5.73,0,0,0,198.28,49a11.06,11.06,0,0,0,.45-2.63,12.07,12.07,0,0,0-.48-4.51,5.54,5.54,0,0,0-3.06-3.66,7.09,7.09,0,0,0-5.91,0,6.06,6.06,0,0,0-3.4,4.16,11.8,11.8,0,0,0-.19,5.51,6.82,6.82,0,0,0,1.86,3.63A6.27,6.27,0,0,0,192.23,53.29Z"/><path class="cls-2" d="M142.06,38.57a15,15,0,0,1,1.77-2,7.38,7.38,0,0,1,5.46-1.74,6.86,6.86,0,0,1,2.44.54,6.06,6.06,0,0,1,3.37,3.94,11.58,11.58,0,0,1,.53,3.51V55.1a.85.85,0,0,0,0,.16c0,.25-.08.34-.33.33-.7,0-1.4,0-2.1,0s-.83,0-.83-.83V44a10.92,10.92,0,0,0-.44-3.31,3.92,3.92,0,0,0-2.54-2.8A5.14,5.14,0,0,0,144.07,39a6.33,6.33,0,0,0-2,4.43c0,.26,0,.52,0,.78V54.94c0,.12,0,.25,0,.37s-.07.28-.27.28h-2.73c-.17,0-.27-.06-.26-.24s0-.25,0-.37V35.71c0-.39,0-.4.42-.4h2.46c.37,0,.38,0,.38.39v2.87Z"/><path class="cls-2" d="M244.33,38.94c-.13,0-.21-.08-.31-.14a7.64,7.64,0,0,0-4.6-1.18,3.91,3.91,0,0,0-2.2.77,2.86,2.86,0,0,0,.12,4.39A17.15,17.15,0,0,0,239.7,44a19,19,0,0,1,2.68,1.32,8,8,0,0,1,1.54,1.17,4.84,4.84,0,0,1,1.4,3.2,5.55,5.55,0,0,1-3.78,5.75,11.08,11.08,0,0,1-8.18-.33.77.77,0,0,1-.52-.84c0-.78,0-1.57,0-2.36,0-.15,0-.3,0-.45.22,0,.32.13.44.21a8.12,8.12,0,0,0,5.74,1.56,5.37,5.37,0,0,0,1.37-.33,2.67,2.67,0,0,0,.66-4.44,9.32,9.32,0,0,0-1.37-.87q-1-.55-2.07-1A13.61,13.61,0,0,1,234.87,45a4.84,4.84,0,0,1-2-3.79,5.67,5.67,0,0,1,4-5.9,9.76,9.76,0,0,1,7.13.28.4.4,0,0,1,.32.41c0,.94,0,1.89,0,2.83C244.38,38.89,244.35,38.91,244.33,38.94Z"/><path class="cls-2" d="M134,45.5v9.81c0,.19-.07.28-.27.28H131c-.19,0-.3-.06-.29-.27s0-.24,0-.37V36c0-.75,0-.64.64-.65h2.31c.24,0,.37.06.34.32s0,.25,0,.37Z"/><path class="cls-2" d="M132.22,30.8a2,2,0,0,1-2.1-2.12,2.14,2.14,0,1,1,2.1,2.12Z"/></g></g></svg>