<svg xmlns="http://www.w3.org/2000/svg" viewBox="0 0 284.84 82.8"><defs><style>.cls-1{fill:#0438ed;}.cls-2{fill:#fff;}</style></defs><title>Asset 68</title><g id="Layer_2" data-name="Layer 2"><g id="Layer_1-2" data-name="Layer 1"><rect class="cls-1" width="284.84" height="82.8" rx="14.4"/><path class="cls-2" d="M79.37,65l-2.59-.35-5.54-.78L65,63l-5.64-.79-5.28-.73c-.42-.06-.42-.06-.42-.58V42.8c0-.51,0-.49.46-.49H79c.47,0,.48,0,.48.48V64.56A.83.83,0,0,1,79.37,65Z"/><path class="cls-2" d="M79.38,17.78a1.15,1.15,0,0,1,.07.56V40c0,.59,0,.55-.56.55H54.09c-.37,0-.37,0-.39-.36V22c0-.63,0-.62.63-.7l7.16-1,6.25-.87,7-1Z"/><path class="cls-2" d="M51.76,21.58a1.58,1.58,0,0,1,.05.6V39.92c0,.65.09.61-.59.61H32.81c-.76,0-.64,0-.64-.63V24.77c0-.49,0-.48.5-.55l9.46-1.33,9.51-1.32Z"/><path class="cls-2" d="M51.8,61.24,50,61l-7.1-1-7-1-3.25-.45c-.47-.06-.47,0-.47-.52V42.72c0-.47,0-.47.48-.47h19a.17.17,0,0,1,.19.19V60.7A1,1,0,0,1,51.8,61.24Z"/><path class="cls-2" d="M121.14,33.17c-.13.45-.25.84-.36,1.24l-5.85,20.68c-.16.59-.15.5-.67.5h-2.88c-.44,0-.44.1-.6-.46q-1.41-4.86-2.84-9.71-2.53-8.72-5.09-17.41a2.5,2.5,0,0,1-.16-.73c.11-.12.26-.07.39-.07h2.73c.46,0,.47,0,.59.45q1.47,5.25,2.92,10.51,1.73,6.18,3.44,12.37c0,.09,0,.17.07.27.21-.12.2-.33.25-.5q1.74-6,3.46-11.94,1.53-5.31,3.07-10.63s0-.1,0-.15c0-.29.18-.4.49-.39.83,0,1.65,0,2.47,0,.31,0,.41.12.49.4.51,1.91,1,3.81,1.56,5.72q2.32,8.53,4.67,17.09c0,.16,0,.36.23.48.33-1.24.66-2.46,1-3.69l5.16-19.41c.15-.58.15-.58.75-.58h3a1.32,1.32,0,0,1-.1.57q-3.85,13.65-7.72,27.29c-.18.64-.12.51-.7.52h-2.83c-.65,0-.51,0-.67-.5q-1.12-4-2.23-7.92-1.89-6.73-3.8-13.48A.94.94,0,0,0,121.14,33.17Z"/><path class="cls-2" d="M214.81,35.31c.76,0,1.52,0,2.29,0,.33,0,.73-.12,1,.06s.23.6.31.92q2,7.38,4.05,14.77a1.89,1.89,0,0,0,.2.56c.2-.11.21-.31.26-.47l2.28-7.42c.81-2.64,1.61-5.28,2.42-7.92.17-.55.05-.5.68-.5h2c.42,0,.42,0,.53.41l1.68,6.06q1.29,4.71,2.6,9.4c0,.16,0,.35.2.46.18-.16.17-.38.23-.58q2.07-7.61,4.13-15.23c0-.1.06-.2.08-.3a.24.24,0,0,1,.25-.22h3c-.24.8-.45,1.54-.67,2.27l-5.24,17.48a1,1,0,0,0-.08.25c0,.21-.15.28-.36.28-.95,0-1.89,0-2.84,0-.29,0-.32-.18-.38-.39q-.79-2.75-1.58-5.49c-.89-3.07-1.77-6.15-2.66-9.22A1.13,1.13,0,0,0,229,40a.86.86,0,0,0-.19.41l-4.62,14.81c-.13.42-.13.42-.57.42h-2.37c-.46,0-.46,0-.6-.45-.87-2.9-1.75-5.79-2.62-8.69q-1.59-5.27-3.17-10.54A.8.8,0,0,1,214.81,35.31Z"/><path class="cls-2" d="M186.15,52.26c-.15.07-.19.23-.27.36a7.38,7.38,0,0,1-6,3.46,8.65,8.65,0,0,1-3.57-.46,7.93,7.93,0,0,1-4.66-4.77,11.65,11.65,0,0,1-.79-3.68,14.66,14.66,0,0,1,1-6.84,9.15,9.15,0,0,1,3.26-4.09,8.81,8.81,0,0,1,5.54-1.41,7.37,7.37,0,0,1,1.81.3,6.11,6.11,0,0,1,3.35,2.4l.35.49c.16-.16.09-.34.09-.5V26c0-.45,0-.45.47-.46h2.36c.42,0,.42,0,.43.44V54.94c0,.73.09.64-.64.65h-2.21c-.4,0-.41,0-.41-.4V52.51C186.22,52.43,186.25,52.34,186.15,52.26Zm.06-7.23c0-.68,0-1.37,0-2.05a5.42,5.42,0,0,0-1.09-3.06,5.86,5.86,0,0,0-7.1-1.83,6,6,0,0,0-3.24,3.61,12.19,12.19,0,0,0-.59,5.33,8.35,8.35,0,0,0,.94,3.3,5.73,5.73,0,0,0,8.4,1.92,6.45,6.45,0,0,0,2.59-4.39A17.86,17.86,0,0,0,186.21,45Z"/><path class="cls-2" d="M213.59,45.32a11.88,11.88,0,0,1-1.4,6A9,9,0,0,1,205,56a11.62,11.62,0,0,1-4.73-.34,8.5,8.5,0,0,1-5.7-5.11A12.75,12.75,0,0,1,194.81,40a8.73,8.73,0,0,1,6.88-5,12.27,12.27,0,0,1,5.05.13,8.49,8.49,0,0,1,6.26,6A14.33,14.33,0,0,1,213.59,45.32Zm-9.89,8h.37A5.74,5.74,0,0,0,209.76,49a11.06,11.06,0,0,0,.45-2.63,12.07,12.07,0,0,0-.48-4.51,5.55,5.55,0,0,0-3.07-3.66,7.07,7.07,0,0,0-5.9,0,6.06,6.06,0,0,0-3.4,4.16,11.8,11.8,0,0,0-.19,5.51A6.69,6.69,0,0,0,199,51.52,6.24,6.24,0,0,0,203.7,53.29Z"/><path class="cls-2" d="M153.54,38.57a13.67,13.67,0,0,1,1.77-2,7.37,7.37,0,0,1,5.45-1.74,6.87,6.87,0,0,1,2.45.54,6,6,0,0,1,3.36,3.94,11,11,0,0,1,.53,3.51c0,4.09,0,8.19,0,12.28v.16c0,.25-.07.34-.32.33-.7,0-1.4,0-2.1,0s-.83,0-.83-.83c0-3.58,0-7.17,0-10.76a10.63,10.63,0,0,0-.45-3.31,3.91,3.91,0,0,0-2.53-2.8A5.14,5.14,0,0,0,155.55,39a6.29,6.29,0,0,0-2,4.43c0,.26,0,.52,0,.78V54.94c0,.12,0,.25,0,.37s-.07.28-.28.28h-2.73c-.17,0-.26-.06-.25-.24s0-.25,0-.37V35.71c0-.39,0-.4.41-.4h2.47c.37,0,.37,0,.38.39v2.87Z"/><path class="cls-2" d="M255.81,38.94c-.14,0-.22-.08-.32-.14a7.62,7.62,0,0,0-4.6-1.18,3.9,3.9,0,0,0-2.19.77,2.86,2.86,0,0,0,.11,4.39A17.87,17.87,0,0,0,251.18,44a19.59,19.59,0,0,1,2.68,1.32,8.69,8.69,0,0,1,1.54,1.17,4.78,4.78,0,0,1,1.39,3.2A5.53,5.53,0,0,1,253,55.47a11.08,11.08,0,0,1-8.18-.33.76.76,0,0,1-.52-.84c0-.78,0-1.57,0-2.36,0-.15,0-.3,0-.45.23,0,.32.13.44.21a8.16,8.16,0,0,0,5.75,1.56,5.37,5.37,0,0,0,1.37-.33,2.67,2.67,0,0,0,.66-4.44,9.88,9.88,0,0,0-1.37-.87q-1-.55-2.07-1A13.35,13.35,0,0,1,246.35,45a4.84,4.84,0,0,1-1.95-3.79,5.65,5.65,0,0,1,4-5.9,9.73,9.73,0,0,1,7.12.28c.19.07.33.16.33.41,0,.94,0,1.89,0,2.83C255.86,38.89,255.83,38.91,255.81,38.94Z"/><path class="cls-2" d="M145.43,45.5v9.44c0,.12,0,.24,0,.37s-.07.28-.27.28h-2.73c-.2,0-.3-.06-.29-.27V36c0-.75,0-.64.64-.65h2.31c.24,0,.37.06.34.32s0,.25,0,.37Z"/><path class="cls-2" d="M143.7,30.8a2,2,0,0,1-2.1-2.12,2.14,2.14,0,1,1,2.1,2.12Z"/></g></g></svg>