<svg xmlns="http://www.w3.org/2000/svg" viewBox="0 0 252.56 82.8"><defs><style>.cls-1{fill:#0438ed;}.cls-2{fill:#fff;}</style></defs><title>Asset 34</title><g id="Layer_2" data-name="Layer 2"><g id="Layer_1-2" data-name="Layer 1"><rect class="cls-1" width="252.56" height="82.8" rx="14.4"/><path class="cls-2" d="M67.24,65l-2.59-.35-5.54-.78L52.91,63l-5.64-.79L42,61.51c-.42-.06-.42-.06-.42-.58V42.8c0-.51,0-.49.46-.49H66.84c.47,0,.47,0,.48.48q0,10.88,0,21.77A.81.81,0,0,1,67.24,65Z"/><path class="cls-2" d="M67.25,17.78a1.13,1.13,0,0,1,.06.56q0,10.79,0,21.56V40c0,.59,0,.55-.56.55H42c-.37,0-.38,0-.39-.36V22c0-.63,0-.62.63-.7l7.16-1,6.25-.87,7-1Z"/><path class="cls-2" d="M39.63,21.58a1.58,1.58,0,0,1,0,.6V39.92c0,.65.09.61-.6.61H20.67c-.75,0-.63,0-.63-.63,0-5,0-10,0-15a.75.75,0,0,1,0-.15c0-.49,0-.48.5-.55L30,22.89l9.51-1.32Z"/><path class="cls-2" d="M39.67,61.24,37.87,61l-7.11-1-7-1-3.25-.45c-.47-.06-.47,0-.47-.52q0-7.66,0-15.33c0-.47,0-.47.48-.47h19a.17.17,0,0,1,.19.19V60.7A1,1,0,0,1,39.67,61.24Z"/><path class="cls-2" d="M100,33.17c-.13.45-.25.84-.36,1.24L93.8,55.09c-.17.59-.15.5-.67.5H90.24c-.43,0-.43.1-.59-.46q-1.41-4.86-2.84-9.71Q84.28,36.71,81.72,28a2,2,0,0,1-.16-.73c.11-.12.26-.07.39-.07h2.73c.46,0,.46,0,.59.45q1.45,5.25,2.92,10.51,1.73,6.18,3.44,12.37c0,.09,0,.17.07.27.21-.12.2-.33.25-.5,1.16-4,2.3-8,3.45-11.94q1.55-5.31,3.08-10.63a.8.8,0,0,0,0-.15c0-.29.19-.4.5-.39.82,0,1.65,0,2.47,0,.31,0,.41.12.49.4.51,1.91,1,3.81,1.55,5.72l4.68,17.09c0,.16,0,.36.23.48.33-1.24.65-2.46,1-3.69q2.58-9.71,5.15-19.41c.16-.58.16-.58.76-.58h3a1.19,1.19,0,0,1-.1.57q-3.84,13.65-7.71,27.29c-.18.64-.13.51-.7.52h-2.84c-.65,0-.51,0-.66-.5q-1.12-4-2.23-7.92-1.89-6.73-3.8-13.48A1,1,0,0,0,100,33.17Z"/><path class="cls-2" d="M193.68,35.31c.75,0,1.52,0,2.29,0,.33,0,.72-.12,1,.06s.23.6.32.92l4.05,14.77a1.89,1.89,0,0,0,.2.56c.19-.11.2-.31.26-.47q1.14-3.72,2.27-7.42l2.43-7.92c.17-.55.05-.5.67-.5h2.05c.41,0,.42,0,.53.41q.84,3,1.67,6.06,1.31,4.71,2.6,9.4c0,.16,0,.35.21.46.18-.16.17-.38.23-.58q2.07-7.61,4.12-15.23c0-.1.07-.2.09-.3a.24.24,0,0,1,.25-.22h3c-.24.8-.45,1.54-.67,2.27q-2.62,8.74-5.24,17.48a1,1,0,0,0-.08.25c0,.21-.15.28-.36.28-.95,0-1.89,0-2.84,0-.29,0-.33-.18-.38-.39q-.79-2.75-1.58-5.49c-.89-3.07-1.77-6.15-2.66-9.22a1.06,1.06,0,0,0-.22-.54,1,1,0,0,0-.18.41l-4.62,14.81c-.13.42-.13.42-.58.42h-2.36c-.46,0-.46,0-.6-.45-.87-2.9-1.75-5.79-2.62-8.69l-3.18-10.54A.85.85,0,0,1,193.68,35.31Z"/><path class="cls-2" d="M165,52.26c-.15.07-.2.23-.28.36a7.37,7.37,0,0,1-6,3.46,8.62,8.62,0,0,1-3.56-.46,7.91,7.91,0,0,1-4.66-4.77,11.65,11.65,0,0,1-.79-3.68,14.79,14.79,0,0,1,1-6.84A9.17,9.17,0,0,1,154,36.24a8.81,8.81,0,0,1,5.54-1.41,7.45,7.45,0,0,1,1.81.3,6.11,6.11,0,0,1,3.35,2.4L165,38c.15-.16.08-.34.08-.5,0-3.73,0-7.45,0-11.18V26c0-.45,0-.45.47-.46h2.36c.42,0,.42,0,.43.44v.21q0,14.36,0,28.72c0,.73.1.64-.63.65H165.5c-.4,0-.41,0-.41-.4V52.51C165.09,52.43,165.12,52.34,165,52.26Zm.06-7.23c0-.68,0-1.37,0-2.05A5.5,5.5,0,0,0,164,39.92a5.87,5.87,0,0,0-7.11-1.83,6,6,0,0,0-3.23,3.61,12,12,0,0,0-.59,5.33,8.35,8.35,0,0,0,.94,3.3,5.73,5.73,0,0,0,8.4,1.92A6.49,6.49,0,0,0,165,47.86,17.86,17.86,0,0,0,165.08,45Z"/><path class="cls-2" d="M192.45,45.32a12,12,0,0,1-1.39,6A9.07,9.07,0,0,1,183.85,56a11.62,11.62,0,0,1-4.73-.34,8.5,8.5,0,0,1-5.7-5.11A12.72,12.72,0,0,1,173.68,40a8.72,8.72,0,0,1,6.88-5,12.28,12.28,0,0,1,5.05.13,8.49,8.49,0,0,1,6.26,6A14,14,0,0,1,192.45,45.32Zm-9.88,8h.37A5.72,5.72,0,0,0,188.62,49a10.58,10.58,0,0,0,.45-2.63,12.07,12.07,0,0,0-.47-4.51,5.55,5.55,0,0,0-3.07-3.66,7.07,7.07,0,0,0-5.9,0,6,6,0,0,0-3.4,4.16,11.8,11.8,0,0,0-.2,5.51,6.77,6.77,0,0,0,1.87,3.63A6.23,6.23,0,0,0,182.57,53.29Z"/><path class="cls-2" d="M132.4,38.57a14.34,14.34,0,0,1,1.78-2,7.36,7.36,0,0,1,5.45-1.74,6.92,6.92,0,0,1,2.45.54,6,6,0,0,1,3.36,3.94,11.28,11.28,0,0,1,.53,3.51V55.26c0,.25-.07.34-.33.33-.7,0-1.4,0-2.1,0s-.83,0-.83-.83q0-5.37,0-10.76a10.63,10.63,0,0,0-.45-3.31,3.9,3.9,0,0,0-2.54-2.8A5.15,5.15,0,0,0,134.41,39a6.32,6.32,0,0,0-2,4.43c0,.26,0,.52,0,.78q0,5.35,0,10.71c0,.12,0,.25,0,.37s-.08.28-.28.28H129.4c-.17,0-.26-.06-.25-.24V35.71c0-.39,0-.4.41-.4H132c.36,0,.37,0,.37.39,0,.79,0,1.58,0,2.36Z"/><path class="cls-2" d="M234.68,38.94c-.14,0-.22-.08-.32-.14a7.62,7.62,0,0,0-4.6-1.18,3.88,3.88,0,0,0-2.19.77,2.86,2.86,0,0,0,.11,4.39A17.87,17.87,0,0,0,230.05,44a20.17,20.17,0,0,1,2.68,1.32,8.69,8.69,0,0,1,1.54,1.17,4.78,4.78,0,0,1,1.39,3.2,5.54,5.54,0,0,1-3.77,5.75,11.08,11.08,0,0,1-8.18-.33.77.77,0,0,1-.53-.84c0-.78,0-1.57,0-2.36,0-.15,0-.3,0-.45.22,0,.32.13.44.21a8.15,8.15,0,0,0,5.74,1.56,5.45,5.45,0,0,0,1.38-.33,2.68,2.68,0,0,0,.66-4.44,9.88,9.88,0,0,0-1.37-.87c-.68-.37-1.37-.71-2.08-1A13.27,13.27,0,0,1,225.22,45a4.81,4.81,0,0,1-1.95-3.79,5.65,5.65,0,0,1,4-5.9,9.74,9.74,0,0,1,7.12.28c.19.07.33.16.32.41,0,.94,0,1.89,0,2.83C234.73,38.89,234.7,38.91,234.68,38.94Z"/><path class="cls-2" d="M124.3,45.5v9.44c0,.12,0,.24,0,.37s-.07.28-.28.28H121.3c-.2,0-.3-.06-.29-.27V36c0-.75-.05-.64.64-.65H124c.23,0,.36.06.34.32s0,.25,0,.37Z"/><path class="cls-2" d="M122.57,30.8a2,2,0,0,1-2.1-2.12,2.14,2.14,0,1,1,2.1,2.12Z"/></g></g></svg>